<svg version="1.1" xmlns="http://www.w3.org/2000/svg" shape-rendering="crispEdges" width="24" height="24"
     viewBox="0 0 24 24"><path fill="rgb(0,0,0)" d="M11,5h2v1h-2ZM9,6h2v1h-2ZM13,6h3v1h-3ZM8,7h1v1h-1ZM16,7h1v2h-1ZM7,8h1v4h-1ZM10,9h1v2h-1ZM13,9h3v1h-3ZM13,10h2v1h-2ZM15,11h1v1h-1ZM8,12h1v1h-1ZM16,12h1v4h-1ZM9,13h2v1h-2ZM13,13h1v2h-1ZM8,14h3v1h-3ZM7,15h1v2h-1ZM15,16h1v1h-1ZM8,17h3v1h-3ZM13,17h2v1h-2ZM11,18h2v1h-2Z"/><path fill="rgb(239,214,7)" d="M11,6h2v1h-2ZM9,7h7v1h-7ZM8,8h8v1h-8ZM8,9h2v2h-2ZM11,9h2v2h-2ZM8,11h7v1h-7ZM9,12h7v1h-7ZM11,13h2v2h-2ZM14,13h2v2h-2ZM8,15h8v1h-8ZM8,16h7v1h-7ZM11,17h2v1h-2Z"/></svg>
