<?xml version="1.0" encoding="utf-8"?>
<!-- Generator: Adobe Illustrator 22.1.0, SVG Export Plug-In . SVG Version: 6.00 Build 0)  -->
<svg version="1.1" id="Layer_1" shape-rendering="crispEdges"
	 xmlns="http://www.w3.org/2000/svg" xmlns:xlink="http://www.w3.org/1999/xlink" x="0px" y="0px" viewBox="0 0 16 24"
	 xml:space="preserve">
<path fill="#333" d="M7,5h2v1H7V5z M5,6h2v1H5V6z M9,6h3v1H9V6z M4,7h1v1H4V7z M12,7h1v2h-1V7z M3,8h1v4H3V8z M6,9h1v2H6V9z M9,9h3v1H9V9z M9,10
	h2v1H9V10z M11,11h1v1h-1V11z M4,12h1v1H4V12z M12,12h1v4h-1V12z M5,13h2v1H5V13z M9,13h1v2H9V13z M4,14h3v1H4V14z M3,15h1v2H3V15z
	 M11,16h1v1h-1V16z M4,17h3v1H4V17z M9,17h2v1H9V17z M7,18h2v1H7V18z"/>
<path fill="#EFD607" d="M7,6h2v1H7V6z M5,7h7v1H5V7z M4,8h8v1H4V8z M4,9h2v2H4V9z M7,9h2v2H7V9z M4,11h7v1H4V11z M5,12h7v1H5V12z M7,13
	h2v2H7V13z M10,13h2v2h-2V13z M4,15h8v1H4V15z M4,16h7v1H4V16z M7,17h2v1H7V17z"/>
</svg>
