<?xml version="1.0" encoding="utf-8"?>
<!-- Generator: Adobe Illustrator 22.1.0, SVG Export Plug-In . SVG Version: 6.00 Build 0)  -->
<svg version="1.1" id="Layer_1" shape-rendering="crispEdges"
	 xmlns="http://www.w3.org/2000/svg" xmlns:xlink="http://www.w3.org/1999/xlink" x="0px" y="0px" viewBox="0 0 24 24"
	 style="enable-background:new 0 0 24 24;" xml:space="preserve">
<style type="text/css">
	.st0{fill:#B75A00;}
	.st1{fill:#5D350D;}
	.st2{fill:#F99833;}
	.st3{fill:#FFCC65;}
	.st4{fill:#FFF59B;}
	.st5{fill:#9AA0B0;}
	.st6{fill:#FFFFFF;}
	.st7{fill:#4C5F72;}
	.st8{fill:#A10070;}
	.st9{fill:#F1F2F2;}
	.st10{fill:#CCCCCD;}
	.st11{fill:#29323E;}
	.st12{fill:#5F0578;}
	.st13{fill:#DB2471;}
</style>
<path class="st0" d="M12,2H9V1h3V2z M14,3h-2V2h2V3z M15,4h-1V3h1V4z M13,5h-1V4h1V5z M7,5H6V4h1V5z M5,5H4V4h1V5z M14,6h-4V5h4V6z
	 M6,6H5V5h1V6z M15,8h-1V6h1V8z M5,7H4V6h1V7z M7,8H6V7h1V8z M20,16h-3v-1h3V16z M17,17h-1v-1h1V17z M16,19h-1v-2h1V19z"/>
<path class="st1" d="M9,2H7V1h2V2z M7,3H6V2h1V3z M16,6h-1V4h1V6z M12,5h-2V4h2V5z M10,6H8V5h2V6z M14,7h-2V6h2V7z M10,7H6V6h4V7z
	 M6,8H4V7h2V8z M6,9H5V8h1V9z M7,10H6V9h1V10z M8,11H7v-1h1V11z M11,12H8v-1h3V12z M7,18H6v-5h1V18z M20,17h-1v-1h1V17z M6,20H5v-1
	h1V20z M5,21H4v-1h1V21z"/>
<path class="st2" d="M12,3h-1V2h1V3z M10,3H8V2h2V3z M14,4h-1V3h1V4z M8,4H7V3h1V4z M6,4H5V3h1V4z M15,5h-2V4h2V5z M15,6h-1V5h1V6z
	 M5,6H4V5h1V6z M12,8h-2V6h2V8z M6,7H5V6h1V7z M7,9H6V8h1V9z M13,11h-1v-1h1V11z M9,11H8v-1h1V11z"/>
<path class="st3" d="M11,3h-1V2h1V3z M8,3H7V2h1V3z M13,4h-3V3h3V4z M7,4H6V3h1V4z M10,5H8V4h2V5z M6,5H5V4h1V5z M8,6H7V5h1V6z
	 M6,19H5v-3h1V19z M2,19H1v-3h1V19z M17,19h-1v-1h1V19z M5,20H4v-1h1V20z M3,20H2v-1h1V20z M4,21H3v-1h1V21z"/>
<path d="M6,3H5V2h1V3z M5,4H4V3h1V4z M4,8H3V4h1V8z M16,8h-1V6h1V8z M13,9h-1V7h1V9z M10,9H8V7h2V9z M15,10h-1V8h1V10z M5,9H4V8h1V9
	z M6,10H5V9h1V10z M14,11h-1v-1h1V11z M18,12h-1v-1h1V12z M13,12h-2v-1h2V12z M2,12H1v-1h1V12z M17,13h-1v-1h1V13z M7,13H0l0-1h7V13
	z M16,14h-1v-1h1V14z M1,19H0l0-6h1V19z M17,15h-1v-1h1V15z M14,15h-1v-1h1V15z M9,17H7v-1h2V17z M20,18h-1v-1h1V18z M15,19h-1v-2h1
	V19z M18,20h-4v-1h4V20z M2,20H1v-1h1V20z M19,21h-1v-1h1V21z M15,21h-1v-1h1V21z M11,22H8v-2h3V22z M3,21H2v-1h1V21z M20,22h-1v-1
	h1V22z M16,22h-1v-1h1V22z M4,23H1v-2h3V23z M24,23h-1v-1h1V23z M21,23h-1v-1h1V23z M16,23H8v-1h8V23z M24,24h-3v-1h3V24z M14,24H3
	v-1h11V24z"/>
<path class="st4" d="M10,4H8V3h2V4z M8,5H7V4h1V5z M7,6H6V5h1V6z M12,10h-2V8h2V10z M14,10h-1V9h1V10z M12,11H9v-1h3V11z M6,14H1v-1
	h5V14z M6,16H5v-2h1V16z M2,16H1v-2h1V16z M19,17h-2v-1h2V17z M17,18h-1v-1h1V18z"/>
<path class="st5" d="M14,8h-1V7h1V8z M8,8H7V7h1V8z M15,12h-1v-2h1V12z M6,11H5v-1h1V11z M4,11H3v-1h1V11z M7,12H6v-1h1V12z M3,12H2
	v-1h1V12z M13,13h-1v-1h1V13z M9,13H8v-1h1V13z M15,16h-1v-1h1V16z M13,16h-1v-1h1V16z M9,16H8v-1h1V16z M18,18h-1v-1h1V18z M19,19
	h-1v-1h1V19z M20,20h-1v-1h1V20z M21,21h-1v-1h1V21z M22,22h-1v-1h1V22z M12,22h-1v-1h1V22z"/>
<path class="st6" d="M14,9h-1V8h1V9z M8,10H7V8h1V10z"/>
<path class="st7" d="M16,10h-1V9h1V10z M5,10H3V9h2V10z M17,11h-1v-1h1V11z M7,11H6v-1h1V11z M3,11H2v-1h1V11z M8,12H7v-1h1V12z
	 M14,13h-1v-1h1V13z M15,14h-1v-1h1V14z M13,14H8v-1h5V14z M16,15h-2v-1h2V15z M15,17h-1v-1h1V17z M12,17H9v-1h3V17z M19,18h-1v-1h1
	V18z M21,19h-1v-1h1V19z M18,19h-1v-1h1V19z M14,19h-1v-1h1V19z M22,20h-1v-1h1V20z M23,21h-1v-1h1V21z M14,21h-1v-1h1V21z M7,21H5
	v-1h2V21z M24,22h-1v-1h1V22z M15,22h-1v-1h1V22z M8,22H7v-1h1V22z M5,22H4v-1h1V22z"/>
<path class="st8" d="M13,10h-1V9h1V10z M10,10H8V9h2V10z M5,19H4v-4h1V19z M3,19H2v-4h1V19z M13,19H8v-2h5V19z M4,20H3v-1h1V20z"/>
<path class="st9" d="M16,11h-1v-1h1V11z M5,11H4v-1h1V11z M17,12h-1v-1h1V12z M4,12H3v-1h1V12z M12,15H9v-1h3V15z M16,16h-1v-1h1V16
	z M20,19h-1v-1h1V19z M21,20h-1v-1h1V20z M14,20h-1v-1h1V20z M22,21h-1v-1h1V21z M13,21h-1v-1h1V21z M23,23h-1v-2h1V23z M7,23H5v-1
	h2V23z"/>
<path class="st10" d="M16,12h-1v-1h1V12z M6,12H4v-1h2V12z M12,13H9v-1h3V13z M13,15h-1v-1h1V15z M9,15H8v-1h1V15z M17,16h-1v-1h1
	V16z M12,16H9v-1h3V16z M16,17h-1v-1h1V17z M19,20h-1v-1h1V20z M13,20h-1v-1h1V20z M7,20H6v-1h1V20z M20,21h-1v-1h1V21z M12,21h-1
	v-1h1V21z M21,22h-1v-1h1V22z M14,22h-2v-1h2V22z M7,22H5v-1h2V22z M22,23h-1v-1h1V23z"/>
<path class="st11" d="M14,12h-1v-1h1V12z M16,13h-2v-1h2V13z M8,13H7v-1h1V13z M14,14h-1v-1h1V14z M14,16h-1v-1h1V16z M14,17h-2v-1
	h2V17z M7,19H6v-1h1V19z M12,20h-1v-1h1V20z M8,21H7v-2h1V21z M8,23H7v-1h1V23z M5,23H4v-1h1V23z"/>
<path class="st12" d="M8,16H7v-3h1V16z M5,15H2v-1h3V15z M14,18h-1v-1h1V18z M8,19H7v-2h1V19z M11,20H8v-1h3V20z"/>
<path class="st13" d="M4,19H3v-4h1V19z"/>
</svg>
