<svg version="1.1" xmlns="http://www.w3.org/2000/svg" xmlns:xlink="http://www.w3.org/1999/xlink" shape-rendering="crispEdges" width="24" height="24" viewBox="0 0 24 24"><path fill="rgb(93,53,13)" d="M9,0h2v1h-2ZM8,1h1v1h-1ZM7,2h1v2h-1ZM9,2h1v1h-1ZM6,4h1v2h-1ZM8,4h1v1h-1ZM15,5h1v1h-1ZM10,6h2v1h-2ZM15,6h2v1h-2ZM14,7h2v1h-2ZM17,7h1v1h-1ZM13,8h1v1h-1ZM9,9h1v1h-1ZM18,9h1v1h-1ZM10,10h1v1h-1ZM14,11h1v1h-1ZM9,12h1v1h-1ZM17,13h3v1h-3ZM8,15h1v1h-1ZM11,15h1v1h-1ZM12,16h2v1h-2ZM15,16h1v1h-1ZM9,17h1v1h-1Z"/><path fill="rgb(171,132,81)" d="M9,1h1v1h-1ZM8,2h1v2h-1ZM7,4h1v2h-1ZM7,14h1v2h-1ZM8,16h1v2h-1ZM11,17h2v1h-2ZM9,18h1v1h-1Z"/><path fill="rgb(143,78,20)" d="M10,1h1v1h-1ZM9,3h1v1h-1ZM8,5h1v1h-1ZM14,10h1v1h-1ZM16,12h1v1h-1ZM8,14h1v1h-1ZM12,15h2v1h-2ZM9,16h1v1h-1Z"/><path fill="rgb(154,160,176)" d="M10,2h2v1h-2ZM10,5h1v1h-1ZM16,5h2v1h-2ZM17,6h2v1h-2ZM10,7h1v1h-1ZM18,7h2v2h-2ZM4,10h1v1h-1ZM10,15h1v1h-1Z"/><path fill="rgb(0,22,48)" d="M12,2h2v1h-2ZM17,2h2v1h-2ZM11,3h1v1h-1ZM19,3h1v1h-1ZM10,4h1v1h-1ZM20,4h1v1h-1ZM19,6h1v1h-1ZM20,7h1v2h-1ZM12,10h1v1h-1ZM16,10h1v1h-1ZM21,11h1v1h-1ZM12,13h1v1h-1ZM15,13h1v3h-1ZM13,14h1v1h-1Z"/><path fill="rgb(0,43,75)" d="M14,2h3v1h-3ZM17,4h1v1h-1ZM18,5h3v1h-3ZM20,6h1v1h-1ZM21,7h1v4h-1ZM11,8h1v1h-1ZM13,11h1v1h-1ZM13,13h2v1h-2ZM14,14h1v1h-1Z"/><path fill="rgb(241,242,242)" d="M12,3h4v1h-4ZM4,8h1v1h-1ZM3,9h1v1h-1ZM10,14h1v1h-1ZM9,15h1v1h-1Z"/><path fill="rgb(0,65,114)" d="M16,3h3v1h-3ZM18,4h2v1h-2ZM12,11h1v1h-1ZM12,12h3v1h-3Z"/><path fill="rgb(204,204,205)" d="M11,4h1v1h-1ZM15,4h2v1h-2ZM10,18h1v1h-1ZM11,19h1v1h-1ZM10,21h2v1h-2Z"/><path fill="rgb(0,0,0)" d="M12,4h3v1h-3ZM9,5h1v4h-1ZM11,5h1v1h-1ZM21,5h1v2h-1ZM6,7h1v2h-1ZM11,7h1v1h-1ZM22,7h1v5h-1ZM5,9h1v2h-1ZM8,9h1v1h-1ZM10,9h1v1h-1ZM3,10h1v1h-1ZM11,10h1v1h-1ZM13,10h1v1h-1ZM15,10h1v1h-1ZM4,11h2v1h-2ZM16,11h1v1h-1ZM6,12h3v1h-3ZM15,12h1v1h-1ZM20,12h2v1h-2ZM9,13h3v1h-3ZM16,13h1v2h-1ZM20,13h1v1h-1ZM6,14h1v2h-1ZM12,14h1v1h-1ZM19,14h1v2h-1ZM14,15h1v2h-1ZM7,16h1v2h-1ZM11,16h1v1h-1ZM18,16h1v1h-1ZM10,17h1v1h-1ZM15,17h3v1h-3ZM8,18h1v1h-1ZM14,18h2v1h-2ZM18,18h1v1h-1ZM9,19h1v1h-1ZM12,19h4v1h-4ZM19,19h1v1h-1ZM7,20h3v1h-3ZM13,20h3v1h-3ZM19,20h2v1h-2ZM6,21h3v1h-3ZM13,21h9v1h-9ZM7,22h14v1h-14ZM9,23h10v1h-10Z"/><path fill="rgb(183,90,0)" d="M12,5h3v1h-3ZM14,6h1v1h-1ZM14,8h2v1h-2ZM17,8h1v2h-1ZM6,9h2v1h-2ZM11,9h1v1h-1Z"/><path fill="rgb(140,14,31)" d="M6,6h2v1h-2ZM7,8h1v1h-1ZM19,9h2v1h-2ZM17,10h2v1h-2ZM17,11h1v1h-1ZM19,11h2v1h-2ZM6,13h1v1h-1Z"/><path fill="rgb(224,157,97)" d="M12,6h2v2h-2ZM16,7h1v1h-1ZM12,9h1v1h-1Z"/><path fill="rgb(41,50,62)" d="M4,7h1v1h-1ZM3,8h1v1h-1ZM5,8h1v1h-1ZM2,9h1v1h-1ZM16,19h3v1h-3Z"/><path fill="rgb(219,36,113)" d="M7,7h1v1h-1ZM19,10h2v1h-2ZM7,13h1v1h-1Z"/><path fill="rgb(255,255,255)" d="M10,8h1v1h-1Z"/><path fill="rgb(255,245,155)" d="M12,8h1v1h-1ZM16,8h1v1h-1ZM13,9h4v1h-4Z"/><path fill="rgb(116,128,146)" d="M4,9h1v1h-1ZM10,19h1v1h-1ZM12,20h1v2h-1ZM17,20h1v1h-1Z"/><path fill="rgb(254,236,186)" d="M6,10h1v1h-1Z"/><path fill="rgb(255,204,101)" d="M7,10h1v1h-1ZM6,11h2v1h-2ZM9,11h2v1h-2ZM10,12h1v1h-1Z"/><path fill="rgb(249,152,51)" d="M8,10h2v1h-2ZM8,11h1v1h-1ZM11,11h1v2h-1Z"/><path fill="rgb(171,107,48)" d="M15,11h1v1h-1ZM18,11h1v1h-1ZM17,12h3v1h-3ZM17,14h2v1h-2ZM16,15h3v1h-3ZM16,16h2v1h-2Z"/><path fill="rgb(138,102,56)" d="M13,17h2v1h-2ZM12,18h2v1h-2Z"/><path fill="rgb(76,95,114)" d="M11,18h1v1h-1ZM10,20h2v1h-2ZM16,20h1v1h-1ZM18,20h1v1h-1ZM9,21h1v1h-1Z"/><path fill="rgb(62,69,78)" d="M16,18h2v1h-2Z"/></svg>