<svg version="1.1" xmlns="http://www.w3.org/2000/svg" xmlns:xlink="http://www.w3.org/1999/xlink" shape-rendering="crispEdges" width="24" height="24" viewBox="0 0 24 24"><path fill="rgb(76,95,114)" d="M18,4h4v1h-4ZM17,5h1v1h-1ZM22,5h1v1h-1ZM23,6h1v1h-1ZM8,7h3v1h-3ZM21,7h1v2h-1ZM7,8h1v1h-1ZM2,11h3v1h-3ZM17,11h2v1h-2ZM1,12h1v1h-1ZM16,12h1v1h-1ZM0,13h1v1h-1ZM11,15h3v1h-3ZM1,16h1v1h-1ZM15,16h1v1h-1ZM2,17h1v1h-1ZM17,17h2v1h-2ZM10,20h1v1h-1ZM11,21h2v1h-2Z"/><path fill="rgb(204,204,205)" d="M18,5h4v2h-4ZM8,8h3v1h-3ZM3,12h1v1h-1ZM18,12h2v1h-2ZM1,13h3v1h-3ZM16,13h2v2h-2ZM1,14h2v1h-2ZM12,16h2v1h-2ZM10,17h2v2h-2Z"/><path fill="rgb(62,69,78)" d="M16,6h1v2h-1ZM11,7h1v1h-1ZM12,8h1v1h-1ZM19,11h2v1h-2ZM21,12h1v1h-1ZM15,13h1v2h-1ZM0,14h1v2h-1ZM14,15h1v1h-1ZM10,16h1v1h-1ZM16,16h1v1h-1ZM9,17h1v2h-1Z"/><path fill="rgb(154,160,176)" d="M17,6h1v2h-1ZM22,7h1v1h-1ZM11,8h1v1h-1ZM19,8h2v1h-2ZM10,9h1v1h-1ZM2,12h1v1h-1ZM17,12h1v1h-1ZM18,13h1v1h-1ZM1,15h2v1h-2ZM16,15h2v1h-2ZM2,16h1v1h-1ZM11,16h1v1h-1ZM17,16h1v1h-1ZM12,17h1v1h-1ZM10,19h2v1h-2ZM11,20h1v1h-1Z"/><path fill="rgb(116,128,146)" d="M22,6h1v1h-1ZM18,7h3v1h-3ZM18,8h1v1h-1ZM22,8h1v1h-1Z"/><path fill="rgb(41,50,62)" d="M23,7h1v1h-1ZM17,8h1v1h-1ZM18,9h5v1h-5Z"/><path fill="rgb(93,53,13)" d="M16,8h1v1h-1ZM7,9h3v1h-3ZM11,9h1v1h-1ZM11,10h3v1h-3ZM13,11h3v1h-3ZM7,12h1v1h-1ZM9,12h1v1h-1ZM20,12h1v1h-1ZM7,13h2v1h-2ZM19,13h3v1h-3ZM3,14h1v3h-1ZM6,14h2v2h-2ZM18,14h1v3h-1ZM21,14h1v2h-1ZM14,16h1v1h-1ZM20,16h2v1h-2ZM13,17h3v1h-3ZM19,17h2v1h-2ZM6,18h1v1h-1ZM12,18h1v3h-1ZM15,18h1v2h-1ZM14,20h2v1h-2ZM13,21h2v1h-2Z"/><path fill="rgb(0,0,0)" d="M23,8h1v2h-1ZM6,9h1v1h-1ZM12,9h2v1h-2ZM16,9h1v1h-1ZM5,10h1v2h-1ZM14,10h2v1h-2ZM22,10h1v1h-1ZM21,11h1v1h-1ZM4,12h1v2h-1ZM8,12h1v1h-1ZM15,12h1v1h-1ZM9,13h2v1h-2ZM22,13h1v4h-1ZM19,14h1v2h-1ZM15,15h1v1h-1ZM0,16h1v1h-1ZM0,17h2v1h-2ZM3,17h1v1h-1ZM16,17h1v1h-1ZM21,17h1v1h-1ZM2,18h4v1h-4ZM13,18h1v2h-1ZM16,18h5v1h-5ZM4,19h6v1h-6ZM16,19h3v1h-3ZM7,20h3v1h-3ZM16,20h1v1h-1ZM9,21h2v1h-2ZM15,21h1v1h-1ZM11,22h4v1h-4Z"/><path fill="rgb(195,163,107)" d="M17,9h1v1h-1ZM7,10h3v1h-3ZM18,10h4v1h-4ZM9,11h3v1h-3ZM12,12h3v1h-3ZM13,13h2v1h-2ZM13,14h1v1h-1ZM20,15h1v1h-1ZM4,16h2v1h-2ZM4,17h5v1h-5ZM7,18h2v1h-2ZM14,19h1v1h-1Z"/><path fill="rgb(138,102,56)" d="M6,10h1v1h-1ZM10,10h1v1h-1ZM12,11h1v1h-1ZM16,11h1v1h-1ZM10,12h1v1h-1ZM8,14h2v2h-2ZM20,14h1v1h-1ZM7,16h2v1h-2ZM19,16h1v1h-1ZM14,18h1v1h-1ZM13,20h1v1h-1Z"/><path fill="rgb(171,132,81)" d="M16,10h2v1h-2ZM8,11h1v1h-1ZM11,12h1v1h-1ZM14,14h1v1h-1ZM6,16h1v1h-1Z"/><path fill="rgb(219,36,113)" d="M6,11h2v1h-2ZM5,12h2v2h-2ZM11,13h2v2h-2Z"/><path fill="rgb(161,0,112)" d="M4,14h2v2h-2ZM10,14h1v2h-1ZM9,16h1v1h-1Z"/></svg>