<svg version="1.1" xmlns="http://www.w3.org/2000/svg" xmlns:xlink="http://www.w3.org/1999/xlink" shape-rendering="crispEdges" width="24" height="24" viewBox="0 0 24 24"><path fill="rgb(122,122,122)" d="M12,0h1v1h-1ZM7,8h1v2h-1ZM6,10h1v2h-1ZM5,12h1v2h-1ZM4,14h1v2h-1Z"/><path fill="rgb(162,162,162)" d="M11,1h1v1h-1ZM10,2h1v2h-1ZM9,4h1v2h-1ZM13,4h1v3h-1ZM8,6h1v2h-1ZM13,7h2v4h-2ZM16,8h1v2h-1ZM9,9h3v1h-3ZM10,10h2v1h-2ZM17,10h1v2h-1ZM13,11h3v4h-3ZM18,12h1v2h-1ZM19,14h1v1h-1ZM8,15h2v1h-2ZM11,15h1v1h-1ZM13,15h7v1h-7ZM5,16h3v1h-3ZM15,16h1v1h-1ZM6,17h6v1h-6ZM7,18h6v1h-6ZM8,19h5v1h-5ZM9,20h4v1h-4ZM10,21h3v1h-3ZM14,21h1v1h-1Z"/><path fill="rgb(234,234,234)" d="M12,1h1v1h-1ZM11,2h2v2h-2ZM10,4h3v2h-3ZM9,6h4v1h-4ZM9,7h1v1h-1ZM11,7h2v1h-2ZM12,8h1v7h-1ZM17,18h1v1h-1Z"/><path fill="rgb(67,67,67)" d="M13,1h1v1h-1ZM14,2h1v2h-1ZM15,4h1v2h-1ZM16,6h1v2h-1ZM17,8h1v2h-1ZM18,10h1v2h-1ZM19,12h1v2h-1ZM20,14h1v2h-1ZM4,16h1v1h-1ZM5,17h1v1h-1ZM6,18h1v1h-1ZM7,19h1v1h-1ZM8,20h1v1h-1ZM9,21h1v1h-1Z"/><path fill="rgb(205,205,205)" d="M13,2h1v2h-1ZM14,4h1v2h-1ZM15,6h1v2h-1ZM10,7h1v1h-1ZM8,8h4v1h-4ZM8,9h1v1h-1ZM7,10h1v2h-1ZM6,12h1v2h-1ZM5,14h1v1h-1ZM5,15h3v1h-3ZM12,15h1v1h-1ZM8,16h7v1h-7ZM19,16h1v1h-1ZM12,17h1v1h-1ZM18,17h1v1h-1ZM16,19h1v1h-1ZM15,20h1v1h-1Z"/><path fill="rgb(116,116,116)" d="M14,6h1v1h-1ZM15,8h1v2h-1ZM15,10h2v1h-2ZM16,11h1v1h-1ZM16,12h2v2h-2ZM16,14h3v1h-3ZM16,16h3v1h-3ZM20,16h1v1h-1ZM13,17h5v1h-5ZM19,17h1v1h-1ZM13,18h4v1h-4ZM18,18h1v1h-1ZM13,19h3v1h-3ZM17,19h1v1h-1ZM13,20h2v1h-2ZM16,20h1v1h-1ZM13,21h1v1h-1ZM15,21h1v1h-1Z"/><path fill="rgb(119,119,119)" d="M8,10h2v1h-2ZM8,11h4v1h-4ZM7,12h5v2h-5ZM6,14h6v1h-6ZM10,15h1v1h-1Z"/><path fill="rgb(0,0,0)" d="M6,19h1v1h-1ZM18,19h1v1h-1ZM4,20h4v1h-4ZM17,20h4v1h-4ZM3,21h6v1h-6ZM16,21h6v1h-6ZM4,22h17v1h-17ZM6,23h13v1h-13Z"/></svg>