<svg version="1.1" xmlns="http://www.w3.org/2000/svg" xmlns:xlink="http://www.w3.org/1999/xlink" shape-rendering="crispEdges" width="24" height="24" viewBox="0 0 24 24"><path fill="rgb(219,36,113)" d="M12,1h1v1h-1ZM7,9h1v2h-1ZM6,11h1v2h-1ZM5,13h1v2h-1ZM4,15h1v2h-1Z"/><path fill="rgb(234,95,158)" d="M11,2h1v1h-1ZM10,3h1v2h-1ZM9,5h1v2h-1ZM8,7h1v2h-1ZM16,9h1v2h-1ZM8,11h2v1h-2ZM17,11h1v2h-1ZM9,12h3v1h-3ZM18,13h1v2h-1ZM19,15h1v1h-1ZM8,16h2v1h-2ZM11,16h1v1h-1ZM13,16h1v1h-1ZM16,16h4v1h-4ZM5,17h3v1h-3ZM15,17h1v1h-1ZM6,18h4v1h-4ZM7,19h3v1h-3ZM12,19h1v2h-1ZM8,20h3v1h-3ZM10,21h1v1h-1Z"/><path fill="rgb(250,248,204)" d="M12,2h1v1h-1ZM11,3h2v2h-2ZM10,5h3v2h-3ZM9,7h4v2h-4ZM8,9h1v1h-1ZM10,9h3v1h-3ZM12,10h1v6h-1ZM18,18h1v1h-1ZM17,19h1v1h-1ZM16,20h1v1h-1Z"/><path fill="rgb(143,0,60)" d="M13,2h1v1h-1ZM14,3h1v2h-1ZM15,5h1v2h-1ZM16,7h1v2h-1ZM17,9h1v2h-1ZM18,11h1v2h-1ZM19,13h1v2h-1ZM20,15h1v2h-1ZM4,17h1v1h-1ZM5,18h1v1h-1ZM6,19h1v1h-1ZM7,20h1v1h-1ZM8,21h1v1h-1Z"/><path fill="rgb(255,158,202)" d="M13,3h1v2h-1ZM14,5h1v2h-1ZM15,7h1v2h-1ZM9,9h1v1h-1ZM8,10h4v1h-4ZM7,11h1v2h-1ZM10,11h2v1h-2ZM6,13h1v2h-1ZM5,15h1v1h-1ZM5,16h3v1h-3ZM12,16h1v1h-1ZM8,17h7v1h-7ZM19,17h1v1h-1ZM12,18h1v1h-1ZM15,21h1v1h-1Z"/><path fill="rgb(207,85,194)" d="M13,5h1v2h-1ZM13,7h2v4h-2ZM13,11h3v5h-3ZM14,16h2v1h-2ZM10,18h2v2h-2ZM11,20h1v1h-1ZM11,21h2v1h-2Z"/><path fill="rgb(133,63,153)" d="M15,9h1v2h-1ZM16,11h1v2h-1ZM16,13h2v2h-2ZM16,15h3v1h-3ZM16,17h3v1h-3ZM20,17h1v1h-1ZM13,18h5v1h-5ZM19,18h1v1h-1ZM13,19h4v1h-4ZM18,19h1v1h-1ZM13,20h3v1h-3ZM17,20h1v1h-1ZM13,21h2v1h-2ZM16,21h1v1h-1Z"/><path fill="rgb(212,32,113)" d="M8,12h1v1h-1ZM7,13h5v2h-5ZM6,15h6v1h-6ZM10,16h1v1h-1ZM9,21h1v1h-1Z"/><path fill="rgb(0,0,0)" d="M4,20h3v1h-3ZM18,20h3v1h-3ZM3,21h5v1h-5ZM17,21h5v1h-5ZM4,22h17v1h-17ZM6,23h13v1h-13Z"/></svg>