<svg version="1.1" xmlns="http://www.w3.org/2000/svg" xmlns:xlink="http://www.w3.org/1999/xlink" shape-rendering="crispEdges" width="24" height="24" viewBox="0 0 24 24"><path fill="rgb(156,165,181)" d="M11,0h4v1h-4ZM10,1h1v1h-1ZM9,2h1v1h-1ZM15,2h3v1h-3ZM16,3h2v1h-2ZM16,4h1v1h-1ZM14,7h1v1h-1ZM16,7h1v1h-1ZM13,9h2v1h-2ZM11,10h1v1h-1ZM13,10h1v1h-1ZM15,10h1v1h-1ZM14,11h1v1h-1Z"/><path fill="rgb(74,90,115)" d="M15,0h2v1h-2ZM17,1h1v1h-1ZM18,2h1v1h-1ZM9,3h1v2h-1ZM15,3h1v1h-1ZM13,4h3v1h-3ZM17,4h1v1h-1ZM11,5h1v2h-1ZM15,5h2v2h-2ZM10,7h1v1h-1ZM15,7h1v1h-1ZM13,8h3v1h-3ZM10,9h3v1h-3ZM14,10h1v1h-1Z"/><path fill="rgb(247,247,247)" d="M11,1h1v1h-1ZM10,2h3v1h-3ZM11,3h1v1h-1Z"/><path fill="rgb(200,206,200)" d="M12,1h5v1h-5ZM13,2h2v1h-2ZM10,3h1v1h-1ZM12,3h3v1h-3ZM10,4h3v1h-3ZM17,5h1v2h-1ZM10,6h1v1h-1ZM11,7h3v1h-3ZM10,8h3v1h-3ZM12,10h1v1h-1Z"/><path fill="rgb(41,50,62)" d="M18,3h1v4h-1ZM9,6h1v4h-1ZM17,7h1v2h-1ZM16,9h1v1h-1ZM9,10h2v1h-2ZM12,11h1v1h-1ZM8,12h1v1h-1ZM10,12h1v2h-1ZM10,15h1v1h-1ZM10,16h2v1h-2ZM9,17h1v2h-1ZM17,17h1v2h-1ZM12,19h1v1h-1ZM16,19h2v1h-2ZM16,20h1v1h-1ZM16,22h1v1h-1ZM19,22h1v1h-1Z"/><path fill="rgb(47,41,41)" d="M8,5h3v1h-3ZM12,5h3v1h-3ZM14,6h1v1h-1ZM11,11h1v1h-1Z"/><path fill="rgb(239,215,0)" d="M12,6h2v1h-2Z"/><path fill="rgb(0,0,0)" d="M16,8h1v1h-1ZM18,9h1v1h-1ZM6,11h1v1h-1ZM10,11h1v1h-1ZM13,11h1v1h-1ZM15,11h1v1h-1ZM22,11h1v1h-1ZM7,12h1v1h-1ZM12,12h3v1h-3ZM17,12h7v1h-7ZM8,13h1v1h-1ZM23,13h1v6h-1ZM7,14h1v1h-1ZM10,14h1v1h-1ZM15,16h2v1h-2ZM5,17h1v1h-1ZM12,17h4v1h-4ZM10,18h3v1h-3ZM15,18h2v1h-2ZM7,19h3v1h-3ZM15,19h1v1h-1ZM22,19h1v1h-1ZM9,20h1v1h-1ZM13,20h3v2h-3ZM21,20h1v1h-1ZM5,21h1v1h-1ZM8,21h1v1h-1ZM20,21h1v1h-1ZM4,22h1v1h-1ZM8,22h8v1h-8ZM20,22h4v1h-4ZM3,23h1v1h-1ZM10,23h11v1h-11Z"/><path fill="rgb(76,95,114)" d="M8,9h1v1h-1ZM19,9h2v1h-2ZM7,10h1v1h-1ZM21,10h1v1h-1ZM11,12h1v1h-1ZM9,13h1v1h-1ZM8,14h2v1h-2ZM12,15h3v2h-3ZM6,17h1v1h-1ZM4,18h1v1h-1ZM7,18h1v1h-1ZM3,19h1v1h-1ZM13,19h2v1h-2ZM2,20h1v1h-1ZM6,20h1v1h-1ZM10,20h1v1h-1ZM17,20h2v1h-2ZM1,21h1v2h-1ZM9,21h1v1h-1ZM16,21h1v1h-1ZM19,21h1v1h-1ZM1,23h2v1h-2Z"/><path fill="rgb(62,69,78)" d="M15,9h1v1h-1Z"/><path fill="rgb(12,53,112)" d="M17,9h1v1h-1ZM16,10h1v1h-1ZM9,12h1v1h-1ZM16,13h1v3h-1ZM19,14h3v1h-3ZM23,20h1v2h-1Z"/><path fill="rgb(241,242,242)" d="M8,10h1v1h-1ZM19,10h1v1h-1ZM7,11h1v1h-1ZM20,11h1v1h-1ZM11,13h2v2h-2ZM14,13h2v2h-2ZM9,15h1v1h-1ZM16,17h1v1h-1ZM5,18h1v1h-1ZM4,19h1v1h-1ZM10,19h1v1h-1ZM3,20h1v1h-1ZM11,20h1v1h-1ZM2,21h1v1h-1ZM17,22h2v1h-2Z"/><path fill="rgb(0,100,198)" d="M17,10h1v1h-1ZM9,11h1v1h-1ZM16,11h1v2h-1ZM19,15h1v4h-1ZM21,15h1v4h-1ZM20,19h1v1h-1Z"/><path fill="rgb(154,160,176)" d="M18,10h1v1h-1ZM20,10h1v1h-1ZM17,11h1v1h-1ZM21,11h1v1h-1ZM15,12h1v1h-1ZM13,13h1v2h-1ZM11,15h1v1h-1ZM15,15h1v1h-1ZM7,17h1v1h-1ZM10,17h2v1h-2ZM6,18h1v1h-1ZM13,18h2v1h-2ZM5,19h1v1h-1ZM4,20h1v1h-1ZM3,21h1v1h-1ZM12,21h1v1h-1ZM2,22h1v1h-1Z"/><path fill="rgb(204,204,205)" d="M8,11h1v1h-1ZM18,11h2v1h-2ZM8,15h1v1h-1ZM9,16h1v1h-1ZM6,19h1v1h-1ZM11,19h1v1h-1ZM5,20h1v1h-1ZM12,20h1v1h-1ZM4,21h1v1h-1ZM10,21h2v1h-2ZM17,21h2v1h-2ZM3,22h1v1h-1Z"/><path fill="rgb(93,53,13)" d="M17,13h1v4h-1ZM5,16h1v1h-1ZM18,19h1v1h-1ZM19,20h1v1h-1Z"/><path fill="rgb(255,245,155)" d="M18,13h5v1h-5ZM18,14h1v2h-1ZM22,14h1v2h-1ZM6,16h2v1h-2ZM8,17h1v1h-1Z"/><path fill="rgb(183,90,0)" d="M5,15h3v1h-3ZM8,16h1v1h-1Z"/><path fill="rgb(65,149,233)" d="M20,15h1v4h-1ZM22,20h1v1h-1ZM21,21h2v1h-2Z"/><path fill="rgb(255,204,101)" d="M18,16h1v3h-1ZM22,16h1v3h-1ZM8,18h1v1h-1ZM19,19h1v1h-1ZM21,19h1v1h-1ZM20,20h1v1h-1Z"/></svg>