<svg version="1.1" xmlns="http://www.w3.org/2000/svg" xmlns:xlink="http://www.w3.org/1999/xlink" shape-rendering="crispEdges" width="24" height="24" viewBox="0 0 24 24"><path fill="rgb(154,160,176)" d="M19,3h1v1h-1ZM23,3h1v1h-1ZM18,4h1v1h-1ZM21,4h1v1h-1ZM22,5h1v1h-1ZM12,15h1v1h-1ZM18,16h1v1h-1ZM20,16h1v1h-1ZM3,17h1v1h-1ZM11,19h1v1h-1ZM13,19h1v1h-1Z"/><path fill="rgb(76,95,114)" d="M20,3h1v2h-1ZM23,4h1v2h-1ZM17,5h1v1h-1ZM22,6h1v1h-1ZM10,9h1v1h-1ZM5,14h3v1h-3ZM9,14h1v1h-1ZM12,14h1v1h-1ZM13,15h1v1h-1ZM19,15h1v1h-1ZM2,16h2v1h-2ZM12,16h2v1h-2ZM11,17h1v1h-1ZM16,17h1v1h-1ZM3,18h1v1h-1ZM9,18h2v1h-2ZM15,19h1v2h-1ZM13,20h1v1h-1Z"/><path fill="rgb(204,204,205)" d="M22,3h1v2h-1ZM19,4h1v1h-1ZM21,5h1v1h-1ZM11,14h1v1h-1ZM8,15h4v1h-4ZM10,16h2v1h-2ZM19,16h1v1h-1ZM21,16h1v1h-1ZM6,17h1v1h-1ZM8,17h3v1h-3ZM20,17h1v1h-1ZM1,18h1v1h-1ZM12,19h1v1h-1ZM14,19h1v1h-1Z"/><path fill="rgb(0,43,75)" d="M18,5h1v1h-1ZM17,6h1v1h-1ZM21,6h1v1h-1ZM20,7h1v1h-1ZM14,8h1v1h-1ZM17,8h1v1h-1ZM12,9h1v1h-1ZM18,9h1v1h-1ZM7,11h2v1h-2ZM15,11h2v1h-2ZM6,12h2v1h-2ZM16,12h1v1h-1ZM21,14h1v1h-1ZM14,15h2v1h-2ZM15,16h2v1h-2ZM14,17h1v1h-1ZM13,18h1v1h-1Z"/><path fill="rgb(0,22,48)" d="M19,5h1v1h-1ZM16,6h1v1h-1ZM18,6h1v1h-1ZM14,7h4v1h-4ZM12,8h2v1h-2ZM18,8h2v1h-2ZM7,10h1v1h-1ZM6,11h1v1h-1ZM19,11h2v1h-2ZM5,12h1v1h-1ZM15,12h1v1h-1ZM17,12h1v1h-1ZM21,12h1v2h-1ZM10,13h1v1h-1ZM16,13h1v2h-1ZM19,13h1v1h-1ZM13,14h1v1h-1ZM14,16h1v1h-1ZM13,17h1v1h-1ZM12,18h1v1h-1Z"/><path fill="rgb(0,65,114)" d="M20,5h1v1h-1ZM19,6h2v1h-2ZM18,7h2v1h-2ZM15,8h2v1h-2ZM13,9h5v1h-5ZM12,10h7v1h-7ZM11,11h4v1h-4ZM17,11h2v1h-2ZM8,12h7v1h-7ZM18,12h3v1h-3ZM6,13h2v1h-2ZM11,13h5v1h-5ZM20,13h1v2h-1ZM14,14h2v1h-2ZM16,15h1v1h-1ZM20,15h2v1h-2ZM15,17h1v1h-1ZM14,18h2v1h-2Z"/><path fill="rgb(0,0,0)" d="M21,7h1v1h-1ZM20,8h1v1h-1ZM5,9h1v2h-1ZM11,9h1v1h-1ZM19,9h1v2h-1ZM8,10h2v1h-2ZM9,11h1v1h-1ZM5,13h1v1h-1ZM8,13h2v1h-2ZM17,13h2v1h-2ZM3,14h2v1h-2ZM19,14h1v1h-1ZM3,15h1v1h-1ZM18,15h1v1h-1ZM17,16h1v1h-1ZM22,16h1v2h-1ZM4,17h2v1h-2ZM4,18h5v1h-5ZM16,18h6v1h-6ZM4,19h6v1h-6ZM16,19h4v1h-4ZM8,20h3v1h-3ZM16,20h2v1h-2Z"/><path fill="rgb(62,69,78)" d="M10,8h1v1h-1ZM6,9h1v1h-1ZM9,9h1v1h-1ZM11,10h1v1h-1ZM4,15h1v1h-1ZM1,16h1v1h-1ZM4,16h4v1h-4ZM0,17h1v2h-1Z"/><path fill="rgb(203,127,111)" d="M6,10h1v1h-1ZM10,10h1v2h-1ZM10,14h1v1h-1ZM8,16h2v1h-2Z"/><path fill="rgb(255,204,101)" d="M8,14h1v1h-1Z"/><path fill="rgb(41,50,62)" d="M22,14h1v2h-1ZM17,15h1v1h-1ZM12,17h1v1h-1ZM17,17h1v1h-1ZM11,18h1v1h-1ZM10,19h1v1h-1Z"/><path fill="rgb(241,242,242)" d="M5,15h3v1h-3ZM1,17h2v1h-2ZM7,17h1v1h-1Z"/><path fill="rgb(116,128,146)" d="M18,17h2v1h-2ZM21,17h1v1h-1ZM2,18h1v1h-1ZM11,20h2v1h-2ZM14,20h1v1h-1Z"/></svg>