<svg version="1.1" xmlns="http://www.w3.org/2000/svg" xmlns:xlink="http://www.w3.org/1999/xlink" shape-rendering="crispEdges" width="24" height="24" viewBox="0 0 24 24"><path fill="rgb(76,95,114)" d="M18,3h1v1h-1ZM22,4h1v2h-1ZM17,5h1v1h-1ZM20,5h1v1h-1ZM10,10h1v1h-1ZM5,15h3v1h-3ZM9,15h1v1h-1ZM12,15h1v1h-1ZM19,15h1v1h-1ZM2,16h1v1h-1ZM13,16h1v1h-1ZM12,17h1v1h-1ZM2,18h1v1h-1ZM9,19h1v1h-1ZM15,19h1v2h-1ZM13,20h1v1h-1Z"/><path fill="rgb(154,160,176)" d="M22,3h1v1h-1ZM18,4h1v1h-1ZM21,4h1v1h-1ZM22,6h1v1h-1ZM12,16h1v1h-1ZM18,16h1v1h-1ZM20,16h1v1h-1ZM3,17h1v1h-1ZM11,19h1v1h-1ZM13,19h1v1h-1Z"/><path fill="rgb(41,50,62)" d="M19,4h1v2h-1ZM18,9h1v1h-1ZM15,13h1v1h-1ZM16,14h1v1h-1ZM17,15h1v1h-1ZM22,15h1v1h-1ZM17,17h1v1h-1ZM3,18h1v1h-1ZM11,18h1v1h-1ZM10,19h1v1h-1Z"/><path fill="rgb(204,204,205)" d="M18,5h1v1h-1ZM21,5h1v2h-1ZM11,15h1v1h-1ZM8,16h4v1h-4ZM19,16h1v1h-1ZM21,16h1v1h-1ZM10,17h2v1h-2ZM20,17h1v1h-1ZM1,18h1v1h-1ZM6,18h1v1h-1ZM8,18h3v1h-3ZM12,19h1v1h-1ZM14,19h1v1h-1Z"/><path fill="rgb(0,85,82)" d="M17,6h1v1h-1ZM19,6h1v1h-1ZM16,7h1v1h-1ZM18,7h1v1h-1ZM22,7h1v1h-1ZM14,8h4v1h-4ZM12,9h2v1h-2ZM7,11h1v1h-1ZM6,12h1v1h-1ZM19,12h2v1h-2ZM5,13h1v1h-1ZM16,13h1v1h-1ZM21,13h1v1h-1ZM10,14h1v1h-1ZM22,14h1v1h-1ZM14,16h1v1h-1ZM13,17h1v1h-1ZM12,18h1v1h-1Z"/><path fill="rgb(0,153,55)" d="M18,6h1v1h-1ZM17,7h1v1h-1ZM21,7h1v1h-1ZM20,8h1v1h-1ZM14,9h1v1h-1ZM17,9h1v1h-1ZM12,10h1v1h-1ZM18,10h1v1h-1ZM7,12h2v1h-2ZM15,12h2v1h-2ZM6,13h2v1h-2ZM14,13h1v1h-1ZM17,13h1v1h-1ZM18,14h2v1h-2ZM21,14h1v1h-1ZM13,15h1v1h-1ZM16,15h1v1h-1ZM15,16h1v1h-1ZM14,17h1v1h-1ZM16,17h1v1h-1ZM13,18h1v1h-1Z"/><path fill="rgb(99,190,37)" d="M20,6h1v1h-1ZM19,7h2v1h-2ZM18,8h2v1h-2ZM15,9h2v1h-2ZM13,10h5v1h-5ZM12,11h7v1h-7ZM11,12h4v1h-4ZM17,12h2v1h-2ZM8,13h6v1h-6ZM18,13h3v1h-3ZM6,14h2v1h-2ZM11,14h5v1h-5ZM20,14h1v1h-1ZM14,15h2v1h-2ZM20,15h2v1h-2ZM16,16h1v1h-1ZM15,17h1v1h-1ZM14,18h2v1h-2Z"/><path fill="rgb(0,0,0)" d="M21,8h1v1h-1ZM19,9h2v1h-2ZM5,10h1v2h-1ZM11,10h1v1h-1ZM19,10h1v2h-1ZM8,11h2v1h-2ZM9,12h1v1h-1ZM5,14h1v1h-1ZM8,14h2v1h-2ZM17,14h1v1h-1ZM3,15h2v1h-2ZM18,15h1v1h-1ZM3,16h1v1h-1ZM17,16h1v1h-1ZM22,16h1v2h-1ZM4,18h2v1h-2ZM16,18h6v1h-6ZM4,19h5v1h-5ZM16,19h4v1h-4ZM8,20h3v1h-3ZM16,20h2v1h-2Z"/><path fill="rgb(62,69,78)" d="M10,9h1v1h-1ZM6,10h1v1h-1ZM9,10h1v1h-1ZM11,11h1v1h-1ZM1,16h1v1h-1ZM4,16h1v1h-1ZM0,17h1v2h-1ZM4,17h4v1h-4Z"/><path fill="rgb(203,127,111)" d="M6,11h1v1h-1ZM10,11h1v2h-1ZM10,15h1v1h-1ZM8,17h2v1h-2Z"/><path fill="rgb(255,204,101)" d="M8,15h1v1h-1Z"/><path fill="rgb(241,242,242)" d="M5,16h3v1h-3ZM1,17h2v1h-2ZM7,18h1v1h-1Z"/><path fill="rgb(116,128,146)" d="M18,17h2v1h-2ZM21,17h1v1h-1ZM11,20h2v1h-2ZM14,20h1v1h-1Z"/></svg>