<svg version="1.1" xmlns="http://www.w3.org/2000/svg" xmlns:xlink="http://www.w3.org/1999/xlink" shape-rendering="crispEdges" width="24" height="24" viewBox="0 0 24 24"><path fill="rgb(0,22,48)" d="M5,1h1v1h-1ZM9,3h3v1h-3ZM17,3h1v1h-1ZM6,4h1v1h-1ZM11,4h1v1h-1ZM2,6h1v1h-1ZM11,6h1v1h-1ZM1,7h1v1h-1ZM10,8h1v1h-1ZM13,8h1v1h-1ZM6,9h2v1h-2ZM9,9h1v1h-1ZM12,9h2v1h-2ZM22,9h1v1h-1ZM5,10h1v1h-1ZM8,10h1v1h-1ZM13,10h1v1h-1ZM23,10h1v1h-1ZM20,12h1v1h-1ZM5,13h1v1h-1ZM10,13h1v1h-1ZM14,13h1v1h-1ZM18,13h4v1h-4ZM4,14h1v1h-1ZM6,14h1v1h-1ZM9,14h1v3h-1ZM15,14h1v1h-1ZM17,14h2v1h-2ZM21,14h1v1h-1ZM12,15h1v2h-1ZM16,15h2v1h-2ZM12,17h2v1h-2ZM16,17h1v1h-1ZM12,18h1v2h-1ZM14,18h1v2h-1ZM8,19h1v1h-1ZM13,20h1v1h-1ZM14,21h1v1h-1Z"/><path fill="rgb(93,53,13)" d="M10,1h1v1h-1ZM14,1h1v1h-1ZM9,2h1v1h-1ZM12,2h2v1h-2ZM15,2h1v1h-1ZM14,3h1v1h-1Z"/><path fill="rgb(0,43,75)" d="M4,2h1v1h-1ZM4,3h2v1h-2ZM18,3h1v1h-1ZM3,4h1v1h-1ZM19,4h1v2h-1ZM2,5h1v1h-1ZM12,6h1v2h-1ZM20,6h1v1h-1ZM21,7h1v1h-1ZM11,8h1v1h-1ZM22,8h1v1h-1ZM10,9h2v1h-2ZM9,10h1v1h-1ZM12,10h1v1h-1ZM14,10h1v1h-1ZM8,11h1v1h-1ZM13,11h1v1h-1ZM11,12h1v1h-1ZM14,14h1v1h-1ZM14,15h2v1h-2ZM15,16h2v1h-2ZM15,17h1v1h-1ZM13,18h1v1h-1Z"/><path fill="rgb(0,65,114)" d="M5,2h1v1h-1ZM6,3h1v1h-1ZM4,4h1v1h-1ZM8,4h1v1h-1ZM17,4h2v1h-2ZM3,5h1v1h-1ZM7,5h1v1h-1ZM16,5h1v3h-1ZM18,5h1v1h-1ZM19,6h1v1h-1ZM2,7h1v2h-1ZM6,7h1v1h-1ZM9,7h3v1h-3ZM20,7h1v1h-1ZM5,8h1v2h-1ZM8,8h2v1h-2ZM15,8h1v2h-1ZM21,8h1v2h-1ZM8,9h1v1h-1ZM6,10h2v2h-2ZM22,10h1v2h-1ZM12,11h1v1h-1ZM14,11h1v1h-1ZM12,12h3v1h-3ZM6,13h1v1h-1ZM11,13h3v1h-3ZM5,14h1v3h-1ZM10,14h2v1h-2ZM13,14h1v2h-1ZM10,15h1v2h-1ZM13,16h2v1h-2ZM14,17h1v1h-1ZM13,19h1v1h-1ZM8,20h1v1h-1ZM14,20h1v1h-1Z"/><path fill="rgb(0,0,0)" d="M6,2h1v1h-1ZM7,3h2v1h-2ZM7,4h1v1h-1ZM13,4h1v1h-1ZM16,4h1v1h-1ZM6,5h1v2h-1ZM10,5h3v1h-3ZM15,5h1v3h-1ZM9,6h1v1h-1ZM13,6h1v2h-1ZM5,7h1v1h-1ZM1,8h1v2h-1ZM4,8h1v3h-1ZM12,8h1v1h-1ZM14,8h1v2h-1ZM1,10h2v1h-2ZM10,10h2v1h-2ZM5,11h1v1h-1ZM9,11h1v1h-1ZM19,11h3v1h-3ZM23,11h1v1h-1ZM6,12h3v1h-3ZM16,12h4v1h-4ZM22,12h2v1h-2ZM15,13h1v1h-1ZM17,13h1v1h-1ZM12,14h1v1h-1ZM16,14h1v1h-1ZM22,14h1v2h-1ZM4,15h1v2h-1ZM6,15h1v2h-1ZM11,15h1v2h-1ZM19,15h2v1h-2ZM18,16h1v2h-1ZM21,16h2v1h-2ZM5,17h2v1h-2ZM10,17h1v1h-1ZM7,18h1v2h-1ZM17,18h1v1h-1ZM9,19h1v1h-1ZM15,19h2v1h-2ZM6,20h2v1h-2ZM9,20h4v1h-4ZM15,20h3v1h-3ZM5,21h9v1h-9ZM15,21h4v1h-4ZM6,22h12v1h-12ZM8,23h8v1h-8Z"/><path fill="rgb(254,236,186)" d="M10,2h1v1h-1ZM14,2h1v1h-1ZM13,3h1v1h-1Z"/><path fill="rgb(229,177,136)" d="M12,3h1v2h-1ZM18,9h1v1h-1ZM20,9h1v1h-1ZM16,10h1v2h-1ZM18,10h2v1h-2ZM18,11h1v1h-1Z"/><path fill="rgb(131,80,35)" d="M5,4h1v1h-1ZM4,5h1v1h-1ZM17,5h1v1h-1ZM3,6h1v1h-1ZM17,6h2v1h-2ZM17,7h1v1h-1ZM19,7h1v1h-1ZM16,8h1v2h-1ZM20,8h1v1h-1ZM15,10h1v2h-1ZM21,10h1v1h-1Z"/><path fill="rgb(242,156,63)" d="M9,4h2v1h-2Z"/><path fill="rgb(171,132,81)" d="M5,5h1v1h-1ZM4,6h2v1h-2ZM3,7h2v1h-2ZM18,7h1v1h-1ZM3,8h1v1h-1ZM17,8h3v1h-3ZM2,9h2v1h-2ZM17,9h1v3h-1ZM19,9h1v1h-1ZM20,10h1v1h-1ZM15,12h1v1h-1Z"/><path fill="rgb(242,204,114)" d="M8,5h2v1h-2ZM7,7h2v1h-2ZM6,8h2v1h-2Z"/><path fill="rgb(171,41,12)" d="M7,6h2v1h-2Z"/><path fill="rgb(248,244,0)" d="M10,6h1v1h-1Z"/><path fill="rgb(207,119,118)" d="M10,11h2v1h-2ZM9,12h2v1h-2ZM7,13h1v1h-1ZM9,13h1v1h-1ZM7,14h2v1h-2ZM19,14h2v1h-2ZM18,15h1v1h-1ZM21,15h1v1h-1ZM17,16h1v1h-1ZM7,17h3v1h-3ZM11,17h1v2h-1ZM15,18h1v1h-1ZM10,19h2v1h-2Z"/><path fill="rgb(244,158,156)" d="M8,13h1v1h-1ZM7,15h2v2h-2ZM17,17h1v1h-1ZM8,18h3v1h-3ZM16,18h1v1h-1Z"/></svg>