<svg version="1.1" xmlns="http://www.w3.org/2000/svg" xmlns:xlink="http://www.w3.org/1999/xlink" shape-rendering="crispEdges" width="24" height="24" viewBox="0 0 24 24"><path fill="rgb(12,53,112)" d="M11,1h2v1h-2ZM10,2h1v1h-1ZM8,4h1v1h-1ZM12,4h2v1h-2ZM11,5h1v1h-1ZM19,6h1v3h-1ZM12,7h1v1h-1ZM14,7h1v1h-1ZM8,8h4v1h-4ZM13,8h1v1h-1ZM18,9h1v2h-1ZM10,10h1v1h-1ZM17,11h1v1h-1ZM10,12h1v1h-1ZM9,13h1v1h-1ZM15,14h2v1h-2ZM14,15h1v3h-1ZM17,15h2v1h-2ZM7,17h1v3h-1ZM15,18h1v1h-1ZM21,18h2v1h-2ZM16,19h1v1h-1ZM20,19h1v1h-1ZM8,20h1v1h-1ZM19,20h1v1h-1ZM7,22h1v1h-1ZM20,22h1v1h-1ZM9,23h10v1h-10Z"/><path fill="rgb(0,100,198)" d="M13,1h3v1h-3ZM9,2h1v1h-1ZM16,2h2v1h-2ZM8,3h1v1h-1ZM18,3h1v2h-1ZM7,5h1v1h-1ZM10,5h1v1h-1ZM19,5h1v1h-1ZM6,6h1v1h-1ZM10,11h2v1h-2ZM18,12h1v3h-1ZM15,13h1v1h-1ZM8,14h1v2h-1ZM7,16h1v1h-1ZM19,16h3v1h-3ZM18,17h1v2h-1ZM22,17h1v1h-1ZM15,19h1v1h-1ZM17,19h1v1h-1ZM6,20h1v1h-1ZM9,20h1v1h-1ZM14,20h5v1h-5ZM20,20h2v1h-2ZM5,21h1v1h-1ZM22,21h1v1h-1ZM6,22h1v1h-1ZM21,22h1v1h-1ZM8,23h1v1h-1ZM19,23h1v1h-1Z"/><path fill="rgb(150,217,244)" d="M11,2h5v1h-5ZM9,3h3v1h-3ZM13,3h3v1h-3ZM9,4h2v1h-2ZM8,5h2v1h-2ZM13,5h1v1h-1ZM15,5h2v2h-2ZM7,6h1v1h-1ZM9,6h2v1h-2ZM9,7h1v1h-1ZM18,8h1v1h-1ZM10,9h2v1h-2ZM16,9h1v1h-1ZM12,11h2v1h-2ZM13,12h3v1h-3ZM13,13h2v2h-2ZM16,13h2v1h-2ZM9,14h1v1h-1ZM17,14h1v1h-1ZM13,15h1v1h-1ZM8,16h1v1h-1ZM12,16h2v1h-2ZM8,17h6v2h-6ZM21,17h1v1h-1ZM19,18h1v1h-1ZM9,19h4v1h-4ZM6,21h2v1h-2ZM20,21h2v1h-2ZM8,22h2v1h-2ZM13,22h7v1h-7Z"/><path fill="rgb(255,255,255)" d="M12,3h1v1h-1ZM11,4h1v1h-1ZM12,5h1v1h-1ZM8,6h1v1h-1ZM7,7h2v1h-2ZM11,12h2v1h-2ZM10,13h3v2h-3ZM9,15h4v1h-4ZM9,16h3v1h-3ZM20,17h1v1h-1ZM10,22h3v1h-3Z"/><path fill="rgb(65,149,233)" d="M16,3h2v1h-2ZM15,4h3v1h-3ZM14,5h1v1h-1ZM17,5h2v2h-2ZM11,6h4v1h-4ZM10,7h2v1h-2ZM13,7h1v1h-1ZM15,7h4v1h-4ZM7,8h1v1h-1ZM12,8h1v1h-1ZM14,8h4v1h-4ZM9,9h1v1h-1ZM12,9h4v1h-4ZM17,9h1v1h-1ZM11,10h7v1h-7ZM14,11h3v1h-3ZM16,12h2v1h-2ZM19,17h1v1h-1ZM14,18h1v1h-1ZM20,18h1v1h-1ZM8,19h1v1h-1ZM13,19h2v1h-2ZM18,19h2v1h-2ZM7,20h1v1h-1ZM10,20h4v1h-4ZM8,21h12v1h-12Z"/><path fill="rgb(64,109,234)" d="M14,4h1v1h-1Z"/><path fill="rgb(41,50,62)" d="M6,7h1v2h-1ZM7,9h2v1h-2ZM9,10h1v1h-1Z"/></svg>