<svg version="1.1" xmlns="http://www.w3.org/2000/svg" xmlns:xlink="http://www.w3.org/1999/xlink" shape-rendering="crispEdges" width="24" height="24" viewBox="0 0 24 24"><path fill="rgb(95,5,120)" d="M11,2h3v1h-3ZM10,3h1v1h-1ZM8,5h1v1h-1ZM12,5h2v1h-2ZM11,6h1v1h-1ZM12,8h1v1h-1ZM14,8h1v1h-1ZM19,8h1v2h-1ZM8,9h4v1h-4ZM13,9h1v1h-1ZM18,10h1v2h-1ZM10,11h1v1h-1ZM17,12h1v1h-1ZM9,13h1v1h-1ZM15,14h1v1h-1ZM14,15h1v3h-1ZM16,15h1v1h-1ZM17,16h2v1h-2ZM6,17h1v2h-1ZM17,17h1v2h-1ZM15,18h1v1h-1ZM20,18h2v1h-2ZM7,19h1v1h-1ZM16,19h1v1h-1ZM20,19h1v1h-1ZM8,20h1v1h-1ZM19,20h1v1h-1ZM7,22h1v1h-1ZM20,22h1v1h-1ZM9,23h10v1h-10Z"/><path fill="rgb(161,0,112)" d="M14,2h2v1h-2ZM9,3h1v1h-1ZM16,3h2v1h-2ZM8,4h1v1h-1ZM18,4h1v2h-1ZM7,6h1v1h-1ZM10,6h1v1h-1ZM19,6h1v2h-1ZM6,7h1v1h-1ZM10,12h2v1h-2ZM15,13h1v1h-1ZM18,13h1v3h-1ZM8,14h1v1h-1ZM7,15h1v1h-1ZM6,16h1v1h-1ZM19,16h2v1h-2ZM13,17h1v1h-1ZM18,17h1v1h-1ZM21,17h1v1h-1ZM13,18h2v1h-2ZM15,19h1v1h-1ZM6,20h1v1h-1ZM9,20h2v1h-2ZM13,20h6v1h-6ZM20,20h2v1h-2ZM5,21h1v1h-1ZM22,21h1v1h-1ZM6,22h1v1h-1ZM21,22h1v1h-1ZM8,23h1v1h-1ZM19,23h1v1h-1Z"/><path fill="rgb(244,158,156)" d="M11,3h5v1h-5ZM9,4h3v1h-3ZM13,4h3v1h-3ZM9,5h2v1h-2ZM8,6h2v1h-2ZM13,6h1v1h-1ZM15,6h2v2h-2ZM7,7h1v1h-1ZM9,7h2v1h-2ZM9,8h1v1h-1ZM18,9h1v1h-1ZM10,10h2v1h-2ZM16,10h1v1h-1ZM12,12h2v1h-2ZM13,13h2v1h-2ZM9,14h1v1h-1ZM13,14h1v2h-1ZM16,14h2v1h-2ZM8,15h1v2h-1ZM17,15h1v1h-1ZM12,16h1v1h-1ZM8,17h5v2h-5ZM20,17h1v1h-1ZM18,18h1v1h-1ZM9,19h4v1h-4ZM6,21h2v1h-2ZM20,21h2v1h-2ZM8,22h1v1h-1ZM14,22h6v1h-6Z"/><path fill="rgb(255,255,255)" d="M12,4h1v1h-1ZM11,5h1v1h-1ZM12,6h1v1h-1ZM8,7h1v1h-1ZM7,8h2v1h-2ZM10,13h3v2h-3ZM9,15h4v1h-4ZM9,16h3v1h-3ZM19,17h1v1h-1ZM9,22h5v1h-5Z"/><path fill="rgb(219,36,113)" d="M16,4h2v1h-2ZM15,5h3v1h-3ZM14,6h1v1h-1ZM17,6h2v2h-2ZM11,7h4v1h-4ZM10,8h2v1h-2ZM13,8h1v1h-1ZM15,8h4v1h-4ZM7,9h1v1h-1ZM12,9h1v1h-1ZM14,9h4v1h-4ZM9,10h1v1h-1ZM12,10h4v1h-4ZM17,10h1v1h-1ZM11,11h7v1h-7ZM14,12h3v1h-3ZM16,13h2v1h-2ZM14,14h1v1h-1ZM7,16h1v3h-1ZM13,16h1v1h-1ZM19,18h1v1h-1ZM8,19h1v1h-1ZM13,19h2v1h-2ZM17,19h3v1h-3ZM7,20h1v1h-1ZM11,20h2v1h-2ZM8,21h12v1h-12Z"/><path fill="rgb(64,109,234)" d="M14,5h1v1h-1Z"/><path fill="rgb(41,50,62)" d="M6,8h1v2h-1ZM7,10h2v1h-2ZM9,11h1v1h-1Z"/></svg>