<svg version="1.1" xmlns="http://www.w3.org/2000/svg" xmlns:xlink="http://www.w3.org/1999/xlink" shape-rendering="crispEdges" width="24" height="24" viewBox="0 0 24 24"><path fill="rgb(219,92,54)" d="M2,0h1v1h-1ZM4,0h1v2h-1ZM9,0h6v1h-6ZM1,1h1v1h-1ZM8,1h1v1h-1ZM15,1h1v1h-1ZM20,1h1v1h-1ZM2,2h2v1h-2ZM17,2h1v1h-1ZM19,2h1v1h-1ZM21,2h1v1h-1ZM5,3h1v1h-1ZM16,3h1v1h-1ZM3,4h1v2h-1ZM15,4h1v1h-1ZM19,5h1v2h-1ZM22,6h1v1h-1ZM2,7h1v5h-1ZM21,7h1v1h-1ZM14,8h2v1h-2ZM19,8h1v1h-1ZM20,11h1v1h-1ZM19,12h2v1h-2ZM15,13h1v1h-1ZM18,13h2v1h-2ZM13,14h1v1h-1ZM15,15h1v3h-1ZM5,16h1v1h-1ZM17,16h1v1h-1ZM0,17h1v2h-1ZM6,17h1v1h-1ZM21,17h2v1h-2ZM2,18h1v1h-1ZM8,18h2v1h-2ZM20,18h1v1h-1Z"/><path fill="rgb(255,177,85)" d="M3,0h1v1h-1ZM2,1h2v1h-2ZM9,1h6v2h-6ZM6,2h2v1h-2ZM20,2h1v1h-1ZM7,3h5v1h-5ZM13,3h3v1h-3ZM4,4h1v1h-1ZM6,4h2v1h-2ZM9,4h6v1h-6ZM16,4h1v1h-1ZM7,5h2v1h-2ZM11,5h3v1h-3ZM15,5h3v1h-3ZM4,6h1v1h-1ZM13,6h6v1h-6ZM3,7h2v3h-2ZM15,7h1v1h-1ZM22,7h1v1h-1ZM17,8h1v1h-1ZM14,9h3v1h-3ZM18,9h1v1h-1ZM3,10h1v1h-1ZM5,10h1v1h-1ZM14,10h2v1h-2ZM3,11h3v2h-3ZM14,11h5v1h-5ZM14,12h4v1h-4ZM5,13h1v1h-1ZM16,13h1v1h-1ZM5,14h2v1h-2ZM14,14h4v1h-4ZM6,15h2v1h-2ZM12,15h1v1h-1ZM14,15h1v1h-1ZM7,16h6v1h-6ZM11,17h3v1h-3ZM1,18h1v2h-1ZM21,18h2v2h-2ZM21,20h1v1h-1Z"/><path fill="rgb(237,126,69)" d="M6,1h2v1h-2ZM5,2h1v1h-1ZM8,2h1v1h-1ZM15,2h2v1h-2ZM4,3h1v1h-1ZM12,3h1v1h-1ZM17,3h1v1h-1ZM5,4h1v1h-1ZM8,4h1v1h-1ZM17,4h2v1h-2ZM4,5h1v1h-1ZM9,5h2v1h-2ZM14,5h1v1h-1ZM18,5h1v1h-1ZM3,6h1v1h-1ZM7,6h1v1h-1ZM12,6h1v1h-1ZM6,7h1v1h-1ZM13,7h2v1h-2ZM16,7h1v1h-1ZM18,7h2v1h-2ZM18,8h1v1h-1ZM20,8h1v1h-1ZM5,9h1v1h-1ZM17,9h1v1h-1ZM19,9h2v1h-2ZM16,10h5v1h-5ZM19,11h1v1h-1ZM18,12h1v1h-1ZM4,13h1v2h-1ZM14,13h1v1h-1ZM17,13h1v1h-1ZM20,13h1v1h-1ZM18,14h1v1h-1ZM5,15h1v1h-1ZM13,15h1v1h-1ZM16,15h3v1h-3ZM6,16h1v1h-1ZM13,16h2v1h-2ZM1,17h1v1h-1ZM7,17h4v1h-4ZM14,17h1v1h-1ZM16,17h1v1h-1ZM10,18h4v1h-4Z"/><path fill="rgb(140,14,31)" d="M16,1h1v1h-1ZM18,3h1v1h-1ZM20,3h2v1h-2ZM19,4h1v1h-1ZM20,5h1v3h-1ZM17,7h1v1h-1ZM23,7h1v1h-1ZM16,8h1v1h-1ZM21,8h2v1h-2ZM21,9h1v5h-1ZM2,12h1v1h-1ZM6,12h1v1h-1ZM13,12h1v1h-1ZM3,13h1v2h-1ZM7,13h1v1h-1ZM12,13h1v1h-1ZM8,14h4v1h-4ZM19,14h2v1h-2ZM4,15h1v2h-1ZM19,15h1v1h-1ZM16,16h1v1h-1ZM18,16h1v1h-1ZM5,17h1v1h-1ZM17,17h1v1h-1ZM6,18h2v1h-2ZM14,18h3v1h-3ZM23,18h1v2h-1ZM0,19h1v1h-1ZM2,19h1v1h-1ZM11,19h4v1h-4ZM20,19h1v2h-1ZM1,20h2v1h-2ZM22,20h1v1h-1ZM21,21h1v1h-1Z"/><path fill="rgb(254,236,186)" d="M6,3h1v1h-1ZM5,5h2v2h-2ZM5,7h1v2h-1ZM4,10h1v1h-1ZM6,13h1v1h-1ZM13,13h1v1h-1ZM7,14h1v1h-1ZM12,14h1v1h-1ZM8,15h4v1h-4Z"/><path fill="rgb(95,5,120)" d="M8,6h4v1h-4ZM7,7h1v1h-1ZM12,7h1v1h-1ZM6,8h1v1h-1ZM9,8h2v1h-2ZM13,8h1v1h-1ZM11,9h1v2h-1Z"/><path fill="rgb(219,36,113)" d="M8,7h4v1h-4ZM7,8h1v1h-1ZM11,8h2v1h-2ZM6,9h1v3h-1ZM8,9h3v3h-3ZM12,9h1v1h-1ZM12,10h2v2h-2ZM7,12h1v1h-1ZM11,12h2v1h-2ZM8,13h4v1h-4Z"/><path fill="rgb(161,0,112)" d="M8,8h1v1h-1ZM7,9h1v3h-1ZM13,9h1v1h-1ZM11,11h1v1h-1ZM8,12h3v1h-3Z"/><path fill="rgb(0,0,0)" d="M18,17h1v1h-1ZM17,18h2v1h-2ZM4,19h7v1h-7ZM15,19h5v1h-5ZM3,20h17v1h-17ZM4,21h16v1h-16ZM5,22h14v1h-14ZM8,23h7v1h-7Z"/></svg>