<svg version="1.1" xmlns="http://www.w3.org/2000/svg" xmlns:xlink="http://www.w3.org/1999/xlink" shape-rendering="crispEdges" width="24" height="24" viewBox="0 0 24 24"><path fill="rgb(219,92,54)" d="M3,0h1v1h-1ZM2,1h1v1h-1ZM4,1h1v2h-1ZM9,1h6v1h-6ZM19,1h1v1h-1ZM1,2h1v1h-1ZM8,2h1v1h-1ZM15,2h1v1h-1ZM18,2h1v1h-1ZM20,2h1v1h-1ZM2,3h2v1h-2ZM17,3h1v1h-1ZM4,4h2v1h-2ZM22,5h1v1h-1ZM19,6h1v2h-1ZM21,6h1v1h-1ZM2,8h1v5h-1ZM7,8h1v1h-1ZM12,8h1v1h-1ZM6,9h1v1h-1ZM13,9h3v1h-3ZM19,9h1v1h-1ZM20,12h1v1h-1ZM6,13h1v1h-1ZM13,13h1v1h-1ZM19,13h2v1h-2ZM7,14h1v1h-1ZM12,14h1v1h-1ZM15,14h1v1h-1ZM17,14h1v1h-1ZM19,14h1v1h-1ZM13,15h1v1h-1ZM15,16h1v1h-1ZM21,16h2v1h-2ZM0,17h1v1h-1ZM2,17h1v1h-1ZM5,17h1v1h-1ZM17,17h1v1h-1ZM20,17h1v1h-1ZM6,18h1v1h-1ZM15,18h1v1h-1ZM9,19h2v1h-2ZM3,23h1v1h-1Z"/><path fill="rgb(255,177,85)" d="M3,1h1v1h-1ZM2,2h2v1h-2ZM9,2h6v2h-6ZM19,2h1v1h-1ZM6,3h2v1h-2ZM18,3h2v1h-2ZM7,4h5v1h-5ZM13,4h3v1h-3ZM4,5h1v1h-1ZM6,5h2v1h-2ZM9,5h3v1h-3ZM13,5h2v1h-2ZM16,5h1v1h-1ZM7,6h2v1h-2ZM11,6h3v1h-3ZM15,6h3v1h-3ZM22,6h1v1h-1ZM4,7h1v1h-1ZM9,7h10v1h-10ZM3,8h2v1h-2ZM13,8h1v1h-1ZM15,8h1v1h-1ZM3,9h3v1h-3ZM17,9h1v1h-1ZM3,10h2v1h-2ZM14,10h3v2h-3ZM18,10h1v1h-1ZM3,11h1v1h-1ZM5,11h1v1h-1ZM3,12h3v2h-3ZM14,12h2v1h-2ZM17,12h1v1h-1ZM14,13h4v1h-4ZM5,14h1v1h-1ZM16,14h1v1h-1ZM18,14h1v1h-1ZM5,15h2v1h-2ZM14,15h5v1h-5ZM6,16h6v1h-6ZM13,16h2v1h-2ZM1,17h1v2h-1ZM7,17h5v1h-5ZM13,17h1v1h-1ZM21,17h2v2h-2ZM11,18h3v1h-3ZM21,19h1v1h-1Z"/><path fill="rgb(237,126,69)" d="M6,2h2v1h-2ZM5,3h1v1h-1ZM8,3h1v1h-1ZM15,3h2v1h-2ZM12,4h1v2h-1ZM16,4h2v1h-2ZM3,5h1v1h-1ZM5,5h1v1h-1ZM8,5h1v1h-1ZM15,5h1v1h-1ZM17,5h2v1h-2ZM3,6h2v1h-2ZM9,6h2v1h-2ZM14,6h1v1h-1ZM18,6h1v1h-1ZM3,7h1v1h-1ZM14,8h1v1h-1ZM16,8h1v1h-1ZM18,8h2v1h-2ZM18,9h1v1h-1ZM20,9h1v1h-1ZM5,10h1v1h-1ZM17,10h1v1h-1ZM19,10h2v1h-2ZM17,11h4v1h-4ZM16,12h1v1h-1ZM18,12h2v1h-2ZM18,13h1v1h-1ZM4,14h1v2h-1ZM14,14h1v1h-1ZM20,14h1v1h-1ZM1,16h1v1h-1ZM5,16h1v1h-1ZM12,16h1v2h-1ZM16,16h3v1h-3ZM6,17h1v1h-1ZM14,17h1v2h-1ZM7,18h4v1h-4ZM16,18h1v1h-1ZM11,19h3v1h-3Z"/><path fill="rgb(140,14,31)" d="M16,2h1v1h-1ZM20,3h1v1h-1ZM18,4h2v1h-2ZM19,5h1v1h-1ZM20,6h1v3h-1ZM23,6h1v1h-1ZM22,7h1v1h-1ZM17,8h1v1h-1ZM16,9h1v1h-1ZM21,9h1v6h-1ZM2,13h1v1h-1ZM7,13h1v1h-1ZM12,13h1v1h-1ZM3,14h1v2h-1ZM8,14h4v1h-4ZM19,15h2v1h-2ZM4,16h1v2h-1ZM19,16h1v1h-1ZM15,17h2v1h-2ZM18,17h1v1h-1ZM23,17h1v2h-1ZM0,18h1v1h-1ZM2,18h1v1h-1ZM5,18h1v1h-1ZM17,18h1v1h-1ZM20,18h1v2h-1ZM1,19h2v1h-2ZM6,19h3v1h-3ZM14,19h3v1h-3ZM22,19h1v1h-1ZM11,20h4v1h-4ZM21,20h1v1h-1Z"/><path fill="rgb(254,236,186)" d="M6,4h1v1h-1ZM5,6h2v1h-2ZM5,7h4v1h-4ZM5,8h2v1h-2ZM4,11h1v1h-1ZM6,14h1v1h-1ZM13,14h1v1h-1ZM7,15h6v1h-6Z"/><path fill="rgb(0,22,48)" d="M8,8h4v1h-4ZM7,9h1v1h-1ZM12,9h1v1h-1ZM8,10h3v1h-3ZM11,11h1v1h-1Z"/><path fill="rgb(0,65,114)" d="M8,9h3v1h-3ZM7,10h1v1h-1ZM11,10h1v1h-1ZM6,11h1v1h-1ZM8,11h3v1h-3ZM12,11h2v1h-2ZM7,12h1v1h-1ZM11,12h3v1h-3ZM8,13h4v1h-4Z"/><path fill="rgb(0,43,75)" d="M11,9h1v1h-1ZM6,10h1v1h-1ZM12,10h2v1h-2ZM7,11h1v1h-1ZM6,12h1v1h-1ZM8,12h3v1h-3Z"/><path fill="rgb(0,0,0)" d="M18,18h1v1h-1ZM4,19h2v1h-2ZM17,19h3v1h-3ZM3,20h8v1h-8ZM15,20h6v1h-6ZM4,21h16v1h-16ZM5,22h14v1h-14ZM8,23h7v1h-7Z"/></svg>