<svg version="1.1" xmlns="http://www.w3.org/2000/svg" xmlns:xlink="http://www.w3.org/1999/xlink" shape-rendering="crispEdges" width="24" height="24" viewBox="0 0 24 24"><path fill="rgb(229,177,136)" d="M10,1h1v1h-1ZM14,1h1v1h-1Z"/><path fill="rgb(74,90,115)" d="M11,1h3v1h-3ZM16,1h1v1h-1ZM17,2h1v1h-1ZM9,3h1v2h-1ZM15,3h1v2h-1ZM18,3h1v1h-1ZM17,5h1v1h-1ZM10,6h2v1h-2ZM15,6h2v1h-2ZM16,7h1v1h-1ZM10,10h3v1h-3ZM15,11h1v1h-1ZM14,12h1v1h-1Z"/><path fill="rgb(120,55,2)" d="M15,1h1v2h-1ZM10,2h1v1h-1ZM14,3h1v1h-1Z"/><path fill="rgb(200,206,200)" d="M11,2h2v1h-2ZM16,2h1v1h-1ZM10,3h1v1h-1ZM12,3h1v1h-1ZM17,3h1v2h-1ZM10,4h2v1h-2ZM12,5h1v1h-1ZM17,6h1v2h-1ZM11,8h2v1h-2ZM15,8h1v2h-1ZM12,9h1v1h-1ZM13,10h1v1h-1ZM12,11h2v1h-2Z"/><path fill="rgb(156,165,181)" d="M13,2h1v2h-1ZM16,3h1v3h-1ZM12,4h3v1h-3ZM10,5h2v1h-2ZM11,7h1v1h-1ZM15,7h1v1h-1ZM16,8h1v1h-1ZM11,9h1v1h-1ZM11,11h1v1h-1Z"/><path fill="rgb(255,242,164)" d="M14,2h1v1h-1Z"/><path fill="rgb(247,247,247)" d="M11,3h1v1h-1ZM10,7h1v2h-1Z"/><path fill="rgb(41,50,62)" d="M18,4h1v3h-1ZM9,7h1v2h-1ZM17,8h1v2h-1ZM9,9h2v1h-2ZM9,10h1v1h-1ZM16,10h1v1h-1ZM9,11h2v1h-2ZM12,12h1v1h-1ZM8,13h1v1h-1ZM10,13h1v2h-1ZM10,16h1v1h-1ZM9,17h1v2h-1ZM17,18h1v1h-1ZM12,19h1v1h-1ZM16,19h2v1h-2ZM16,20h1v1h-1ZM16,22h1v1h-1ZM19,22h1v1h-1Z"/><path fill="rgb(47,41,41)" d="M8,5h2v1h-2ZM13,5h3v1h-3ZM9,6h1v1h-1ZM12,6h3v1h-3ZM14,7h1v1h-1ZM18,7h1v1h-1ZM11,12h1v1h-1Z"/><path fill="rgb(239,215,0)" d="M12,7h2v1h-2Z"/><path fill="rgb(212,32,113)" d="M13,8h2v2h-2ZM14,10h1v2h-1Z"/><path fill="rgb(0,0,0)" d="M16,9h1v1h-1ZM18,10h1v1h-1ZM6,12h1v1h-1ZM10,12h1v1h-1ZM13,12h1v1h-1ZM15,12h1v1h-1ZM22,12h1v1h-1ZM7,13h1v1h-1ZM12,13h3v1h-3ZM17,13h7v1h-7ZM8,14h1v1h-1ZM23,14h1v6h-1ZM7,15h1v1h-1ZM10,15h1v1h-1ZM5,17h1v1h-1ZM12,17h4v1h-4ZM10,18h3v1h-3ZM15,18h2v1h-2ZM7,19h3v1h-3ZM15,19h1v1h-1ZM9,20h1v1h-1ZM13,20h3v2h-3ZM22,20h1v1h-1ZM5,21h1v1h-1ZM8,21h1v1h-1ZM21,21h1v1h-1ZM4,22h1v1h-1ZM8,22h8v1h-8ZM20,22h4v1h-4ZM3,23h1v1h-1ZM10,23h11v1h-11Z"/><path fill="rgb(76,95,114)" d="M8,10h1v1h-1ZM19,10h2v1h-2ZM7,11h1v1h-1ZM21,11h1v1h-1ZM11,13h1v1h-1ZM9,14h1v1h-1ZM8,15h2v1h-2ZM11,16h4v1h-4ZM6,17h1v1h-1ZM4,18h1v1h-1ZM7,18h1v1h-1ZM3,19h1v1h-1ZM13,19h2v1h-2ZM2,20h1v1h-1ZM6,20h1v1h-1ZM10,20h1v1h-1ZM17,20h1v1h-1ZM1,21h1v2h-1ZM9,21h1v1h-1ZM16,21h1v1h-1ZM1,23h2v1h-2Z"/><path fill="rgb(62,69,78)" d="M15,10h1v1h-1Z"/><path fill="rgb(95,5,120)" d="M17,10h1v1h-1ZM16,11h1v1h-1ZM9,13h1v1h-1ZM16,14h1v3h-1ZM19,15h3v1h-3ZM23,20h1v2h-1Z"/><path fill="rgb(241,242,242)" d="M8,11h1v1h-1ZM19,11h1v1h-1ZM7,12h1v1h-1ZM20,12h1v1h-1ZM11,14h2v2h-2ZM14,14h2v2h-2ZM16,17h1v1h-1ZM5,18h1v1h-1ZM4,19h1v1h-1ZM10,19h1v1h-1ZM3,20h1v1h-1ZM11,20h1v1h-1ZM2,21h1v1h-1ZM17,22h2v1h-2Z"/><path fill="rgb(161,0,112)" d="M17,11h1v1h-1ZM9,12h1v1h-1ZM16,12h1v2h-1ZM19,16h1v4h-1ZM21,16h1v4h-1ZM20,20h1v1h-1Z"/><path fill="rgb(154,160,176)" d="M18,11h1v1h-1ZM20,11h1v1h-1ZM17,12h1v1h-1ZM21,12h1v1h-1ZM15,13h1v1h-1ZM13,14h1v2h-1ZM15,16h1v1h-1ZM7,17h1v1h-1ZM10,17h2v1h-2ZM6,18h1v1h-1ZM13,18h2v1h-2ZM5,19h1v1h-1ZM4,20h1v1h-1ZM3,21h1v1h-1ZM12,21h1v1h-1ZM2,22h1v1h-1Z"/><path fill="rgb(204,204,205)" d="M8,12h1v1h-1ZM18,12h2v1h-2ZM9,16h1v1h-1ZM6,19h1v1h-1ZM11,19h1v1h-1ZM5,20h1v1h-1ZM12,20h1v1h-1ZM4,21h1v1h-1ZM10,21h2v1h-2ZM17,21h2v1h-2ZM3,22h1v1h-1Z"/><path fill="rgb(93,53,13)" d="M17,14h1v4h-1ZM5,16h1v1h-1ZM18,20h1v1h-1ZM19,21h1v1h-1Z"/><path fill="rgb(255,245,155)" d="M18,14h5v1h-5ZM18,15h1v2h-1ZM22,15h1v2h-1ZM6,16h2v1h-2ZM8,17h1v1h-1Z"/><path fill="rgb(183,90,0)" d="M5,15h2v1h-2ZM8,16h1v1h-1Z"/><path fill="rgb(219,36,113)" d="M20,16h1v4h-1ZM22,21h1v1h-1Z"/><path fill="rgb(255,204,101)" d="M18,17h1v3h-1ZM22,17h1v3h-1ZM8,18h1v1h-1ZM19,20h1v1h-1ZM21,20h1v1h-1ZM20,21h1v1h-1Z"/></svg>