<svg version="1.1" xmlns="http://www.w3.org/2000/svg" xmlns:xlink="http://www.w3.org/1999/xlink" shape-rendering="crispEdges" width="24" height="24" viewBox="0 0 24 24"><path fill="rgb(141,121,89)" d="M9,1h5v1h-5ZM8,2h1v1h-1ZM14,2h1v1h-1ZM13,4h2v2h-2ZM3,5h2v1h-2ZM2,6h1v1h-1ZM3,7h1v2h-1ZM8,7h1v1h-1ZM12,7h2v1h-2ZM4,9h1v1h-1ZM15,9h1v1h-1ZM8,10h1v1h-1ZM13,10h1v1h-1ZM10,11h1v1h-1ZM12,11h2v1h-2ZM4,12h1v1h-1ZM4,13h2v1h-2ZM6,16h1v1h-1ZM8,16h2v1h-2ZM11,16h1v1h-1ZM9,18h1v1h-1ZM18,18h1v1h-1ZM9,20h2v1h-2ZM18,20h1v1h-1ZM20,20h2v1h-2Z"/><path fill="rgb(76,95,114)" d="M15,1h4v1h-4ZM19,2h1v1h-1ZM20,3h1v1h-1ZM16,5h1v1h-1ZM18,5h1v1h-1ZM21,5h1v1h-1ZM16,6h2v1h-2ZM19,6h1v1h-1ZM16,7h3v1h-3Z"/><path fill="rgb(221,207,185)" d="M9,2h5v1h-5ZM9,3h3v1h-3ZM9,4h2v1h-2ZM3,6h3v1h-3ZM9,6h2v1h-2ZM12,6h3v1h-3ZM4,7h1v1h-1ZM9,7h3v1h-3ZM6,8h1v1h-1ZM10,9h1v1h-1ZM10,12h1v1h-1ZM13,12h1v1h-1ZM7,16h1v1h-1ZM7,21h2v1h-2ZM19,21h3v1h-3Z"/><path fill="rgb(154,160,176)" d="M15,2h2v1h-2ZM18,2h1v1h-1ZM16,4h4v1h-4ZM19,5h1v1h-1ZM18,6h1v1h-1Z"/><path fill="rgb(255,255,255)" d="M17,2h1v1h-1ZM19,3h1v1h-1Z"/><path fill="rgb(41,50,62)" d="M7,3h1v4h-1ZM15,3h1v4h-1Z"/><path fill="rgb(185,171,146)" d="M8,3h1v1h-1ZM12,3h3v1h-3ZM11,4h1v1h-1ZM9,5h2v1h-2ZM1,7h2v2h-2ZM5,7h1v1h-1ZM4,8h1v1h-1ZM5,9h1v1h-1ZM9,9h1v1h-1ZM11,9h1v1h-1ZM7,11h2v1h-2ZM11,11h1v1h-1ZM6,12h1v1h-1ZM12,12h1v1h-1ZM10,16h1v1h-1ZM7,17h1v1h-1ZM8,18h1v1h-1ZM17,18h1v1h-1ZM9,19h1v1h-1ZM18,19h1v1h-1ZM8,20h1v1h-1ZM19,20h1v1h-1ZM6,21h1v1h-1ZM9,21h2v1h-2ZM18,21h1v1h-1Z"/><path fill="rgb(204,204,205)" d="M16,3h3v1h-3ZM17,5h1v1h-1ZM20,5h1v1h-1Z"/><path fill="rgb(97,86,67)" d="M8,4h1v1h-1ZM12,4h1v1h-1ZM2,5h1v1h-1ZM5,5h1v1h-1ZM1,6h1v1h-1ZM0,7h1v2h-1ZM6,7h1v1h-1ZM5,8h1v1h-1ZM14,8h2v1h-2ZM0,9h4v1h-4ZM13,9h2v1h-2ZM16,9h1v1h-1ZM19,9h1v1h-1ZM3,10h1v1h-1ZM7,10h1v1h-1ZM12,10h1v1h-1ZM14,10h2v1h-2ZM20,10h1v1h-1ZM4,11h3v1h-3ZM9,11h1v1h-1ZM14,11h1v5h-1ZM21,11h1v2h-1ZM5,12h1v1h-1ZM7,15h5v1h-5ZM6,17h1v1h-1ZM9,17h3v1h-3ZM15,17h1v1h-1ZM16,18h1v1h-1ZM17,19h1v1h-1ZM19,19h1v1h-1Z"/><path fill="rgb(0,0,0)" d="M20,4h1v1h-1ZM8,5h1v1h-1ZM11,5h1v1h-1ZM6,6h1v1h-1ZM20,6h1v1h-1ZM7,7h1v1h-1ZM14,7h2v1h-2ZM19,7h1v1h-1ZM7,8h2v1h-2ZM12,8h2v1h-2ZM16,8h3v1h-3ZM6,9h1v1h-1ZM8,9h1v1h-1ZM12,9h1v1h-1ZM4,10h2v1h-2ZM9,10h3v1h-3ZM7,12h3v1h-3ZM11,12h1v1h-1ZM6,13h1v1h-1ZM10,13h4v1h-4ZM21,13h1v2h-1ZM4,14h2v1h-2ZM13,14h1v1h-1ZM15,15h1v1h-1ZM20,15h1v1h-1ZM14,16h3v1h-3ZM19,16h1v1h-1ZM8,17h1v1h-1ZM14,17h1v1h-1ZM16,17h3v1h-3ZM7,18h1v1h-1ZM12,18h3v1h-3ZM7,19h2v1h-2ZM10,19h1v1h-1ZM5,20h3v1h-3ZM11,20h7v2h-7ZM4,21h2v1h-2ZM22,21h1v1h-1ZM5,22h17v1h-17ZM7,23h13v1h-13Z"/><path fill="rgb(245,0,61)" d="M12,5h1v1h-1ZM8,6h1v1h-1ZM11,6h1v1h-1Z"/><path fill="rgb(62,69,78)" d="M9,8h3v1h-3Z"/><path fill="rgb(255,245,155)" d="M17,9h2v1h-2Z"/><path fill="rgb(255,204,101)" d="M16,10h1v1h-1ZM19,10h1v1h-1ZM16,15h1v1h-1ZM19,15h1v1h-1ZM17,16h2v1h-2Z"/><path fill="rgb(0,22,48)" d="M17,10h2v1h-2ZM16,11h1v3h-1ZM19,11h1v1h-1Z"/><path fill="rgb(249,152,51)" d="M15,11h1v4h-1ZM20,11h1v4h-1Z"/><path fill="rgb(0,65,114)" d="M17,11h2v4h-2ZM12,16h2v2h-2Z"/><path fill="rgb(0,43,75)" d="M19,12h1v3h-1ZM16,14h1v1h-1ZM12,15h2v1h-2ZM17,15h2v1h-2Z"/></svg>