<svg version="1.1" xmlns="http://www.w3.org/2000/svg" xmlns:xlink="http://www.w3.org/1999/xlink" shape-rendering="crispEdges" width="24" height="24" viewBox="0 0 24 24"><path fill="rgb(141,121,89)" d="M9,0h5v1h-5ZM8,1h1v1h-1ZM14,1h1v1h-1ZM13,3h2v2h-2ZM3,4h2v1h-2ZM2,5h1v1h-1ZM3,6h1v2h-1ZM8,6h1v1h-1ZM12,6h2v1h-2ZM4,8h1v1h-1ZM15,8h1v1h-1ZM8,9h1v1h-1ZM13,9h1v1h-1ZM10,10h1v1h-1ZM12,10h2v1h-2ZM4,11h1v1h-1ZM4,12h2v1h-2ZM11,15h1v1h-1ZM6,16h1v1h-1ZM8,16h2v1h-2ZM7,17h1v1h-1ZM9,20h2v1h-2ZM18,20h1v1h-1ZM20,20h2v1h-2Z"/><path fill="rgb(76,95,114)" d="M15,0h4v1h-4ZM19,1h1v1h-1ZM20,2h1v1h-1ZM16,4h1v1h-1ZM18,4h1v1h-1ZM21,4h1v1h-1ZM16,5h2v1h-2ZM19,5h1v1h-1ZM16,6h3v1h-3Z"/><path fill="rgb(221,207,185)" d="M9,1h5v1h-5ZM9,2h3v1h-3ZM9,3h2v1h-2ZM3,5h3v1h-3ZM9,5h2v1h-2ZM12,5h3v1h-3ZM4,6h1v1h-1ZM9,6h3v1h-3ZM6,7h1v1h-1ZM10,8h1v1h-1ZM10,11h1v1h-1ZM13,11h1v1h-1ZM7,16h1v1h-1ZM17,17h1v1h-1ZM7,21h2v1h-2ZM19,21h3v1h-3Z"/><path fill="rgb(154,160,176)" d="M15,1h2v1h-2ZM18,1h1v1h-1ZM16,3h4v1h-4ZM19,4h1v1h-1ZM18,5h1v1h-1Z"/><path fill="rgb(255,255,255)" d="M17,1h1v1h-1ZM19,2h1v1h-1Z"/><path fill="rgb(41,50,62)" d="M7,2h1v4h-1ZM15,2h1v4h-1Z"/><path fill="rgb(185,171,146)" d="M8,2h1v1h-1ZM12,2h3v1h-3ZM11,3h1v1h-1ZM9,4h2v1h-2ZM1,6h2v2h-2ZM5,6h1v1h-1ZM4,7h1v1h-1ZM5,8h1v1h-1ZM9,8h1v1h-1ZM11,8h1v1h-1ZM7,10h2v1h-2ZM11,10h1v1h-1ZM6,11h1v1h-1ZM12,11h1v1h-1ZM10,15h1v1h-1ZM16,16h1v1h-1ZM8,18h1v1h-1ZM18,18h1v2h-1ZM9,19h1v1h-1ZM8,20h1v1h-1ZM19,20h1v1h-1ZM6,21h1v1h-1ZM9,21h2v1h-2ZM18,21h1v1h-1Z"/><path fill="rgb(204,204,205)" d="M16,2h3v1h-3ZM17,4h1v1h-1ZM20,4h1v1h-1Z"/><path fill="rgb(97,86,67)" d="M8,3h1v1h-1ZM12,3h1v1h-1ZM2,4h1v1h-1ZM5,4h1v1h-1ZM1,5h1v1h-1ZM0,6h1v2h-1ZM6,6h1v1h-1ZM5,7h1v1h-1ZM14,7h2v1h-2ZM0,8h4v1h-4ZM13,8h2v1h-2ZM16,8h1v1h-1ZM3,9h1v1h-1ZM7,9h1v1h-1ZM12,9h1v1h-1ZM14,9h2v1h-2ZM20,9h1v1h-1ZM4,10h3v1h-3ZM9,10h1v1h-1ZM14,10h1v5h-1ZM21,10h1v2h-1ZM5,11h1v1h-1ZM10,14h2v1h-2ZM7,15h3v1h-3ZM10,16h2v1h-2ZM6,17h1v1h-1ZM9,17h1v2h-1ZM18,17h1v1h-1ZM17,18h1v2h-1ZM19,18h1v2h-1Z"/><path fill="rgb(0,0,0)" d="M20,3h1v1h-1ZM8,4h1v1h-1ZM11,4h1v1h-1ZM6,5h1v1h-1ZM20,5h1v1h-1ZM7,6h1v1h-1ZM14,6h2v1h-2ZM19,6h1v1h-1ZM7,7h2v1h-2ZM12,7h2v1h-2ZM16,7h4v1h-4ZM6,8h1v1h-1ZM8,8h1v1h-1ZM12,8h1v1h-1ZM19,8h1v1h-1ZM4,9h2v1h-2ZM9,9h3v1h-3ZM7,11h3v1h-3ZM11,11h1v1h-1ZM6,12h1v1h-1ZM10,12h4v1h-4ZM21,12h1v2h-1ZM4,13h2v1h-2ZM12,13h2v1h-2ZM15,14h1v1h-1ZM20,14h1v1h-1ZM14,15h3v1h-3ZM19,15h1v1h-1ZM14,16h2v1h-2ZM17,16h2v1h-2ZM8,17h1v1h-1ZM12,17h3v1h-3ZM16,17h1v1h-1ZM7,18h1v1h-1ZM7,19h2v1h-2ZM10,19h7v1h-7ZM5,20h3v1h-3ZM11,20h7v2h-7ZM4,21h2v1h-2ZM22,21h1v1h-1ZM5,22h17v1h-17ZM7,23h13v1h-13Z"/><path fill="rgb(245,0,61)" d="M12,4h1v1h-1ZM8,5h1v1h-1ZM11,5h1v1h-1Z"/><path fill="rgb(62,69,78)" d="M9,7h3v1h-3Z"/><path fill="rgb(255,245,155)" d="M17,8h2v1h-2Z"/><path fill="rgb(255,204,101)" d="M16,9h1v1h-1ZM19,9h1v1h-1ZM16,14h1v1h-1ZM19,14h1v1h-1ZM17,15h2v1h-2Z"/><path fill="rgb(95,5,120)" d="M17,9h2v1h-2ZM16,10h1v3h-1ZM19,10h1v1h-1Z"/><path fill="rgb(249,152,51)" d="M15,10h1v4h-1ZM20,10h1v4h-1Z"/><path fill="rgb(219,36,113)" d="M17,10h2v4h-2ZM12,15h2v2h-2Z"/><path fill="rgb(161,0,112)" d="M19,11h1v3h-1ZM16,13h1v1h-1ZM12,14h2v1h-2ZM17,14h2v1h-2Z"/></svg>