<svg version="1.1" xmlns="http://www.w3.org/2000/svg" xmlns:xlink="http://www.w3.org/1999/xlink" shape-rendering="crispEdges" width="24" height="24" viewBox="0 0 24 24"><path fill="rgb(183,90,0)" d="M12,2h3v1h-3ZM10,3h2v1h-2ZM9,4h1v1h-1ZM11,5h1v1h-1ZM17,5h1v1h-1ZM19,5h1v1h-1ZM10,6h4v1h-4ZM18,6h1v1h-1ZM9,7h1v2h-1ZM19,7h1v1h-1ZM17,8h1v1h-1ZM4,15h3v1h-3ZM7,16h1v1h-1ZM8,17h1v2h-1Z"/><path fill="rgb(93,53,13)" d="M15,2h2v1h-2ZM17,3h1v1h-1ZM8,5h1v2h-1ZM12,5h2v1h-2ZM14,6h2v1h-2ZM10,7h2v1h-2ZM14,7h4v1h-4ZM18,8h2v1h-2ZM18,9h1v1h-1ZM17,10h1v1h-1ZM16,11h1v1h-1ZM13,12h3v1h-3ZM17,14h1v5h-1ZM4,16h1v1h-1ZM18,20h1v1h-1ZM19,21h1v1h-1Z"/><path fill="rgb(249,152,51)" d="M12,3h1v1h-1ZM14,3h2v1h-2ZM10,4h1v1h-1ZM16,4h1v1h-1ZM18,4h1v1h-1ZM9,5h2v1h-2ZM9,6h1v1h-1ZM19,6h1v1h-1ZM12,7h2v2h-2ZM18,7h1v1h-1ZM17,9h1v1h-1ZM11,11h1v1h-1ZM15,11h1v1h-1Z"/><path fill="rgb(255,204,101)" d="M13,3h1v1h-1ZM16,3h1v1h-1ZM11,4h3v1h-3ZM17,4h1v1h-1ZM14,5h2v1h-2ZM18,5h1v1h-1ZM16,6h1v1h-1ZM18,17h1v3h-1ZM22,17h1v3h-1ZM7,18h1v1h-1ZM19,20h1v1h-1ZM21,20h1v1h-1ZM20,21h1v1h-1Z"/><path fill="rgb(0,0,0)" d="M18,3h1v1h-1ZM19,4h1v1h-1ZM20,5h1v4h-1ZM8,7h1v2h-1ZM11,8h1v2h-1ZM14,8h2v2h-2ZM9,9h1v2h-1ZM19,9h1v1h-1ZM18,10h1v1h-1ZM10,11h1v1h-1ZM6,12h1v1h-1ZM11,12h2v1h-2ZM22,12h1v1h-1ZM7,13h1v2h-1ZM17,13h7v1h-7ZM23,14h1v6h-1ZM10,15h1v1h-1ZM4,17h1v1h-1ZM9,17h1v2h-1ZM6,19h4v1h-4ZM5,20h1v1h-1ZM9,20h1v1h-1ZM13,20h3v2h-3ZM22,20h1v1h-1ZM4,21h1v1h-1ZM8,21h1v1h-1ZM21,21h2v1h-2ZM0,22h1v1h-1ZM3,22h1v1h-1ZM8,22h8v1h-8ZM20,22h3v1h-3ZM0,23h3v1h-3ZM10,23h11v1h-11Z"/><path fill="rgb(255,245,155)" d="M14,4h2v1h-2ZM16,5h1v1h-1ZM17,6h1v1h-1ZM12,9h2v2h-2ZM10,10h1v1h-1ZM12,11h3v1h-3ZM18,14h5v1h-5ZM18,15h1v2h-1ZM22,15h1v2h-1ZM5,16h2v1h-2ZM7,17h1v1h-1Z"/><path fill="rgb(154,160,176)" d="M10,8h1v1h-1ZM16,8h1v1h-1ZM9,11h1v2h-1ZM18,11h1v1h-1ZM20,11h1v1h-1ZM17,12h1v1h-1ZM21,12h1v1h-1ZM11,13h1v1h-1ZM15,13h1v1h-1ZM9,15h1v1h-1ZM11,16h1v1h-1ZM15,16h1v1h-1ZM6,17h1v1h-1ZM5,18h1v1h-1ZM4,19h1v1h-1ZM3,20h1v1h-1ZM2,21h1v1h-1ZM12,21h1v1h-1Z"/><path fill="rgb(255,255,255)" d="M10,9h1v1h-1ZM16,9h1v2h-1Z"/><path fill="rgb(76,95,114)" d="M8,10h1v1h-1ZM19,10h2v1h-2ZM7,11h1v1h-1ZM17,11h1v1h-1ZM21,11h1v1h-1ZM16,12h1v1h-1ZM10,13h1v1h-1ZM8,14h2v1h-2ZM11,14h5v1h-5ZM9,16h1v1h-1ZM5,17h1v1h-1ZM3,18h1v1h-1ZM6,18h1v1h-1ZM10,18h1v1h-1ZM2,19h1v1h-1ZM1,20h1v1h-1ZM10,20h1v1h-1ZM17,20h1v1h-1ZM0,21h1v1h-1ZM9,21h1v1h-1ZM16,21h1v1h-1Z"/><path fill="rgb(0,153,55)" d="M11,10h1v1h-1ZM14,10h2v1h-2ZM19,16h1v4h-1ZM21,16h1v4h-1ZM11,17h5v2h-5ZM20,20h1v1h-1Z"/><path fill="rgb(241,242,242)" d="M8,11h1v1h-1ZM19,11h1v1h-1ZM7,12h1v1h-1ZM20,12h1v1h-1ZM8,15h1v1h-1ZM12,15h3v1h-3ZM4,18h1v1h-1ZM3,19h1v1h-1ZM10,19h1v1h-1ZM2,20h1v1h-1ZM11,20h1v1h-1ZM1,21h1v2h-1ZM17,22h2v1h-2Z"/><path fill="rgb(204,204,205)" d="M8,12h1v1h-1ZM18,12h2v1h-2ZM12,13h3v1h-3ZM7,15h1v1h-1ZM11,15h1v1h-1ZM15,15h1v1h-1ZM8,16h1v1h-1ZM12,16h3v1h-3ZM5,19h1v1h-1ZM11,19h1v1h-1ZM4,20h1v1h-1ZM12,20h1v1h-1ZM3,21h1v1h-1ZM10,21h2v1h-2ZM17,21h2v1h-2ZM2,22h1v1h-1Z"/><path fill="rgb(41,50,62)" d="M10,12h1v1h-1ZM8,13h2v1h-2ZM16,13h1v1h-1ZM10,14h1v1h-1ZM10,16h1v1h-1ZM12,19h1v1h-1ZM16,19h2v1h-2ZM16,20h1v1h-1ZM16,22h1v1h-1ZM19,22h1v1h-1Z"/><path fill="rgb(0,85,82)" d="M16,14h1v5h-1ZM19,15h3v1h-3ZM10,17h1v1h-1ZM13,19h3v1h-3Z"/><path fill="rgb(99,190,37)" d="M20,16h1v4h-1Z"/></svg>