<svg version="1.1" xmlns="http://www.w3.org/2000/svg" xmlns:xlink="http://www.w3.org/1999/xlink" shape-rendering="crispEdges" width="24" height="24" viewBox="0 0 24 24"><path fill="rgb(93,53,13)" d="M10,0h6v1h-6ZM8,1h2v2h-2ZM16,1h2v1h-2ZM18,2h1v2h-1ZM7,3h1v3h-1ZM13,3h1v1h-1ZM9,4h1v1h-1ZM14,4h1v2h-1ZM10,5h1v1h-1ZM7,6h2v1h-2ZM15,6h1v1h-1ZM19,6h1v1h-1ZM7,7h1v1h-1ZM16,7h1v1h-1ZM17,8h1v1h-1ZM15,9h1v1h-1ZM18,9h1v2h-1ZM4,10h2v1h-2ZM14,10h2v1h-2ZM3,11h1v2h-1ZM6,11h1v1h-1ZM11,11h6v1h-6ZM9,12h1v1h-1ZM4,13h1v1h-1ZM18,16h1v2h-1ZM17,18h1v1h-1ZM8,20h1v1h-1ZM15,21h1v1h-1ZM17,22h1v1h-1Z"/><path fill="rgb(171,132,81)" d="M10,1h1v1h-1ZM12,1h1v1h-1ZM14,1h1v1h-1ZM15,2h1v1h-1ZM8,3h1v2h-1ZM11,4h3v1h-3ZM18,4h1v1h-1ZM13,5h1v1h-1ZM15,5h1v1h-1Z"/><path fill="rgb(138,102,56)" d="M11,1h1v1h-1ZM12,2h1v1h-1ZM17,2h1v1h-1ZM16,3h1v1h-1ZM17,4h1v1h-1ZM16,5h1v1h-1ZM18,5h1v1h-1ZM16,6h3v1h-3ZM17,7h3v1h-3ZM16,8h1v1h-1ZM18,8h2v1h-2ZM16,9h2v2h-2ZM16,16h2v2h-2Z"/><path fill="rgb(195,163,107)" d="M13,1h1v1h-1ZM15,1h1v1h-1ZM10,2h2v1h-2ZM13,2h2v1h-2ZM16,2h1v1h-1ZM10,3h3v1h-3ZM14,3h2v1h-2ZM17,3h1v1h-1ZM15,4h2v1h-2ZM17,5h1v1h-1Z"/><path fill="rgb(0,0,0)" d="M7,2h1v1h-1ZM6,3h1v5h-1ZM9,3h1v1h-1ZM10,4h1v1h-1ZM19,4h1v2h-1ZM8,5h1v1h-1ZM11,5h2v1h-2ZM13,6h2v1h-2ZM20,6h1v3h-1ZM8,7h2v1h-2ZM12,7h4v1h-4ZM7,8h1v2h-1ZM9,8h1v1h-1ZM12,8h2v1h-2ZM6,10h3v1h-3ZM19,10h2v1h-2ZM7,11h4v1h-4ZM17,11h2v1h-2ZM21,11h1v2h-1ZM20,13h1v3h-1ZM4,14h1v2h-1ZM6,15h2v1h-2ZM9,15h1v1h-1ZM11,15h1v1h-1ZM14,15h5v1h-5ZM5,16h1v1h-1ZM9,16h6v1h-6ZM19,16h1v1h-1ZM14,17h1v2h-1ZM5,21h3v1h-3ZM9,21h6v1h-6ZM17,21h3v1h-3ZM5,22h11v1h-11ZM18,22h2v1h-2ZM7,23h11v1h-11Z"/><path fill="rgb(183,90,0)" d="M9,5h1v2h-1ZM11,6h2v1h-2Z"/><path fill="rgb(249,152,51)" d="M10,6h1v1h-1ZM10,7h2v1h-2ZM15,8h1v1h-1ZM9,10h1v1h-1ZM13,10h1v1h-1ZM5,11h1v1h-1ZM4,12h1v1h-1ZM11,12h2v1h-2ZM20,12h1v1h-1ZM11,13h1v1h-1ZM15,19h1v1h-1ZM8,21h1v1h-1ZM16,22h1v1h-1Z"/><path fill="rgb(255,255,255)" d="M8,8h1v1h-1ZM14,8h1v2h-1Z"/><path fill="rgb(255,245,155)" d="M10,8h2v2h-2ZM8,9h1v1h-1ZM10,10h3v1h-3ZM4,11h1v1h-1ZM19,11h2v1h-2ZM5,12h1v1h-1ZM19,12h1v1h-1ZM10,13h1v1h-1ZM12,13h1v1h-1ZM15,20h1v1h-1ZM16,21h1v1h-1Z"/><path fill="rgb(219,36,113)" d="M4,9h2v1h-2ZM9,9h1v1h-1ZM12,9h2v1h-2ZM19,9h2v1h-2ZM3,10h1v1h-1ZM21,10h1v1h-1ZM2,11h1v2h-1ZM22,11h1v2h-1ZM3,13h1v1h-1ZM21,13h1v1h-1Z"/><path fill="rgb(150,217,244)" d="M6,12h1v2h-1ZM18,12h1v2h-1ZM5,14h1v2h-1ZM19,14h1v2h-1ZM8,19h1v1h-1ZM10,20h4v1h-4Z"/><path fill="rgb(12,53,112)" d="M7,12h2v1h-2ZM14,12h4v1h-4ZM5,13h1v1h-1ZM8,13h2v1h-2ZM15,13h2v1h-2ZM19,13h1v1h-1ZM8,14h1v1h-1ZM14,14h2v1h-2ZM10,15h1v1h-1ZM12,15h2v1h-2ZM15,16h1v2h-1ZM8,17h1v2h-1ZM13,17h1v1h-1ZM16,18h1v1h-1ZM7,19h1v1h-1ZM14,19h1v1h-1ZM17,19h1v2h-1ZM9,20h1v1h-1Z"/><path fill="rgb(0,100,198)" d="M10,12h1v1h-1ZM13,12h1v1h-1ZM14,13h1v1h-1ZM7,14h1v1h-1ZM9,14h1v1h-1ZM11,14h1v1h-1ZM16,14h1v1h-1ZM9,17h4v1h-4ZM13,18h1v1h-1ZM15,18h1v1h-1ZM16,19h1v2h-1ZM7,20h1v1h-1ZM14,20h1v1h-1Z"/><path fill="rgb(65,149,233)" d="M7,13h1v1h-1ZM13,13h1v1h-1ZM17,13h1v1h-1ZM6,14h1v1h-1ZM10,14h1v1h-1ZM12,14h2v1h-2ZM17,14h2v1h-2ZM9,18h4v1h-4ZM9,19h5v1h-5Z"/></svg>