<svg version="1.1" xmlns="http://www.w3.org/2000/svg" xmlns:xlink="http://www.w3.org/1999/xlink" shape-rendering="crispEdges" width="24" height="24" viewBox="0 0 24 24"><path fill="rgb(93,53,13)" d="M9,0h6v1h-6ZM7,1h2v2h-2ZM15,1h2v1h-2ZM17,2h1v1h-1ZM6,3h1v3h-1ZM12,3h1v1h-1ZM18,3h1v1h-1ZM8,4h1v1h-1ZM13,4h1v2h-1ZM9,5h1v1h-1ZM18,5h1v1h-1ZM6,6h2v1h-2ZM14,6h1v1h-1ZM6,7h1v1h-1ZM15,7h1v1h-1ZM16,8h1v2h-1ZM14,9h1v1h-1ZM3,10h2v1h-2ZM13,10h2v1h-2ZM17,10h1v1h-1ZM2,11h1v2h-1ZM5,11h1v1h-1ZM10,11h6v1h-6ZM8,12h1v1h-1ZM3,13h1v1h-1ZM18,17h1v1h-1ZM14,18h1v1h-1ZM17,18h1v1h-1ZM8,20h1v1h-1ZM15,21h1v1h-1ZM17,22h1v1h-1Z"/><path fill="rgb(171,132,81)" d="M9,1h1v1h-1ZM11,1h1v1h-1ZM13,1h1v1h-1ZM14,2h1v1h-1ZM7,3h1v2h-1ZM10,4h3v1h-3ZM17,4h1v1h-1ZM12,5h1v1h-1ZM14,5h1v1h-1Z"/><path fill="rgb(138,102,56)" d="M10,1h1v1h-1ZM11,2h1v1h-1ZM16,2h1v1h-1ZM15,3h1v1h-1ZM17,3h1v1h-1ZM16,4h1v1h-1ZM15,5h1v1h-1ZM17,5h1v1h-1ZM15,6h4v1h-4ZM16,7h3v1h-3ZM15,8h1v2h-1ZM17,8h2v1h-2ZM17,9h1v1h-1ZM15,10h2v1h-2ZM16,16h2v2h-2Z"/><path fill="rgb(195,163,107)" d="M12,1h1v1h-1ZM14,1h1v1h-1ZM9,2h2v1h-2ZM12,2h2v1h-2ZM15,2h1v1h-1ZM9,3h3v1h-3ZM13,3h2v1h-2ZM16,3h1v1h-1ZM14,4h2v1h-2ZM16,5h1v1h-1Z"/><path fill="rgb(0,0,0)" d="M6,2h1v1h-1ZM5,3h1v5h-1ZM8,3h1v1h-1ZM9,4h1v1h-1ZM18,4h1v1h-1ZM7,5h1v1h-1ZM10,5h2v1h-2ZM19,5h1v4h-1ZM12,6h2v1h-2ZM7,7h2v1h-2ZM11,7h4v1h-4ZM6,8h1v2h-1ZM8,8h1v1h-1ZM11,8h2v1h-2ZM5,10h3v1h-3ZM18,10h2v1h-2ZM6,11h4v1h-4ZM16,11h2v1h-2ZM20,11h1v2h-1ZM19,13h1v3h-1ZM3,14h1v1h-1ZM4,15h1v1h-1ZM6,15h1v1h-1ZM8,15h1v1h-1ZM10,15h1v1h-1ZM13,15h5v1h-5ZM5,16h1v1h-1ZM9,16h6v1h-6ZM18,16h2v1h-2ZM14,17h1v1h-1ZM5,21h3v1h-3ZM9,21h6v1h-6ZM17,21h3v1h-3ZM5,22h11v1h-11ZM18,22h2v1h-2ZM7,23h11v1h-11Z"/><path fill="rgb(183,90,0)" d="M8,5h1v2h-1ZM10,6h2v1h-2Z"/><path fill="rgb(249,152,51)" d="M9,6h1v1h-1ZM9,7h2v1h-2ZM14,8h1v1h-1ZM8,10h1v1h-1ZM12,10h1v1h-1ZM4,11h1v1h-1ZM3,12h1v1h-1ZM10,12h2v1h-2ZM19,12h1v1h-1ZM10,13h1v1h-1ZM15,19h1v1h-1ZM8,21h1v1h-1ZM16,22h1v1h-1Z"/><path fill="rgb(255,255,255)" d="M7,8h1v1h-1ZM13,8h1v2h-1Z"/><path fill="rgb(255,245,155)" d="M9,8h2v2h-2ZM7,9h1v1h-1ZM9,10h3v1h-3ZM3,11h1v1h-1ZM18,11h2v1h-2ZM4,12h1v1h-1ZM18,12h1v1h-1ZM9,13h1v1h-1ZM11,13h1v1h-1ZM15,20h1v1h-1ZM16,21h1v1h-1Z"/><path fill="rgb(219,36,113)" d="M3,9h2v1h-2ZM8,9h1v1h-1ZM11,9h2v1h-2ZM18,9h2v1h-2ZM2,10h1v1h-1ZM20,10h1v1h-1ZM1,11h1v2h-1ZM21,11h1v2h-1ZM2,13h1v1h-1ZM6,13h1v1h-1ZM12,13h1v1h-1ZM16,13h1v1h-1ZM20,13h1v1h-1ZM9,14h1v1h-1ZM11,14h2v1h-2ZM16,14h2v1h-2ZM9,18h5v2h-5Z"/><path fill="rgb(244,158,156)" d="M5,12h1v4h-1ZM17,12h1v2h-1ZM18,14h1v2h-1ZM8,19h1v1h-1ZM10,20h4v1h-4Z"/><path fill="rgb(95,5,120)" d="M6,12h2v1h-2ZM13,12h4v1h-4ZM4,13h1v1h-1ZM7,13h2v1h-2ZM14,13h2v1h-2ZM18,13h1v1h-1ZM7,14h1v1h-1ZM13,14h2v1h-2ZM9,15h1v1h-1ZM11,15h2v1h-2ZM15,16h1v2h-1ZM8,17h1v2h-1ZM13,17h1v1h-1ZM16,18h1v1h-1ZM7,19h1v2h-1ZM17,19h1v2h-1ZM9,20h1v1h-1Z"/><path fill="rgb(161,0,112)" d="M9,12h1v1h-1ZM12,12h1v1h-1ZM13,13h1v1h-1ZM4,14h1v1h-1ZM6,14h1v1h-1ZM8,14h1v1h-1ZM10,14h1v1h-1ZM15,14h1v1h-1ZM9,17h4v1h-4ZM15,18h1v1h-1ZM14,19h1v2h-1ZM16,19h1v2h-1Z"/></svg>