<svg version="1.1" xmlns="http://www.w3.org/2000/svg" xmlns:xlink="http://www.w3.org/1999/xlink" shape-rendering="crispEdges" width="24" height="24" viewBox="0 0 24 24"><path fill="rgb(0,65,114)" d="M11,0h2v1h-2ZM9,1h2v1h-2ZM13,1h2v1h-2ZM7,2h2v1h-2ZM10,2h1v1h-1ZM13,2h1v1h-1ZM15,2h2v1h-2ZM6,3h1v1h-1ZM17,3h1v1h-1ZM5,4h1v1h-1ZM18,4h1v1h-1ZM4,5h1v1h-1ZM7,5h3v1h-3ZM14,5h3v1h-3ZM19,5h1v1h-1ZM3,6h1v2h-1ZM6,6h1v2h-1ZM9,6h1v1h-1ZM14,6h1v1h-1ZM17,6h1v2h-1ZM20,6h1v2h-1ZM2,8h1v1h-1ZM6,8h2v1h-2ZM16,8h2v1h-2ZM21,8h1v1h-1ZM2,9h2v1h-2ZM20,9h2v1h-2ZM1,10h1v2h-1ZM22,10h1v2h-1ZM2,12h2v1h-2ZM20,12h2v1h-2ZM2,13h1v1h-1ZM6,13h2v1h-2ZM16,13h2v1h-2ZM21,13h1v1h-1ZM3,14h1v2h-1ZM6,14h1v2h-1ZM17,14h1v2h-1ZM9,15h1v1h-1ZM14,15h1v1h-1ZM20,15h2v1h-2ZM4,16h1v1h-1ZM7,16h3v1h-3ZM14,16h3v1h-3ZM19,16h1v1h-1ZM5,17h1v1h-1ZM18,17h1v1h-1ZM6,18h1v1h-1ZM17,18h1v1h-1ZM7,19h2v1h-2ZM10,19h1v1h-1ZM13,19h1v1h-1ZM15,19h2v1h-2ZM9,20h2v1h-2ZM13,20h2v1h-2ZM11,21h2v1h-2Z"/><path fill="rgb(0,118,150)" d="M11,1h2v2h-2ZM2,10h2v2h-2ZM20,10h2v2h-2ZM11,19h2v2h-2Z"/><path fill="rgb(0,43,75)" d="M10,3h1v3h-1ZM13,3h1v3h-1ZM4,9h3v1h-3ZM17,9h3v1h-3ZM4,12h3v1h-3ZM17,12h3v1h-3ZM10,16h1v3h-1ZM13,16h1v3h-1Z"/><path fill="rgb(255,255,255)" d="M11,3h2v3h-2ZM7,6h2v1h-2ZM10,6h4v1h-4ZM15,6h2v1h-2ZM7,7h10v1h-10ZM8,8h8v1h-8ZM7,9h10v1h-10ZM4,10h16v2h-16ZM7,12h10v1h-10ZM8,13h8v1h-8ZM7,14h10v1h-10ZM7,15h2v1h-2ZM10,15h4v1h-4ZM15,15h2v1h-2ZM11,16h2v3h-2Z"/><path fill="rgb(0,0,0)" d="M8,17h2v1h-2ZM14,17h2v1h-2ZM5,18h1v1h-1ZM7,18h3v1h-3ZM14,18h3v1h-3ZM18,18h1v1h-1ZM4,19h3v1h-3ZM9,19h1v1h-1ZM14,19h1v1h-1ZM17,19h3v1h-3ZM3,20h6v1h-6ZM15,20h6v1h-6ZM4,21h7v1h-7ZM13,21h7v1h-7ZM5,22h14v1h-14ZM8,23h8v1h-8Z"/></svg>