<svg version="1.1" xmlns="http://www.w3.org/2000/svg" xmlns:xlink="http://www.w3.org/1999/xlink" shape-rendering="crispEdges" width="24" height="24" viewBox="0 0 24 24"><path fill="rgb(65,149,233)" d="M9,2h6v1h-6ZM7,3h2v1h-2ZM15,3h2v1h-2ZM5,4h2v1h-2ZM17,4h2v1h-2ZM4,5h1v2h-1ZM19,5h1v2h-1ZM9,6h1v1h-1ZM14,6h1v1h-1ZM3,7h1v2h-1ZM20,7h1v2h-1ZM2,9h1v6h-1ZM6,9h1v1h-1ZM17,9h1v1h-1ZM21,9h1v7h-1ZM6,14h1v1h-1ZM17,14h1v1h-1ZM3,15h1v2h-1ZM20,16h1v1h-1ZM4,17h1v2h-1ZM9,17h1v1h-1ZM14,17h1v1h-1ZM19,17h1v2h-1ZM5,19h2v1h-2ZM17,19h2v1h-2ZM7,20h2v1h-2ZM15,20h2v1h-2ZM9,21h6v1h-6Z"/><path fill="rgb(0,100,198)" d="M11,4h2v1h-2ZM7,5h1v1h-1ZM10,5h1v2h-1ZM13,5h1v2h-1ZM16,5h1v1h-1ZM8,6h1v1h-1ZM15,6h1v1h-1ZM5,7h1v1h-1ZM18,7h1v1h-1ZM6,8h1v1h-1ZM17,8h1v1h-1ZM5,10h2v1h-2ZM17,10h2v1h-2ZM4,11h1v2h-1ZM19,11h1v2h-1ZM5,13h2v1h-2ZM17,13h2v1h-2ZM6,15h1v1h-1ZM17,15h1v1h-1ZM5,16h1v1h-1ZM18,16h1v1h-1ZM8,17h1v1h-1ZM10,17h1v2h-1ZM13,17h1v2h-1ZM15,17h1v1h-1ZM7,18h1v1h-1ZM16,18h1v1h-1ZM11,19h2v1h-2Z"/><path fill="rgb(150,217,244)" d="M5,5h2v1h-2ZM11,5h2v1h-2ZM17,5h2v1h-2ZM5,6h1v1h-1ZM18,6h1v1h-1ZM14,7h1v1h-1ZM16,9h1v1h-1ZM5,11h1v2h-1ZM18,11h1v2h-1ZM5,17h1v1h-1ZM18,17h1v1h-1ZM5,18h2v1h-2ZM11,18h2v1h-2ZM17,18h2v1h-2Z"/><path fill="rgb(255,255,255)" d="M6,6h2v1h-2ZM11,6h2v1h-2ZM16,6h2v1h-2ZM6,7h8v1h-8ZM15,7h3v1h-3ZM7,8h10v1h-10ZM7,9h9v1h-9ZM7,10h10v1h-10ZM6,11h12v2h-12ZM7,13h10v3h-10ZM6,16h12v1h-12ZM6,17h2v1h-2ZM11,17h2v1h-2ZM16,17h2v1h-2Z"/><path fill="rgb(0,0,0)" d="M8,18h2v1h-2ZM14,18h2v1h-2ZM4,19h1v1h-1ZM7,19h4v1h-4ZM13,19h4v1h-4ZM19,19h1v1h-1ZM3,20h4v1h-4ZM9,20h6v1h-6ZM17,20h4v1h-4ZM4,21h5v1h-5ZM15,21h5v1h-5ZM5,22h14v1h-14ZM8,23h8v1h-8Z"/></svg>