<svg version="1.1" xmlns="http://www.w3.org/2000/svg" width="6" height="7" viewBox="0 0 6 7" shape-rendering="crispEdges"><rect x="1" y="0" width="1" height="1" fill="#000000"/><rect x="2" y="0" width="1" height="1" fill="#000000"/><rect x="3" y="0" width="1" height="1" fill="#000000"/><rect x="4" y="0" width="1" height="1" fill="#000000"/><rect x="0" y="1" width="1" height="1" fill="#000000"/><rect x="1" y="1" width="1" height="1" fill="#000000"/><rect x="2" y="1" width="1" height="1" fill="#eeeeee"/><rect x="3" y="1" width="1" height="1" fill="#eeeeee"/><rect x="4" y="1" width="1" height="1" fill="#000000"/><rect x="5" y="1" width="1" height="1" fill="#000000"/><rect x="0" y="2" width="1" height="1" fill="#000000"/><rect x="1" y="2" width="1" height="1" fill="#eeeeee"/><rect x="2" y="2" width="1" height="1" fill="#000000"/><rect x="3" y="2" width="1" height="1" fill="#000000"/><rect x="4" y="2" width="1" height="1" fill="#eeeeee"/><rect x="5" y="2" width="1" height="1" fill="#000000"/><rect x="0" y="3" width="1" height="1" fill="#000000"/><rect x="1" y="3" width="1" height="1" fill="#000000"/><rect x="2" y="3" width="1" height="1" fill="#eeeeee"/><rect x="3" y="3" width="1" height="1" fill="#eeeeee"/><rect x="4" y="3" width="1" height="1" fill="#eeeeee"/><rect x="5" y="3" width="1" height="1" fill="#000000"/><rect x="1" y="4" width="1" height="1" fill="#000000"/><rect x="2" y="4" width="1" height="1" fill="#000000"/><rect x="3" y="4" width="1" height="1" fill="#000000"/><rect x="4" y="4" width="1" height="1" fill="#eeeeee"/><rect x="5" y="4" width="1" height="1" fill="#000000"/><rect x="1" y="5" width="1" height="1" fill="#000000"/><rect x="2" y="5" width="1" height="1" fill="#eeeeee"/><rect x="3" y="5" width="1" height="1" fill="#eeeeee"/><rect x="4" y="5" width="1" height="1" fill="#000000"/><rect x="5" y="5" width="1" height="1" fill="#000000"/><rect x="1" y="6" width="1" height="1" fill="#000000"/><rect x="2" y="6" width="1" height="1" fill="#000000"/><rect x="3" y="6" width="1" height="1" fill="#000000"/><rect x="4" y="6" width="1" height="1" fill="#000000"/></svg>