<svg version="1.1" xmlns="http://www.w3.org/2000/svg" xmlns:xlink="http://www.w3.org/1999/xlink" shape-rendering="crispEdges" width="24" height="24" viewBox="0 0 24 24"><g><path fill="rgb(75,65,57)" d="M0,0h1v24h-1ZM23,0h1v24h-1Z"/><path fill="rgb(210,142,68)" d="M1,0h2v24h-2ZM21,0h2v24h-2Z"/><path fill="rgb(125,74,29)" d="M3,0h1v3h-1ZM20,0h1v3h-1ZM3,3h2v1h-2ZM19,3h2v1h-2ZM3,4h1v3h-1ZM20,4h1v3h-1ZM3,7h4v1h-4ZM19,7h2v1h-2ZM3,8h1v3h-1ZM20,8h1v3h-1ZM3,11h2v1h-2ZM15,11h1v1h-1ZM17,11h4v1h-4ZM3,12h1v3h-1ZM20,12h1v3h-1ZM3,15h2v1h-2ZM18,15h3v1h-3ZM3,16h1v3h-1ZM20,16h1v3h-1ZM3,19h2v1h-2ZM19,19h2v1h-2ZM3,20h1v3h-1ZM20,20h1v3h-1ZM3,23h2v1h-2ZM18,23h3v1h-3Z"/><path fill="rgb(150,100,90)" d="M4,0h1v3h-1ZM19,0h1v3h-1ZM5,3h5v1h-5ZM12,3h3v1h-3ZM17,3h2v1h-2ZM4,4h1v3h-1ZM19,4h1v3h-1ZM7,7h1v1h-1ZM12,7h7v1h-7ZM4,8h1v3h-1ZM19,8h1v3h-1ZM5,11h1v1h-1ZM7,11h1v1h-1ZM10,11h5v1h-5ZM16,11h1v1h-1ZM4,12h1v3h-1ZM19,12h1v3h-1ZM5,15h2v1h-2ZM17,15h1v1h-1ZM4,16h1v3h-1ZM19,16h1v3h-1ZM5,19h4v1h-4ZM10,19h4v1h-4ZM15,19h1v1h-1ZM18,19h1v1h-1ZM4,20h1v3h-1ZM19,20h1v3h-1ZM5,23h3v1h-3ZM10,23h4v1h-4ZM15,23h3v1h-3Z"/><path fill="rgb(192,120,76)" d="M5,0h13v3h-13ZM5,4h13v3h-13ZM5,8h13v3h-13ZM5,12h13v3h-13ZM5,16h13v3h-13ZM5,20h13v3h-13Z"/><path fill="rgb(172,110,83)" d="M18,0h1v3h-1ZM10,3h2v1h-2ZM15,3h2v1h-2ZM18,4h1v3h-1ZM8,7h4v1h-4ZM18,8h1v3h-1ZM6,11h1v1h-1ZM8,11h2v1h-2ZM18,12h1v3h-1ZM7,15h10v1h-10ZM18,16h1v3h-1ZM9,19h1v1h-1ZM14,19h1v1h-1ZM16,19h2v1h-2ZM18,20h1v3h-1ZM8,23h2v1h-2ZM14,23h1v1h-1Z"/></g></svg>