<svg version="1.1" xmlns="http://www.w3.org/2000/svg" xmlns:xlink="http://www.w3.org/1999/xlink" shape-rendering="crispEdges" width="24" height="24" viewBox="0 0 24 24"><g><path fill="rgb(244,244,230)" d="M0,0h24v6h-24ZM0,6h8v1h-8ZM13,6h11v1h-11ZM0,7h6v1h-6ZM8,7h4v1h-4ZM15,7h9v1h-9ZM0,8h5v1h-5ZM6,8h8v1h-8ZM17,8h7v1h-7ZM0,9h15v1h-15ZM18,9h6v1h-6ZM0,10h16v1h-16ZM19,10h5v1h-5ZM0,11h15v1h-15ZM20,11h4v1h-4ZM0,12h13v1h-13ZM19,12h5v1h-5ZM0,13h12v1h-12ZM13,13h5v1h-5ZM20,13h4v1h-4ZM0,14h19v3h-19ZM21,14h3v1h-3ZM22,15h2v1h-2ZM21,16h3v1h-3ZM0,17h5v1h-5ZM9,17h9v1h-9ZM19,17h5v1h-5ZM0,18h4v1h-4ZM5,18h4v1h-4ZM11,18h13v1h-13ZM0,19h10v1h-10ZM12,19h12v1h-12ZM0,20h9v1h-9ZM10,20h14v1h-14ZM0,21h24v3h-24Z"/><path fill="rgb(54,170,209)" d="M8,6h3v1h-3ZM15,8h1v1h-1ZM15,12h1v1h-1ZM19,13h1v1h-1ZM19,15h2v1h-2ZM7,17h2v1h-2ZM10,18h1v1h-1ZM11,19h1v1h-1Z"/><path fill="rgb(123,142,211)" d="M11,6h2v1h-2ZM13,7h2v1h-2ZM16,12h2v1h-2Z"/><path fill="rgb(147,212,224)" d="M6,7h2v1h-2ZM12,7h1v1h-1ZM5,8h1v1h-1ZM14,8h1v1h-1ZM16,8h1v1h-1ZM15,9h3v1h-3ZM16,10h3v1h-3ZM15,11h5v1h-5ZM13,12h2v1h-2ZM18,12h1v1h-1ZM12,13h1v1h-1ZM20,14h1v1h-1ZM21,15h1v1h-1ZM19,16h2v1h-2ZM5,17h2v1h-2ZM18,17h1v1h-1ZM4,18h1v1h-1ZM9,18h1v1h-1ZM10,19h1v1h-1ZM9,20h1v1h-1Z"/><path fill="rgb(66,85,153)" d="M18,13h1v1h-1ZM19,14h1v1h-1Z"/></g></svg>