<svg version="1.1" xmlns="http://www.w3.org/2000/svg" xmlns:xlink="http://www.w3.org/1999/xlink" shape-rendering="crispEdges" width="24" height="24" viewBox="0 0 24 24"><g><path fill="rgb(244,244,230)" d="M0,0h24v1h-24ZM0,1h9v1h-9ZM14,1h10v1h-10ZM0,2h8v1h-8ZM9,2h4v1h-4ZM15,2h9v2h-9ZM0,3h7v1h-7ZM8,3h6v1h-6ZM0,4h6v2h-6ZM7,4h7v1h-7ZM16,4h8v1h-8ZM8,5h7v1h-7ZM17,5h7v2h-7ZM0,6h5v2h-5ZM6,6h2v2h-2ZM9,6h7v1h-7ZM9,7h6v1h-6ZM18,7h6v1h-6ZM0,8h4v1h-4ZM7,8h1v1h-1ZM9,8h4v1h-4ZM19,8h5v2h-5ZM0,9h3v2h-3ZM4,9h1v1h-1ZM9,9h2v1h-2ZM4,10h2v1h-2ZM8,10h5v1h-5ZM15,10h2v1h-2ZM20,10h4v1h-4ZM0,11h2v2h-2ZM3,11h4v1h-4ZM9,11h1v1h-1ZM12,11h1v1h-1ZM14,11h5v1h-5ZM21,11h3v1h-3ZM3,12h1v1h-1ZM5,12h1v1h-1ZM11,12h1v1h-1ZM13,12h1v1h-1ZM18,12h1v1h-1ZM22,12h2v2h-2ZM0,13h1v2h-1ZM4,13h1v1h-1ZM12,13h1v1h-1ZM3,14h1v1h-1ZM5,14h1v1h-1ZM9,14h2v1h-2ZM23,14h1v4h-1ZM9,15h3v1h-3ZM18,15h1v1h-1ZM0,16h1v2h-1ZM3,16h1v1h-1ZM9,16h1v1h-1ZM12,17h1v1h-1ZM0,18h2v1h-2ZM22,18h2v1h-2ZM0,19h3v1h-3ZM19,19h1v1h-1ZM21,19h3v1h-3ZM0,20h5v1h-5ZM7,20h1v1h-1ZM17,20h7v1h-7ZM0,21h9v1h-9ZM16,21h8v1h-8ZM0,22h24v2h-24Z"/><path fill="rgb(54,170,209)" d="M9,1h2v1h-2ZM8,2h1v1h-1ZM7,3h1v1h-1ZM6,4h1v1h-1ZM7,5h1v1h-1ZM5,6h1v1h-1ZM8,7h1v1h-1ZM14,8h1v2h-1ZM3,9h1v2h-1ZM12,9h1v1h-1ZM2,11h1v1h-1ZM6,13h1v1h-1ZM9,13h1v1h-1ZM4,14h1v1h-1ZM11,14h1v1h-1ZM3,15h2v1h-2ZM12,15h1v1h-1Z"/><path fill="rgb(123,142,211)" d="M11,1h3v1h-3ZM14,2h1v1h-1ZM6,5h1v1h-1ZM16,7h1v1h-1ZM5,8h1v1h-1ZM8,8h1v2h-1ZM15,8h1v1h-1ZM17,8h1v1h-1ZM6,9h1v1h-1ZM13,9h1v1h-1ZM7,12h1v2h-1ZM2,13h1v1h-1ZM10,13h1v1h-1ZM13,13h1v1h-1ZM19,13h1v1h-1ZM6,14h1v2h-1ZM14,14h2v1h-2ZM18,14h2v1h-2ZM13,15h1v1h-1ZM15,15h1v1h-1ZM20,15h1v1h-1ZM5,16h2v1h-2ZM12,16h2v1h-2ZM17,16h1v1h-1ZM4,17h1v1h-1ZM7,17h1v2h-1ZM13,17h1v1h-1ZM15,17h2v1h-2ZM18,17h1v1h-1ZM11,19h2v1h-2ZM14,19h1v1h-1Z"/><path fill="rgb(147,212,224)" d="M13,2h1v1h-1ZM14,4h1v1h-1ZM15,5h1v1h-1ZM8,6h1v1h-1ZM15,7h1v1h-1ZM6,8h1v1h-1ZM13,8h1v1h-1ZM16,9h2v1h-2ZM14,10h1v1h-1ZM17,10h1v1h-1ZM8,11h1v1h-1ZM10,11h1v1h-1ZM4,12h1v1h-1ZM9,12h1v1h-1ZM12,12h1v1h-1ZM15,12h1v1h-1ZM17,12h1v1h-1ZM1,13h1v2h-1ZM3,13h1v1h-1ZM5,13h1v1h-1ZM11,13h1v1h-1ZM12,14h1v1h-1ZM0,15h3v1h-3ZM8,15h1v2h-1ZM19,15h1v1h-1ZM1,16h2v1h-2ZM4,16h1v1h-1ZM10,16h1v1h-1ZM1,17h1v1h-1ZM8,17h3v1h-3ZM4,18h1v1h-1ZM9,18h1v1h-1ZM13,18h1v1h-1ZM17,18h1v1h-1ZM3,19h1v1h-1ZM8,19h1v2h-1ZM16,19h1v1h-1ZM5,20h1v1h-1ZM11,20h1v1h-1Z"/><path fill="rgb(66,85,153)" d="M14,3h1v1h-1ZM15,4h1v1h-1ZM16,5h1v1h-1ZM5,7h1v1h-1ZM4,8h1v1h-1ZM16,8h1v1h-1ZM18,8h1v2h-1ZM7,10h1v2h-1ZM19,10h1v1h-1ZM2,12h1v1h-1ZM7,14h1v3h-1ZM13,14h1v1h-1ZM5,15h1v1h-1ZM14,15h1v1h-1ZM16,15h1v1h-1ZM14,16h2v1h-2ZM5,17h1v1h-1ZM14,17h1v1h-1ZM15,18h1v1h-1ZM13,19h1v1h-1Z"/><path fill="rgb(46,53,66)" d="M16,6h1v1h-1ZM17,7h1v1h-1ZM19,11h1v2h-1ZM20,13h1v1h-1ZM6,17h1v1h-1ZM14,18h1v1h-1Z"/><path fill="rgb(171,187,243)" d="M5,9h1v1h-1ZM7,9h1v1h-1ZM15,9h1v1h-1ZM6,10h1v1h-1ZM13,10h1v2h-1ZM11,11h1v1h-1ZM20,11h1v2h-1ZM8,12h1v3h-1ZM10,12h1v1h-1ZM14,12h1v1h-1ZM16,12h1v1h-1ZM14,13h5v1h-5ZM21,13h1v1h-1ZM2,14h1v1h-1ZM16,14h2v1h-2ZM20,14h2v1h-2ZM17,15h1v1h-1ZM21,15h1v2h-1ZM11,16h1v2h-1ZM3,17h1v1h-1ZM17,17h1v1h-1ZM19,17h2v1h-2ZM5,18h2v1h-2ZM8,18h1v1h-1ZM10,18h2v1h-2ZM16,18h1v1h-1ZM7,19h1v1h-1ZM9,19h2v1h-2ZM15,19h1v1h-1ZM12,20h3v1h-3Z"/><path fill="rgb(194,215,247)" d="M11,9h1v1h-1ZM18,10h1v1h-1ZM6,12h1v1h-1ZM21,12h1v1h-1ZM22,14h1v3h-1ZM16,16h1v1h-1ZM18,16h3v1h-3ZM2,17h1v1h-1ZM21,17h2v1h-2ZM2,18h2v1h-2ZM12,18h1v1h-1ZM18,18h4v1h-4ZM4,19h3v1h-3ZM17,19h2v1h-2ZM20,19h1v1h-1ZM6,20h1v1h-1ZM9,20h2v1h-2ZM15,20h2v1h-2ZM9,21h7v1h-7Z"/></g></svg>