<svg version="1.1" xmlns="http://www.w3.org/2000/svg" xmlns:xlink="http://www.w3.org/1999/xlink" shape-rendering="crispEdges" width="24" height="24" viewBox="0 0 24 24"><g><path fill="rgb(64,83,151)" d="M0,0h1v1h-1ZM6,0h1v1h-1ZM17,0h1v1h-1ZM23,0h1v1h-1ZM7,1h1v3h-1ZM16,1h1v3h-1ZM6,4h1v1h-1ZM17,4h1v1h-1ZM10,5h4v1h-4ZM8,8h1v2h-1ZM15,8h1v2h-1ZM6,9h1v1h-1ZM17,9h1v1h-1ZM0,10h1v4h-1ZM7,10h3v1h-3ZM14,10h3v1h-3ZM6,11h1v1h-1ZM8,11h2v1h-2ZM14,11h2v1h-2ZM17,11h1v1h-1ZM7,12h2v1h-2ZM15,12h2v1h-2ZM23,12h1v2h-1ZM8,13h1v1h-1ZM15,13h1v2h-1ZM7,14h1v3h-1ZM14,15h2v1h-2ZM5,17h1v1h-1ZM18,17h1v1h-1ZM6,18h1v1h-1ZM17,18h1v1h-1ZM14,19h1v1h-1ZM16,19h1v1h-1ZM12,21h1v1h-1ZM7,22h1v1h-1ZM11,22h1v1h-1ZM16,22h1v1h-1Z"/><path fill="rgb(145,209,212)" d="M1,0h2v13h-2ZM9,0h1v2h-1ZM14,0h1v2h-1ZM21,0h2v13h-2ZM5,5h1v7h-1ZM18,5h1v7h-1ZM10,6h1v2h-1ZM13,6h1v2h-1ZM9,8h2v1h-2ZM13,8h2v1h-2ZM9,12h6v1h-6ZM1,13h1v2h-1ZM3,13h1v1h-1ZM14,13h1v1h-1ZM20,13h1v1h-1ZM22,13h1v2h-1ZM4,14h1v1h-1ZM11,14h3v1h-3ZM19,14h1v1h-1ZM1,15h2v1h-2ZM5,15h1v1h-1ZM18,15h1v1h-1ZM21,15h2v1h-2ZM1,16h3v1h-3ZM6,16h1v1h-1ZM17,16h1v1h-1ZM20,16h3v1h-3ZM2,17h3v1h-3ZM19,17h3v1h-3ZM4,18h2v1h-2ZM18,18h2v1h-2ZM23,18h1v1h-1ZM3,19h1v1h-1ZM5,19h2v1h-2ZM9,19h4v1h-4ZM18,19h1v1h-1ZM22,19h1v1h-1ZM2,20h2v1h-2ZM6,20h1v1h-1ZM8,20h4v1h-4ZM19,20h1v1h-1ZM21,20h1v1h-1ZM3,21h2v1h-2ZM8,21h3v1h-3ZM14,21h2v1h-2ZM17,21h1v2h-1ZM12,22h1v1h-1ZM18,23h1v1h-1Z"/><path fill="rgb(246,246,222)" d="M3,0h1v13h-1ZM8,0h1v5h-1ZM10,0h4v5h-4ZM15,0h1v5h-1ZM20,0h1v13h-1ZM7,5h2v2h-2ZM15,5h2v2h-2ZM7,7h1v3h-1ZM16,7h1v3h-1ZM9,9h2v1h-2ZM13,9h2v1h-2ZM4,13h1v1h-1ZM10,13h4v1h-4ZM19,13h1v1h-1ZM5,14h1v1h-1ZM18,14h1v1h-1ZM6,15h1v1h-1ZM17,15h1v1h-1ZM10,16h2v1h-2ZM14,16h2v1h-2ZM0,17h1v1h-1ZM9,17h1v1h-1ZM12,17h1v1h-1ZM0,18h2v2h-2ZM3,18h1v1h-1ZM8,18h1v1h-1ZM13,18h1v1h-1ZM20,18h1v1h-1ZM4,19h1v1h-1ZM19,19h1v1h-1ZM0,20h1v1h-1ZM5,20h1v1h-1ZM18,20h1v1h-1ZM23,20h1v1h-1ZM0,21h2v1h-2ZM6,21h1v1h-1ZM22,21h2v1h-2ZM0,22h3v1h-3ZM4,22h2v1h-2ZM20,22h4v2h-4ZM0,23h6v1h-6ZM12,23h2v1h-2Z"/><path fill="rgb(119,137,184)" d="M4,0h2v1h-2ZM18,0h2v1h-2ZM4,1h1v3h-1ZM19,1h1v3h-1ZM23,1h1v2h-1ZM4,4h2v1h-2ZM9,4h1v3h-1ZM14,4h1v3h-1ZM18,4h2v1h-2ZM4,5h1v1h-1ZM19,5h1v1h-1ZM8,7h2v1h-2ZM14,7h2v1h-2ZM23,9h1v3h-1ZM4,12h1v1h-1ZM19,12h1v1h-1ZM5,13h1v1h-1ZM18,13h1v1h-1ZM6,14h1v1h-1ZM17,14h1v1h-1ZM3,15h1v1h-1ZM9,15h3v1h-3ZM16,15h1v1h-1ZM20,15h1v1h-1ZM4,16h1v1h-1ZM8,16h2v1h-2ZM12,16h2v1h-2ZM19,16h1v1h-1ZM7,17h2v1h-2ZM13,17h1v1h-1ZM7,18h1v1h-1Z"/><path fill="rgb(53,168,198)" d="M7,0h1v1h-1ZM16,0h1v1h-1ZM0,1h1v9h-1ZM5,1h2v3h-2ZM17,1h2v3h-2ZM9,2h1v2h-1ZM14,2h1v2h-1ZM23,3h1v6h-1ZM7,4h1v1h-1ZM16,4h1v1h-1ZM6,5h1v4h-1ZM17,5h1v4h-1ZM4,6h1v6h-1ZM11,6h2v3h-2ZM19,6h1v6h-1ZM6,10h1v1h-1ZM10,10h1v2h-1ZM13,10h1v2h-1ZM17,10h1v1h-1ZM7,11h1v1h-1ZM16,11h1v1h-1ZM5,12h2v1h-2ZM17,12h2v1h-2ZM2,13h1v1h-1ZM6,13h2v1h-2ZM9,13h1v1h-1ZM16,13h2v1h-2ZM21,13h1v1h-1ZM0,14h1v2h-1ZM2,14h2v1h-2ZM10,14h1v1h-1ZM14,14h1v1h-1ZM16,14h1v1h-1ZM20,14h2v1h-2ZM23,14h1v3h-1ZM4,15h1v1h-1ZM12,15h2v1h-2ZM19,15h1v1h-1ZM5,16h1v1h-1ZM16,16h1v1h-1ZM18,16h1v1h-1ZM6,17h1v1h-1ZM16,17h2v1h-2ZM22,17h2v1h-2ZM14,18h1v1h-1ZM16,18h1v1h-1ZM21,18h2v1h-2ZM7,19h1v3h-1ZM15,19h1v1h-1ZM17,19h1v1h-1ZM20,19h2v1h-2ZM4,20h1v1h-1ZM13,20h1v1h-1ZM16,20h2v1h-2ZM20,20h1v1h-1ZM5,21h1v1h-1ZM16,21h1v1h-1ZM6,22h1v1h-1ZM8,22h3v1h-3ZM14,22h2v1h-2ZM7,23h4v1h-4ZM15,23h3v1h-3Z"/><path fill="rgb(195,227,217)" d="M11,9h2v3h-2ZM8,14h2v1h-2ZM8,15h1v1h-1ZM0,16h1v1h-1ZM1,17h1v1h-1ZM10,17h2v1h-2ZM14,17h2v1h-2ZM2,18h1v2h-1ZM9,18h4v1h-4ZM15,18h1v1h-1ZM8,19h1v1h-1ZM13,19h1v1h-1ZM23,19h1v1h-1ZM1,20h1v1h-1ZM12,20h1v1h-1ZM14,20h2v1h-2ZM22,20h1v1h-1ZM2,21h1v1h-1ZM11,21h1v1h-1ZM13,21h1v2h-1ZM18,21h4v1h-4ZM3,22h1v1h-1ZM18,22h2v1h-2ZM6,23h1v1h-1ZM11,23h1v1h-1ZM14,23h1v1h-1ZM19,23h1v1h-1Z"/></g></svg>