<svg version="1.1" xmlns="http://www.w3.org/2000/svg" xmlns:xlink="http://www.w3.org/1999/xlink" shape-rendering="crispEdges" width="24" height="24" viewBox="0 0 24 24"><g><path fill="rgb(246,246,222)" d="M0,0h10v2h-10ZM14,0h10v1h-10ZM11,1h2v5h-2ZM14,1h5v1h-5ZM22,1h2v7h-2ZM0,2h3v1h-3ZM6,2h3v1h-3ZM15,2h3v1h-3ZM19,2h2v1h-2ZM0,3h2v5h-2ZM4,3h2v1h-2ZM18,3h2v1h-2ZM5,4h1v1h-1ZM9,4h1v1h-1ZM14,4h1v1h-1ZM18,4h1v1h-1ZM8,5h2v1h-2ZM14,5h2v1h-2ZM8,6h1v1h-1ZM15,6h1v1h-1ZM7,7h1v1h-1ZM16,7h1v1h-1ZM0,8h1v5h-1ZM8,8h2v1h-2ZM14,8h2v1h-2ZM23,8h1v5h-1ZM2,9h2v4h-2ZM8,9h1v1h-1ZM15,9h1v1h-1ZM20,9h2v4h-2ZM9,10h1v1h-1ZM14,10h1v1h-1ZM8,11h1v1h-1ZM15,11h1v1h-1ZM9,12h6v1h-6ZM0,13h2v4h-2ZM3,13h1v1h-1ZM8,13h8v1h-8ZM20,13h1v1h-1ZM22,13h2v4h-2ZM8,14h1v1h-1ZM15,14h1v1h-1ZM9,15h6v1h-6ZM8,16h8v1h-8ZM0,17h1v1h-1ZM7,17h1v7h-1ZM16,17h1v7h-1ZM23,17h1v4h-1ZM0,18h2v3h-2ZM9,18h6v1h-6ZM9,19h1v1h-1ZM14,19h1v1h-1ZM9,20h6v1h-6ZM9,21h1v1h-1ZM14,21h1v1h-1ZM9,22h6v1h-6ZM10,23h4v1h-4Z"/><path fill="rgb(145,209,212)" d="M10,0h1v1h-1ZM13,0h1v1h-1ZM19,1h3v1h-3ZM3,2h1v1h-1ZM5,2h1v1h-1ZM18,2h1v1h-1ZM2,3h1v1h-1ZM10,3h1v1h-1ZM13,3h1v1h-1ZM3,4h1v1h-1ZM20,4h1v1h-1ZM4,5h1v1h-1ZM7,5h1v2h-1ZM16,5h1v2h-1ZM19,5h1v1h-1ZM5,6h1v1h-1ZM11,6h2v4h-2ZM18,6h1v1h-1ZM4,7h1v2h-1ZM8,7h1v1h-1ZM15,7h1v1h-1ZM19,7h1v2h-1ZM7,9h1v1h-1ZM9,9h1v1h-1ZM14,9h1v1h-1ZM16,9h1v1h-1ZM7,10h2v1h-2ZM15,10h2v1h-2ZM8,12h1v1h-1ZM15,12h1v1h-1ZM5,14h2v2h-2ZM9,14h6v1h-6ZM17,14h2v2h-2ZM3,17h1v1h-1ZM5,17h1v7h-1ZM10,17h1v1h-1ZM13,17h1v1h-1ZM18,17h1v7h-1ZM20,17h1v2h-1ZM22,17h1v2h-1ZM2,18h2v1h-2ZM3,19h1v3h-1ZM8,19h1v4h-1ZM10,19h1v1h-1ZM13,19h1v1h-1ZM15,19h1v4h-1ZM20,19h2v5h-2ZM1,21h1v1h-1ZM10,21h1v1h-1ZM13,21h1v1h-1ZM0,22h1v2h-1ZM2,22h2v2h-2ZM23,22h1v2h-1ZM9,23h1v1h-1ZM14,23h1v1h-1Z"/><path fill="rgb(53,168,198)" d="M11,0h2v1h-2ZM4,2h1v1h-1ZM21,2h1v1h-1ZM3,3h1v1h-1ZM6,3h1v5h-1ZM17,3h1v5h-1ZM10,4h1v3h-1ZM13,4h1v3h-1ZM3,6h1v2h-1ZM20,6h1v2h-1ZM9,7h1v1h-1ZM14,7h1v1h-1ZM1,8h2v1h-2ZM7,8h1v1h-1ZM16,8h1v1h-1ZM21,8h2v1h-2ZM1,9h1v2h-1ZM4,9h1v1h-1ZM19,9h1v1h-1ZM22,9h1v2h-1ZM5,10h1v1h-1ZM11,10h2v1h-2ZM18,10h1v1h-1ZM5,11h3v1h-3ZM16,11h3v1h-3ZM5,12h2v1h-2ZM17,12h2v1h-2ZM5,13h1v1h-1ZM18,13h1v1h-1ZM7,14h1v1h-1ZM16,14h1v1h-1ZM3,15h1v1h-1ZM8,15h1v1h-1ZM15,15h1v1h-1ZM20,15h1v1h-1ZM7,16h1v1h-1ZM16,16h1v1h-1ZM21,16h1v1h-1ZM2,17h1v1h-1ZM4,17h1v6h-1ZM6,17h1v7h-1ZM9,17h1v1h-1ZM14,17h1v1h-1ZM17,17h1v7h-1ZM19,17h1v7h-1ZM8,18h1v1h-1ZM15,18h1v1h-1ZM21,18h1v1h-1ZM11,19h2v1h-2ZM22,19h1v2h-1ZM2,21h1v1h-1ZM11,21h2v1h-2ZM8,23h1v1h-1ZM15,23h1v1h-1Z"/><path fill="rgb(119,137,184)" d="M10,1h1v1h-1ZM13,1h1v1h-1ZM9,2h2v1h-2ZM13,2h2v1h-2ZM8,3h1v1h-1ZM15,3h1v1h-1ZM21,3h1v2h-1ZM2,4h1v1h-1ZM3,5h1v1h-1ZM20,5h1v1h-1ZM10,8h1v3h-1ZM13,8h1v3h-1ZM5,9h1v1h-1ZM18,9h1v1h-1ZM6,10h1v1h-1ZM17,10h1v1h-1ZM6,13h1v1h-1ZM17,13h1v1h-1ZM4,14h1v1h-1ZM19,14h1v1h-1ZM3,16h1v1h-1ZM5,16h1v1h-1ZM18,16h1v1h-1ZM20,16h1v1h-1ZM21,17h1v1h-1ZM22,21h1v2h-1ZM1,22h1v1h-1ZM4,23h1v1h-1Z"/><path fill="rgb(64,83,151)" d="M7,3h1v2h-1ZM16,3h1v2h-1ZM4,6h1v1h-1ZM19,6h1v1h-1ZM5,7h1v1h-1ZM10,7h1v1h-1ZM13,7h1v1h-1ZM18,7h1v1h-1ZM3,8h1v1h-1ZM5,8h2v1h-2ZM17,8h2v1h-2ZM20,8h1v1h-1ZM6,9h1v1h-1ZM17,9h1v1h-1ZM1,11h1v2h-1ZM10,11h4v1h-4ZM22,11h1v2h-1ZM7,12h1v2h-1ZM16,12h1v2h-1ZM2,13h1v1h-1ZM21,13h1v1h-1ZM3,14h1v1h-1ZM20,14h1v1h-1ZM4,15h1v2h-1ZM7,15h1v1h-1ZM16,15h1v1h-1ZM19,15h1v2h-1ZM6,16h1v1h-1ZM17,16h1v1h-1ZM1,23h1v1h-1ZM22,23h1v1h-1Z"/><path fill="rgb(195,227,217)" d="M9,3h1v1h-1ZM14,3h1v1h-1ZM20,3h1v1h-1ZM4,4h1v1h-1ZM8,4h1v1h-1ZM15,4h1v1h-1ZM19,4h1v1h-1ZM2,5h1v3h-1ZM5,5h1v1h-1ZM18,5h1v1h-1ZM21,5h1v3h-1ZM9,6h1v1h-1ZM14,6h1v1h-1ZM4,10h1v4h-1ZM19,10h1v4h-1ZM9,11h1v1h-1ZM14,11h1v1h-1ZM2,14h1v3h-1ZM21,14h1v2h-1ZM1,17h1v1h-1ZM8,17h1v1h-1ZM11,17h2v1h-2ZM15,17h1v1h-1ZM2,19h1v2h-1ZM0,21h1v1h-1ZM23,21h1v1h-1Z"/></g></svg>