<svg version="1.1" xmlns="http://www.w3.org/2000/svg" xmlns:xlink="http://www.w3.org/1999/xlink" shape-rendering="crispEdges" width="24" height="24" viewBox="0 0 24 24"><g><path fill="rgb(119,137,184)" d="M0,0h1v1h-1ZM4,8h2v1h-2Z"/><path fill="rgb(53,168,198)" d="M1,0h2v1h-2ZM4,0h1v1h-1ZM6,0h1v1h-1ZM3,1h1v1h-1ZM10,6h1v1h-1ZM8,7h2v1h-2ZM6,8h2v1h-2ZM17,8h1v1h-1ZM4,9h1v1h-1ZM18,9h1v1h-1ZM2,10h2v1h-2ZM5,15h1v1h-1ZM14,16h3v1h-3ZM17,17h1v1h-1ZM18,18h1v1h-1Z"/><path fill="rgb(195,227,217)" d="M3,0h1v1h-1ZM7,0h1v1h-1ZM11,0h1v1h-1ZM13,0h2v1h-2ZM14,1h1v3h-1ZM6,2h1v1h-1ZM12,3h1v1h-1ZM5,4h1v2h-1ZM13,4h2v1h-2ZM10,5h1v1h-1ZM13,5h1v1h-1ZM4,6h1v2h-1ZM11,6h1v2h-1ZM9,8h1v1h-1ZM7,9h1v1h-1ZM5,10h1v1h-1ZM3,11h1v1h-1ZM1,12h1v1h-1ZM5,14h1v1h-1ZM6,15h1v1h-1ZM12,16h1v2h-1ZM9,18h1v1h-1ZM18,20h1v1h-1Z"/><path fill="rgb(145,209,212)" d="M5,0h1v1h-1ZM12,0h1v1h-1ZM0,1h2v10h-2ZM6,1h1v1h-1ZM13,1h1v3h-1ZM4,2h1v1h-1ZM5,3h1v1h-1ZM10,7h1v1h-1ZM8,8h1v1h-1ZM16,8h1v1h-1ZM18,8h1v1h-1ZM5,9h2v1h-2ZM15,9h1v1h-1ZM19,9h1v1h-1ZM4,10h1v1h-1ZM2,11h1v1h-1ZM0,12h1v1h-1ZM4,14h1v1h-1ZM3,15h1v1h-1ZM13,16h1v1h-1ZM11,17h1v1h-1ZM18,17h1v1h-1ZM10,18h1v1h-1ZM19,18h1v1h-1ZM20,19h1v1h-1ZM19,20h1v1h-1Z"/><path fill="rgb(246,246,222)" d="M8,0h3v1h-3ZM15,0h9v5h-9ZM2,1h1v1h-1ZM4,1h2v1h-2ZM7,1h6v2h-6ZM2,2h2v1h-2ZM5,2h1v1h-1ZM2,3h3v3h-3ZM6,3h6v1h-6ZM6,4h7v1h-7ZM6,5h4v1h-4ZM11,5h2v1h-2ZM14,5h10v1h-10ZM2,6h2v4h-2ZM5,6h5v1h-5ZM12,6h12v2h-12ZM5,7h3v1h-3ZM10,8h6v1h-6ZM19,8h5v1h-5ZM8,9h7v1h-7ZM16,9h2v1h-2ZM20,9h4v1h-4ZM6,10h18v1h-18ZM4,11h20v1h-20ZM2,12h22v1h-22ZM0,13h24v1h-24ZM0,14h4v1h-4ZM6,14h18v1h-18ZM0,15h3v1h-3ZM4,15h1v1h-1ZM7,15h17v1h-17ZM0,16h12v1h-12ZM17,16h7v1h-7ZM0,17h11v1h-11ZM13,17h4v1h-4ZM19,17h5v1h-5ZM0,18h9v1h-9ZM11,18h7v1h-7ZM20,18h4v1h-4ZM0,19h20v1h-20ZM21,19h3v1h-3ZM0,20h18v1h-18ZM20,20h4v1h-4ZM0,21h24v3h-24Z"/><path fill="rgb(64,83,151)" d="M0,11h2v1h-2Z"/></g></svg>