<svg version="1.1" xmlns="http://www.w3.org/2000/svg" xmlns:xlink="http://www.w3.org/1999/xlink" shape-rendering="crispEdges" width="24" height="24" viewBox="0 0 24 24"><g><path fill="rgb(33,84,211)" d="M0,0h24v4h-24ZM0,4h6v1h-6ZM7,4h17v1h-17ZM0,5h3v1h-3ZM10,5h14v1h-14ZM0,6h6v1h-6ZM7,6h17v1h-17ZM0,7h24v1h-24ZM0,8h15v1h-15ZM16,8h8v1h-8ZM0,9h13v1h-13ZM18,9h6v1h-6ZM0,10h15v1h-15ZM16,10h8v1h-8ZM0,11h24v4h-24ZM0,15h10v1h-10ZM11,15h13v1h-13ZM0,16h7v1h-7ZM14,16h10v1h-10ZM0,17h10v1h-10ZM11,17h13v1h-13ZM0,18h24v6h-24Z"/><path fill="rgb(5,145,255)" d="M6,4h1v1h-1ZM3,5h1v1h-1ZM9,5h1v1h-1ZM6,6h1v1h-1ZM15,8h1v1h-1ZM13,9h1v1h-1ZM17,9h1v1h-1ZM15,10h1v1h-1ZM10,15h1v1h-1ZM7,16h1v1h-1ZM13,16h1v1h-1ZM10,17h1v1h-1Z"/><path fill="rgb(50,176,248)" d="M4,5h1v1h-1ZM8,5h1v1h-1ZM14,9h1v1h-1ZM16,9h1v1h-1ZM8,16h1v1h-1ZM12,16h1v1h-1Z"/><path fill="rgb(96,207,240)" d="M5,5h1v1h-1ZM7,5h1v1h-1ZM15,9h1v1h-1ZM9,16h1v1h-1ZM11,16h1v1h-1Z"/><path fill="rgb(205,227,231)" d="M6,5h1v1h-1ZM10,16h1v1h-1Z"/></g></svg>