<svg version="1.1" xmlns="http://www.w3.org/2000/svg" xmlns:xlink="http://www.w3.org/1999/xlink" shape-rendering="crispEdges" width="24" height="24" viewBox="0 0 24 24"><g><path fill="rgb(33,84,211)" d="M0,0h24v5h-24ZM0,5h5v1h-5ZM8,5h16v1h-16ZM0,6h24v2h-24ZM0,8h15v1h-15ZM16,8h8v1h-8ZM0,9h11v1h-11ZM20,9h4v1h-4ZM0,10h15v1h-15ZM16,10h8v1h-8ZM0,11h24v4h-24ZM0,15h10v1h-10ZM11,15h13v1h-13ZM0,16h8v1h-8ZM13,16h11v1h-11ZM0,17h10v1h-10ZM11,17h13v1h-13ZM0,18h24v6h-24Z"/><path fill="rgb(5,145,255)" d="M5,5h1v1h-1ZM7,5h1v1h-1ZM15,8h1v1h-1ZM11,9h2v1h-2ZM18,9h2v1h-2ZM15,10h1v1h-1ZM10,15h1v1h-1ZM8,16h1v1h-1ZM12,16h1v1h-1ZM10,17h1v1h-1Z"/><path fill="rgb(96,207,240)" d="M6,5h1v1h-1ZM14,9h1v1h-1ZM16,9h1v1h-1ZM10,16h1v1h-1Z"/><path fill="rgb(50,176,248)" d="M13,9h1v1h-1ZM17,9h1v1h-1ZM9,16h1v1h-1ZM11,16h1v1h-1Z"/><path fill="rgb(205,227,231)" d="M15,9h1v1h-1Z"/></g></svg>