<svg version="1.1" xmlns="http://www.w3.org/2000/svg" xmlns:xlink="http://www.w3.org/1999/xlink" shape-rendering="crispEdges" width="24" height="24" viewBox="0 0 24 24"><path fill="rgb(255,255,255)" d="M0,0h2v24h-2ZM23,0h1v24h-1Z"/><path fill="rgb(53,53,53)" d="M14,0h2v1h-2ZM16,1h1v1h-1ZM15,2h1v1h-1ZM17,2h1v2h-1ZM16,4h1v1h-1ZM18,4h1v2h-1ZM9,5h1v1h-1ZM8,6h2v1h-2ZM13,6h2v1h-2ZM7,7h1v1h-1ZM9,7h2v1h-2ZM11,8h1v1h-1ZM6,9h1v1h-1ZM15,9h1v1h-1ZM14,10h1v1h-1ZM10,11h1v1h-1ZM6,13h2v1h-2ZM8,15h1v2h-1ZM12,15h1v1h-1ZM16,15h1v1h-1ZM10,16h2v1h-2ZM15,17h1v1h-1Z"/><path fill="rgb(80,80,80)" d="M14,1h1v1h-1ZM15,3h1v1h-1ZM16,5h1v1h-1ZM10,10h1v1h-1ZM8,12h1v1h-1ZM16,14h1v1h-1ZM10,15h2v1h-2ZM15,16h1v1h-1Z"/><path fill="rgb(128,128,128)" d="M15,1h1v1h-1ZM16,2h1v2h-1ZM17,4h1v2h-1ZM17,14h1v2h-1ZM16,16h1v2h-1ZM11,17h2v1h-2ZM15,18h1v1h-1Z"/><path fill="rgb(59,59,59)" d="M6,2h2v1h-2ZM11,2h2v1h-2ZM5,3h1v1h-1ZM13,3h1v1h-1ZM4,4h1v1h-1ZM14,4h1v1h-1ZM5,6h1v1h-1ZM4,7h1v2h-1ZM8,10h1v1h-1ZM12,10h1v1h-1ZM3,11h1v1h-1ZM9,13h1v1h-1ZM12,13h1v1h-1Z"/><path fill="rgb(99,99,99)" d="M8,2h3v1h-3ZM7,4h1v1h-1ZM4,5h3v1h-3ZM4,6h1v1h-1ZM3,7h1v4h-1ZM13,8h1v1h-1ZM11,11h1v1h-1ZM10,13h2v1h-2ZM9,14h3v1h-3Z"/><path fill="rgb(163,163,163)" d="M13,2h2v1h-2ZM7,5h2v1h-2ZM14,5h1v1h-1ZM6,6h2v1h-2ZM5,7h2v2h-2ZM14,7h1v1h-1ZM20,10h1v1h-1ZM13,15h1v1h-1ZM14,16h1v1h-1Z"/><path fill="rgb(149,149,149)" d="M6,3h3v1h-3ZM5,4h2v1h-2ZM12,11h1v1h-1ZM10,12h3v1h-3Z"/><path fill="rgb(241,241,241)" d="M9,3h4v1h-4ZM20,8h1v1h-1ZM21,9h1v1h-1ZM14,14h1v2h-1Z"/><path fill="rgb(204,204,204)" d="M8,4h2v1h-2ZM13,4h1v1h-1ZM13,18h1v1h-1ZM12,19h1v1h-1ZM12,21h2v1h-2Z"/><path fill="rgb(0,0,0)" d="M10,4h3v1h-3ZM3,5h1v2h-1ZM13,5h1v1h-1ZM15,5h1v4h-1ZM2,7h1v5h-1ZM13,7h1v1h-1ZM18,7h1v2h-1ZM14,9h1v1h-1ZM16,9h1v1h-1ZM19,9h1v2h-1ZM9,10h1v1h-1ZM11,10h1v1h-1ZM13,10h1v1h-1ZM21,10h1v1h-1ZM8,11h1v1h-1ZM19,11h2v1h-2ZM3,12h2v1h-2ZM9,12h1v1h-1ZM15,12h4v1h-4ZM5,13h1v4h-1ZM8,13h1v2h-1ZM13,13h2v1h-2ZM12,14h1v1h-1ZM18,14h1v2h-1ZM9,15h1v2h-1ZM12,16h1v1h-1ZM17,16h1v2h-1ZM6,17h3v1h-3ZM14,17h1v2h-1ZM5,18h1v1h-1ZM8,18h2v1h-2ZM16,18h1v1h-1ZM4,19h1v1h-1ZM8,19h4v1h-4ZM14,19h2v1h-2ZM3,20h2v1h-2ZM8,20h3v1h-3ZM14,20h3v1h-3ZM2,21h9v1h-9ZM15,21h3v1h-3ZM3,22h14v1h-14ZM5,23h10v1h-10Z"/><path fill="rgb(91,91,91)" d="M10,5h3v1h-3ZM10,6h1v1h-1ZM7,8h1v2h-1ZM9,8h2v1h-2ZM13,9h1v1h-1ZM17,9h2v1h-2Z"/><path fill="rgb(159,159,159)" d="M11,6h2v2h-2ZM8,7h1v1h-1ZM12,9h1v1h-1Z"/><path fill="rgb(61,61,61)" d="M17,6h2v1h-2ZM17,8h1v1h-1ZM4,9h2v1h-2ZM5,10h3v1h-3ZM4,11h1v1h-1ZM7,11h1v1h-1ZM18,13h1v1h-1Z"/><path fill="rgb(122,122,122)" d="M17,7h1v1h-1ZM4,10h1v1h-1ZM17,13h1v1h-1Z"/><path fill="rgb(51,51,51)" d="M20,7h1v1h-1ZM19,8h1v1h-1ZM21,8h1v1h-1ZM22,9h1v1h-1ZM5,19h3v1h-3Z"/><path fill="rgb(218,218,218)" d="M8,8h1v1h-1ZM12,8h1v1h-1ZM8,9h4v1h-4Z"/><path fill="rgb(255,255,255)" d="M14,8h1v1h-1Z"/><path fill="rgb(130,130,130)" d="M20,9h1v1h-1ZM13,19h1v1h-1ZM6,20h1v1h-1ZM11,20h1v2h-1Z"/><path fill="rgb(150,150,150)" d="M15,10h2v1h-2ZM13,11h1v2h-1ZM16,11h1v1h-1Z"/><path fill="rgb(186,186,186)" d="M17,10h1v1h-1ZM14,11h2v1h-2ZM17,11h2v1h-2ZM14,12h1v1h-1Z"/><path fill="rgb(225,225,225)" d="M18,10h1v1h-1Z"/><path fill="rgb(108,108,108)" d="M5,11h2v1h-2ZM9,11h1v1h-1ZM5,12h3v1h-3ZM6,14h2v3h-2Z"/><path fill="rgb(98,98,98)" d="M9,17h2v1h-2ZM10,18h2v1h-2Z"/><path fill="rgb(95,95,95)" d="M13,17h1v1h-1ZM12,18h1v1h-1ZM5,20h1v1h-1ZM7,20h1v1h-1ZM12,20h2v1h-2ZM14,21h1v1h-1Z"/><path fill="rgb(69,69,69)" d="M6,18h2v1h-2Z"/></svg>