<svg version="1.1" xmlns="http://www.w3.org/2000/svg" xmlns:xlink="http://www.w3.org/1999/xlink" shape-rendering="crispEdges" width="24" height="24" viewBox="0 0 24 24"><path fill="rgb(255,255,255)" d="M0,0h1v24h-1ZM22,0h2v24h-2Z"/><path fill="rgb(93,53,13)" d="M13,0h2v1h-2ZM15,1h1v1h-1ZM14,2h1v1h-1ZM16,2h1v2h-1ZM15,4h1v1h-1ZM17,4h1v2h-1ZM8,5h1v1h-1ZM7,6h2v1h-2ZM12,6h2v1h-2ZM6,7h1v1h-1ZM8,7h2v1h-2ZM10,8h1v1h-1ZM5,9h1v1h-1ZM14,9h1v1h-1ZM13,10h1v1h-1ZM9,11h1v1h-1ZM14,12h1v1h-1ZM4,13h3v1h-3ZM12,15h1v1h-1ZM15,15h1v1h-1ZM8,16h1v1h-1ZM10,16h2v1h-2ZM14,17h1v1h-1Z"/><path fill="rgb(143,78,20)" d="M13,1h1v1h-1ZM14,3h1v1h-1ZM15,5h1v1h-1ZM9,10h1v1h-1ZM7,12h1v1h-1ZM15,14h1v1h-1ZM10,15h2v1h-2ZM14,16h1v1h-1Z"/><path fill="rgb(171,132,81)" d="M14,1h1v1h-1ZM15,2h1v2h-1ZM16,4h1v2h-1ZM16,14h1v2h-1ZM15,16h1v2h-1ZM11,17h2v1h-2ZM14,18h1v1h-1Z"/><path fill="rgb(12,53,112)" d="M5,2h2v1h-2ZM10,2h2v1h-2ZM4,3h1v1h-1ZM12,3h1v1h-1ZM3,4h1v1h-1ZM13,4h1v1h-1ZM4,6h1v1h-1ZM3,7h1v2h-1ZM7,10h1v1h-1ZM11,10h1v1h-1ZM2,11h1v1h-1ZM8,13h1v3h-1ZM11,13h1v1h-1ZM10,14h1v1h-1Z"/><path fill="rgb(0,100,198)" d="M7,2h3v1h-3ZM6,4h1v1h-1ZM3,5h3v1h-3ZM3,6h1v1h-1ZM2,7h1v4h-1ZM12,8h1v1h-1ZM10,11h1v1h-1ZM9,13h2v1h-2ZM9,14h1v1h-1Z"/><path fill="rgb(154,160,176)" d="M12,2h2v1h-2ZM6,5h2v1h-2ZM13,5h1v1h-1ZM5,6h2v1h-2ZM4,7h2v2h-2ZM13,7h1v1h-1ZM19,10h1v1h-1ZM13,15h1v1h-1Z"/><path fill="rgb(65,149,233)" d="M5,3h3v1h-3ZM4,4h2v1h-2ZM11,11h1v1h-1ZM9,12h3v1h-3Z"/><path fill="rgb(241,242,242)" d="M8,3h4v1h-4ZM19,8h1v1h-1ZM20,9h1v1h-1ZM13,14h1v1h-1ZM14,15h1v1h-1Z"/><path fill="rgb(204,204,205)" d="M7,4h2v1h-2ZM12,4h1v1h-1ZM13,18h1v1h-1ZM12,19h1v1h-1ZM12,21h2v1h-2Z"/><path fill="rgb(0,0,0)" d="M9,4h3v1h-3ZM2,5h1v2h-1ZM12,5h1v1h-1ZM14,5h1v4h-1ZM1,7h1v5h-1ZM12,7h1v1h-1ZM17,7h1v2h-1ZM13,9h1v1h-1ZM15,9h1v1h-1ZM18,9h1v2h-1ZM8,10h1v1h-1ZM10,10h1v1h-1ZM12,10h1v1h-1ZM20,10h1v1h-1ZM7,11h1v1h-1ZM18,11h2v1h-2ZM2,12h2v1h-2ZM8,12h1v1h-1ZM15,12h3v1h-3ZM3,13h1v1h-1ZM7,13h1v2h-1ZM12,13h3v1h-3ZM4,14h1v2h-1ZM11,14h1v1h-1ZM17,14h1v2h-1ZM9,15h1v2h-1ZM5,16h1v1h-1ZM12,16h1v1h-1ZM16,16h1v2h-1ZM6,17h3v1h-3ZM13,17h1v1h-1ZM5,18h1v1h-1ZM8,18h2v1h-2ZM15,18h1v1h-1ZM4,19h1v1h-1ZM8,19h4v1h-4ZM14,19h1v1h-1ZM3,20h2v1h-2ZM8,20h3v1h-3ZM14,20h3v1h-3ZM2,21h9v1h-9ZM15,21h3v1h-3ZM3,22h14v1h-14ZM5,23h10v1h-10Z"/><path fill="rgb(183,90,0)" d="M9,5h3v1h-3ZM9,6h1v1h-1ZM6,8h1v2h-1ZM8,8h2v1h-2ZM12,9h1v1h-1ZM16,9h2v1h-2Z"/><path fill="rgb(224,157,97)" d="M10,6h2v2h-2ZM7,7h1v1h-1ZM11,9h1v1h-1Z"/><path fill="rgb(140,14,31)" d="M16,6h2v1h-2ZM16,8h1v1h-1ZM3,9h2v1h-2ZM5,10h2v1h-2ZM3,11h2v1h-2ZM6,11h1v1h-1ZM17,13h1v1h-1Z"/><path fill="rgb(219,36,113)" d="M16,7h1v1h-1ZM3,10h2v1h-2ZM16,13h1v1h-1Z"/><path fill="rgb(41,50,62)" d="M19,7h1v1h-1ZM18,8h1v1h-1ZM20,8h1v1h-1ZM21,9h1v1h-1ZM5,19h3v1h-3Z"/><path fill="rgb(255,245,155)" d="M7,8h1v1h-1ZM11,8h1v1h-1ZM7,9h4v1h-4Z"/><path fill="rgb(255,255,255)" d="M13,8h1v1h-1Z"/><path fill="rgb(116,128,146)" d="M19,9h1v1h-1ZM13,19h1v1h-1ZM6,20h1v1h-1ZM11,20h1v2h-1Z"/><path fill="rgb(249,152,51)" d="M14,10h2v1h-2ZM12,11h1v2h-1ZM15,11h1v1h-1Z"/><path fill="rgb(255,204,101)" d="M16,10h1v1h-1ZM13,11h2v1h-2ZM16,11h2v1h-2ZM13,12h1v1h-1Z"/><path fill="rgb(254,236,186)" d="M17,10h1v1h-1Z"/><path fill="rgb(171,107,48)" d="M5,11h1v1h-1ZM8,11h1v1h-1ZM4,12h3v1h-3ZM5,14h2v1h-2ZM5,15h3v1h-3ZM6,16h2v1h-2Z"/><path fill="rgb(138,102,56)" d="M9,17h2v1h-2ZM10,18h2v1h-2Z"/><path fill="rgb(62,69,78)" d="M6,18h2v1h-2Z"/><path fill="rgb(76,95,114)" d="M12,18h1v1h-1ZM5,20h1v1h-1ZM7,20h1v1h-1ZM12,20h2v1h-2ZM14,21h1v1h-1Z"/></svg>