<svg version="1.1" xmlns="http://www.w3.org/2000/svg" xmlns:xlink="http://www.w3.org/1999/xlink" shape-rendering="crispEdges" width="24" height="24" viewBox="0 0 24 24"><path fill="rgb(255,255,255)" d="M0,0h24v3h-24ZM0,23h24v1h-24Z"/><path fill="rgb(76,95,114)" d="M2,3h4v1h-4ZM1,4h1v1h-1ZM6,4h1v1h-1ZM0,5h1v1h-1ZM2,6h1v2h-1ZM13,7h3v1h-3ZM5,11h2v1h-2ZM20,11h2v1h-2ZM7,12h1v1h-1ZM22,12h1v1h-1ZM23,13h1v1h-1ZM10,15h3v1h-3ZM8,16h1v1h-1ZM22,16h1v1h-1ZM5,17h2v1h-2ZM20,17h2v1h-2ZM13,20h1v1h-1ZM11,21h2v1h-2Z"/><path fill="rgb(204,204,205)" d="M2,4h4v2h-4ZM13,8h1v1h-1ZM4,12h2v1h-2ZM20,12h1v1h-1ZM6,13h2v2h-2ZM21,13h2v2h-2ZM10,16h2v1h-2ZM12,17h2v2h-2Z"/><path fill="rgb(116,128,146)" d="M1,5h1v1h-1ZM3,6h3v1h-3ZM1,7h1v1h-1ZM5,7h1v1h-1Z"/><path fill="rgb(154,160,176)" d="M6,5h1v2h-1ZM1,6h1v1h-1ZM3,7h2v1h-2ZM6,12h1v1h-1ZM21,12h1v1h-1ZM5,13h1v1h-1ZM6,15h2v1h-2ZM21,15h2v1h-2ZM6,16h1v1h-1ZM12,16h1v1h-1ZM21,16h1v1h-1ZM11,17h1v1h-1ZM12,19h2v1h-2ZM12,20h1v1h-1Z"/><path fill="rgb(62,69,78)" d="M7,5h1v2h-1ZM12,7h1v1h-1ZM11,8h1v1h-1ZM3,11h2v1h-2ZM2,12h1v1h-1ZM8,13h1v2h-1ZM23,14h1v2h-1ZM9,15h1v1h-1ZM7,16h1v1h-1ZM13,16h1v1h-1ZM14,17h1v2h-1Z"/><path fill="rgb(41,50,62)" d="M0,6h1v1h-1ZM6,7h1v1h-1ZM1,8h5v1h-5Z"/><path fill="rgb(0,0,0)" d="M0,7h1v2h-1ZM7,8h1v1h-1ZM17,8h1v1h-1ZM1,9h1v1h-1ZM8,9h1v1h-1ZM10,9h1v1h-1ZM18,9h1v2h-1ZM2,10h2v1h-2ZM8,11h1v2h-1ZM15,11h1v1h-1ZM19,11h1v2h-1ZM13,12h2v1h-2ZM1,13h1v4h-1ZM4,14h1v2h-1ZM8,15h1v1h-1ZM20,16h1v1h-1ZM23,16h1v1h-1ZM2,17h1v1h-1ZM7,17h1v1h-1ZM18,17h2v1h-2ZM22,17h2v1h-2ZM3,18h5v1h-5ZM10,18h1v2h-1ZM15,18h7v1h-7ZM5,19h3v1h-3ZM14,19h6v1h-6ZM7,20h1v1h-1ZM14,20h3v1h-3ZM8,21h1v1h-1ZM13,21h2v1h-2ZM9,22h4v1h-4Z"/><path fill="rgb(93,53,13)" d="M7,7h1v1h-1ZM12,8h1v1h-1ZM14,8h3v1h-3ZM11,9h3v1h-3ZM4,10h3v1h-3ZM8,10h4v1h-4ZM7,11h1v1h-1ZM14,11h1v1h-1ZM16,11h1v1h-1ZM3,12h1v1h-1ZM15,12h2v1h-2ZM2,13h3v1h-3ZM16,13h2v2h-2ZM20,13h1v3h-1ZM2,14h1v2h-1ZM5,14h1v3h-1ZM2,16h2v1h-2ZM9,16h1v1h-1ZM3,17h2v1h-2ZM8,17h3v1h-3ZM17,17h1v1h-1ZM8,18h1v2h-1ZM11,18h1v3h-1ZM8,20h2v1h-2ZM9,21h2v1h-2Z"/><path fill="rgb(195,163,107)" d="M6,8h1v1h-1ZM2,9h4v1h-4ZM14,9h3v1h-3ZM12,10h3v1h-3ZM9,11h3v1h-3ZM9,12h2v1h-2ZM10,13h1v1h-1ZM3,15h1v1h-1ZM18,15h2v1h-2ZM15,16h5v1h-5ZM15,17h2v1h-2ZM9,19h1v1h-1Z"/><path fill="rgb(171,132,81)" d="M6,9h2v1h-2ZM15,10h1v1h-1ZM12,11h1v1h-1ZM9,13h1v1h-1ZM10,14h2v1h-2ZM17,15h1v1h-1ZM14,16h1v1h-1Z"/><path fill="rgb(138,102,56)" d="M17,9h1v1h-1ZM7,10h1v1h-1ZM13,11h1v1h-1ZM14,13h2v2h-2ZM3,14h1v1h-1ZM9,14h1v1h-1ZM15,15h2v1h-2ZM4,16h1v1h-1ZM9,18h1v1h-1ZM10,20h1v1h-1Z"/><path fill="rgb(0,65,114)" d="M16,10h2v1h-2ZM11,12h2v1h-2Z"/><path fill="rgb(0,43,75)" d="M17,11h2v2h-2ZM11,13h3v1h-3ZM18,13h2v2h-2ZM12,14h2v1h-2ZM13,15h2v1h-2Z"/></svg>