<svg version="1.1" xmlns="http://www.w3.org/2000/svg" xmlns:xlink="http://www.w3.org/1999/xlink" shape-rendering="crispEdges" width="24" height="24" viewBox="0 0 24 24"><path fill="rgb(255,255,255)" d="M0,0h24v4h-24ZM0,23h24v1h-24Z"/><path fill="rgb(95,95,95)" d="M2,4h4v1h-4ZM1,5h1v1h-1ZM6,5h1v1h-1ZM0,6h1v1h-1ZM2,7h1v2h-1ZM13,7h3v1h-3ZM16,8h1v1h-1ZM5,11h2v1h-2ZM19,11h3v1h-3ZM7,12h1v1h-1ZM22,12h1v1h-1ZM23,13h1v1h-1ZM10,15h3v1h-3ZM8,16h1v1h-1ZM22,16h1v1h-1ZM5,17h2v1h-2ZM21,17h1v1h-1ZM13,20h1v1h-1ZM11,21h2v1h-2Z"/><path fill="rgb(204,204,204)" d="M2,5h4v2h-4ZM13,8h3v1h-3ZM4,12h2v1h-2ZM20,12h1v1h-1ZM6,13h2v2h-2ZM20,13h3v1h-3ZM21,14h2v1h-2ZM10,16h2v1h-2ZM12,17h2v2h-2Z"/><path fill="rgb(130,130,130)" d="M1,6h1v1h-1ZM3,7h3v1h-3ZM1,8h1v1h-1ZM5,8h1v1h-1Z"/><path fill="rgb(163,163,163)" d="M6,6h1v2h-1ZM1,7h1v1h-1ZM3,8h2v1h-2ZM12,8h1v1h-1ZM13,9h1v1h-1ZM6,12h1v1h-1ZM21,12h1v1h-1ZM5,13h1v1h-1ZM6,15h2v1h-2ZM21,15h2v1h-2ZM6,16h1v1h-1ZM12,16h1v1h-1ZM21,16h1v1h-1ZM11,17h1v1h-1ZM12,19h2v1h-2ZM12,20h1v1h-1Z"/><path fill="rgb(69,69,69)" d="M7,6h1v2h-1ZM12,7h1v1h-1ZM11,8h1v1h-1ZM3,11h2v1h-2ZM2,12h1v1h-1ZM8,13h1v2h-1ZM23,14h1v2h-1ZM9,15h1v1h-1ZM7,16h1v1h-1ZM13,16h1v1h-1ZM14,17h1v2h-1Z"/><path fill="rgb(51,51,51)" d="M0,7h1v1h-1ZM6,8h1v1h-1ZM1,9h5v1h-5Z"/><path fill="rgb(0,0,0)" d="M0,8h1v2h-1ZM7,9h1v1h-1ZM10,9h2v1h-2ZM17,9h1v1h-1ZM1,10h1v1h-1ZM8,10h2v1h-2ZM18,10h1v2h-1ZM2,11h1v1h-1ZM8,12h1v1h-1ZM15,12h1v1h-1ZM19,12h1v2h-1ZM1,13h1v4h-1ZM13,13h2v1h-2ZM4,14h1v2h-1ZM8,15h1v1h-1ZM23,16h1v1h-1ZM2,17h1v1h-1ZM7,17h1v1h-1ZM20,17h1v1h-1ZM22,17h2v1h-2ZM3,18h5v1h-5ZM10,18h1v2h-1ZM18,18h4v1h-4ZM5,19h3v1h-3ZM14,19h6v1h-6ZM7,20h1v1h-1ZM14,20h3v1h-3ZM8,21h1v1h-1ZM13,21h2v1h-2ZM9,22h4v1h-4Z"/><path fill="rgb(53,53,53)" d="M7,8h1v1h-1ZM12,9h1v1h-1ZM14,9h3v1h-3ZM10,10h3v1h-3ZM8,11h3v1h-3ZM3,12h1v1h-1ZM14,12h1v1h-1ZM16,12h1v1h-1ZM2,13h3v1h-3ZM15,13h2v1h-2ZM2,14h1v2h-1ZM5,14h1v3h-1ZM16,14h2v2h-2ZM20,14h1v3h-1ZM2,16h2v1h-2ZM9,16h1v1h-1ZM3,17h2v1h-2ZM8,17h3v1h-3ZM8,18h1v2h-1ZM11,18h1v3h-1ZM17,18h1v1h-1ZM8,20h2v1h-2ZM9,21h2v1h-2Z"/><path fill="rgb(155,155,155)" d="M6,9h1v1h-1ZM2,10h4v1h-4ZM14,10h3v1h-3ZM12,11h3v1h-3ZM9,12h3v1h-3ZM9,13h2v1h-2ZM10,14h1v1h-1ZM3,15h1v1h-1ZM18,16h2v1h-2ZM15,17h5v1h-5ZM15,18h2v1h-2ZM9,19h1v1h-1Z"/><path fill="rgb(128,128,128)" d="M6,10h2v1h-2ZM15,11h1v1h-1ZM12,12h1v1h-1ZM9,14h1v1h-1ZM17,16h1v1h-1Z"/><path fill="rgb(98,98,98)" d="M13,10h1v1h-1ZM17,10h1v1h-1ZM7,11h1v1h-1ZM11,11h1v1h-1ZM13,12h1v1h-1ZM3,14h1v1h-1ZM14,14h2v2h-2ZM4,16h1v1h-1ZM15,16h2v1h-2ZM9,18h1v1h-1ZM10,20h1v1h-1Z"/><path fill="rgb(149,149,149)" d="M16,11h2v1h-2ZM17,12h2v2h-2ZM11,13h2v2h-2Z"/><path fill="rgb(99,99,99)" d="M13,14h1v2h-1ZM18,14h2v2h-2ZM14,16h1v1h-1Z"/></svg>