<svg version="1.1" xmlns="http://www.w3.org/2000/svg" xmlns:xlink="http://www.w3.org/1999/xlink" shape-rendering="crispEdges" width="24" height="24" viewBox="0 0 24 24"><path fill="rgb(255,255,255)" d="M0,0h24v1h-24ZM0,1h2v23h-2ZM21,1h3v23h-3Z"/><path fill="rgb(219,36,113)" d="M11,1h1v1h-1ZM16,9h1v2h-1ZM17,11h1v2h-1ZM18,13h1v2h-1ZM19,15h1v2h-1Z"/><path fill="rgb(143,0,60)" d="M10,2h1v1h-1ZM9,3h1v2h-1ZM8,5h1v2h-1ZM7,7h1v2h-1ZM6,9h1v2h-1ZM5,11h1v2h-1ZM4,13h1v2h-1ZM3,15h1v2h-1ZM19,17h1v1h-1ZM18,18h1v1h-1ZM17,19h1v1h-1ZM16,20h1v1h-1ZM15,21h1v1h-1Z"/><path fill="rgb(250,248,204)" d="M11,2h1v1h-1ZM11,3h2v2h-2ZM11,5h3v2h-3ZM11,7h4v2h-4ZM11,9h3v1h-3ZM15,9h1v1h-1ZM11,10h1v6h-1ZM5,18h1v1h-1ZM6,19h1v1h-1ZM7,20h1v1h-1Z"/><path fill="rgb(234,95,158)" d="M12,2h1v1h-1ZM13,3h1v2h-1ZM14,5h1v2h-1ZM15,7h1v2h-1ZM7,9h1v2h-1ZM6,11h1v2h-1ZM14,11h2v1h-2ZM12,12h3v1h-3ZM5,13h1v2h-1ZM4,15h1v1h-1ZM4,16h4v1h-4ZM10,16h1v1h-1ZM12,16h1v1h-1ZM14,16h2v1h-2ZM8,17h1v1h-1ZM16,17h3v1h-3ZM14,18h4v1h-4ZM11,19h1v2h-1ZM14,19h3v1h-3ZM13,20h3v1h-3ZM13,21h1v1h-1Z"/><path fill="rgb(255,158,202)" d="M10,3h1v2h-1ZM9,5h1v2h-1ZM8,7h1v2h-1ZM14,9h1v1h-1ZM12,10h4v1h-4ZM12,11h2v1h-2ZM16,11h1v2h-1ZM17,13h1v2h-1ZM18,15h1v1h-1ZM11,16h1v1h-1ZM16,16h3v1h-3ZM4,17h1v1h-1ZM9,17h7v1h-7ZM11,18h1v1h-1ZM8,21h1v1h-1Z"/><path fill="rgb(207,85,194)" d="M10,5h1v2h-1ZM9,7h2v4h-2ZM8,11h3v5h-3ZM8,16h2v1h-2ZM12,18h2v2h-2ZM12,20h1v1h-1ZM11,21h2v1h-2Z"/><path fill="rgb(133,63,153)" d="M8,9h1v2h-1ZM7,11h1v2h-1ZM6,13h2v2h-2ZM5,15h3v1h-3ZM3,17h1v1h-1ZM5,17h3v1h-3ZM4,18h1v1h-1ZM6,18h5v1h-5ZM5,19h1v1h-1ZM7,19h4v1h-4ZM6,20h1v1h-1ZM8,20h3v1h-3ZM7,21h1v1h-1ZM9,21h2v1h-2Z"/><path fill="rgb(212,32,113)" d="M15,12h1v1h-1ZM12,13h5v2h-5ZM12,15h6v1h-6ZM13,16h1v1h-1ZM14,21h1v1h-1Z"/><path fill="rgb(0,0,0)" d="M3,20h3v1h-3ZM17,20h3v1h-3ZM2,21h5v1h-5ZM16,21h5v1h-5ZM3,22h17v1h-17ZM5,23h13v1h-13Z"/></svg>