<svg version="1.1" xmlns="http://www.w3.org/2000/svg" xmlns:xlink="http://www.w3.org/1999/xlink" shape-rendering="crispEdges" width="24" height="24" viewBox="0 0 24 24"><path fill="rgb(255,255,255)" d="M0,0h2v24h-2ZM21,0h3v24h-3Z"/><path fill="rgb(219,36,113)" d="M11,0h1v1h-1ZM16,8h1v2h-1ZM17,10h1v2h-1ZM18,12h1v2h-1ZM19,14h1v2h-1Z"/><path fill="rgb(143,0,60)" d="M10,1h1v1h-1ZM9,2h1v2h-1ZM8,4h1v2h-1ZM7,6h1v2h-1ZM6,8h1v2h-1ZM5,10h1v2h-1ZM4,12h1v2h-1ZM3,14h1v2h-1ZM19,16h1v1h-1ZM18,17h1v1h-1ZM17,18h1v1h-1ZM16,19h1v1h-1ZM15,20h1v1h-1ZM14,21h1v1h-1Z"/><path fill="rgb(250,248,204)" d="M11,1h1v1h-1ZM11,2h2v2h-2ZM11,4h3v2h-3ZM11,6h4v1h-4ZM11,7h2v1h-2ZM14,7h1v1h-1ZM11,8h1v7h-1ZM6,18h1v1h-1Z"/><path fill="rgb(234,95,158)" d="M12,1h1v1h-1ZM13,2h1v2h-1ZM14,4h1v2h-1ZM15,6h1v2h-1ZM7,8h1v2h-1ZM12,9h3v1h-3ZM6,10h1v2h-1ZM12,10h2v1h-2ZM5,12h1v2h-1ZM4,14h1v1h-1ZM4,15h4v1h-4ZM10,15h1v1h-1ZM12,15h1v1h-1ZM14,15h2v1h-2ZM8,16h1v1h-1ZM16,16h3v1h-3ZM14,17h4v1h-4ZM11,18h1v2h-1ZM14,18h3v1h-3ZM13,19h3v1h-3ZM13,20h2v1h-2ZM13,21h1v1h-1Z"/><path fill="rgb(255,158,202)" d="M10,2h1v2h-1ZM9,4h1v2h-1ZM8,6h1v2h-1ZM13,7h1v1h-1ZM12,8h4v1h-4ZM15,9h1v1h-1ZM16,10h1v2h-1ZM17,12h1v2h-1ZM18,14h1v1h-1ZM11,15h1v1h-1ZM16,15h3v1h-3ZM4,16h1v1h-1ZM9,16h7v1h-7ZM5,17h1v1h-1ZM11,17h1v1h-1ZM7,19h1v1h-1ZM8,20h1v1h-1Z"/><path fill="rgb(207,85,194)" d="M10,4h1v3h-1ZM9,7h2v4h-2ZM8,11h3v4h-3ZM8,15h2v1h-2ZM12,17h2v2h-2ZM12,19h1v1h-1ZM11,20h2v2h-2ZM9,21h1v1h-1Z"/><path fill="rgb(133,63,153)" d="M9,6h1v1h-1ZM8,8h1v2h-1ZM7,10h2v1h-2ZM7,11h1v1h-1ZM6,12h2v2h-2ZM5,14h3v1h-3ZM3,16h1v1h-1ZM5,16h3v1h-3ZM4,17h1v1h-1ZM6,17h5v1h-5ZM5,18h1v1h-1ZM7,18h4v1h-4ZM6,19h1v1h-1ZM8,19h3v1h-3ZM7,20h1v1h-1ZM9,20h2v1h-2ZM8,21h1v1h-1ZM10,21h1v1h-1Z"/><path fill="rgb(212,32,113)" d="M14,10h2v1h-2ZM12,11h4v1h-4ZM12,12h5v2h-5ZM12,14h6v1h-6ZM13,15h1v1h-1Z"/><path fill="rgb(0,0,0)" d="M5,19h1v1h-1ZM17,19h1v1h-1ZM3,20h4v1h-4ZM16,20h4v1h-4ZM2,21h6v1h-6ZM15,21h6v1h-6ZM3,22h17v1h-17ZM5,23h13v1h-13Z"/></svg>