<svg version="1.1" xmlns="http://www.w3.org/2000/svg" xmlns:xlink="http://www.w3.org/1999/xlink" shape-rendering="crispEdges" width="24" height="24" viewBox="0 0 24 24"><path fill="rgb(255,255,255)" d="M0,0h24v1h-24ZM23,1h1v23h-1Z"/><path fill="rgb(74,90,115)" d="M7,1h2v1h-2ZM6,2h1v1h-1ZM5,3h1v1h-1ZM8,4h1v1h-1ZM14,4h1v2h-1ZM6,5h1v1h-1ZM8,5h3v1h-3ZM7,6h2v2h-2ZM12,6h1v2h-1ZM8,8h1v1h-1ZM13,8h1v1h-1ZM8,9h3v1h-3ZM11,10h3v1h-3ZM9,11h1v1h-1Z"/><path fill="rgb(156,165,181)" d="M9,1h4v1h-4ZM13,2h1v1h-1ZM6,3h3v1h-3ZM14,3h1v1h-1ZM6,4h2v1h-2ZM7,5h1v1h-1ZM7,8h1v1h-1ZM9,8h1v1h-1ZM9,10h2v1h-2ZM8,11h1v1h-1ZM10,11h1v1h-1ZM12,11h1v1h-1ZM9,12h1v1h-1Z"/><path fill="rgb(200,206,200)" d="M7,2h5v1h-5ZM9,3h2v1h-2ZM9,4h3v1h-3ZM13,4h1v1h-1ZM11,5h3v1h-3ZM6,6h1v2h-1ZM13,7h1v1h-1ZM10,8h3v1h-3ZM11,9h3v1h-3ZM11,11h1v1h-1Z"/><path fill="rgb(247,247,247)" d="M12,2h1v1h-1ZM11,3h3v1h-3ZM12,4h1v1h-1Z"/><path fill="rgb(41,50,62)" d="M5,4h1v4h-1ZM14,7h1v4h-1ZM6,8h1v2h-1ZM7,10h1v1h-1ZM13,11h2v1h-2ZM11,12h1v1h-1ZM13,13h1v2h-1ZM15,13h1v1h-1ZM13,16h1v1h-1ZM14,17h1v2h-1ZM6,18h1v1h-1ZM6,19h2v1h-2ZM11,19h1v1h-1ZM7,20h1v1h-1ZM4,22h1v1h-1ZM7,22h1v1h-1Z"/><path fill="rgb(47,41,41)" d="M9,6h3v1h-3ZM13,6h3v1h-3ZM9,7h1v1h-1ZM12,12h1v1h-1Z"/><path fill="rgb(239,215,0)" d="M10,7h2v1h-2Z"/><path fill="rgb(0,0,0)" d="M7,9h1v1h-1ZM5,10h1v1h-1ZM1,12h1v1h-1ZM8,12h1v1h-1ZM10,12h1v1h-1ZM13,12h1v1h-1ZM17,12h1v1h-1ZM0,13h7v1h-7ZM9,13h3v1h-3ZM16,13h1v1h-1ZM0,14h1v6h-1ZM15,14h1v1h-1ZM13,15h1v1h-1ZM16,15h1v1h-1ZM8,17h4v1h-4ZM18,17h1v1h-1ZM7,18h2v1h-2ZM11,18h3v1h-3ZM8,19h1v1h-1ZM14,19h3v1h-3ZM1,20h1v1h-1ZM8,20h3v2h-3ZM14,20h1v1h-1ZM2,21h1v1h-1ZM15,21h1v1h-1ZM18,21h1v1h-1ZM0,22h4v1h-4ZM8,22h8v1h-8ZM19,22h1v1h-1ZM3,23h11v1h-11ZM20,23h1v1h-1Z"/><path fill="rgb(76,95,114)" d="M3,10h2v1h-2ZM15,10h1v1h-1ZM2,11h1v1h-1ZM16,11h1v1h-1ZM12,13h1v1h-1ZM14,14h1v1h-1ZM14,15h2v1h-2ZM9,16h4v1h-4ZM17,17h1v1h-1ZM16,18h1v1h-1ZM19,18h1v1h-1ZM9,19h2v1h-2ZM20,19h1v1h-1ZM6,20h1v1h-1ZM13,20h1v1h-1ZM17,20h1v1h-1ZM21,20h1v1h-1ZM7,21h1v1h-1ZM14,21h1v1h-1ZM22,21h1v2h-1ZM21,23h2v1h-2Z"/><path fill="rgb(12,53,112)" d="M6,10h1v1h-1ZM7,11h1v1h-1ZM14,13h1v1h-1ZM7,14h1v3h-1ZM2,15h3v1h-3ZM0,20h1v2h-1Z"/><path fill="rgb(62,69,78)" d="M8,10h1v1h-1Z"/><path fill="rgb(154,160,176)" d="M3,11h1v1h-1ZM5,11h1v1h-1ZM2,12h1v1h-1ZM6,12h1v1h-1ZM8,13h1v1h-1ZM10,14h1v2h-1ZM8,16h1v1h-1ZM12,17h2v1h-2ZM16,17h1v1h-1ZM9,18h2v1h-2ZM17,18h1v1h-1ZM18,19h1v1h-1ZM19,20h1v1h-1ZM11,21h1v1h-1ZM20,21h1v1h-1ZM21,22h1v1h-1Z"/><path fill="rgb(241,242,242)" d="M4,11h1v1h-1ZM15,11h1v1h-1ZM3,12h1v1h-1ZM16,12h1v1h-1ZM8,14h2v2h-2ZM11,14h2v2h-2ZM7,17h1v1h-1ZM18,18h1v1h-1ZM13,19h1v1h-1ZM19,19h1v1h-1ZM12,20h1v1h-1ZM20,20h1v1h-1ZM21,21h1v1h-1ZM5,22h2v1h-2Z"/><path fill="rgb(0,100,198)" d="M6,11h1v1h-1ZM7,12h1v2h-1ZM14,12h1v1h-1ZM2,16h1v4h-1ZM4,16h1v4h-1ZM3,20h1v1h-1Z"/><path fill="rgb(204,204,205)" d="M4,12h2v1h-2ZM15,12h1v1h-1ZM14,16h1v1h-1ZM12,19h1v1h-1ZM17,19h1v1h-1ZM11,20h1v1h-1ZM18,20h1v1h-1ZM5,21h2v1h-2ZM12,21h2v1h-2ZM19,21h1v1h-1ZM20,22h1v1h-1Z"/><path fill="rgb(255,245,155)" d="M1,14h5v1h-5ZM1,15h1v2h-1ZM5,15h1v2h-1ZM16,16h2v1h-2ZM15,17h1v1h-1Z"/><path fill="rgb(93,53,13)" d="M6,14h1v4h-1ZM18,16h1v1h-1ZM5,20h1v1h-1ZM4,21h1v1h-1Z"/><path fill="rgb(183,90,0)" d="M17,15h2v1h-2ZM15,16h1v1h-1Z"/><path fill="rgb(65,149,233)" d="M3,16h1v4h-1ZM1,21h1v1h-1Z"/><path fill="rgb(255,204,101)" d="M1,17h1v3h-1ZM5,17h1v3h-1ZM15,18h1v1h-1ZM2,20h1v1h-1ZM4,20h1v1h-1ZM3,21h1v1h-1Z"/></svg>