<svg version="1.1" xmlns="http://www.w3.org/2000/svg" xmlns:xlink="http://www.w3.org/1999/xlink" shape-rendering="crispEdges" width="24" height="24" viewBox="0 0 24 24"><path fill="rgb(255,255,255)" d="M0,0h24v3h-24ZM0,21h24v3h-24Z"/><path fill="rgb(163,163,163)" d="M0,3h1v1h-1ZM4,3h1v1h-1ZM2,4h1v1h-1ZM5,4h1v1h-1ZM1,5h1v1h-1ZM11,15h1v1h-1ZM3,16h1v1h-1ZM5,16h1v1h-1ZM20,17h1v1h-1ZM10,19h1v1h-1ZM12,19h1v1h-1Z"/><path fill="rgb(204,204,204)" d="M1,3h1v2h-1ZM4,4h1v1h-1ZM2,5h1v1h-1ZM12,14h1v1h-1ZM12,15h4v1h-4ZM2,16h1v1h-1ZM4,16h1v1h-1ZM12,16h2v1h-2ZM3,17h1v1h-1ZM13,17h3v1h-3ZM17,17h1v1h-1ZM22,18h1v1h-1ZM9,19h1v1h-1ZM11,19h1v1h-1Z"/><path fill="rgb(95,95,95)" d="M3,3h1v2h-1ZM0,4h1v2h-1ZM6,5h1v1h-1ZM1,6h1v1h-1ZM13,9h1v1h-1ZM11,14h1v1h-1ZM14,14h1v1h-1ZM16,14h3v1h-3ZM4,15h1v1h-1ZM10,15h1v1h-1ZM10,16h2v1h-2ZM20,16h2v1h-2ZM7,17h1v1h-1ZM12,17h1v1h-1ZM13,18h2v1h-2ZM20,18h1v1h-1ZM8,19h1v2h-1ZM10,20h1v1h-1Z"/><path fill="rgb(149,149,149)" d="M3,5h1v1h-1ZM3,6h2v1h-2ZM4,7h2v1h-2ZM7,8h2v1h-2ZM6,9h5v1h-5ZM5,10h7v1h-7ZM5,11h2v1h-2ZM9,11h4v1h-4ZM3,12h3v1h-3ZM9,12h7v1h-7ZM3,13h1v2h-1ZM8,13h5v1h-5ZM16,13h2v1h-2ZM8,14h2v1h-2ZM2,15h2v1h-2ZM7,15h1v1h-1ZM8,17h1v1h-1ZM8,18h2v1h-2Z"/><path fill="rgb(59,59,59)" d="M4,5h1v1h-1ZM5,6h1v1h-1ZM7,6h1v1h-1ZM6,7h4v1h-4ZM4,8h2v1h-2ZM10,8h2v1h-2ZM16,10h1v1h-1ZM3,11h2v1h-2ZM17,11h1v1h-1ZM2,12h1v2h-1ZM6,12h1v1h-1ZM8,12h1v1h-1ZM18,12h1v1h-1ZM4,13h1v1h-1ZM7,13h1v2h-1ZM13,13h1v1h-1ZM10,14h1v1h-1ZM9,16h1v1h-1ZM10,17h1v1h-1ZM11,18h1v1h-1Z"/><path fill="rgb(99,99,99)" d="M5,5h1v1h-1ZM2,6h1v1h-1ZM6,6h1v1h-1ZM3,7h1v1h-1ZM6,8h1v1h-1ZM9,8h1v1h-1ZM5,9h1v1h-1ZM11,9h1v1h-1ZM7,11h2v1h-2ZM15,11h2v1h-2ZM7,12h1v1h-1ZM16,12h2v1h-2ZM2,14h1v1h-1ZM8,15h2v1h-2ZM7,16h2v1h-2ZM9,17h1v1h-1ZM10,18h1v1h-1Z"/><path fill="rgb(0,0,0)" d="M2,7h1v1h-1ZM3,8h1v1h-1ZM4,9h1v2h-1ZM12,9h1v1h-1ZM18,9h1v2h-1ZM14,10h2v1h-2ZM14,11h1v1h-1ZM5,13h2v1h-2ZM14,13h2v1h-2ZM18,13h1v1h-1ZM4,14h1v1h-1ZM19,14h2v1h-2ZM5,15h1v1h-1ZM20,15h1v1h-1ZM1,16h1v2h-1ZM6,16h1v1h-1ZM18,17h2v1h-2ZM2,18h6v1h-6ZM15,18h5v1h-5ZM4,19h4v1h-4ZM14,19h6v1h-6ZM6,20h2v1h-2ZM13,20h3v1h-3Z"/><path fill="rgb(69,69,69)" d="M13,8h1v1h-1ZM14,9h1v1h-1ZM17,9h1v1h-1ZM12,10h1v1h-1ZM19,15h1v1h-1ZM16,16h4v1h-4ZM22,16h1v1h-1ZM23,17h1v2h-1Z"/><path fill="rgb(147,147,147)" d="M13,10h1v2h-1ZM17,10h1v1h-1ZM13,14h1v1h-1ZM14,16h2v1h-2Z"/><path fill="rgb(51,51,51)" d="M1,14h1v2h-1ZM6,15h1v1h-1ZM6,17h1v1h-1ZM11,17h1v1h-1ZM12,18h1v1h-1ZM13,19h1v1h-1Z"/><path fill="rgb(186,186,186)" d="M15,14h1v1h-1Z"/><path fill="rgb(241,241,241)" d="M16,15h3v1h-3ZM16,17h1v1h-1ZM21,17h2v1h-2Z"/><path fill="rgb(130,130,130)" d="M2,17h1v1h-1ZM4,17h2v1h-2ZM21,18h1v1h-1ZM9,20h1v1h-1ZM11,20h2v1h-2Z"/></svg>