<svg version="1.1" xmlns="http://www.w3.org/2000/svg" width="24" height="24" viewBox="0 0 24 24" shape-rendering="crispEdges"><rect x="0" y="3" width="1" height="1" fill="#9aa0b0"/><rect x="1" y="3" width="1" height="1" fill="#cccccd"/><rect x="3" y="3" width="1" height="1" fill="#4c5f72"/><rect x="4" y="3" width="1" height="1" fill="#9aa0b0"/><rect x="0" y="4" width="1" height="1" fill="#4c5f72"/><rect x="1" y="4" width="1" height="1" fill="#cccccd"/><rect x="2" y="4" width="1" height="1" fill="#9aa0b0"/><rect x="3" y="4" width="1" height="1" fill="#4c5f72"/><rect x="4" y="4" width="1" height="1" fill="#cccccd"/><rect x="5" y="4" width="1" height="1" fill="#9aa0b0"/><rect x="0" y="5" width="1" height="1" fill="#4c5f72"/><rect x="1" y="5" width="1" height="1" fill="#9aa0b0"/><rect x="2" y="5" width="1" height="1" fill="#cccccd"/><rect x="3" y="5" width="1" height="1" fill="#db2471"/><rect x="4" y="5" width="1" height="1" fill="#5f0578"/><rect x="5" y="5" width="1" height="1" fill="#a10070"/><rect x="6" y="5" width="1" height="1" fill="#4c5f72"/><rect x="1" y="6" width="1" height="1" fill="#4c5f72"/><rect x="2" y="6" width="1" height="1" fill="#a10070"/><rect x="3" y="6" width="1" height="1" fill="#db2471"/><rect x="4" y="6" width="1" height="1" fill="#db2471"/><rect x="5" y="6" width="1" height="1" fill="#5f0578"/><rect x="6" y="6" width="1" height="1" fill="#a10070"/><rect x="7" y="6" width="1" height="1" fill="#5f0578"/><rect x="2" y="7" width="1" height="1" fill="#000000"/><rect x="3" y="7" width="1" height="1" fill="#a10070"/><rect x="4" y="7" width="1" height="1" fill="#db2471"/><rect x="5" y="7" width="1" height="1" fill="#db2471"/><rect x="6" y="7" width="1" height="1" fill="#5f0578"/><rect x="7" y="7" width="1" height="1" fill="#5f0578"/><rect x="8" y="7" width="1" height="1" fill="#5f0578"/><rect x="9" y="7" width="1" height="1" fill="#5f0578"/><rect x="3" y="8" width="1" height="1" fill="#000000"/><rect x="4" y="8" width="1" height="1" fill="#5f0578"/><rect x="5" y="8" width="1" height="1" fill="#5f0578"/><rect x="6" y="8" width="1" height="1" fill="#a10070"/><rect x="7" y="8" width="1" height="1" fill="#db2471"/><rect x="8" y="8" width="1" height="1" fill="#db2471"/><rect x="9" y="8" width="1" height="1" fill="#a10070"/><rect x="10" y="8" width="1" height="1" fill="#5f0578"/><rect x="11" y="8" width="1" height="1" fill="#5f0578"/><rect x="13" y="8" width="1" height="1" fill="#3e454e"/><rect x="4" y="9" width="1" height="1" fill="#000000"/><rect x="5" y="9" width="1" height="1" fill="#a10070"/><rect x="6" y="9" width="1" height="1" fill="#db2471"/><rect x="7" y="9" width="1" height="1" fill="#db2471"/><rect x="8" y="9" width="1" height="1" fill="#db2471"/><rect x="9" y="9" width="1" height="1" fill="#db2471"/><rect x="10" y="9" width="1" height="1" fill="#db2471"/><rect x="11" y="9" width="1" height="1" fill="#a10070"/><rect x="12" y="9" width="1" height="1" fill="#000000"/><rect x="13" y="9" width="1" height="1" fill="#4c5f72"/><rect x="14" y="9" width="1" height="1" fill="#3e454e"/><rect x="17" y="9" width="1" height="1" fill="#3e454e"/><rect x="18" y="9" width="1" height="1" fill="#000000"/><rect x="4" y="10" width="1" height="1" fill="#000000"/><rect x="5" y="10" width="1" height="1" fill="#db2471"/><rect x="6" y="10" width="1" height="1" fill="#db2471"/><rect x="7" y="10" width="1" height="1" fill="#db2471"/><rect x="8" y="10" width="1" height="1" fill="#db2471"/><rect x="9" y="10" width="1" height="1" fill="#db2471"/><rect x="10" y="10" width="1" height="1" fill="#db2471"/><rect x="11" y="10" width="1" height="1" fill="#db2471"/><rect x="12" y="10" width="1" height="1" fill="#3e454e"/><rect x="13" y="10" width="1" height="1" fill="#cb7f6f"/><rect x="14" y="10" width="1" height="1" fill="#000000"/><rect x="15" y="10" width="1" height="1" fill="#000000"/><rect x="16" y="10" width="1" height="1" fill="#5f0578"/><rect x="17" y="10" width="1" height="1" fill="#cb7f6f"/><rect x="18" y="10" width="1" height="1" fill="#000000"/><rect x="3" y="11" width="1" height="1" fill="#5f0578"/><rect x="4" y="11" width="1" height="1" fill="#5f0578"/><rect x="5" y="11" width="1" height="1" fill="#db2471"/><rect x="6" y="11" width="1" height="1" fill="#db2471"/><rect x="7" y="11" width="1" height="1" fill="#a10070"/><rect x="8" y="11" width="1" height="1" fill="#a10070"/><rect x="9" y="11" width="1" height="1" fill="#db2471"/><rect x="10" y="11" width="1" height="1" fill="#db2471"/><rect x="11" y="11" width="1" height="1" fill="#db2471"/><rect x="12" y="11" width="1" height="1" fill="#db2471"/><rect x="13" y="11" width="1" height="1" fill="#cb7f6f"/><rect x="14" y="11" width="1" height="1" fill="#000000"/><rect x="15" y="11" width="1" height="1" fill="#a10070"/><rect x="16" y="11" width="1" height="1" fill="#a10070"/><rect x="17" y="11" width="1" height="1" fill="#5f0578"/><rect x="2" y="12" width="1" height="1" fill="#5f0578"/><rect x="3" y="12" width="1" height="1" fill="#db2471"/><rect x="4" y="12" width="1" height="1" fill="#db2471"/><rect x="5" y="12" width="1" height="1" fill="#db2471"/><rect x="6" y="12" width="1" height="1" fill="#5f0578"/><rect x="7" y="12" width="1" height="1" fill="#a10070"/><rect x="8" y="12" width="1" height="1" fill="#5f0578"/><rect x="9" y="12" width="1" height="1" fill="#db2471"/><rect x="10" y="12" width="1" height="1" fill="#db2471"/><rect x="11" y="12" width="1" height="1" fill="#db2471"/><rect x="12" y="12" width="1" height="1" fill="#db2471"/><rect x="13" y="12" width="1" height="1" fill="#db2471"/><rect x="14" y="12" width="1" height="1" fill="#db2471"/><rect x="15" y="12" width="1" height="1" fill="#db2471"/><rect x="16" y="12" width="1" height="1" fill="#a10070"/><rect x="17" y="12" width="1" height="1" fill="#a10070"/><rect x="18" y="12" width="1" height="1" fill="#5f0578"/><rect x="2" y="13" width="1" height="1" fill="#5f0578"/><rect x="3" y="13" width="1" height="1" fill="#db2471"/><rect x="4" y="13" width="1" height="1" fill="#5f0578"/><rect x="5" y="13" width="1" height="1" fill="#000000"/><rect x="6" y="13" width="1" height="1" fill="#000000"/><rect x="7" y="13" width="1" height="1" fill="#5f0578"/><rect x="8" y="13" width="1" height="1" fill="#db2471"/><rect x="9" y="13" width="1" height="1" fill="#db2471"/><rect x="10" y="13" width="1" height="1" fill="#db2471"/><rect x="11" y="13" width="1" height="1" fill="#db2471"/><rect x="12" y="13" width="1" height="1" fill="#db2471"/><rect x="13" y="13" width="1" height="1" fill="#5f0578"/><rect x="14" y="13" width="1" height="1" fill="#000000"/><rect x="15" y="13" width="1" height="1" fill="#000000"/><rect x="16" y="13" width="1" height="1" fill="#db2471"/><rect x="17" y="13" width="1" height="1" fill="#db2471"/><rect x="18" y="13" width="1" height="1" fill="#000000"/><rect x="1" y="14" width="1" height="1" fill="#29323e"/><rect x="2" y="14" width="1" height="1" fill="#a10070"/><rect x="3" y="14" width="1" height="1" fill="#db2471"/><rect x="4" y="14" width="1" height="1" fill="#000000"/><rect x="7" y="14" width="1" height="1" fill="#5f0578"/><rect x="8" y="14" width="1" height="1" fill="#db2471"/><rect x="9" y="14" width="1" height="1" fill="#db2471"/><rect x="10" y="14" width="1" height="1" fill="#5f0578"/><rect x="11" y="14" width="1" height="1" fill="#4c5f72"/><rect x="12" y="14" width="1" height="1" fill="#cccccd"/><rect x="13" y="14" width="1" height="1" fill="#cb7f6f"/><rect x="14" y="14" width="1" height="1" fill="#4c5f72"/><rect x="15" y="14" width="1" height="1" fill="#ffcc65"/><rect x="16" y="14" width="1" height="1" fill="#4c5f72"/><rect x="17" y="14" width="1" height="1" fill="#4c5f72"/><rect x="18" y="14" width="1" height="1" fill="#4c5f72"/><rect x="19" y="14" width="1" height="1" fill="#000000"/><rect x="20" y="14" width="1" height="1" fill="#000000"/><rect x="1" y="15" width="1" height="1" fill="#29323e"/><rect x="2" y="15" width="1" height="1" fill="#db2471"/><rect x="3" y="15" width="1" height="1" fill="#db2471"/><rect x="4" y="15" width="1" height="1" fill="#4c5f72"/><rect x="5" y="15" width="1" height="1" fill="#000000"/><rect x="6" y="15" width="1" height="1" fill="#29323e"/><rect x="7" y="15" width="1" height="1" fill="#db2471"/><rect x="8" y="15" width="1" height="1" fill="#a10070"/><rect x="9" y="15" width="1" height="1" fill="#a10070"/><rect x="10" y="15" width="1" height="1" fill="#4c5f72"/><rect x="11" y="15" width="1" height="1" fill="#9aa0b0"/><rect x="12" y="15" width="1" height="1" fill="#cccccd"/><rect x="13" y="15" width="1" height="1" fill="#cccccd"/><rect x="14" y="15" width="1" height="1" fill="#cccccd"/><rect x="15" y="15" width="1" height="1" fill="#cccccd"/><rect x="16" y="15" width="1" height="1" fill="#f1f2f2"/><rect x="17" y="15" width="1" height="1" fill="#f1f2f2"/><rect x="18" y="15" width="1" height="1" fill="#f1f2f2"/><rect x="19" y="15" width="1" height="1" fill="#3e454e"/><rect x="20" y="15" width="1" height="1" fill="#000000"/><rect x="1" y="16" width="1" height="1" fill="#000000"/><rect x="2" y="16" width="1" height="1" fill="#cccccd"/><rect x="3" y="16" width="1" height="1" fill="#9aa0b0"/><rect x="4" y="16" width="1" height="1" fill="#cccccd"/><rect x="5" y="16" width="1" height="1" fill="#9aa0b0"/><rect x="6" y="16" width="1" height="1" fill="#000000"/><rect x="7" y="16" width="1" height="1" fill="#a10070"/><rect x="8" y="16" width="1" height="1" fill="#a10070"/><rect x="9" y="16" width="1" height="1" fill="#5f0578"/><rect x="10" y="16" width="1" height="1" fill="#4c5f72"/><rect x="11" y="16" width="1" height="1" fill="#4c5f72"/><rect x="12" y="16" width="1" height="1" fill="#cccccd"/><rect x="13" y="16" width="1" height="1" fill="#cccccd"/><rect x="14" y="16" width="1" height="1" fill="#cb7f6f"/><rect x="15" y="16" width="1" height="1" fill="#cb7f6f"/><rect x="16" y="16" width="1" height="1" fill="#3e454e"/><rect x="17" y="16" width="1" height="1" fill="#3e454e"/><rect x="18" y="16" width="1" height="1" fill="#3e454e"/><rect x="19" y="16" width="1" height="1" fill="#3e454e"/><rect x="20" y="16" width="1" height="1" fill="#4c5f72"/><rect x="21" y="16" width="1" height="1" fill="#4c5f72"/><rect x="22" y="16" width="1" height="1" fill="#3e454e"/><rect x="1" y="17" width="1" height="1" fill="#000000"/><rect x="2" y="17" width="1" height="1" fill="#748092"/><rect x="3" y="17" width="1" height="1" fill="#cccccd"/><rect x="4" y="17" width="1" height="1" fill="#748092"/><rect x="5" y="17" width="1" height="1" fill="#748092"/><rect x="6" y="17" width="1" height="1" fill="#29323e"/><rect x="7" y="17" width="1" height="1" fill="#4c5f72"/><rect x="8" y="17" width="1" height="1" fill="#db2471"/><rect x="9" y="17" width="1" height="1" fill="#a10070"/><rect x="10" y="17" width="1" height="1" fill="#5f0578"/><rect x="11" y="17" width="1" height="1" fill="#29323e"/><rect x="12" y="17" width="1" height="1" fill="#4c5f72"/><rect x="13" y="17" width="1" height="1" fill="#cccccd"/><rect x="14" y="17" width="1" height="1" fill="#cccccd"/><rect x="15" y="17" width="1" height="1" fill="#cccccd"/><rect x="16" y="17" width="1" height="1" fill="#f1f2f2"/><rect x="17" y="17" width="1" height="1" fill="#cccccd"/><rect x="18" y="17" width="1" height="1" fill="#000000"/><rect x="19" y="17" width="1" height="1" fill="#000000"/><rect x="20" y="17" width="1" height="1" fill="#9aa0b0"/><rect x="21" y="17" width="1" height="1" fill="#f1f2f2"/><rect x="22" y="17" width="1" height="1" fill="#f1f2f2"/><rect x="23" y="17" width="1" height="1" fill="#3e454e"/><rect x="2" y="18" width="1" height="1" fill="#000000"/><rect x="3" y="18" width="1" height="1" fill="#000000"/><rect x="4" y="18" width="1" height="1" fill="#000000"/><rect x="5" y="18" width="1" height="1" fill="#000000"/><rect x="6" y="18" width="1" height="1" fill="#000000"/><rect x="7" y="18" width="1" height="1" fill="#000000"/><rect x="8" y="18" width="1" height="1" fill="#db2471"/><rect x="9" y="18" width="1" height="1" fill="#db2471"/><rect x="10" y="18" width="1" height="1" fill="#a10070"/><rect x="11" y="18" width="1" height="1" fill="#5f0578"/><rect x="12" y="18" width="1" height="1" fill="#29323e"/><rect x="13" y="18" width="1" height="1" fill="#4c5f72"/><rect x="14" y="18" width="1" height="1" fill="#4c5f72"/><rect x="15" y="18" width="1" height="1" fill="#000000"/><rect x="16" y="18" width="1" height="1" fill="#000000"/><rect x="17" y="18" width="1" height="1" fill="#000000"/><rect x="18" y="18" width="1" height="1" fill="#000000"/><rect x="19" y="18" width="1" height="1" fill="#000000"/><rect x="20" y="18" width="1" height="1" fill="#4c5f72"/><rect x="21" y="18" width="1" height="1" fill="#748092"/><rect x="22" y="18" width="1" height="1" fill="#cccccd"/><rect x="23" y="18" width="1" height="1" fill="#3e454e"/><rect x="4" y="19" width="1" height="1" fill="#000000"/><rect x="5" y="19" width="1" height="1" fill="#000000"/><rect x="6" y="19" width="1" height="1" fill="#000000"/><rect x="7" y="19" width="1" height="1" fill="#000000"/><rect x="8" y="19" width="1" height="1" fill="#4c5f72"/><rect x="9" y="19" width="1" height="1" fill="#cccccd"/><rect x="10" y="19" width="1" height="1" fill="#9aa0b0"/><rect x="11" y="19" width="1" height="1" fill="#cccccd"/><rect x="12" y="19" width="1" height="1" fill="#9aa0b0"/><rect x="13" y="19" width="1" height="1" fill="#29323e"/><rect x="14" y="19" width="1" height="1" fill="#000000"/><rect x="15" y="19" width="1" height="1" fill="#000000"/><rect x="16" y="19" width="1" height="1" fill="#000000"/><rect x="17" y="19" width="1" height="1" fill="#000000"/><rect x="18" y="19" width="1" height="1" fill="#000000"/><rect x="19" y="19" width="1" height="1" fill="#000000"/><rect x="6" y="20" width="1" height="1" fill="#000000"/><rect x="7" y="20" width="1" height="1" fill="#000000"/><rect x="8" y="20" width="1" height="1" fill="#4c5f72"/><rect x="9" y="20" width="1" height="1" fill="#748092"/><rect x="10" y="20" width="1" height="1" fill="#4c5f72"/><rect x="11" y="20" width="1" height="1" fill="#748092"/><rect x="12" y="20" width="1" height="1" fill="#748092"/><rect x="13" y="20" width="1" height="1" fill="#000000"/><rect x="14" y="20" width="1" height="1" fill="#000000"/><rect x="15" y="20" width="1" height="1" fill="#000000"/></svg>