<svg version="1.1" xmlns="http://www.w3.org/2000/svg" xmlns:xlink="http://www.w3.org/1999/xlink" shape-rendering="crispEdges" width="24" height="24" viewBox="0 0 24 24"><path fill="rgb(255,255,255)" d="M0,0h24v3h-24ZM0,3h1v18h-1ZM0,21h24v3h-24Z"/><path fill="rgb(154,160,176)" d="M1,3h1v1h-1ZM2,4h1v1h-1ZM5,4h1v1h-1ZM1,6h1v1h-1ZM3,16h1v1h-1ZM5,16h1v1h-1ZM11,16h1v1h-1ZM20,17h1v1h-1ZM10,19h1v1h-1ZM12,19h1v1h-1Z"/><path fill="rgb(76,95,114)" d="M5,3h1v1h-1ZM1,4h1v2h-1ZM3,5h1v1h-1ZM6,5h1v1h-1ZM13,10h1v1h-1ZM4,15h1v1h-1ZM11,15h1v1h-1ZM14,15h1v1h-1ZM16,15h3v1h-3ZM10,16h1v1h-1ZM21,16h1v1h-1ZM11,17h1v1h-1ZM21,18h1v1h-1ZM8,19h1v2h-1ZM14,19h1v1h-1ZM10,20h1v1h-1Z"/><path fill="rgb(41,50,62)" d="M4,4h1v2h-1ZM5,9h1v1h-1ZM8,13h1v1h-1ZM7,14h1v1h-1ZM1,15h1v1h-1ZM6,15h1v1h-1ZM6,17h1v1h-1ZM12,18h1v1h-1ZM20,18h1v1h-1ZM13,19h1v1h-1Z"/><path fill="rgb(204,204,205)" d="M2,5h1v2h-1ZM5,5h1v1h-1ZM12,15h1v1h-1ZM2,16h1v1h-1ZM4,16h1v1h-1ZM12,16h4v1h-4ZM3,17h1v1h-1ZM12,17h2v1h-2ZM13,18h3v1h-3ZM17,18h1v1h-1ZM22,18h1v1h-1ZM9,19h1v1h-1ZM11,19h1v1h-1Z"/><path fill="rgb(65,149,233)" d="M3,6h1v1h-1ZM3,7h2v1h-2ZM4,8h2v1h-2ZM7,9h2v1h-2ZM6,10h5v1h-5ZM5,11h7v1h-7ZM5,12h2v1h-2ZM9,12h4v1h-4ZM3,13h3v1h-3ZM10,13h6v1h-6ZM3,14h1v1h-1ZM8,14h5v1h-5ZM16,14h2v1h-2ZM2,15h2v1h-2ZM8,15h2v1h-2ZM7,16h1v1h-1ZM8,17h1v1h-1ZM8,18h2v1h-2Z"/><path fill="rgb(12,53,112)" d="M4,6h1v1h-1ZM6,6h1v1h-1ZM1,7h1v1h-1ZM5,7h1v1h-1ZM7,7h1v1h-1ZM6,8h4v1h-4ZM10,9h2v1h-2ZM16,11h1v1h-1ZM3,12h2v1h-2ZM17,12h1v1h-1ZM2,13h1v1h-1ZM7,13h1v1h-1ZM18,13h1v1h-1ZM1,14h1v1h-1ZM13,14h1v1h-1ZM9,16h1v1h-1ZM10,17h1v1h-1ZM11,18h1v1h-1Z"/><path fill="rgb(0,100,198)" d="M5,6h1v1h-1ZM2,7h1v1h-1ZM6,7h1v1h-1ZM3,8h1v1h-1ZM6,9h1v1h-1ZM9,9h1v1h-1ZM5,10h1v1h-1ZM11,10h1v1h-1ZM7,12h2v1h-2ZM15,12h2v1h-2ZM6,13h1v1h-1ZM9,13h1v1h-1ZM16,13h2v1h-2ZM2,14h1v1h-1ZM4,14h2v1h-2ZM7,15h1v1h-1ZM10,15h1v1h-1ZM8,16h1v1h-1ZM7,17h1v1h-1ZM9,17h1v1h-1ZM10,18h1v1h-1Z"/><path fill="rgb(0,0,0)" d="M2,8h1v1h-1ZM3,9h2v1h-2ZM4,10h1v2h-1ZM12,10h1v1h-1ZM18,10h1v2h-1ZM14,11h2v1h-2ZM14,12h1v1h-1ZM6,14h1v1h-1ZM14,14h2v1h-2ZM18,14h1v1h-1ZM5,15h1v1h-1ZM19,15h2v1h-2ZM1,16h1v2h-1ZM6,16h1v1h-1ZM20,16h1v1h-1ZM2,18h6v1h-6ZM18,18h2v1h-2ZM4,19h4v1h-4ZM15,19h5v1h-5ZM6,20h2v1h-2ZM13,20h3v1h-3Z"/><path fill="rgb(62,69,78)" d="M13,9h1v1h-1ZM14,10h1v1h-1ZM17,10h1v1h-1ZM12,11h1v1h-1ZM19,16h1v1h-1ZM22,16h1v1h-1ZM16,17h4v1h-4ZM23,17h1v2h-1Z"/><path fill="rgb(203,127,111)" d="M13,11h1v2h-1ZM17,11h1v1h-1ZM13,15h1v1h-1ZM14,17h2v1h-2Z"/><path fill="rgb(255,204,101)" d="M15,15h1v1h-1Z"/><path fill="rgb(241,242,242)" d="M16,16h3v1h-3ZM21,17h2v1h-2ZM16,18h1v1h-1Z"/><path fill="rgb(116,128,146)" d="M2,17h1v1h-1ZM4,17h2v1h-2ZM9,20h1v1h-1ZM11,20h2v1h-2Z"/></svg>