<svg version="1.1" xmlns="http://www.w3.org/2000/svg" xmlns:xlink="http://www.w3.org/1999/xlink" shape-rendering="crispEdges" width="24" height="24" viewBox="0 0 24 24"><path fill="rgb(93,53,13)" d="M9,0h1v1h-1ZM13,0h1v1h-1ZM8,1h1v1h-1ZM10,1h2v1h-2ZM14,1h1v1h-1ZM9,2h1v1h-1Z"/><path fill="rgb(12,53,112)" d="M18,0h1v1h-1ZM6,2h1v1h-1ZM12,2h3v1h-3ZM12,3h1v1h-1ZM17,3h1v1h-1ZM12,5h1v1h-1ZM21,5h1v1h-1ZM22,6h1v1h-1ZM10,7h1v1h-1ZM13,7h1v1h-1ZM1,8h1v1h-1ZM10,8h2v1h-2ZM14,8h1v1h-1ZM16,8h2v1h-2ZM0,9h1v1h-1ZM10,9h1v1h-1ZM15,9h1v1h-1ZM18,9h1v1h-1ZM3,11h1v1h-1ZM2,12h4v1h-4ZM9,12h1v1h-1ZM13,12h1v1h-1ZM18,12h1v1h-1ZM2,13h1v1h-1ZM5,13h2v1h-2ZM8,13h1v1h-1ZM14,13h1v3h-1ZM17,13h1v1h-1ZM19,13h1v1h-1ZM6,14h2v1h-2ZM11,14h1v2h-1ZM7,16h1v1h-1ZM10,16h2v1h-2ZM9,17h1v2h-1ZM11,17h1v2h-1ZM15,18h1v1h-1ZM10,19h1v1h-1ZM9,20h1v1h-1Z"/><path fill="rgb(255,255,255)" d="M23,0h1v24h-1Z"/><path fill="rgb(254,236,186)" d="M9,1h1v1h-1ZM13,1h1v1h-1ZM10,2h1v1h-1Z"/><path fill="rgb(0,0,0)" d="M17,1h1v1h-1ZM15,2h2v1h-2ZM7,3h1v1h-1ZM10,3h1v1h-1ZM16,3h1v1h-1ZM8,4h1v3h-1ZM11,4h3v1h-3ZM17,4h1v2h-1ZM10,5h1v2h-1ZM14,5h1v1h-1ZM18,6h1v1h-1ZM9,7h1v2h-1ZM11,7h1v1h-1ZM19,7h1v3h-1ZM22,7h1v2h-1ZM12,9h2v1h-2ZM21,9h2v1h-2ZM0,10h1v1h-1ZM2,10h3v1h-3ZM14,10h1v1h-1ZM18,10h1v1h-1ZM0,11h2v1h-2ZM4,11h4v1h-4ZM15,11h3v1h-3ZM6,12h1v1h-1ZM8,12h1v1h-1ZM1,13h1v2h-1ZM7,13h1v1h-1ZM11,13h1v1h-1ZM3,14h2v1h-2ZM12,14h1v2h-1ZM17,14h1v2h-1ZM19,14h1v2h-1ZM1,15h2v1h-2ZM5,15h1v2h-1ZM13,16h1v1h-1ZM17,16h2v1h-2ZM6,17h1v1h-1ZM16,17h1v3h-1ZM7,18h2v1h-2ZM14,18h1v1h-1ZM8,19h1v1h-1ZM11,19h4v1h-4ZM7,20h2v1h-2ZM10,20h7v1h-7ZM6,21h12v1h-12ZM7,22h10v1h-10ZM9,23h6v1h-6Z"/><path fill="rgb(65,149,233)" d="M18,1h1v1h-1ZM17,2h1v1h-1ZM5,3h2v1h-2ZM15,3h1v1h-1ZM19,3h1v1h-1ZM5,4h1v1h-1ZM7,4h1v3h-1ZM16,4h1v1h-1ZM20,4h1v1h-1ZM4,5h1v1h-1ZM3,6h1v1h-1ZM12,6h3v1h-3ZM17,6h1v1h-1ZM21,6h1v2h-1ZM2,7h1v2h-1ZM8,7h1v2h-1ZM14,7h2v1h-2ZM18,7h1v2h-1ZM15,8h1v1h-1ZM1,9h1v2h-1ZM16,9h2v2h-2ZM9,10h1v1h-1ZM11,10h1v1h-1ZM9,11h3v1h-3ZM10,12h3v1h-3ZM17,12h1v1h-1ZM10,13h1v2h-1ZM12,13h2v1h-2ZM18,13h1v3h-1ZM13,14h1v2h-1ZM9,15h2v1h-2ZM9,16h1v1h-1ZM10,18h1v1h-1ZM9,19h1v1h-1ZM15,19h1v1h-1Z"/><path fill="rgb(0,100,198)" d="M19,1h1v1h-1ZM5,2h1v1h-1ZM18,2h2v1h-2ZM4,3h1v2h-1ZM20,3h1v1h-1ZM21,4h1v1h-1ZM3,5h1v1h-1ZM11,5h1v2h-1ZM2,6h1v1h-1ZM1,7h1v1h-1ZM12,7h1v1h-1ZM12,8h2v1h-2ZM9,9h1v1h-1ZM11,9h1v1h-1ZM14,9h1v1h-1ZM10,10h1v1h-1ZM15,10h1v1h-1ZM12,11h1v1h-1ZM9,13h1v1h-1ZM8,14h2v1h-2ZM7,15h2v1h-2ZM8,16h1v1h-1ZM10,17h1v1h-1Z"/><path fill="rgb(229,177,136)" d="M11,2h1v2h-1ZM3,8h1v1h-1ZM5,8h1v1h-1ZM4,9h2v1h-2ZM7,9h1v2h-1ZM5,10h1v1h-1Z"/><path fill="rgb(242,156,63)" d="M13,3h2v1h-2Z"/><path fill="rgb(131,80,35)" d="M18,3h1v1h-1ZM6,4h1v1h-1ZM19,4h1v1h-1ZM5,5h2v1h-2ZM20,5h1v1h-1ZM4,6h1v1h-1ZM6,6h1v1h-1ZM3,7h1v1h-1ZM7,7h1v2h-1ZM2,9h1v1h-1ZM8,9h1v2h-1Z"/><path fill="rgb(242,204,114)" d="M14,4h2v1h-2ZM15,6h2v1h-2ZM16,7h2v1h-2Z"/><path fill="rgb(171,132,81)" d="M18,4h1v1h-1ZM18,5h2v1h-2ZM5,6h1v1h-1ZM19,6h2v1h-2ZM4,7h3v1h-3ZM20,7h1v1h-1ZM4,8h1v1h-1ZM6,8h1v3h-1ZM20,8h2v1h-2ZM3,9h1v1h-1ZM8,11h1v1h-1Z"/><path fill="rgb(248,244,0)" d="M13,5h1v1h-1Z"/><path fill="rgb(171,41,12)" d="M15,5h2v1h-2Z"/><path fill="rgb(207,119,118)" d="M12,10h2v1h-2ZM13,11h2v1h-2ZM14,12h1v1h-1ZM16,12h1v1h-1ZM3,13h2v1h-2ZM15,13h2v1h-2ZM2,14h1v1h-1ZM5,14h1v1h-1ZM6,15h1v1h-1ZM12,16h1v2h-1ZM14,16h3v1h-3ZM8,17h1v1h-1ZM12,18h2v1h-2Z"/><path fill="rgb(244,158,156)" d="M15,12h1v1h-1ZM15,14h2v2h-2ZM6,16h1v1h-1ZM7,17h1v1h-1ZM13,17h3v1h-3Z"/></svg>