<svg version="1.1" xmlns="http://www.w3.org/2000/svg" xmlns:xlink="http://www.w3.org/1999/xlink" shape-rendering="crispEdges" width="24" height="24" viewBox="0 0 24 24"><path fill="rgb(255,255,255)" d="M0,0h24v1h-24ZM23,1h1v23h-1Z"/><path fill="rgb(93,53,13)" d="M9,1h1v1h-1ZM13,1h1v1h-1ZM8,2h1v1h-1ZM10,2h2v1h-2ZM14,2h1v1h-1ZM9,3h1v1h-1Z"/><path fill="rgb(0,22,48)" d="M18,1h1v1h-1ZM6,3h1v1h-1ZM12,3h3v1h-3ZM12,4h1v1h-1ZM17,4h1v1h-1ZM12,6h1v1h-1ZM21,6h1v1h-1ZM22,7h1v1h-1ZM10,8h1v1h-1ZM13,8h1v1h-1ZM1,9h1v1h-1ZM10,9h2v1h-2ZM14,9h1v1h-1ZM16,9h2v1h-2ZM0,10h1v1h-1ZM10,10h1v1h-1ZM15,10h1v1h-1ZM18,10h1v1h-1ZM3,12h1v1h-1ZM2,13h4v1h-4ZM9,13h1v1h-1ZM13,13h1v1h-1ZM18,13h1v1h-1ZM2,14h1v1h-1ZM5,14h2v1h-2ZM8,14h1v1h-1ZM14,14h1v3h-1ZM17,14h1v1h-1ZM19,14h1v1h-1ZM6,15h2v1h-2ZM11,15h1v2h-1ZM7,17h1v1h-1ZM10,17h2v1h-2ZM9,18h1v2h-1ZM11,18h1v2h-1ZM15,19h1v1h-1ZM10,20h1v1h-1ZM9,21h1v1h-1Z"/><path fill="rgb(254,236,186)" d="M9,2h1v1h-1ZM13,2h1v1h-1ZM10,3h1v1h-1Z"/><path fill="rgb(0,0,0)" d="M17,2h1v1h-1ZM15,3h2v1h-2ZM7,4h1v1h-1ZM10,4h1v1h-1ZM16,4h1v1h-1ZM8,5h1v3h-1ZM11,5h3v1h-3ZM17,5h1v2h-1ZM10,6h1v2h-1ZM14,6h1v1h-1ZM18,7h1v1h-1ZM9,8h1v2h-1ZM11,8h1v1h-1ZM19,8h1v3h-1ZM22,8h1v2h-1ZM12,10h2v1h-2ZM21,10h2v1h-2ZM0,11h1v1h-1ZM2,11h3v1h-3ZM14,11h1v1h-1ZM18,11h1v1h-1ZM0,12h2v1h-2ZM4,12h4v1h-4ZM15,12h3v1h-3ZM6,13h1v1h-1ZM8,13h1v1h-1ZM1,14h1v2h-1ZM7,14h1v1h-1ZM11,14h1v1h-1ZM3,15h2v1h-2ZM12,15h1v2h-1ZM17,15h1v2h-1ZM19,15h1v2h-1ZM1,16h2v1h-2ZM5,16h1v2h-1ZM13,17h1v1h-1ZM17,17h2v1h-2ZM6,18h1v1h-1ZM16,18h1v2h-1ZM7,19h2v1h-2ZM14,19h1v1h-1ZM6,20h3v1h-3ZM11,20h4v1h-4ZM16,20h2v1h-2ZM5,21h4v1h-4ZM10,21h9v1h-9ZM6,22h12v1h-12ZM8,23h8v1h-8Z"/><path fill="rgb(0,65,114)" d="M18,2h1v1h-1ZM17,3h1v1h-1ZM5,4h2v1h-2ZM15,4h1v1h-1ZM19,4h1v1h-1ZM5,5h1v1h-1ZM7,5h1v3h-1ZM16,5h1v1h-1ZM20,5h1v1h-1ZM4,6h1v1h-1ZM3,7h1v1h-1ZM12,7h3v1h-3ZM17,7h1v1h-1ZM21,7h1v2h-1ZM2,8h1v2h-1ZM8,8h1v2h-1ZM14,8h2v1h-2ZM18,8h1v2h-1ZM15,9h1v1h-1ZM1,10h1v2h-1ZM16,10h2v2h-2ZM9,11h1v1h-1ZM11,11h1v1h-1ZM9,12h3v1h-3ZM10,13h3v1h-3ZM17,13h1v1h-1ZM10,14h1v2h-1ZM12,14h2v1h-2ZM18,14h1v3h-1ZM13,15h1v2h-1ZM9,16h2v1h-2ZM9,17h1v1h-1ZM10,19h1v1h-1ZM9,20h1v1h-1ZM15,20h1v1h-1Z"/><path fill="rgb(0,43,75)" d="M19,2h1v1h-1ZM5,3h1v1h-1ZM18,3h2v1h-2ZM4,4h1v2h-1ZM20,4h1v1h-1ZM21,5h1v1h-1ZM3,6h1v1h-1ZM11,6h1v2h-1ZM2,7h1v1h-1ZM1,8h1v1h-1ZM12,8h1v1h-1ZM12,9h2v1h-2ZM9,10h1v1h-1ZM11,10h1v1h-1ZM14,10h1v1h-1ZM10,11h1v1h-1ZM15,11h1v1h-1ZM12,12h1v1h-1ZM9,14h1v1h-1ZM8,15h2v1h-2ZM7,16h2v1h-2ZM8,17h1v1h-1ZM10,18h1v1h-1Z"/><path fill="rgb(229,177,136)" d="M11,3h1v2h-1ZM3,9h1v1h-1ZM5,9h1v1h-1ZM4,10h2v1h-2ZM7,10h1v2h-1ZM5,11h1v1h-1Z"/><path fill="rgb(242,156,63)" d="M13,4h2v1h-2Z"/><path fill="rgb(131,80,35)" d="M18,4h1v1h-1ZM6,5h1v1h-1ZM19,5h1v1h-1ZM5,6h2v1h-2ZM20,6h1v1h-1ZM4,7h1v1h-1ZM6,7h1v1h-1ZM3,8h1v1h-1ZM7,8h1v2h-1ZM2,10h1v1h-1ZM8,10h1v2h-1Z"/><path fill="rgb(242,204,114)" d="M14,5h2v1h-2ZM15,7h2v1h-2ZM16,8h2v1h-2Z"/><path fill="rgb(171,132,81)" d="M18,5h1v1h-1ZM18,6h2v1h-2ZM5,7h1v1h-1ZM19,7h2v1h-2ZM4,8h3v1h-3ZM20,8h1v1h-1ZM4,9h1v1h-1ZM6,9h1v3h-1ZM20,9h2v1h-2ZM3,10h1v1h-1ZM8,12h1v1h-1Z"/><path fill="rgb(248,244,0)" d="M13,6h1v1h-1Z"/><path fill="rgb(171,41,12)" d="M15,6h2v1h-2Z"/><path fill="rgb(207,119,118)" d="M12,11h2v1h-2ZM13,12h2v1h-2ZM14,13h1v1h-1ZM16,13h1v1h-1ZM3,14h2v1h-2ZM15,14h2v1h-2ZM2,15h1v1h-1ZM5,15h1v1h-1ZM6,16h1v1h-1ZM12,17h1v2h-1ZM14,17h3v1h-3ZM8,18h1v1h-1ZM12,19h2v1h-2Z"/><path fill="rgb(244,158,156)" d="M15,13h1v1h-1ZM15,15h2v2h-2ZM6,17h1v1h-1ZM7,18h1v1h-1ZM13,18h3v1h-3Z"/></svg>