<svg version="1.1" xmlns="http://www.w3.org/2000/svg" xmlns:xlink="http://www.w3.org/1999/xlink" shape-rendering="crispEdges" width="24" height="24" viewBox="0 0 24 24"><path fill="rgb(255,255,255)" d="M0,0h24v2h-24ZM0,2h1v22h-1ZM19,2h5v22h-5Z"/><path fill="rgb(161,0,112)" d="M8,2h2v1h-2ZM6,3h2v1h-2ZM14,3h1v1h-1ZM5,4h1v2h-1ZM15,4h1v1h-1ZM4,6h1v2h-1ZM13,6h1v1h-1ZM16,6h1v1h-1ZM17,7h1v1h-1ZM12,12h2v1h-2ZM5,13h1v3h-1ZM8,13h1v1h-1ZM15,14h1v1h-1ZM16,15h1v1h-1ZM3,16h2v1h-2ZM17,16h1v1h-1ZM2,17h1v1h-1ZM5,17h1v1h-1ZM10,17h1v1h-1ZM9,18h2v1h-2ZM8,19h1v1h-1ZM2,20h2v1h-2ZM5,20h6v1h-6ZM13,20h2v1h-2ZM17,20h1v1h-1ZM1,21h1v1h-1ZM18,21h1v1h-1ZM2,22h1v1h-1ZM17,22h1v1h-1ZM4,23h1v1h-1ZM15,23h1v1h-1Z"/><path fill="rgb(95,5,120)" d="M10,2h3v1h-3ZM13,3h1v1h-1ZM10,5h2v1h-2ZM15,5h1v1h-1ZM12,6h1v1h-1ZM4,8h1v2h-1ZM9,8h1v1h-1ZM11,8h1v1h-1ZM10,9h1v1h-1ZM12,9h4v1h-4ZM5,10h1v2h-1ZM13,11h1v1h-1ZM6,12h1v1h-1ZM14,13h1v1h-1ZM8,14h1v1h-1ZM7,15h1v1h-1ZM9,15h1v3h-1ZM5,16h2v1h-2ZM6,17h1v2h-1ZM17,17h1v2h-1ZM2,18h2v1h-2ZM8,18h1v1h-1ZM3,19h1v1h-1ZM7,19h1v1h-1ZM16,19h1v1h-1ZM4,20h1v1h-1ZM15,20h1v1h-1ZM3,22h1v1h-1ZM16,22h1v1h-1ZM5,23h10v1h-10Z"/><path fill="rgb(244,158,156)" d="M8,3h5v1h-5ZM8,4h3v1h-3ZM12,4h3v1h-3ZM13,5h2v1h-2ZM7,6h2v2h-2ZM10,6h1v1h-1ZM14,6h2v1h-2ZM13,7h2v1h-2ZM16,7h1v1h-1ZM14,8h1v1h-1ZM5,9h1v1h-1ZM7,10h1v1h-1ZM12,10h2v1h-2ZM10,12h2v1h-2ZM9,13h2v1h-2ZM6,14h2v1h-2ZM10,14h1v2h-1ZM14,14h1v1h-1ZM6,15h1v1h-1ZM15,15h1v2h-1ZM11,16h1v1h-1ZM3,17h1v1h-1ZM11,17h5v2h-5ZM5,18h1v1h-1ZM11,19h4v1h-4ZM2,21h2v1h-2ZM16,21h2v1h-2ZM4,22h6v1h-6ZM15,22h1v1h-1Z"/><path fill="rgb(219,36,113)" d="M6,4h2v1h-2ZM6,5h3v1h-3ZM5,6h2v2h-2ZM9,6h1v1h-1ZM9,7h4v1h-4ZM5,8h4v1h-4ZM10,8h1v1h-1ZM12,8h2v1h-2ZM6,9h4v1h-4ZM11,9h1v1h-1ZM16,9h1v1h-1ZM6,10h1v1h-1ZM8,10h4v1h-4ZM14,10h1v1h-1ZM6,11h7v1h-7ZM7,12h3v1h-3ZM6,13h2v1h-2ZM9,14h1v1h-1ZM10,16h1v1h-1ZM16,16h1v3h-1ZM4,18h1v1h-1ZM4,19h3v1h-3ZM9,19h2v1h-2ZM15,19h1v1h-1ZM11,20h2v1h-2ZM16,20h1v1h-1ZM4,21h12v1h-12Z"/><path fill="rgb(255,255,255)" d="M11,4h1v1h-1ZM12,5h1v1h-1ZM11,6h1v1h-1ZM15,7h1v1h-1ZM15,8h2v1h-2ZM11,13h3v2h-3ZM11,15h4v1h-4ZM12,16h3v1h-3ZM4,17h1v1h-1ZM10,22h5v1h-5Z"/><path fill="rgb(64,109,234)" d="M9,5h1v1h-1Z"/><path fill="rgb(41,50,62)" d="M17,8h1v2h-1ZM15,10h2v1h-2ZM14,11h1v1h-1Z"/></svg>