<svg version="1.1" xmlns="http://www.w3.org/2000/svg" xmlns:xlink="http://www.w3.org/1999/xlink" shape-rendering="crispEdges" width="24" height="24" viewBox="0 0 24 24"><path fill="rgb(255,255,255)" d="M0,0h24v1h-24ZM0,1h1v23h-1ZM19,1h5v23h-5Z"/><path fill="rgb(161,0,112)" d="M8,1h3v1h-3ZM6,2h2v1h-2ZM14,2h1v1h-1ZM5,3h1v2h-1ZM15,3h1v1h-1ZM4,5h1v1h-1ZM13,5h1v1h-1ZM16,5h1v1h-1ZM17,6h1v1h-1ZM12,11h2v1h-2ZM5,12h1v3h-1ZM8,13h1v1h-1ZM15,14h1v2h-1ZM2,16h3v1h-3ZM16,16h1v1h-1ZM1,17h1v1h-1ZM5,17h1v2h-1ZM6,19h1v1h-1ZM8,19h1v1h-1ZM2,20h2v1h-2ZM5,20h5v1h-5ZM14,20h1v1h-1ZM17,20h1v1h-1ZM1,21h1v1h-1ZM18,21h1v1h-1ZM2,22h1v1h-1ZM17,22h1v1h-1ZM4,23h1v1h-1ZM15,23h1v1h-1Z"/><path fill="rgb(95,5,120)" d="M11,1h2v1h-2ZM13,2h1v1h-1ZM10,4h2v1h-2ZM15,4h1v1h-1ZM12,5h1v1h-1ZM4,6h1v3h-1ZM9,7h1v1h-1ZM11,7h1v1h-1ZM10,8h1v1h-1ZM12,8h4v1h-4ZM5,9h1v2h-1ZM13,10h1v1h-1ZM6,11h1v1h-1ZM13,12h1v1h-1ZM14,13h1v1h-1ZM7,14h2v1h-2ZM5,15h2v1h-2ZM9,15h1v3h-1ZM16,17h1v3h-1ZM1,18h2v1h-2ZM8,18h1v1h-1ZM3,19h1v1h-1ZM7,19h1v1h-1ZM4,20h1v1h-1ZM15,20h1v1h-1ZM3,22h1v1h-1ZM16,22h1v1h-1ZM5,23h10v1h-10Z"/><path fill="rgb(244,158,156)" d="M8,2h5v1h-5ZM8,3h3v1h-3ZM12,3h3v1h-3ZM13,4h2v1h-2ZM7,5h2v2h-2ZM10,5h1v1h-1ZM14,5h2v1h-2ZM13,6h2v1h-2ZM16,6h1v1h-1ZM14,7h1v1h-1ZM5,8h1v1h-1ZM7,9h1v1h-1ZM12,9h2v1h-2ZM10,11h2v1h-2ZM8,12h3v1h-3ZM6,13h2v1h-2ZM9,13h2v2h-2ZM6,14h1v1h-1ZM14,14h1v1h-1ZM10,15h1v1h-1ZM10,16h2v1h-2ZM15,16h1v1h-1ZM2,17h1v1h-1ZM10,17h6v2h-6ZM4,18h1v1h-1ZM11,19h4v1h-4ZM2,21h2v1h-2ZM16,21h2v1h-2ZM4,22h7v1h-7ZM14,22h2v1h-2Z"/><path fill="rgb(219,36,113)" d="M6,3h2v1h-2ZM6,4h3v1h-3ZM5,5h2v2h-2ZM9,5h1v1h-1ZM9,6h4v1h-4ZM5,7h4v1h-4ZM10,7h1v1h-1ZM12,7h2v1h-2ZM6,8h4v1h-4ZM11,8h1v1h-1ZM16,8h1v1h-1ZM6,9h1v1h-1ZM8,9h4v1h-4ZM14,9h1v1h-1ZM6,10h7v1h-7ZM7,11h3v1h-3ZM6,12h2v1h-2ZM4,17h1v1h-1ZM3,18h1v1h-1ZM9,18h1v1h-1ZM4,19h2v1h-2ZM9,19h2v1h-2ZM15,19h1v1h-1ZM10,20h4v1h-4ZM16,20h1v1h-1ZM4,21h12v1h-12Z"/><path fill="rgb(255,255,255)" d="M11,3h1v1h-1ZM12,4h1v1h-1ZM11,5h1v1h-1ZM15,6h1v1h-1ZM15,7h2v1h-2ZM11,12h2v1h-2ZM11,13h3v2h-3ZM11,15h4v1h-4ZM12,16h3v1h-3ZM3,17h1v1h-1ZM11,22h3v1h-3Z"/><path fill="rgb(64,109,234)" d="M9,4h1v1h-1Z"/><path fill="rgb(41,50,62)" d="M17,7h1v2h-1ZM15,9h2v1h-2ZM14,10h1v1h-1Z"/></svg>