<svg version="1.1" xmlns="http://www.w3.org/2000/svg" xmlns:xlink="http://www.w3.org/1999/xlink" shape-rendering="crispEdges" width="24" height="24" viewBox="0 0 24 24"><path fill="rgb(113,113,113)" d="M8,0h5v1h-5ZM7,1h1v1h-1ZM14,2h1v2h-1ZM9,3h2v1h-2ZM9,4h3v1h-3ZM6,5h1v1h-1ZM8,6h2v1h-2Z"/><path fill="rgb(255,255,255)" d="M23,0h1v24h-1Z"/><path fill="rgb(180,180,180)" d="M8,1h5v1h-5ZM7,2h6v1h-6ZM6,3h3v1h-3ZM8,4h1v1h-1ZM8,8h1v1h-1ZM9,9h1v1h-1ZM11,10h2v1h-2Z"/><path fill="rgb(147,147,147)" d="M13,1h1v2h-1ZM6,4h2v1h-2ZM5,5h1v3h-1ZM8,5h1v1h-1ZM13,5h1v1h-1ZM12,6h2v1h-2ZM10,8h3v1h-3ZM10,9h1v2h-1Z"/><path fill="rgb(53,53,53)" d="M6,2h1v1h-1ZM5,3h1v2h-1ZM15,4h1v1h-1ZM4,5h1v1h-1ZM9,5h2v1h-2ZM16,5h1v1h-1ZM6,6h1v2h-1ZM11,6h1v1h-1ZM14,6h1v2h-1ZM5,8h2v1h-2ZM13,8h2v1h-2ZM14,9h1v1h-1ZM13,10h1v1h-1ZM11,11h2v1h-2ZM6,13h1v4h-1ZM18,16h1v1h-1ZM5,19h1v1h-1ZM4,20h1v1h-1Z"/><path fill="rgb(176,176,176)" d="M11,3h1v1h-1ZM12,4h2v1h-2ZM7,6h1v2h-1ZM11,7h2v1h-2ZM8,10h1v1h-1ZM9,11h1v1h-1Z"/><path fill="rgb(197,197,197)" d="M12,3h2v1h-2ZM10,7h1v1h-1Z"/><path fill="rgb(159,159,159)" d="M14,4h1v1h-1ZM9,7h1v1h-1ZM13,7h1v1h-1Z"/><path fill="rgb(80,80,80)" d="M7,5h1v1h-1ZM8,7h1v1h-1ZM9,8h1v1h-1ZM11,9h3v1h-3Z"/><path fill="rgb(51,51,51)" d="M11,5h2v1h-2ZM14,5h2v1h-2ZM14,10h1v1h-1ZM13,12h1v2h-1ZM15,12h1v1h-1ZM13,15h1v1h-1ZM12,16h2v1h-2ZM6,17h1v2h-1ZM14,17h1v2h-1ZM6,19h2v1h-2ZM11,19h1v1h-1ZM7,20h1v1h-1ZM4,22h1v1h-1ZM7,22h1v1h-1Z"/><path fill="rgb(0,0,0)" d="M4,6h1v3h-1ZM7,8h1v1h-1ZM5,9h1v1h-1ZM1,11h1v1h-1ZM8,11h1v1h-1ZM10,11h1v1h-1ZM13,11h1v1h-1ZM17,11h1v1h-1ZM0,12h7v1h-7ZM9,12h3v1h-3ZM16,12h1v1h-1ZM0,13h1v6h-1ZM15,13h1v1h-1ZM13,14h1v1h-1ZM16,14h1v1h-1ZM7,16h2v1h-2ZM8,17h4v1h-4ZM18,17h1v1h-1ZM7,18h2v1h-2ZM11,18h3v1h-3ZM1,19h1v1h-1ZM8,19h1v1h-1ZM14,19h3v1h-3ZM2,20h1v1h-1ZM8,20h3v2h-3ZM14,20h1v1h-1ZM3,21h1v1h-1ZM15,21h1v1h-1ZM18,21h1v1h-1ZM0,22h4v1h-4ZM8,22h8v1h-8ZM19,22h1v1h-1ZM3,23h11v1h-11ZM20,23h1v1h-1Z"/><path fill="rgb(220,220,220)" d="M10,6h1v1h-1Z"/><path fill="rgb(95,95,95)" d="M3,9h2v1h-2ZM15,9h1v1h-1ZM2,10h1v1h-1ZM16,10h1v1h-1ZM12,12h1v1h-1ZM14,13h1v1h-1ZM14,14h2v1h-2ZM9,15h3v2h-3ZM17,17h1v1h-1ZM16,18h1v1h-1ZM19,18h1v1h-1ZM9,19h2v1h-2ZM20,19h1v1h-1ZM5,20h2v1h-2ZM13,20h1v1h-1ZM17,20h1v1h-1ZM21,20h1v1h-1ZM4,21h1v1h-1ZM7,21h1v1h-1ZM14,21h1v1h-1ZM22,21h1v2h-1ZM21,23h2v1h-2Z"/><path fill="rgb(59,59,59)" d="M6,9h1v1h-1ZM7,10h1v1h-1ZM14,12h1v1h-1ZM7,13h1v3h-1ZM2,14h3v1h-3ZM0,20h1v2h-1Z"/><path fill="rgb(69,69,69)" d="M7,9h2v1h-2ZM9,10h1v1h-1Z"/><path fill="rgb(163,163,163)" d="M3,10h1v1h-1ZM5,10h1v1h-1ZM2,11h1v1h-1ZM6,11h1v1h-1ZM8,12h1v1h-1ZM10,13h1v2h-1ZM8,15h1v1h-1ZM12,15h1v1h-1ZM12,17h2v1h-2ZM16,17h1v1h-1ZM9,18h2v1h-2ZM17,18h1v1h-1ZM18,19h1v1h-1ZM19,20h1v1h-1ZM11,21h1v1h-1ZM20,21h1v1h-1ZM21,22h1v1h-1Z"/><path fill="rgb(241,241,241)" d="M4,10h1v1h-1ZM15,10h1v1h-1ZM3,11h1v1h-1ZM16,11h1v1h-1ZM8,13h2v2h-2ZM11,13h2v2h-2ZM14,15h1v1h-1ZM7,17h1v1h-1ZM18,18h1v1h-1ZM13,19h1v1h-1ZM19,19h1v1h-1ZM12,20h1v1h-1ZM20,20h1v1h-1ZM21,21h1v1h-1ZM5,22h2v1h-2Z"/><path fill="rgb(99,99,99)" d="M6,10h1v1h-1ZM7,11h1v2h-1ZM14,11h1v1h-1ZM2,15h1v4h-1ZM4,15h1v4h-1ZM3,19h1v1h-1Z"/><path fill="rgb(204,204,204)" d="M4,11h2v1h-2ZM15,11h1v1h-1ZM15,15h1v1h-1ZM14,16h1v1h-1ZM12,19h1v1h-1ZM17,19h1v1h-1ZM11,20h1v1h-1ZM18,20h1v1h-1ZM5,21h2v1h-2ZM12,21h2v1h-2ZM19,21h1v1h-1ZM20,22h1v1h-1Z"/><path fill="rgb(218,218,218)" d="M1,13h5v1h-5ZM1,14h1v2h-1ZM5,14h1v2h-1ZM16,16h2v1h-2ZM15,17h1v1h-1Z"/><path fill="rgb(149,149,149)" d="M3,15h1v4h-1ZM1,20h1v1h-1ZM1,21h2v1h-2Z"/><path fill="rgb(91,91,91)" d="M16,15h3v1h-3ZM15,16h1v1h-1Z"/><path fill="rgb(186,186,186)" d="M1,16h1v3h-1ZM5,16h1v3h-1ZM15,18h1v1h-1ZM2,19h1v1h-1ZM4,19h1v1h-1ZM3,20h1v1h-1Z"/></svg>