<svg version="1.1" xmlns="http://www.w3.org/2000/svg" xmlns:xlink="http://www.w3.org/1999/xlink" shape-rendering="crispEdges" width="24" height="24" viewBox="0 0 24 24"><path fill="rgb(121,121,121)" d="M9,0h6v1h-6ZM19,0h1v2h-1ZM21,0h1v1h-1ZM3,1h1v1h-1ZM8,1h1v1h-1ZM15,1h1v1h-1ZM22,1h1v1h-1ZM2,2h1v1h-1ZM4,2h1v1h-1ZM6,2h1v1h-1ZM20,2h2v1h-2ZM7,3h1v1h-1ZM18,3h1v1h-1ZM8,4h1v1h-1ZM20,4h1v2h-1ZM4,5h1v2h-1ZM1,6h1v1h-1ZM2,7h1v1h-1ZM21,7h1v5h-1ZM4,8h1v1h-1ZM8,8h2v1h-2ZM3,11h1v1h-1ZM3,12h2v1h-2ZM4,13h2v1h-2ZM8,13h1v1h-1ZM10,14h1v1h-1ZM8,15h1v3h-1ZM6,16h1v1h-1ZM18,16h1v1h-1ZM1,17h2v1h-2ZM17,17h1v1h-1ZM23,17h1v2h-1ZM3,18h1v1h-1ZM14,18h2v1h-2ZM21,18h1v1h-1Z"/><path fill="rgb(172,172,172)" d="M20,0h1v1h-1ZM9,1h6v2h-6ZM20,1h2v1h-2ZM3,2h1v1h-1ZM16,2h2v1h-2ZM8,3h3v1h-3ZM12,3h5v1h-5ZM7,4h1v1h-1ZM9,4h6v1h-6ZM16,4h2v1h-2ZM19,4h1v1h-1ZM6,5h3v1h-3ZM10,5h3v1h-3ZM15,5h2v1h-2ZM5,6h6v1h-6ZM19,6h1v1h-1ZM1,7h1v1h-1ZM8,7h1v1h-1ZM19,7h2v3h-2ZM6,8h1v1h-1ZM5,9h1v1h-1ZM7,9h3v1h-3ZM8,10h2v1h-2ZM18,10h1v1h-1ZM20,10h1v1h-1ZM5,11h5v1h-5ZM18,11h3v2h-3ZM6,12h4v1h-4ZM7,13h1v1h-1ZM18,13h1v1h-1ZM6,14h4v1h-4ZM17,14h2v1h-2ZM9,15h1v1h-1ZM11,15h1v1h-1ZM16,15h2v1h-2ZM11,16h6v1h-6ZM10,17h3v1h-3ZM1,18h2v2h-2ZM22,18h1v2h-1ZM2,20h1v1h-1Z"/><path fill="rgb(61,61,61)" d="M7,1h1v1h-1ZM2,3h2v1h-2ZM5,3h1v1h-1ZM4,4h1v1h-1ZM3,5h1v3h-1ZM0,7h1v1h-1ZM6,7h1v1h-1ZM1,8h2v1h-2ZM7,8h1v1h-1ZM2,9h1v5h-1ZM10,12h1v1h-1ZM17,12h1v1h-1ZM21,12h1v1h-1ZM11,13h1v1h-1ZM16,13h1v1h-1ZM20,13h1v2h-1ZM3,14h2v1h-2ZM12,14h4v1h-4ZM4,15h1v1h-1ZM19,15h1v2h-1ZM5,16h1v1h-1ZM7,16h1v1h-1ZM6,17h1v1h-1ZM18,17h1v1h-1ZM0,18h1v2h-1ZM7,18h3v1h-3ZM16,18h2v1h-2ZM3,19h1v2h-1ZM9,19h4v1h-4ZM21,19h1v1h-1ZM23,19h1v1h-1ZM1,20h1v1h-1ZM21,20h2v1h-2ZM2,21h1v1h-1Z"/><path fill="rgb(144,144,144)" d="M16,1h2v1h-2ZM7,2h2v1h-2ZM15,2h1v1h-1ZM18,2h1v1h-1ZM6,3h1v1h-1ZM11,3h1v1h-1ZM19,3h1v1h-1ZM5,4h2v1h-2ZM15,4h1v1h-1ZM18,4h1v1h-1ZM5,5h1v1h-1ZM9,5h1v1h-1ZM13,5h2v1h-2ZM19,5h1v1h-1ZM11,6h1v1h-1ZM16,6h1v1h-1ZM20,6h1v1h-1ZM4,7h2v1h-2ZM7,7h1v1h-1ZM9,7h2v1h-2ZM17,7h1v1h-1ZM3,8h1v1h-1ZM5,8h1v1h-1ZM3,9h2v1h-2ZM6,9h1v1h-1ZM18,9h1v1h-1ZM3,10h5v1h-5ZM4,11h1v1h-1ZM5,12h1v1h-1ZM3,13h1v1h-1ZM6,13h1v1h-1ZM9,13h1v1h-1ZM19,13h1v2h-1ZM5,14h1v1h-1ZM5,15h3v1h-3ZM10,15h1v1h-1ZM18,15h1v1h-1ZM9,16h2v1h-2ZM17,16h1v1h-1ZM7,17h1v1h-1ZM9,17h1v1h-1ZM13,17h4v1h-4ZM22,17h1v1h-1ZM10,18h4v1h-4Z"/><path fill="rgb(225,225,225)" d="M17,3h1v1h-1ZM17,5h2v2h-2ZM18,7h1v2h-1ZM19,10h1v1h-1ZM10,13h1v1h-1ZM17,13h1v1h-1ZM11,14h1v1h-1ZM16,14h1v1h-1ZM12,15h4v1h-4Z"/><path fill="rgb(59,59,59)" d="M12,6h4v1h-4ZM11,7h1v1h-1ZM16,7h1v1h-1ZM10,8h1v1h-1ZM13,8h2v1h-2ZM17,8h1v1h-1ZM12,9h1v2h-1Z"/><path fill="rgb(149,149,149)" d="M12,7h4v1h-4ZM11,8h2v1h-2ZM16,8h1v1h-1ZM11,9h1v1h-1ZM13,9h3v3h-3ZM17,9h1v3h-1ZM10,10h2v2h-2ZM11,12h2v1h-2ZM16,12h1v1h-1ZM12,13h4v1h-4Z"/><path fill="rgb(99,99,99)" d="M15,8h1v1h-1ZM10,9h1v1h-1ZM16,9h1v3h-1ZM12,11h1v1h-1ZM13,12h3v1h-3Z"/><path fill="rgb(0,0,0)" d="M5,17h1v1h-1ZM5,18h2v1h-2ZM4,19h5v1h-5ZM13,19h7v1h-7ZM4,20h17v1h-17ZM4,21h16v1h-16ZM5,22h14v1h-14ZM9,23h7v1h-7Z"/></svg>