<svg version="1.1" xmlns="http://www.w3.org/2000/svg" xmlns:xlink="http://www.w3.org/1999/xlink" shape-rendering="crispEdges" width="24" height="24" viewBox="0 0 24 24"><path fill="rgb(121,121,121)" d="M20,0h1v1h-1ZM4,1h1v1h-1ZM9,1h6v1h-6ZM19,1h1v2h-1ZM21,1h1v1h-1ZM3,2h1v1h-1ZM5,2h1v1h-1ZM8,2h1v1h-1ZM15,2h1v1h-1ZM22,2h1v1h-1ZM6,3h1v1h-1ZM20,3h2v1h-2ZM18,4h2v1h-2ZM1,5h1v1h-1ZM2,6h1v1h-1ZM4,6h1v2h-1ZM11,8h1v1h-1ZM16,8h1v1h-1ZM21,8h1v5h-1ZM4,9h1v1h-1ZM8,9h3v1h-3ZM17,9h1v1h-1ZM3,12h1v1h-1ZM3,13h2v1h-2ZM10,13h1v1h-1ZM17,13h1v1h-1ZM4,14h1v1h-1ZM6,14h1v1h-1ZM8,14h1v1h-1ZM11,14h1v1h-1ZM16,14h1v1h-1ZM10,15h1v1h-1ZM1,16h2v1h-2ZM8,16h1v1h-1ZM3,17h1v1h-1ZM6,17h1v1h-1ZM18,17h1v1h-1ZM21,17h1v1h-1ZM23,17h1v1h-1ZM8,18h1v1h-1ZM17,18h1v1h-1ZM13,19h2v1h-2ZM20,23h1v1h-1Z"/><path fill="rgb(172,172,172)" d="M20,1h1v1h-1ZM4,2h1v1h-1ZM9,2h6v2h-6ZM20,2h2v1h-2ZM4,3h2v1h-2ZM16,3h2v1h-2ZM8,4h3v1h-3ZM12,4h5v1h-5ZM7,5h1v1h-1ZM9,5h2v1h-2ZM12,5h3v1h-3ZM16,5h2v1h-2ZM19,5h1v1h-1ZM1,6h1v1h-1ZM6,6h3v1h-3ZM10,6h3v1h-3ZM15,6h2v1h-2ZM5,7h10v1h-10ZM19,7h1v1h-1ZM8,8h1v1h-1ZM10,8h1v1h-1ZM19,8h2v1h-2ZM6,9h1v1h-1ZM18,9h3v1h-3ZM5,10h1v1h-1ZM7,10h3v2h-3ZM19,10h2v1h-2ZM18,11h1v1h-1ZM20,11h1v1h-1ZM6,12h1v1h-1ZM8,12h2v1h-2ZM18,12h3v2h-3ZM6,13h4v1h-4ZM5,14h1v1h-1ZM7,14h1v1h-1ZM18,14h1v1h-1ZM5,15h5v1h-5ZM17,15h2v1h-2ZM9,16h2v1h-2ZM12,16h6v1h-6ZM1,17h2v2h-2ZM10,17h1v1h-1ZM12,17h5v1h-5ZM22,17h1v2h-1ZM10,18h3v1h-3ZM2,19h1v1h-1Z"/><path fill="rgb(61,61,61)" d="M7,2h1v1h-1ZM3,3h1v1h-1ZM4,4h2v1h-2ZM4,5h1v1h-1ZM0,6h1v1h-1ZM3,6h1v3h-1ZM1,7h1v1h-1ZM6,8h1v1h-1ZM2,9h1v6h-1ZM7,9h1v1h-1ZM11,13h1v1h-1ZM16,13h1v1h-1ZM21,13h1v1h-1ZM12,14h4v1h-4ZM20,14h1v2h-1ZM3,15h2v1h-2ZM4,16h1v1h-1ZM19,16h1v2h-1ZM0,17h1v2h-1ZM5,17h1v1h-1ZM7,17h2v1h-2ZM3,18h1v2h-1ZM6,18h1v1h-1ZM18,18h1v1h-1ZM21,18h1v1h-1ZM23,18h1v1h-1ZM1,19h1v1h-1ZM7,19h3v1h-3ZM15,19h3v1h-3ZM21,19h2v1h-2ZM2,20h1v1h-1ZM9,20h4v1h-4Z"/><path fill="rgb(144,144,144)" d="M16,2h2v1h-2ZM7,3h2v1h-2ZM15,3h1v1h-1ZM18,3h1v1h-1ZM6,4h2v1h-2ZM11,4h1v2h-1ZM5,5h2v1h-2ZM8,5h1v1h-1ZM15,5h1v1h-1ZM18,5h1v1h-1ZM20,5h1v1h-1ZM5,6h1v1h-1ZM9,6h1v1h-1ZM13,6h2v1h-2ZM19,6h2v1h-2ZM20,7h1v1h-1ZM4,8h2v1h-2ZM7,8h1v1h-1ZM9,8h1v1h-1ZM3,9h1v1h-1ZM5,9h1v1h-1ZM3,10h2v1h-2ZM6,10h1v1h-1ZM18,10h1v1h-1ZM3,11h4v1h-4ZM4,12h2v1h-2ZM7,12h1v1h-1ZM5,13h1v1h-1ZM3,14h1v1h-1ZM9,14h1v1h-1ZM19,14h1v2h-1ZM5,16h3v1h-3ZM11,16h1v2h-1ZM18,16h1v1h-1ZM22,16h1v1h-1ZM9,17h1v2h-1ZM17,17h1v1h-1ZM7,18h1v1h-1ZM13,18h4v1h-4ZM10,19h3v1h-3Z"/><path fill="rgb(225,225,225)" d="M17,4h1v1h-1ZM17,6h2v1h-2ZM15,7h4v1h-4ZM17,8h2v1h-2ZM19,11h1v1h-1ZM10,14h1v1h-1ZM17,14h1v1h-1ZM11,15h6v1h-6Z"/><path fill="rgb(59,59,59)" d="M12,8h4v1h-4ZM11,9h1v1h-1ZM16,9h1v1h-1ZM13,10h3v1h-3ZM12,11h1v1h-1Z"/><path fill="rgb(99,99,99)" d="M12,9h1v1h-1ZM10,10h2v1h-2ZM17,10h1v1h-1ZM16,11h1v1h-1ZM13,12h3v1h-3ZM17,12h1v1h-1Z"/><path fill="rgb(149,149,149)" d="M13,9h3v1h-3ZM12,10h1v1h-1ZM16,10h1v1h-1ZM10,11h2v1h-2ZM13,11h3v1h-3ZM17,11h1v1h-1ZM10,12h3v1h-3ZM16,12h1v1h-1ZM12,13h4v1h-4Z"/><path fill="rgb(0,0,0)" d="M5,18h1v1h-1ZM4,19h3v1h-3ZM18,19h2v1h-2ZM3,20h6v1h-6ZM13,20h8v1h-8ZM4,21h16v1h-16ZM5,22h14v1h-14ZM9,23h7v1h-7Z"/></svg>