<svg version="1.1" xmlns="http://www.w3.org/2000/svg" xmlns:xlink="http://www.w3.org/1999/xlink" shape-rendering="crispEdges" width="24" height="24" viewBox="0 0 24 24"><path fill="rgb(255,255,255)" d="M0,0h24v1h-24ZM0,1h1v23h-1Z"/><path fill="rgb(76,95,114)" d="M5,1h4v1h-4ZM4,2h1v1h-1ZM3,3h1v1h-1ZM2,5h1v1h-1ZM5,5h1v1h-1ZM7,5h1v1h-1ZM4,6h1v1h-1ZM6,6h2v1h-2ZM5,7h3v1h-3Z"/><path fill="rgb(141,121,89)" d="M10,1h5v1h-5ZM9,2h1v1h-1ZM15,2h1v1h-1ZM9,4h2v2h-2ZM19,5h2v1h-2ZM21,6h1v1h-1ZM10,7h2v1h-2ZM15,7h1v1h-1ZM20,7h1v2h-1ZM8,9h1v1h-1ZM19,9h1v1h-1ZM10,10h1v1h-1ZM15,10h1v1h-1ZM10,11h2v1h-2ZM13,11h1v1h-1ZM19,12h1v1h-1ZM18,13h2v1h-2ZM12,16h1v1h-1ZM14,16h2v1h-2ZM17,16h1v1h-1ZM5,18h1v1h-1ZM14,18h1v1h-1ZM2,20h2v1h-2ZM5,20h1v1h-1ZM13,20h2v1h-2Z"/><path fill="rgb(154,160,176)" d="M5,2h1v1h-1ZM7,2h2v1h-2ZM4,4h4v1h-4ZM4,5h1v1h-1ZM5,6h1v1h-1Z"/><path fill="rgb(255,255,255)" d="M6,2h1v1h-1ZM4,3h1v1h-1Z"/><path fill="rgb(221,207,185)" d="M10,2h5v1h-5ZM12,3h3v1h-3ZM13,4h2v1h-2ZM9,6h3v1h-3ZM13,6h2v1h-2ZM18,6h3v1h-3ZM12,7h3v1h-3ZM19,7h1v1h-1ZM17,8h1v1h-1ZM13,9h1v1h-1ZM10,12h1v1h-1ZM13,12h1v1h-1ZM16,16h1v1h-1ZM2,21h3v1h-3ZM15,21h2v1h-2Z"/><path fill="rgb(204,204,205)" d="M5,3h3v1h-3ZM3,5h1v1h-1ZM6,5h1v1h-1Z"/><path fill="rgb(41,50,62)" d="M8,3h1v4h-1ZM16,3h1v4h-1Z"/><path fill="rgb(185,171,146)" d="M9,3h3v1h-3ZM15,3h1v1h-1ZM12,4h1v1h-1ZM13,5h2v1h-2ZM18,7h1v1h-1ZM21,7h2v2h-2ZM19,8h1v1h-1ZM12,9h1v1h-1ZM14,9h1v1h-1ZM18,9h1v1h-1ZM12,11h1v1h-1ZM15,11h2v1h-2ZM11,12h1v1h-1ZM17,12h1v1h-1ZM13,16h1v1h-1ZM16,17h1v1h-1ZM6,18h1v1h-1ZM15,18h1v1h-1ZM5,19h1v1h-1ZM14,19h1v1h-1ZM4,20h1v1h-1ZM15,20h1v1h-1ZM5,21h1v1h-1ZM13,21h2v1h-2ZM17,21h1v1h-1Z"/><path fill="rgb(0,0,0)" d="M3,4h1v1h-1ZM12,5h1v1h-1ZM15,5h1v1h-1ZM3,6h1v1h-1ZM17,6h1v1h-1ZM4,7h1v1h-1ZM8,7h2v1h-2ZM16,7h1v1h-1ZM5,8h3v1h-3ZM10,8h2v1h-2ZM15,8h2v1h-2ZM11,9h1v1h-1ZM15,9h1v1h-1ZM17,9h1v1h-1ZM12,10h3v1h-3ZM18,10h2v1h-2ZM12,12h1v1h-1ZM14,12h3v1h-3ZM2,13h1v2h-1ZM10,13h4v1h-4ZM17,13h1v1h-1ZM10,14h1v1h-1ZM18,14h2v1h-2ZM3,15h1v1h-1ZM8,15h1v1h-1ZM4,16h1v1h-1ZM7,16h3v1h-3ZM5,17h3v1h-3ZM9,17h1v1h-1ZM15,17h1v1h-1ZM9,18h3v1h-3ZM16,18h1v1h-1ZM13,19h1v1h-1ZM15,19h2v1h-2ZM6,20h7v2h-7ZM16,20h3v1h-3ZM1,21h1v1h-1ZM18,21h2v1h-2ZM2,22h17v1h-17ZM4,23h13v1h-13Z"/><path fill="rgb(97,86,67)" d="M11,4h1v1h-1ZM15,4h1v1h-1ZM18,5h1v1h-1ZM21,5h1v1h-1ZM22,6h1v1h-1ZM17,7h1v1h-1ZM23,7h1v2h-1ZM8,8h2v1h-2ZM18,8h1v1h-1ZM4,9h1v1h-1ZM7,9h1v1h-1ZM9,9h2v1h-2ZM20,9h4v1h-4ZM3,10h1v1h-1ZM8,10h2v1h-2ZM11,10h1v1h-1ZM16,10h1v1h-1ZM20,10h1v1h-1ZM2,11h1v2h-1ZM9,11h1v5h-1ZM14,11h1v1h-1ZM17,11h3v1h-3ZM18,12h1v1h-1ZM12,15h5v1h-5ZM8,17h1v1h-1ZM12,17h3v1h-3ZM17,17h1v1h-1ZM7,18h1v1h-1ZM4,19h1v1h-1ZM6,19h1v1h-1Z"/><path fill="rgb(245,0,61)" d="M11,5h1v1h-1ZM12,6h1v1h-1ZM15,6h1v1h-1Z"/><path fill="rgb(62,69,78)" d="M12,8h3v1h-3Z"/><path fill="rgb(255,245,155)" d="M5,9h2v1h-2Z"/><path fill="rgb(255,204,101)" d="M4,10h1v1h-1ZM7,10h1v1h-1ZM4,15h1v1h-1ZM7,15h1v1h-1ZM5,16h2v1h-2Z"/><path fill="rgb(95,5,120)" d="M5,10h2v1h-2ZM4,11h1v1h-1ZM7,11h1v3h-1Z"/><path fill="rgb(249,152,51)" d="M3,11h1v4h-1ZM8,11h1v4h-1Z"/><path fill="rgb(219,36,113)" d="M5,11h2v4h-2ZM10,16h2v2h-2Z"/><path fill="rgb(161,0,112)" d="M4,12h1v3h-1ZM7,14h1v1h-1ZM5,15h2v1h-2ZM10,15h2v1h-2Z"/></svg>