<svg version="1.1" xmlns="http://www.w3.org/2000/svg" xmlns:xlink="http://www.w3.org/1999/xlink" shape-rendering="crispEdges" width="24" height="24" viewBox="0 0 24 24"><path fill="rgb(255,255,255)" d="M0,0h1v24h-1Z"/><path fill="rgb(95,95,95)" d="M5,0h4v1h-4ZM4,1h1v1h-1ZM3,2h1v1h-1ZM2,4h1v1h-1ZM5,4h1v1h-1ZM7,4h1v1h-1ZM4,5h1v1h-1ZM6,5h2v1h-2ZM5,6h3v1h-3Z"/><path fill="rgb(117,117,117)" d="M10,0h5v1h-5ZM9,1h1v1h-1ZM15,1h1v1h-1ZM9,3h2v2h-2ZM19,4h2v1h-2ZM21,5h1v1h-1ZM10,6h2v1h-2ZM15,6h1v1h-1ZM20,6h1v2h-1ZM8,8h1v1h-1ZM19,8h1v1h-1ZM10,9h1v1h-1ZM15,9h1v1h-1ZM10,10h2v1h-2ZM13,10h1v1h-1ZM19,11h1v1h-1ZM18,12h2v1h-2ZM12,15h1v1h-1ZM14,16h2v1h-2ZM17,16h1v1h-1ZM16,17h1v1h-1ZM2,20h2v1h-2ZM5,20h1v1h-1ZM13,20h2v1h-2Z"/><path fill="rgb(163,163,163)" d="M5,1h1v1h-1ZM7,1h2v1h-2ZM4,3h4v1h-4ZM4,4h1v1h-1ZM5,5h1v1h-1Z"/><path fill="rgb(255,255,255)" d="M6,1h1v1h-1ZM4,2h1v1h-1Z"/><path fill="rgb(204,204,204)" d="M10,1h5v1h-5ZM5,2h3v1h-3ZM12,2h3v1h-3ZM13,3h2v1h-2ZM3,4h1v1h-1ZM6,4h1v1h-1ZM9,5h3v1h-3ZM13,5h2v1h-2ZM18,5h3v1h-3ZM12,6h3v1h-3ZM19,6h1v1h-1ZM17,7h1v1h-1ZM13,8h1v1h-1ZM10,11h1v1h-1ZM13,11h1v1h-1ZM16,16h1v1h-1ZM6,17h1v1h-1ZM2,21h3v1h-3ZM15,21h2v1h-2Z"/><path fill="rgb(51,51,51)" d="M8,2h1v4h-1ZM16,2h1v4h-1Z"/><path fill="rgb(167,167,167)" d="M9,2h3v1h-3ZM15,2h1v1h-1ZM12,3h1v1h-1ZM13,4h2v1h-2ZM18,6h1v1h-1ZM21,6h2v2h-2ZM19,7h1v1h-1ZM12,8h1v1h-1ZM14,8h1v1h-1ZM18,8h1v1h-1ZM12,10h1v1h-1ZM15,10h2v1h-2ZM11,11h1v1h-1ZM17,11h1v1h-1ZM13,15h1v1h-1ZM7,16h1v1h-1ZM5,18h1v2h-1ZM15,18h1v1h-1ZM14,19h1v1h-1ZM4,20h1v1h-1ZM15,20h1v1h-1ZM5,21h1v1h-1ZM13,21h2v1h-2ZM17,21h1v1h-1Z"/><path fill="rgb(0,0,0)" d="M3,3h1v1h-1ZM12,4h1v1h-1ZM15,4h1v1h-1ZM3,5h1v1h-1ZM17,5h1v1h-1ZM4,6h1v1h-1ZM8,6h2v1h-2ZM16,6h1v1h-1ZM4,7h4v1h-4ZM10,7h2v1h-2ZM15,7h2v1h-2ZM4,8h1v1h-1ZM11,8h1v1h-1ZM15,8h1v1h-1ZM17,8h1v1h-1ZM12,9h3v1h-3ZM18,9h2v1h-2ZM12,11h1v1h-1ZM14,11h3v1h-3ZM2,12h1v2h-1ZM10,12h4v1h-4ZM17,12h1v1h-1ZM10,13h2v1h-2ZM18,13h2v1h-2ZM3,14h1v1h-1ZM8,14h1v1h-1ZM4,15h1v1h-1ZM7,15h3v1h-3ZM5,16h2v1h-2ZM8,16h2v1h-2ZM7,17h1v1h-1ZM9,17h3v1h-3ZM15,17h1v1h-1ZM16,18h1v1h-1ZM7,19h7v1h-7ZM15,19h2v1h-2ZM6,20h7v2h-7ZM16,20h3v1h-3ZM1,21h1v1h-1ZM18,21h2v1h-2ZM2,22h17v1h-17ZM4,23h13v1h-13Z"/><path fill="rgb(83,83,83)" d="M11,3h1v1h-1ZM15,3h1v1h-1ZM18,4h1v1h-1ZM21,4h1v1h-1ZM22,5h1v1h-1ZM17,6h1v1h-1ZM23,6h1v2h-1ZM8,7h2v1h-2ZM18,7h1v1h-1ZM7,8h1v1h-1ZM9,8h2v1h-2ZM20,8h4v1h-4ZM3,9h1v1h-1ZM8,9h2v1h-2ZM11,9h1v1h-1ZM16,9h1v1h-1ZM20,9h1v1h-1ZM2,10h1v2h-1ZM9,10h1v5h-1ZM14,10h1v1h-1ZM17,10h3v1h-3ZM18,11h1v1h-1ZM12,14h2v1h-2ZM14,15h3v1h-3ZM12,16h2v1h-2ZM5,17h1v1h-1ZM14,17h1v2h-1ZM17,17h1v1h-1ZM4,18h1v2h-1ZM6,18h1v2h-1Z"/><path fill="rgb(102,102,102)" d="M11,4h1v1h-1ZM12,5h1v1h-1ZM15,5h1v1h-1Z"/><path fill="rgb(69,69,69)" d="M12,7h3v1h-3Z"/><path fill="rgb(218,218,218)" d="M5,8h2v1h-2Z"/><path fill="rgb(186,186,186)" d="M4,9h1v1h-1ZM7,9h1v1h-1ZM4,14h1v1h-1ZM7,14h1v1h-1ZM5,15h2v1h-2Z"/><path fill="rgb(59,59,59)" d="M5,9h2v1h-2ZM4,10h1v1h-1ZM7,10h1v3h-1Z"/><path fill="rgb(150,150,150)" d="M3,10h1v4h-1ZM8,10h1v4h-1Z"/><path fill="rgb(149,149,149)" d="M5,10h2v4h-2ZM10,15h2v2h-2Z"/><path fill="rgb(99,99,99)" d="M4,11h1v3h-1ZM7,13h1v1h-1ZM5,14h2v1h-2ZM10,14h2v1h-2Z"/></svg>