<svg version="1.1" xmlns="http://www.w3.org/2000/svg" xmlns:xlink="http://www.w3.org/1999/xlink" shape-rendering="crispEdges" width="24" height="24" viewBox="0 0 24 24"><path fill="rgb(255,255,255)" d="M0,0h24v2h-24Z"/><path fill="rgb(93,53,13)" d="M7,2h2v1h-2ZM6,3h1v1h-1ZM10,5h2v1h-2ZM15,5h1v2h-1ZM8,6h2v1h-2ZM6,7h4v1h-4ZM12,7h2v1h-2ZM4,8h2v1h-2ZM5,9h1v1h-1ZM6,10h1v1h-1ZM7,11h1v1h-1ZM8,12h3v1h-3ZM6,14h1v5h-1ZM19,16h1v1h-1ZM5,20h1v1h-1ZM4,21h1v1h-1Z"/><path fill="rgb(183,90,0)" d="M9,2h3v1h-3ZM12,3h2v1h-2ZM14,4h1v1h-1ZM4,5h1v1h-1ZM6,5h1v1h-1ZM12,5h1v1h-1ZM5,6h1v1h-1ZM10,6h4v1h-4ZM4,7h1v1h-1ZM14,7h1v2h-1ZM6,8h1v1h-1ZM17,15h3v1h-3ZM16,16h1v1h-1ZM15,17h1v2h-1Z"/><path fill="rgb(0,0,0)" d="M5,3h1v1h-1ZM4,4h1v1h-1ZM3,5h1v4h-1ZM15,7h1v2h-1ZM8,8h2v2h-2ZM12,8h1v2h-1ZM4,9h1v1h-1ZM14,9h1v2h-1ZM5,10h1v1h-1ZM13,11h1v1h-1ZM1,12h1v1h-1ZM11,12h2v1h-2ZM17,12h1v1h-1ZM0,13h7v1h-7ZM16,13h1v2h-1ZM0,14h1v6h-1ZM13,15h1v1h-1ZM14,17h1v2h-1ZM19,17h1v1h-1ZM14,19h4v1h-4ZM1,20h1v1h-1ZM8,20h3v2h-3ZM14,20h1v1h-1ZM18,20h1v1h-1ZM1,21h2v1h-2ZM15,21h1v1h-1ZM19,21h1v1h-1ZM1,22h3v1h-3ZM8,22h8v1h-8ZM20,22h1v1h-1ZM23,22h1v1h-1ZM3,23h11v1h-11ZM21,23h3v1h-3Z"/><path fill="rgb(255,204,101)" d="M7,3h1v1h-1ZM10,3h1v1h-1ZM6,4h1v1h-1ZM10,4h3v1h-3ZM5,5h1v1h-1ZM8,5h2v1h-2ZM7,6h1v1h-1ZM1,17h1v3h-1ZM5,17h1v3h-1ZM16,18h1v1h-1ZM2,20h1v1h-1ZM4,20h1v1h-1ZM3,21h1v1h-1Z"/><path fill="rgb(249,152,51)" d="M8,3h2v1h-2ZM11,3h1v1h-1ZM5,4h1v1h-1ZM7,4h1v1h-1ZM13,4h1v1h-1ZM13,5h2v1h-2ZM4,6h1v1h-1ZM14,6h1v1h-1ZM5,7h1v1h-1ZM10,7h2v2h-2ZM6,9h1v1h-1ZM8,11h1v1h-1ZM12,11h1v1h-1Z"/><path fill="rgb(255,245,155)" d="M8,4h2v1h-2ZM7,5h1v1h-1ZM6,6h1v1h-1ZM10,9h2v2h-2ZM13,10h1v1h-1ZM9,11h3v1h-3ZM1,14h5v1h-5ZM1,15h1v2h-1ZM5,15h1v2h-1ZM17,16h2v1h-2ZM16,17h1v1h-1Z"/><path fill="rgb(154,160,176)" d="M7,8h1v1h-1ZM13,8h1v1h-1ZM3,11h1v1h-1ZM5,11h1v1h-1ZM14,11h1v2h-1ZM2,12h1v1h-1ZM6,12h1v1h-1ZM8,13h1v1h-1ZM12,13h1v1h-1ZM14,15h1v1h-1ZM8,16h1v1h-1ZM12,16h1v1h-1ZM17,17h1v1h-1ZM18,18h1v1h-1ZM19,19h1v1h-1ZM20,20h1v1h-1ZM11,21h1v1h-1ZM21,21h1v1h-1Z"/><path fill="rgb(255,255,255)" d="M7,9h1v2h-1ZM13,9h1v1h-1Z"/><path fill="rgb(76,95,114)" d="M3,10h2v1h-2ZM15,10h1v1h-1ZM2,11h1v1h-1ZM6,11h1v1h-1ZM16,11h1v1h-1ZM7,12h1v1h-1ZM13,13h1v1h-1ZM8,14h5v1h-5ZM14,14h2v1h-2ZM14,16h1v1h-1ZM18,17h1v1h-1ZM13,18h1v1h-1ZM17,18h1v1h-1ZM20,18h1v1h-1ZM21,19h1v1h-1ZM6,20h1v1h-1ZM13,20h1v1h-1ZM22,20h1v1h-1ZM7,21h1v1h-1ZM14,21h1v1h-1ZM23,21h1v1h-1Z"/><path fill="rgb(0,153,55)" d="M8,10h2v1h-2ZM12,10h1v1h-1ZM2,16h1v4h-1ZM4,16h1v4h-1ZM8,17h5v2h-5ZM3,20h1v1h-1Z"/><path fill="rgb(241,242,242)" d="M4,11h1v1h-1ZM15,11h1v1h-1ZM3,12h1v1h-1ZM16,12h1v1h-1ZM9,15h3v1h-3ZM15,15h1v1h-1ZM19,18h1v1h-1ZM13,19h1v1h-1ZM20,19h1v1h-1ZM12,20h1v1h-1ZM21,20h1v1h-1ZM22,21h1v2h-1ZM5,22h2v1h-2Z"/><path fill="rgb(204,204,205)" d="M4,12h2v1h-2ZM15,12h1v1h-1ZM9,13h3v1h-3ZM8,15h1v1h-1ZM12,15h1v1h-1ZM16,15h1v1h-1ZM9,16h3v1h-3ZM15,16h1v1h-1ZM12,19h1v1h-1ZM18,19h1v1h-1ZM11,20h1v1h-1ZM19,20h1v1h-1ZM5,21h2v1h-2ZM12,21h2v1h-2ZM20,21h1v1h-1ZM21,22h1v1h-1Z"/><path fill="rgb(41,50,62)" d="M13,12h1v1h-1ZM7,13h1v1h-1ZM14,13h2v1h-2ZM13,14h1v1h-1ZM13,16h1v1h-1ZM6,19h2v1h-2ZM11,19h1v1h-1ZM7,20h1v1h-1ZM4,22h1v1h-1ZM7,22h1v1h-1Z"/><path fill="rgb(0,85,82)" d="M7,14h1v5h-1ZM2,15h3v1h-3ZM13,17h1v1h-1ZM8,19h3v1h-3Z"/><path fill="rgb(99,190,37)" d="M3,16h1v4h-1Z"/></svg>