<svg version="1.1" xmlns="http://www.w3.org/2000/svg" xmlns:xlink="http://www.w3.org/1999/xlink" shape-rendering="crispEdges" width="24" height="24" viewBox="0 0 24 24"><path fill="rgb(255,255,255)" d="M0,0h24v1h-24Z"/><path fill="rgb(93,53,13)" d="M7,1h2v1h-2ZM6,2h1v1h-1ZM10,4h2v1h-2ZM15,4h1v2h-1ZM8,5h2v1h-2ZM6,6h4v1h-4ZM12,6h2v1h-2ZM4,7h2v1h-2ZM5,8h1v1h-1ZM6,9h1v1h-1ZM7,10h1v1h-1ZM8,11h3v1h-3ZM6,13h1v5h-1ZM19,16h1v1h-1ZM5,19h1v1h-1ZM4,20h1v1h-1Z"/><path fill="rgb(183,90,0)" d="M9,1h3v1h-3ZM12,2h2v1h-2ZM14,3h1v1h-1ZM4,4h1v1h-1ZM6,4h1v1h-1ZM12,4h1v1h-1ZM5,5h1v1h-1ZM10,5h4v1h-4ZM4,6h1v1h-1ZM14,6h1v2h-1ZM6,7h1v1h-1ZM17,15h3v1h-3ZM16,16h1v1h-1ZM15,17h1v2h-1Z"/><path fill="rgb(0,0,0)" d="M5,2h1v1h-1ZM4,3h1v1h-1ZM3,4h1v4h-1ZM15,6h1v2h-1ZM8,7h2v2h-2ZM12,7h1v2h-1ZM4,8h1v1h-1ZM14,8h1v2h-1ZM5,9h1v1h-1ZM13,10h1v1h-1ZM1,11h1v1h-1ZM11,11h2v1h-2ZM17,11h1v1h-1ZM0,12h7v1h-7ZM16,12h1v1h-1ZM0,13h1v6h-1ZM15,13h1v1h-1ZM13,14h1v1h-1ZM16,14h1v1h-1ZM7,16h2v1h-2ZM14,17h1v2h-1ZM19,17h1v1h-1ZM1,19h1v1h-1ZM14,19h4v1h-4ZM2,20h1v1h-1ZM8,20h3v2h-3ZM14,20h1v1h-1ZM18,20h1v1h-1ZM1,21h3v2h-3ZM15,21h1v1h-1ZM19,21h1v1h-1ZM8,22h8v1h-8ZM20,22h1v1h-1ZM23,22h1v1h-1ZM3,23h11v1h-11ZM21,23h3v1h-3Z"/><path fill="rgb(255,204,101)" d="M7,2h1v1h-1ZM10,2h1v1h-1ZM6,3h1v1h-1ZM10,3h3v1h-3ZM5,4h1v1h-1ZM8,4h2v1h-2ZM7,5h1v1h-1ZM1,16h1v3h-1ZM5,16h1v3h-1ZM16,18h1v1h-1ZM2,19h1v1h-1ZM4,19h1v1h-1ZM3,20h1v1h-1Z"/><path fill="rgb(249,152,51)" d="M8,2h2v1h-2ZM11,2h1v1h-1ZM5,3h1v1h-1ZM7,3h1v1h-1ZM13,3h1v1h-1ZM13,4h2v1h-2ZM4,5h1v1h-1ZM14,5h1v1h-1ZM5,6h1v1h-1ZM10,6h2v2h-2ZM6,8h1v1h-1ZM8,10h1v1h-1ZM12,10h1v1h-1Z"/><path fill="rgb(255,245,155)" d="M8,3h2v1h-2ZM7,4h1v1h-1ZM6,5h1v1h-1ZM10,8h2v2h-2ZM13,9h1v1h-1ZM9,10h3v1h-3ZM1,13h5v1h-5ZM1,14h1v2h-1ZM5,14h1v2h-1ZM17,16h2v1h-2ZM16,17h1v1h-1Z"/><path fill="rgb(154,160,176)" d="M7,7h1v1h-1ZM13,7h1v1h-1ZM3,10h1v1h-1ZM5,10h1v1h-1ZM14,10h1v2h-1ZM2,11h1v1h-1ZM6,11h1v1h-1ZM8,12h1v1h-1ZM12,12h1v1h-1ZM8,15h1v1h-1ZM12,15h1v1h-1ZM14,15h1v1h-1ZM17,17h1v1h-1ZM18,18h1v1h-1ZM19,19h1v1h-1ZM20,20h1v1h-1ZM11,21h1v1h-1ZM21,21h1v1h-1Z"/><path fill="rgb(255,255,255)" d="M7,8h1v2h-1ZM13,8h1v1h-1Z"/><path fill="rgb(76,95,114)" d="M3,9h2v1h-2ZM15,9h1v1h-1ZM2,10h1v1h-1ZM6,10h1v1h-1ZM16,10h1v1h-1ZM7,11h1v1h-1ZM13,12h1v1h-1ZM8,13h5v1h-5ZM14,13h1v1h-1ZM14,14h2v1h-2ZM9,16h3v1h-3ZM14,16h1v1h-1ZM18,17h1v1h-1ZM13,18h1v1h-1ZM17,18h1v1h-1ZM20,18h1v1h-1ZM21,19h1v1h-1ZM5,20h2v1h-2ZM13,20h1v1h-1ZM22,20h1v1h-1ZM4,21h1v1h-1ZM7,21h1v1h-1ZM14,21h1v1h-1ZM23,21h1v1h-1Z"/><path fill="rgb(0,153,55)" d="M8,9h2v1h-2ZM12,9h1v1h-1ZM2,15h1v4h-1ZM4,15h1v4h-1ZM8,17h5v2h-5ZM3,19h1v1h-1Z"/><path fill="rgb(241,242,242)" d="M4,10h1v1h-1ZM15,10h1v1h-1ZM3,11h1v1h-1ZM16,11h1v1h-1ZM9,14h3v1h-3ZM15,15h1v1h-1ZM19,18h1v1h-1ZM13,19h1v1h-1ZM20,19h1v1h-1ZM12,20h1v1h-1ZM21,20h1v1h-1ZM22,21h1v2h-1ZM5,22h2v1h-2Z"/><path fill="rgb(204,204,205)" d="M4,11h2v1h-2ZM15,11h1v1h-1ZM9,12h3v1h-3ZM8,14h1v1h-1ZM12,14h1v1h-1ZM9,15h3v1h-3ZM16,15h1v1h-1ZM15,16h1v1h-1ZM6,19h1v1h-1ZM12,19h1v1h-1ZM18,19h1v1h-1ZM11,20h1v1h-1ZM19,20h1v1h-1ZM5,21h2v1h-2ZM12,21h2v1h-2ZM20,21h1v1h-1ZM21,22h1v1h-1Z"/><path fill="rgb(41,50,62)" d="M13,11h1v1h-1ZM7,12h1v1h-1ZM14,12h2v1h-2ZM13,13h1v1h-1ZM13,15h1v1h-1ZM12,16h2v1h-2ZM6,18h1v1h-1ZM7,19h1v2h-1ZM11,19h1v1h-1ZM4,22h1v1h-1ZM7,22h1v1h-1Z"/><path fill="rgb(0,85,82)" d="M7,13h1v3h-1ZM2,14h3v1h-3ZM7,17h1v2h-1ZM13,17h1v1h-1ZM8,19h3v1h-3Z"/><path fill="rgb(99,190,37)" d="M3,15h1v4h-1Z"/></svg>