<svg version="1.1" xmlns="http://www.w3.org/2000/svg" xmlns:xlink="http://www.w3.org/1999/xlink" shape-rendering="crispEdges" width="24" height="24" viewBox="0 0 24 24"><path fill="rgb(255,255,255)" d="M0,0h2v24h-2ZM23,0h1v24h-1Z"/><path fill="rgb(93,53,13)" d="M9,0h6v1h-6ZM7,1h2v1h-2ZM15,1h2v2h-2ZM6,2h1v1h-1ZM5,3h1v1h-1ZM11,3h1v1h-1ZM17,3h1v3h-1ZM10,4h1v2h-1ZM15,4h1v1h-1ZM5,5h1v1h-1ZM14,5h1v1h-1ZM9,6h1v1h-1ZM16,6h2v1h-2ZM8,7h1v1h-1ZM17,7h1v1h-1ZM7,8h1v2h-1ZM9,9h1v1h-1ZM6,10h1v1h-1ZM9,10h2v1h-2ZM19,10h2v1h-2ZM8,11h6v1h-6ZM18,11h1v1h-1ZM21,11h1v2h-1ZM15,12h1v1h-1ZM20,13h1v1h-1ZM5,17h1v1h-1ZM6,18h1v1h-1ZM9,18h1v1h-1ZM15,20h1v1h-1ZM8,21h1v1h-1ZM6,22h1v1h-1Z"/><path fill="rgb(195,163,107)" d="M9,1h1v1h-1ZM11,1h1v1h-1ZM8,2h1v1h-1ZM10,2h2v1h-2ZM13,2h2v1h-2ZM7,3h1v1h-1ZM9,3h2v1h-2ZM12,3h3v1h-3ZM8,4h2v1h-2ZM7,5h1v1h-1Z"/><path fill="rgb(171,132,81)" d="M10,1h1v1h-1ZM12,1h1v1h-1ZM14,1h1v1h-1ZM9,2h1v1h-1ZM16,3h1v2h-1ZM6,4h1v1h-1ZM11,4h3v1h-3ZM9,5h1v1h-1ZM11,5h1v1h-1Z"/><path fill="rgb(138,102,56)" d="M13,1h1v1h-1ZM7,2h1v1h-1ZM12,2h1v1h-1ZM6,3h1v1h-1ZM8,3h1v1h-1ZM7,4h1v1h-1ZM6,5h1v1h-1ZM8,5h1v1h-1ZM5,6h4v1h-4ZM5,7h3v1h-3ZM5,8h2v1h-2ZM8,8h1v2h-1ZM6,9h1v1h-1ZM7,10h2v1h-2ZM6,16h2v2h-2Z"/><path fill="rgb(0,0,0)" d="M17,2h1v1h-1ZM15,3h1v1h-1ZM18,3h1v5h-1ZM5,4h1v1h-1ZM14,4h1v1h-1ZM4,5h1v4h-1ZM12,5h2v1h-2ZM16,5h1v1h-1ZM10,6h2v1h-2ZM9,7h4v1h-4ZM15,7h2v1h-2ZM11,8h2v1h-2ZM15,8h1v1h-1ZM17,8h1v2h-1ZM4,10h2v1h-2ZM16,10h3v1h-3ZM3,11h1v2h-1ZM6,11h2v1h-2ZM14,11h4v1h-4ZM4,13h1v3h-1ZM20,14h1v1h-1ZM6,15h5v1h-5ZM13,15h1v1h-1ZM15,15h1v1h-1ZM17,15h1v1h-1ZM19,15h1v1h-1ZM4,16h2v1h-2ZM9,16h6v1h-6ZM18,16h1v1h-1ZM9,17h1v1h-1ZM4,21h3v1h-3ZM9,21h6v1h-6ZM16,21h3v1h-3ZM4,22h2v1h-2ZM8,22h11v1h-11ZM6,23h11v1h-11Z"/><path fill="rgb(183,90,0)" d="M15,5h1v2h-1ZM12,6h2v1h-2Z"/><path fill="rgb(249,152,51)" d="M14,6h1v1h-1ZM13,7h2v1h-2ZM9,8h1v1h-1ZM11,10h1v1h-1ZM15,10h1v1h-1ZM19,11h1v1h-1ZM4,12h1v1h-1ZM12,12h2v1h-2ZM20,12h1v1h-1ZM13,13h1v1h-1ZM8,19h1v1h-1ZM15,21h1v1h-1ZM7,22h1v1h-1Z"/><path fill="rgb(255,255,255)" d="M10,8h1v2h-1ZM16,8h1v1h-1Z"/><path fill="rgb(255,245,155)" d="M13,8h2v2h-2ZM16,9h1v1h-1ZM12,10h3v1h-3ZM4,11h2v1h-2ZM20,11h1v1h-1ZM5,12h1v1h-1ZM19,12h1v1h-1ZM12,13h1v1h-1ZM14,13h1v1h-1ZM8,20h1v1h-1ZM7,21h1v1h-1Z"/><path fill="rgb(219,36,113)" d="M4,9h2v1h-2ZM11,9h2v1h-2ZM15,9h1v1h-1ZM19,9h2v1h-2ZM3,10h1v1h-1ZM21,10h1v1h-1ZM2,11h1v2h-1ZM22,11h1v2h-1ZM3,13h1v1h-1ZM21,13h1v1h-1Z"/><path fill="rgb(171,237,90)" d="M6,12h1v2h-1ZM18,12h1v4h-1ZM5,14h1v2h-1ZM15,19h1v1h-1ZM10,20h4v1h-4Z"/><path fill="rgb(0,85,82)" d="M7,12h4v1h-4ZM16,12h2v1h-2ZM5,13h1v1h-1ZM8,13h2v1h-2ZM15,13h2v1h-2ZM19,13h1v1h-1ZM9,14h2v1h-2ZM16,14h1v1h-1ZM11,15h2v1h-2ZM14,15h1v1h-1ZM8,16h1v2h-1ZM10,17h1v1h-1ZM15,17h1v2h-1ZM7,18h1v1h-1ZM6,19h1v2h-1ZM16,19h1v2h-1ZM14,20h1v1h-1Z"/><path fill="rgb(0,153,55)" d="M11,12h1v1h-1ZM14,12h1v1h-1ZM10,13h1v1h-1ZM8,14h1v1h-1ZM13,14h1v1h-1ZM15,14h1v1h-1ZM17,14h1v1h-1ZM19,14h1v1h-1ZM11,17h4v1h-4ZM8,18h1v1h-1ZM7,19h1v2h-1ZM9,19h1v2h-1Z"/><path fill="rgb(99,190,37)" d="M7,13h1v1h-1ZM11,13h1v1h-1ZM17,13h1v1h-1ZM6,14h2v1h-2ZM11,14h2v1h-2ZM14,14h1v1h-1ZM10,18h5v2h-5Z"/></svg>