<svg version="1.1" xmlns="http://www.w3.org/2000/svg" width="24" height="24" viewBox="0 0 24 24" shape-rendering="crispEdges"><rect x="8" y="0" width="1" height="1" fill="#353535"/><rect x="9" y="0" width="1" height="1" fill="#353535"/><rect x="10" y="0" width="1" height="1" fill="#353535"/><rect x="11" y="0" width="1" height="1" fill="#353535"/><rect x="12" y="0" width="1" height="1" fill="#353535"/><rect x="13" y="0" width="1" height="1" fill="#353535"/><rect x="6" y="1" width="1" height="1" fill="#353535"/><rect x="7" y="1" width="1" height="1" fill="#353535"/><rect x="8" y="1" width="1" height="1" fill="#9b9b9b"/><rect x="9" y="1" width="1" height="1" fill="#808080"/><rect x="10" y="1" width="1" height="1" fill="#9b9b9b"/><rect x="11" y="1" width="1" height="1" fill="#808080"/><rect x="12" y="1" width="1" height="1" fill="#626262"/><rect x="13" y="1" width="1" height="1" fill="#808080"/><rect x="14" y="1" width="1" height="1" fill="#353535"/><rect x="15" y="1" width="1" height="1" fill="#353535"/><rect x="5" y="2" width="1" height="1" fill="#353535"/><rect x="6" y="2" width="1" height="1" fill="#626262"/><rect x="7" y="2" width="1" height="1" fill="#9b9b9b"/><rect x="8" y="2" width="1" height="1" fill="#808080"/><rect x="9" y="2" width="1" height="1" fill="#9b9b9b"/><rect x="10" y="2" width="1" height="1" fill="#9b9b9b"/><rect x="11" y="2" width="1" height="1" fill="#626262"/><rect x="12" y="2" width="1" height="1" fill="#9b9b9b"/><rect x="13" y="2" width="1" height="1" fill="#9b9b9b"/><rect x="14" y="2" width="1" height="1" fill="#353535"/><rect x="15" y="2" width="1" height="1" fill="#353535"/><rect x="16" y="2" width="1" height="1" fill="#000000"/><rect x="5" y="3" width="1" height="1" fill="#353535"/><rect x="6" y="3" width="1" height="1" fill="#9b9b9b"/><rect x="7" y="3" width="1" height="1" fill="#626262"/><rect x="8" y="3" width="1" height="1" fill="#9b9b9b"/><rect x="9" y="3" width="1" height="1" fill="#9b9b9b"/><rect x="10" y="3" width="1" height="1" fill="#353535"/><rect x="11" y="3" width="1" height="1" fill="#9b9b9b"/><rect x="12" y="3" width="1" height="1" fill="#9b9b9b"/><rect x="13" y="3" width="1" height="1" fill="#9b9b9b"/><rect x="14" y="3" width="1" height="1" fill="#000000"/><rect x="15" y="3" width="1" height="1" fill="#808080"/><rect x="16" y="3" width="1" height="1" fill="#353535"/><rect x="17" y="3" width="1" height="1" fill="#000000"/><rect x="4" y="4" width="1" height="1" fill="#000000"/><rect x="5" y="4" width="1" height="1" fill="#808080"/><rect x="6" y="4" width="1" height="1" fill="#626262"/><rect x="7" y="4" width="1" height="1" fill="#9b9b9b"/><rect x="8" y="4" width="1" height="1" fill="#9b9b9b"/><rect x="9" y="4" width="1" height="1" fill="#353535"/><rect x="10" y="4" width="1" height="1" fill="#808080"/><rect x="11" y="4" width="1" height="1" fill="#808080"/><rect x="12" y="4" width="1" height="1" fill="#808080"/><rect x="13" y="4" width="1" height="1" fill="#000000"/><rect x="14" y="4" width="1" height="1" fill="#353535"/><rect x="15" y="4" width="1" height="1" fill="#808080"/><rect x="16" y="4" width="1" height="1" fill="#353535"/><rect x="17" y="4" width="1" height="1" fill="#000000"/><rect x="4" y="5" width="1" height="1" fill="#000000"/><rect x="5" y="5" width="1" height="1" fill="#626262"/><rect x="6" y="5" width="1" height="1" fill="#9b9b9b"/><rect x="7" y="5" width="1" height="1" fill="#626262"/><rect x="8" y="5" width="1" height="1" fill="#808080"/><rect x="9" y="5" width="1" height="1" fill="#353535"/><rect x="10" y="5" width="1" height="1" fill="#808080"/><rect x="11" y="5" width="1" height="1" fill="#000000"/><rect x="12" y="5" width="1" height="1" fill="#000000"/><rect x="13" y="5" width="1" height="1" fill="#353535"/><rect x="14" y="5" width="1" height="1" fill="#5b5b5b"/><rect x="15" y="5" width="1" height="1" fill="#000000"/><rect x="16" y="5" width="1" height="1" fill="#353535"/><rect x="17" y="5" width="1" height="1" fill="#000000"/><rect x="3" y="6" width="1" height="1" fill="#000000"/><rect x="4" y="6" width="1" height="1" fill="#353535"/><rect x="5" y="6" width="1" height="1" fill="#626262"/><rect x="6" y="6" width="1" height="1" fill="#626262"/><rect x="7" y="6" width="1" height="1" fill="#626262"/><rect x="8" y="6" width="1" height="1" fill="#353535"/><rect x="9" y="6" width="1" height="1" fill="#000000"/><rect x="10" y="6" width="1" height="1" fill="#000000"/><rect x="11" y="6" width="1" height="1" fill="#5b5b5b"/><rect x="12" y="6" width="1" height="1" fill="#5b5b5b"/><rect x="13" y="6" width="1" height="1" fill="#969696"/><rect x="14" y="6" width="1" height="1" fill="#5b5b5b"/><rect x="15" y="6" width="1" height="1" fill="#353535"/><rect x="16" y="6" width="1" height="1" fill="#353535"/><rect x="17" y="6" width="1" height="1" fill="#000000"/><rect x="3" y="7" width="1" height="1" fill="#000000"/><rect x="4" y="7" width="1" height="1" fill="#626262"/><rect x="5" y="7" width="1" height="1" fill="#626262"/><rect x="6" y="7" width="1" height="1" fill="#626262"/><rect x="7" y="7" width="1" height="1" fill="#353535"/><rect x="8" y="7" width="1" height="1" fill="#000000"/><rect x="9" y="7" width="1" height="1" fill="#000000"/><rect x="10" y="7" width="1" height="1" fill="#000000"/><rect x="11" y="7" width="1" height="1" fill="#000000"/><rect x="12" y="7" width="1" height="1" fill="#969696"/><rect x="13" y="7" width="1" height="1" fill="#969696"/><rect x="14" y="7" width="1" height="1" fill="#000000"/><rect x="15" y="7" width="1" height="1" fill="#000000"/><rect x="16" y="7" width="1" height="1" fill="#353535"/><rect x="17" y="7" width="1" height="1" fill="#000000"/><rect x="3" y="8" width="1" height="1" fill="#000000"/><rect x="4" y="8" width="1" height="1" fill="#626262"/><rect x="5" y="8" width="1" height="1" fill="#626262"/><rect x="6" y="8" width="1" height="1" fill="#353535"/><rect x="7" y="8" width="1" height="1" fill="#626262"/><rect x="8" y="8" width="1" height="1" fill="#969696"/><rect x="9" y="8" width="1" height="1" fill="#ffffff"/><rect x="10" y="8" width="1" height="1" fill="#000000"/><rect x="11" y="8" width="1" height="1" fill="#000000"/><rect x="12" y="8" width="1" height="1" fill="#dadada"/><rect x="13" y="8" width="1" height="1" fill="#dadada"/><rect x="14" y="8" width="1" height="1" fill="#000000"/><rect x="15" y="8" width="1" height="1" fill="#ffffff"/><rect x="16" y="8" width="1" height="1" fill="#000000"/><rect x="3" y="9" width="1" height="1" fill="#7a7a7a"/><rect x="4" y="9" width="1" height="1" fill="#7a7a7a"/><rect x="5" y="9" width="1" height="1" fill="#353535"/><rect x="6" y="9" width="1" height="1" fill="#626262"/><rect x="7" y="9" width="1" height="1" fill="#626262"/><rect x="8" y="9" width="1" height="1" fill="#353535"/><rect x="9" y="9" width="1" height="1" fill="#ffffff"/><rect x="10" y="9" width="1" height="1" fill="#7a7a7a"/><rect x="11" y="9" width="1" height="1" fill="#7a7a7a"/><rect x="12" y="9" width="1" height="1" fill="#dadada"/><rect x="13" y="9" width="1" height="1" fill="#dadada"/><rect x="14" y="9" width="1" height="1" fill="#7a7a7a"/><rect x="15" y="9" width="1" height="1" fill="#dadada"/><rect x="16" y="9" width="1" height="1" fill="#000000"/><rect x="18" y="9" width="1" height="1" fill="#7a7a7a"/><rect x="19" y="9" width="1" height="1" fill="#7a7a7a"/><rect x="2" y="10" width="1" height="1" fill="#7a7a7a"/><rect x="3" y="10" width="1" height="1" fill="#000000"/><rect x="4" y="10" width="1" height="1" fill="#000000"/><rect x="5" y="10" width="1" height="1" fill="#353535"/><rect x="6" y="10" width="1" height="1" fill="#626262"/><rect x="7" y="10" width="1" height="1" fill="#626262"/><rect x="8" y="10" width="1" height="1" fill="#353535"/><rect x="9" y="10" width="1" height="1" fill="#353535"/><rect x="10" y="10" width="1" height="1" fill="#969696"/><rect x="11" y="10" width="1" height="1" fill="#dadada"/><rect x="12" y="10" width="1" height="1" fill="#dadada"/><rect x="13" y="10" width="1" height="1" fill="#dadada"/><rect x="14" y="10" width="1" height="1" fill="#969696"/><rect x="15" y="10" width="1" height="1" fill="#000000"/><rect x="16" y="10" width="1" height="1" fill="#000000"/><rect x="17" y="10" width="1" height="1" fill="#000000"/><rect x="18" y="10" width="1" height="1" fill="#353535"/><rect x="19" y="10" width="1" height="1" fill="#353535"/><rect x="20" y="10" width="1" height="1" fill="#7a7a7a"/><rect x="1" y="11" width="1" height="1" fill="#7a7a7a"/><rect x="2" y="11" width="1" height="1" fill="#000000"/><rect x="3" y="11" width="1" height="1" fill="#dadada"/><rect x="4" y="11" width="1" height="1" fill="#dadada"/><rect x="5" y="11" width="1" height="1" fill="#000000"/><rect x="6" y="11" width="1" height="1" fill="#000000"/><rect x="7" y="11" width="1" height="1" fill="#353535"/><rect x="8" y="11" width="1" height="1" fill="#353535"/><rect x="9" y="11" width="1" height="1" fill="#353535"/><rect x="10" y="11" width="1" height="1" fill="#353535"/><rect x="11" y="11" width="1" height="1" fill="#353535"/><rect x="12" y="11" width="1" height="1" fill="#353535"/><rect x="13" y="11" width="1" height="1" fill="#000000"/><rect x="14" y="11" width="1" height="1" fill="#000000"/><rect x="15" y="11" width="1" height="1" fill="#000000"/><rect x="16" y="11" width="1" height="1" fill="#000000"/><rect x="17" y="11" width="1" height="1" fill="#353535"/><rect x="18" y="11" width="1" height="1" fill="#969696"/><rect x="19" y="11" width="1" height="1" fill="#dadada"/><rect x="20" y="11" width="1" height="1" fill="#353535"/><rect x="21" y="11" width="1" height="1" fill="#7a7a7a"/><rect x="1" y="12" width="1" height="1" fill="#7a7a7a"/><rect x="2" y="12" width="1" height="1" fill="#000000"/><rect x="3" y="12" width="1" height="1" fill="#969696"/><rect x="4" y="12" width="1" height="1" fill="#dadada"/><rect x="5" y="12" width="1" height="1" fill="#cbcbcb"/><rect x="6" y="12" width="1" height="1" fill="#3b3b3b"/><rect x="7" y="12" width="1" height="1" fill="#3b3b3b"/><rect x="8" y="12" width="1" height="1" fill="#3b3b3b"/><rect x="9" y="12" width="1" height="1" fill="#3b3b3b"/><rect x="10" y="12" width="1" height="1" fill="#636363"/><rect x="11" y="12" width="1" height="1" fill="#969696"/><rect x="12" y="12" width="1" height="1" fill="#969696"/><rect x="13" y="12" width="1" height="1" fill="#636363"/><rect x="14" y="12" width="1" height="1" fill="#353535"/><rect x="15" y="12" width="1" height="1" fill="#3b3b3b"/><rect x="16" y="12" width="1" height="1" fill="#3b3b3b"/><rect x="17" y="12" width="1" height="1" fill="#cbcbcb"/><rect x="18" y="12" width="1" height="1" fill="#dadada"/><rect x="19" y="12" width="1" height="1" fill="#969696"/><rect x="20" y="12" width="1" height="1" fill="#353535"/><rect x="21" y="12" width="1" height="1" fill="#7a7a7a"/><rect x="2" y="13" width="1" height="1" fill="#7a7a7a"/><rect x="3" y="13" width="1" height="1" fill="#000000"/><rect x="4" y="13" width="1" height="1" fill="#3b3b3b"/><rect x="5" y="13" width="1" height="1" fill="#cbcbcb"/><rect x="6" y="13" width="1" height="1" fill="#959595"/><rect x="7" y="13" width="1" height="1" fill="#3b3b3b"/><rect x="8" y="13" width="1" height="1" fill="#3b3b3b"/><rect x="9" y="13" width="1" height="1" fill="#636363"/><rect x="10" y="13" width="1" height="1" fill="#959595"/><rect x="11" y="13" width="1" height="1" fill="#dadada"/><rect x="12" y="13" width="1" height="1" fill="#969696"/><rect x="13" y="13" width="1" height="1" fill="#dadada"/><rect x="14" y="13" width="1" height="1" fill="#3b3b3b"/><rect x="15" y="13" width="1" height="1" fill="#3b3b3b"/><rect x="16" y="13" width="1" height="1" fill="#959595"/><rect x="17" y="13" width="1" height="1" fill="#cbcbcb"/><rect x="18" y="13" width="1" height="1" fill="#3b3b3b"/><rect x="19" y="13" width="1" height="1" fill="#353535"/><rect x="20" y="13" width="1" height="1" fill="#7a7a7a"/><rect x="3" y="14" width="1" height="1" fill="#000000"/><rect x="4" y="14" width="1" height="1" fill="#cbcbcb"/><rect x="5" y="14" width="1" height="1" fill="#959595"/><rect x="6" y="14" width="1" height="1" fill="#959595"/><rect x="7" y="14" width="1" height="1" fill="#636363"/><rect x="8" y="14" width="1" height="1" fill="#3b3b3b"/><rect x="9" y="14" width="1" height="1" fill="#3b3b3b"/><rect x="10" y="14" width="1" height="1" fill="#959595"/><rect x="11" y="14" width="1" height="1" fill="#959595"/><rect x="12" y="14" width="1" height="1" fill="#636363"/><rect x="13" y="14" width="1" height="1" fill="#959595"/><rect x="14" y="14" width="1" height="1" fill="#636363"/><rect x="15" y="14" width="1" height="1" fill="#3b3b3b"/><rect x="16" y="14" width="1" height="1" fill="#636363"/><rect x="17" y="14" width="1" height="1" fill="#959595"/><rect x="18" y="14" width="1" height="1" fill="#cbcbcb"/><rect x="19" y="14" width="1" height="1" fill="#000000"/><rect x="3" y="15" width="1" height="1" fill="#000000"/><rect x="4" y="15" width="1" height="1" fill="#cbcbcb"/><rect x="5" y="15" width="1" height="1" fill="#000000"/><rect x="6" y="15" width="1" height="1" fill="#000000"/><rect x="7" y="15" width="1" height="1" fill="#000000"/><rect x="8" y="15" width="1" height="1" fill="#000000"/><rect x="9" y="15" width="1" height="1" fill="#000000"/><rect x="10" y="15" width="1" height="1" fill="#3b3b3b"/><rect x="11" y="15" width="1" height="1" fill="#3b3b3b"/><rect x="12" y="15" width="1" height="1" fill="#000000"/><rect x="13" y="15" width="1" height="1" fill="#3b3b3b"/><rect x="14" y="15" width="1" height="1" fill="#000000"/><rect x="16" y="15" width="1" height="1" fill="#000000"/><rect x="17" y="15" width="1" height="1" fill="#000000"/><rect x="18" y="15" width="1" height="1" fill="#cbcbcb"/><rect x="19" y="15" width="1" height="1" fill="#000000"/><rect x="4" y="16" width="1" height="1" fill="#000000"/><rect x="5" y="16" width="1" height="1" fill="#353535"/><rect x="6" y="16" width="1" height="1" fill="#626262"/><rect x="7" y="16" width="1" height="1" fill="#626262"/><rect x="8" y="16" width="1" height="1" fill="#3b3b3b"/><rect x="9" y="16" width="1" height="1" fill="#000000"/><rect x="10" y="16" width="1" height="1" fill="#000000"/><rect x="11" y="16" width="1" height="1" fill="#000000"/><rect x="12" y="16" width="1" height="1" fill="#000000"/><rect x="13" y="16" width="1" height="1" fill="#000000"/><rect x="14" y="16" width="1" height="1" fill="#000000"/><rect x="18" y="16" width="1" height="1" fill="#000000"/><rect x="5" y="17" width="1" height="1" fill="#353535"/><rect x="6" y="17" width="1" height="1" fill="#626262"/><rect x="7" y="17" width="1" height="1" fill="#626262"/><rect x="8" y="17" width="1" height="1" fill="#3b3b3b"/><rect x="9" y="17" width="1" height="1" fill="#000000"/><rect x="10" y="17" width="1" height="1" fill="#3b3b3b"/><rect x="11" y="17" width="1" height="1" fill="#636363"/><rect x="12" y="17" width="1" height="1" fill="#636363"/><rect x="13" y="17" width="1" height="1" fill="#636363"/><rect x="14" y="17" width="1" height="1" fill="#636363"/><rect x="15" y="17" width="1" height="1" fill="#3b3b3b"/><rect x="6" y="18" width="1" height="1" fill="#353535"/><rect x="7" y="18" width="1" height="1" fill="#3b3b3b"/><rect x="8" y="18" width="1" height="1" fill="#636363"/><rect x="9" y="18" width="1" height="1" fill="#000000"/><rect x="10" y="18" width="1" height="1" fill="#636363"/><rect x="11" y="18" width="1" height="1" fill="#959595"/><rect x="12" y="18" width="1" height="1" fill="#959595"/><rect x="13" y="18" width="1" height="1" fill="#959595"/><rect x="14" y="18" width="1" height="1" fill="#959595"/><rect x="15" y="18" width="1" height="1" fill="#3b3b3b"/><rect x="6" y="19" width="1" height="1" fill="#3b3b3b"/><rect x="7" y="19" width="1" height="1" fill="#636363"/><rect x="8" y="19" width="1" height="1" fill="#969696"/><rect x="9" y="19" width="1" height="1" fill="#3b3b3b"/><rect x="10" y="19" width="1" height="1" fill="#959595"/><rect x="11" y="19" width="1" height="1" fill="#959595"/><rect x="12" y="19" width="1" height="1" fill="#959595"/><rect x="13" y="19" width="1" height="1" fill="#959595"/><rect x="14" y="19" width="1" height="1" fill="#959595"/><rect x="15" y="19" width="1" height="1" fill="#cbcbcb"/><rect x="16" y="19" width="1" height="1" fill="#3b3b3b"/><rect x="6" y="20" width="1" height="1" fill="#3b3b3b"/><rect x="7" y="20" width="1" height="1" fill="#636363"/><rect x="8" y="20" width="1" height="1" fill="#dadada"/><rect x="9" y="20" width="1" height="1" fill="#636363"/><rect x="10" y="20" width="1" height="1" fill="#cbcbcb"/><rect x="11" y="20" width="1" height="1" fill="#cbcbcb"/><rect x="12" y="20" width="1" height="1" fill="#cbcbcb"/><rect x="13" y="20" width="1" height="1" fill="#cbcbcb"/><rect x="14" y="20" width="1" height="1" fill="#3b3b3b"/><rect x="15" y="20" width="1" height="1" fill="#353535"/><rect x="16" y="20" width="1" height="1" fill="#636363"/><rect x="4" y="21" width="1" height="1" fill="#000000"/><rect x="5" y="21" width="1" height="1" fill="#000000"/><rect x="6" y="21" width="1" height="1" fill="#000000"/><rect x="7" y="21" width="1" height="1" fill="#dadada"/><rect x="8" y="21" width="1" height="1" fill="#353535"/><rect x="9" y="21" width="1" height="1" fill="#000000"/><rect x="10" y="21" width="1" height="1" fill="#000000"/><rect x="11" y="21" width="1" height="1" fill="#000000"/><rect x="12" y="21" width="1" height="1" fill="#000000"/><rect x="13" y="21" width="1" height="1" fill="#000000"/><rect x="14" y="21" width="1" height="1" fill="#000000"/><rect x="15" y="21" width="1" height="1" fill="#969696"/><rect x="16" y="21" width="1" height="1" fill="#000000"/><rect x="17" y="21" width="1" height="1" fill="#000000"/><rect x="18" y="21" width="1" height="1" fill="#000000"/><rect x="4" y="22" width="1" height="1" fill="#000000"/><rect x="5" y="22" width="1" height="1" fill="#000000"/><rect x="6" y="22" width="1" height="1" fill="#353535"/><rect x="7" y="22" width="1" height="1" fill="#969696"/><rect x="8" y="22" width="1" height="1" fill="#000000"/><rect x="9" y="22" width="1" height="1" fill="#000000"/><rect x="10" y="22" width="1" height="1" fill="#000000"/><rect x="11" y="22" width="1" height="1" fill="#000000"/><rect x="12" y="22" width="1" height="1" fill="#000000"/><rect x="13" y="22" width="1" height="1" fill="#000000"/><rect x="14" y="22" width="1" height="1" fill="#000000"/><rect x="15" y="22" width="1" height="1" fill="#000000"/><rect x="16" y="22" width="1" height="1" fill="#000000"/><rect x="17" y="22" width="1" height="1" fill="#000000"/><rect x="18" y="22" width="1" height="1" fill="#000000"/><rect x="6" y="23" width="1" height="1" fill="#000000"/><rect x="7" y="23" width="1" height="1" fill="#000000"/><rect x="8" y="23" width="1" height="1" fill="#000000"/><rect x="9" y="23" width="1" height="1" fill="#000000"/><rect x="10" y="23" width="1" height="1" fill="#000000"/><rect x="11" y="23" width="1" height="1" fill="#000000"/><rect x="12" y="23" width="1" height="1" fill="#000000"/><rect x="13" y="23" width="1" height="1" fill="#000000"/><rect x="14" y="23" width="1" height="1" fill="#000000"/><rect x="15" y="23" width="1" height="1" fill="#000000"/><rect x="16" y="23" width="1" height="1" fill="#000000"/></svg>