<svg version="1.1" xmlns="http://www.w3.org/2000/svg" xmlns:xlink="http://www.w3.org/1999/xlink" shape-rendering="crispEdges" width="24" height="24" viewBox="0 0 24 24"><path fill="rgb(255,255,255)" d="M0,0h1v24h-1ZM22,0h2v24h-2Z"/><path fill="rgb(93,53,13)" d="M8,0h6v1h-6ZM6,1h2v1h-2ZM14,1h2v2h-2ZM5,2h1v2h-1ZM10,3h1v1h-1ZM16,3h1v3h-1ZM9,4h1v2h-1ZM14,4h1v1h-1ZM13,5h1v1h-1ZM4,6h1v1h-1ZM8,6h1v1h-1ZM15,6h2v1h-2ZM7,7h1v1h-1ZM16,7h1v1h-1ZM6,8h1v1h-1ZM5,9h1v2h-1ZM8,9h1v1h-1ZM8,10h2v1h-2ZM18,10h2v1h-2ZM7,11h6v1h-6ZM17,11h1v1h-1ZM20,11h1v2h-1ZM14,12h1v1h-1ZM19,13h1v1h-1ZM5,16h1v2h-1ZM6,18h1v1h-1ZM15,20h1v1h-1ZM8,21h1v1h-1ZM6,22h1v1h-1Z"/><path fill="rgb(195,163,107)" d="M8,1h1v1h-1ZM10,1h1v1h-1ZM7,2h1v1h-1ZM9,2h2v1h-2ZM12,2h2v1h-2ZM6,3h1v1h-1ZM8,3h2v1h-2ZM11,3h3v1h-3ZM7,4h2v1h-2ZM6,5h1v1h-1Z"/><path fill="rgb(171,132,81)" d="M9,1h1v1h-1ZM11,1h1v1h-1ZM13,1h1v1h-1ZM8,2h1v1h-1ZM15,3h1v2h-1ZM5,4h1v1h-1ZM10,4h3v1h-3ZM8,5h1v1h-1ZM10,5h1v1h-1Z"/><path fill="rgb(138,102,56)" d="M12,1h1v1h-1ZM6,2h1v1h-1ZM11,2h1v1h-1ZM7,3h1v1h-1ZM6,4h1v1h-1ZM5,5h1v1h-1ZM7,5h1v1h-1ZM5,6h3v1h-3ZM4,7h3v1h-3ZM4,8h2v1h-2ZM7,8h1v1h-1ZM6,9h2v2h-2ZM6,16h2v2h-2Z"/><path fill="rgb(0,0,0)" d="M16,2h1v1h-1ZM14,3h1v1h-1ZM17,3h1v5h-1ZM4,4h1v2h-1ZM13,4h1v1h-1ZM11,5h2v1h-2ZM15,5h1v1h-1ZM3,6h1v3h-1ZM9,6h2v1h-2ZM8,7h4v1h-4ZM14,7h2v1h-2ZM10,8h2v1h-2ZM14,8h1v1h-1ZM16,8h1v2h-1ZM3,10h2v1h-2ZM15,10h3v1h-3ZM2,11h1v2h-1ZM5,11h2v1h-2ZM13,11h4v1h-4ZM3,13h1v3h-1ZM19,14h1v2h-1ZM5,15h5v1h-5ZM12,15h1v1h-1ZM14,15h1v1h-1ZM16,15h2v1h-2ZM4,16h1v1h-1ZM9,16h6v1h-6ZM18,16h1v1h-1ZM9,17h1v2h-1ZM4,21h3v1h-3ZM9,21h6v1h-6ZM16,21h3v1h-3ZM4,22h2v1h-2ZM8,22h11v1h-11ZM6,23h11v1h-11Z"/><path fill="rgb(183,90,0)" d="M14,5h1v2h-1ZM11,6h2v1h-2Z"/><path fill="rgb(249,152,51)" d="M13,6h1v1h-1ZM12,7h2v1h-2ZM8,8h1v1h-1ZM10,10h1v1h-1ZM14,10h1v1h-1ZM18,11h1v1h-1ZM3,12h1v1h-1ZM11,12h2v1h-2ZM19,12h1v1h-1ZM12,13h1v1h-1ZM8,19h1v1h-1ZM15,21h1v1h-1ZM7,22h1v1h-1Z"/><path fill="rgb(255,255,255)" d="M9,8h1v2h-1ZM15,8h1v1h-1Z"/><path fill="rgb(255,245,155)" d="M12,8h2v2h-2ZM15,9h1v1h-1ZM11,10h3v1h-3ZM3,11h2v1h-2ZM19,11h1v1h-1ZM4,12h1v1h-1ZM18,12h1v1h-1ZM11,13h1v1h-1ZM13,13h1v1h-1ZM8,20h1v1h-1ZM7,21h1v1h-1Z"/><path fill="rgb(219,36,113)" d="M3,9h2v1h-2ZM10,9h2v1h-2ZM14,9h1v1h-1ZM18,9h2v1h-2ZM2,10h1v1h-1ZM20,10h1v1h-1ZM1,11h1v2h-1ZM21,11h1v2h-1ZM2,13h1v1h-1ZM6,13h1v1h-1ZM10,13h1v1h-1ZM16,13h1v1h-1ZM20,13h1v1h-1ZM5,14h2v1h-2ZM10,14h2v1h-2ZM13,14h1v1h-1ZM17,14h1v1h-1ZM11,18h4v1h-4ZM10,19h5v1h-5Z"/><path fill="rgb(244,158,156)" d="M5,12h1v2h-1ZM17,12h1v2h-1ZM4,14h1v2h-1ZM18,14h1v2h-1ZM15,19h1v1h-1ZM10,20h4v1h-4Z"/><path fill="rgb(95,5,120)" d="M6,12h4v1h-4ZM15,12h2v1h-2ZM4,13h1v1h-1ZM7,13h2v1h-2ZM14,13h2v1h-2ZM18,13h1v1h-1ZM8,14h2v1h-2ZM15,14h1v1h-1ZM10,15h2v1h-2ZM13,15h1v1h-1ZM8,16h1v2h-1ZM10,17h1v1h-1ZM15,17h1v2h-1ZM7,18h1v1h-1ZM6,19h1v2h-1ZM9,19h1v1h-1ZM16,19h1v1h-1ZM14,20h1v1h-1Z"/><path fill="rgb(161,0,112)" d="M10,12h1v1h-1ZM13,12h1v1h-1ZM9,13h1v1h-1ZM7,14h1v1h-1ZM12,14h1v1h-1ZM14,14h1v1h-1ZM16,14h1v1h-1ZM11,17h4v1h-4ZM8,18h1v1h-1ZM10,18h1v1h-1ZM7,19h1v2h-1ZM9,20h1v1h-1ZM16,20h1v1h-1Z"/></svg>