<svg version="1.1" xmlns="http://www.w3.org/2000/svg" xmlns:xlink="http://www.w3.org/1999/xlink" shape-rendering="crispEdges" width="6" height="7" viewBox="0 0 6 7"><path fill="rgb(41,52,74)" d="M0,0h5v1h-5Z"/><path fill="rgb(247,243,247)" d="M1,1h4v1h-4Z"/><path fill="rgb(206,219,247)" d="M1,2h1v1h-1ZM4,2h1v1h-1Z"/><path fill="rgb(140,0,115)" d="M2,2h2v1h-2Z"/><path fill="rgb(165,178,206)" d="M1,3h1v2h-1ZM4,3h1v2h-1Z"/><path fill="rgb(189,0,115)" d="M2,3h2v1h-2Z"/><path fill="rgb(231,0,115)" d="M2,4h2v1h-2Z"/><path fill="rgb(0,0,0)" d="M0,5h1v1h-1ZM5,5h1v1h-1ZM0,6h2v1h-2ZM4,6h2v1h-2Z"/><path fill="rgb(115,138,173)" d="M2,5h2v1h-2Z"/></svg>