<svg version="1.1" xmlns="http://www.w3.org/2000/svg" width="24" height="24" viewBox="0 0 24 24" shape-rendering="crispEdges"><rect x="11" y="1" width="1" height="1" fill="#db2471"/><rect x="10" y="2" width="1" height="1" fill="#8f003c"/><rect x="11" y="2" width="1" height="1" fill="#faf8cc"/><rect x="12" y="2" width="1" height="1" fill="#ea5f9e"/><rect x="9" y="3" width="1" height="1" fill="#8f003c"/><rect x="10" y="3" width="1" height="1" fill="#ff9eca"/><rect x="11" y="3" width="1" height="1" fill="#faf8cc"/><rect x="12" y="3" width="1" height="1" fill="#faf8cc"/><rect x="13" y="3" width="1" height="1" fill="#ea5f9e"/><rect x="9" y="4" width="1" height="1" fill="#8f003c"/><rect x="10" y="4" width="1" height="1" fill="#ff9eca"/><rect x="11" y="4" width="1" height="1" fill="#faf8cc"/><rect x="12" y="4" width="1" height="1" fill="#faf8cc"/><rect x="13" y="4" width="1" height="1" fill="#ea5f9e"/><rect x="8" y="5" width="1" height="1" fill="#8f003c"/><rect x="9" y="5" width="1" height="1" fill="#ff9eca"/><rect x="10" y="5" width="1" height="1" fill="#cf55c2"/><rect x="11" y="5" width="1" height="1" fill="#faf8cc"/><rect x="12" y="5" width="1" height="1" fill="#faf8cc"/><rect x="13" y="5" width="1" height="1" fill="#faf8cc"/><rect x="14" y="5" width="1" height="1" fill="#ea5f9e"/><rect x="8" y="6" width="1" height="1" fill="#8f003c"/><rect x="9" y="6" width="1" height="1" fill="#ff9eca"/><rect x="10" y="6" width="1" height="1" fill="#cf55c2"/><rect x="11" y="6" width="1" height="1" fill="#faf8cc"/><rect x="12" y="6" width="1" height="1" fill="#faf8cc"/><rect x="13" y="6" width="1" height="1" fill="#faf8cc"/><rect x="14" y="6" width="1" height="1" fill="#ea5f9e"/><rect x="7" y="7" width="1" height="1" fill="#8f003c"/><rect x="8" y="7" width="1" height="1" fill="#ff9eca"/><rect x="9" y="7" width="1" height="1" fill="#cf55c2"/><rect x="10" y="7" width="1" height="1" fill="#cf55c2"/><rect x="11" y="7" width="1" height="1" fill="#faf8cc"/><rect x="12" y="7" width="1" height="1" fill="#faf8cc"/><rect x="13" y="7" width="1" height="1" fill="#faf8cc"/><rect x="14" y="7" width="1" height="1" fill="#faf8cc"/><rect x="15" y="7" width="1" height="1" fill="#ea5f9e"/><rect x="7" y="8" width="1" height="1" fill="#8f003c"/><rect x="8" y="8" width="1" height="1" fill="#ff9eca"/><rect x="9" y="8" width="1" height="1" fill="#cf55c2"/><rect x="10" y="8" width="1" height="1" fill="#cf55c2"/><rect x="11" y="8" width="1" height="1" fill="#faf8cc"/><rect x="12" y="8" width="1" height="1" fill="#faf8cc"/><rect x="13" y="8" width="1" height="1" fill="#faf8cc"/><rect x="14" y="8" width="1" height="1" fill="#faf8cc"/><rect x="15" y="8" width="1" height="1" fill="#ea5f9e"/><rect x="6" y="9" width="1" height="1" fill="#8f003c"/><rect x="7" y="9" width="1" height="1" fill="#ea5f9e"/><rect x="8" y="9" width="1" height="1" fill="#853f99"/><rect x="9" y="9" width="1" height="1" fill="#cf55c2"/><rect x="10" y="9" width="1" height="1" fill="#cf55c2"/><rect x="11" y="9" width="1" height="1" fill="#faf8cc"/><rect x="12" y="9" width="1" height="1" fill="#faf8cc"/><rect x="13" y="9" width="1" height="1" fill="#faf8cc"/><rect x="14" y="9" width="1" height="1" fill="#ff9eca"/><rect x="15" y="9" width="1" height="1" fill="#faf8cc"/><rect x="16" y="9" width="1" height="1" fill="#db2471"/><rect x="6" y="10" width="1" height="1" fill="#8f003c"/><rect x="7" y="10" width="1" height="1" fill="#ea5f9e"/><rect x="8" y="10" width="1" height="1" fill="#853f99"/><rect x="9" y="10" width="1" height="1" fill="#cf55c2"/><rect x="10" y="10" width="1" height="1" fill="#cf55c2"/><rect x="11" y="10" width="1" height="1" fill="#faf8cc"/><rect x="12" y="10" width="1" height="1" fill="#ff9eca"/><rect x="13" y="10" width="1" height="1" fill="#ff9eca"/><rect x="14" y="10" width="1" height="1" fill="#ff9eca"/><rect x="15" y="10" width="1" height="1" fill="#ff9eca"/><rect x="16" y="10" width="1" height="1" fill="#db2471"/><rect x="5" y="11" width="1" height="1" fill="#8f003c"/><rect x="6" y="11" width="1" height="1" fill="#ea5f9e"/><rect x="7" y="11" width="1" height="1" fill="#853f99"/><rect x="8" y="11" width="1" height="1" fill="#cf55c2"/><rect x="9" y="11" width="1" height="1" fill="#cf55c2"/><rect x="10" y="11" width="1" height="1" fill="#cf55c2"/><rect x="11" y="11" width="1" height="1" fill="#faf8cc"/><rect x="12" y="11" width="1" height="1" fill="#ff9eca"/><rect x="13" y="11" width="1" height="1" fill="#ff9eca"/><rect x="14" y="11" width="1" height="1" fill="#ea5f9e"/><rect x="15" y="11" width="1" height="1" fill="#ea5f9e"/><rect x="16" y="11" width="1" height="1" fill="#ff9eca"/><rect x="17" y="11" width="1" height="1" fill="#db2471"/><rect x="5" y="12" width="1" height="1" fill="#8f003c"/><rect x="6" y="12" width="1" height="1" fill="#ea5f9e"/><rect x="7" y="12" width="1" height="1" fill="#853f99"/><rect x="8" y="12" width="1" height="1" fill="#cf55c2"/><rect x="9" y="12" width="1" height="1" fill="#cf55c2"/><rect x="10" y="12" width="1" height="1" fill="#cf55c2"/><rect x="11" y="12" width="1" height="1" fill="#faf8cc"/><rect x="12" y="12" width="1" height="1" fill="#ea5f9e"/><rect x="13" y="12" width="1" height="1" fill="#ea5f9e"/><rect x="14" y="12" width="1" height="1" fill="#ea5f9e"/><rect x="15" y="12" width="1" height="1" fill="#d42071"/><rect x="16" y="12" width="1" height="1" fill="#ff9eca"/><rect x="17" y="12" width="1" height="1" fill="#db2471"/><rect x="4" y="13" width="1" height="1" fill="#8f003c"/><rect x="5" y="13" width="1" height="1" fill="#ea5f9e"/><rect x="6" y="13" width="1" height="1" fill="#853f99"/><rect x="7" y="13" width="1" height="1" fill="#853f99"/><rect x="8" y="13" width="1" height="1" fill="#cf55c2"/><rect x="9" y="13" width="1" height="1" fill="#cf55c2"/><rect x="10" y="13" width="1" height="1" fill="#cf55c2"/><rect x="11" y="13" width="1" height="1" fill="#faf8cc"/><rect x="12" y="13" width="1" height="1" fill="#d42071"/><rect x="13" y="13" width="1" height="1" fill="#d42071"/><rect x="14" y="13" width="1" height="1" fill="#d42071"/><rect x="15" y="13" width="1" height="1" fill="#d42071"/><rect x="16" y="13" width="1" height="1" fill="#d42071"/><rect x="17" y="13" width="1" height="1" fill="#ff9eca"/><rect x="18" y="13" width="1" height="1" fill="#db2471"/><rect x="4" y="14" width="1" height="1" fill="#8f003c"/><rect x="5" y="14" width="1" height="1" fill="#ea5f9e"/><rect x="6" y="14" width="1" height="1" fill="#853f99"/><rect x="7" y="14" width="1" height="1" fill="#853f99"/><rect x="8" y="14" width="1" height="1" fill="#cf55c2"/><rect x="9" y="14" width="1" height="1" fill="#cf55c2"/><rect x="10" y="14" width="1" height="1" fill="#cf55c2"/><rect x="11" y="14" width="1" height="1" fill="#faf8cc"/><rect x="12" y="14" width="1" height="1" fill="#d42071"/><rect x="13" y="14" width="1" height="1" fill="#d42071"/><rect x="14" y="14" width="1" height="1" fill="#d42071"/><rect x="15" y="14" width="1" height="1" fill="#d42071"/><rect x="16" y="14" width="1" height="1" fill="#d42071"/><rect x="17" y="14" width="1" height="1" fill="#ff9eca"/><rect x="18" y="14" width="1" height="1" fill="#db2471"/><rect x="3" y="15" width="1" height="1" fill="#8f003c"/><rect x="4" y="15" width="1" height="1" fill="#ea5f9e"/><rect x="5" y="15" width="1" height="1" fill="#853f99"/><rect x="6" y="15" width="1" height="1" fill="#853f99"/><rect x="7" y="15" width="1" height="1" fill="#853f99"/><rect x="8" y="15" width="1" height="1" fill="#cf55c2"/><rect x="9" y="15" width="1" height="1" fill="#cf55c2"/><rect x="10" y="15" width="1" height="1" fill="#cf55c2"/><rect x="11" y="15" width="1" height="1" fill="#faf8cc"/><rect x="12" y="15" width="1" height="1" fill="#d42071"/><rect x="13" y="15" width="1" height="1" fill="#d42071"/><rect x="14" y="15" width="1" height="1" fill="#d42071"/><rect x="15" y="15" width="1" height="1" fill="#d42071"/><rect x="16" y="15" width="1" height="1" fill="#d42071"/><rect x="17" y="15" width="1" height="1" fill="#d42071"/><rect x="18" y="15" width="1" height="1" fill="#ff9eca"/><rect x="19" y="15" width="1" height="1" fill="#db2471"/><rect x="3" y="16" width="1" height="1" fill="#8f003c"/><rect x="4" y="16" width="1" height="1" fill="#ea5f9e"/><rect x="5" y="16" width="1" height="1" fill="#ea5f9e"/><rect x="6" y="16" width="1" height="1" fill="#ea5f9e"/><rect x="7" y="16" width="1" height="1" fill="#ea5f9e"/><rect x="8" y="16" width="1" height="1" fill="#cf55c2"/><rect x="9" y="16" width="1" height="1" fill="#cf55c2"/><rect x="10" y="16" width="1" height="1" fill="#ea5f9e"/><rect x="11" y="16" width="1" height="1" fill="#ff9eca"/><rect x="12" y="16" width="1" height="1" fill="#ea5f9e"/><rect x="13" y="16" width="1" height="1" fill="#d42071"/><rect x="14" y="16" width="1" height="1" fill="#ea5f9e"/><rect x="15" y="16" width="1" height="1" fill="#ea5f9e"/><rect x="16" y="16" width="1" height="1" fill="#ff9eca"/><rect x="17" y="16" width="1" height="1" fill="#ff9eca"/><rect x="18" y="16" width="1" height="1" fill="#ff9eca"/><rect x="19" y="16" width="1" height="1" fill="#db2471"/><rect x="3" y="17" width="1" height="1" fill="#853f99"/><rect x="4" y="17" width="1" height="1" fill="#ff9eca"/><rect x="5" y="17" width="1" height="1" fill="#853f99"/><rect x="6" y="17" width="1" height="1" fill="#853f99"/><rect x="7" y="17" width="1" height="1" fill="#853f99"/><rect x="8" y="17" width="1" height="1" fill="#ea5f9e"/><rect x="9" y="17" width="1" height="1" fill="#ff9eca"/><rect x="10" y="17" width="1" height="1" fill="#ff9eca"/><rect x="11" y="17" width="1" height="1" fill="#ff9eca"/><rect x="12" y="17" width="1" height="1" fill="#ff9eca"/><rect x="13" y="17" width="1" height="1" fill="#ff9eca"/><rect x="14" y="17" width="1" height="1" fill="#ff9eca"/><rect x="15" y="17" width="1" height="1" fill="#ff9eca"/><rect x="16" y="17" width="1" height="1" fill="#ea5f9e"/><rect x="17" y="17" width="1" height="1" fill="#ea5f9e"/><rect x="18" y="17" width="1" height="1" fill="#ea5f9e"/><rect x="19" y="17" width="1" height="1" fill="#8f003c"/><rect x="4" y="18" width="1" height="1" fill="#853f99"/><rect x="5" y="18" width="1" height="1" fill="#faf8cc"/><rect x="6" y="18" width="1" height="1" fill="#853f99"/><rect x="7" y="18" width="1" height="1" fill="#853f99"/><rect x="8" y="18" width="1" height="1" fill="#853f99"/><rect x="9" y="18" width="1" height="1" fill="#853f99"/><rect x="10" y="18" width="1" height="1" fill="#853f99"/><rect x="11" y="18" width="1" height="1" fill="#ff9eca"/><rect x="12" y="18" width="1" height="1" fill="#cf55c2"/><rect x="13" y="18" width="1" height="1" fill="#cf55c2"/><rect x="14" y="18" width="1" height="1" fill="#ea5f9e"/><rect x="15" y="18" width="1" height="1" fill="#ea5f9e"/><rect x="16" y="18" width="1" height="1" fill="#ea5f9e"/><rect x="17" y="18" width="1" height="1" fill="#ea5f9e"/><rect x="18" y="18" width="1" height="1" fill="#8f003c"/><rect x="5" y="19" width="1" height="1" fill="#853f99"/><rect x="6" y="19" width="1" height="1" fill="#faf8cc"/><rect x="7" y="19" width="1" height="1" fill="#853f99"/><rect x="8" y="19" width="1" height="1" fill="#853f99"/><rect x="9" y="19" width="1" height="1" fill="#853f99"/><rect x="10" y="19" width="1" height="1" fill="#853f99"/><rect x="11" y="19" width="1" height="1" fill="#ea5f9e"/><rect x="12" y="19" width="1" height="1" fill="#cf55c2"/><rect x="13" y="19" width="1" height="1" fill="#cf55c2"/><rect x="14" y="19" width="1" height="1" fill="#ea5f9e"/><rect x="15" y="19" width="1" height="1" fill="#ea5f9e"/><rect x="16" y="19" width="1" height="1" fill="#ea5f9e"/><rect x="17" y="19" width="1" height="1" fill="#8f003c"/><rect x="3" y="20" width="1" height="1" fill="#000000"/><rect x="4" y="20" width="1" height="1" fill="#000000"/><rect x="5" y="20" width="1" height="1" fill="#000000"/><rect x="6" y="20" width="1" height="1" fill="#853f99"/><rect x="7" y="20" width="1" height="1" fill="#faf8cc"/><rect x="8" y="20" width="1" height="1" fill="#853f99"/><rect x="9" y="20" width="1" height="1" fill="#853f99"/><rect x="10" y="20" width="1" height="1" fill="#853f99"/><rect x="11" y="20" width="1" height="1" fill="#ea5f9e"/><rect x="12" y="20" width="1" height="1" fill="#cf55c2"/><rect x="13" y="20" width="1" height="1" fill="#ea5f9e"/><rect x="14" y="20" width="1" height="1" fill="#ea5f9e"/><rect x="15" y="20" width="1" height="1" fill="#ea5f9e"/><rect x="16" y="20" width="1" height="1" fill="#8f003c"/><rect x="17" y="20" width="1" height="1" fill="#000000"/><rect x="18" y="20" width="1" height="1" fill="#000000"/><rect x="19" y="20" width="1" height="1" fill="#000000"/><rect x="2" y="21" width="1" height="1" fill="#000000"/><rect x="3" y="21" width="1" height="1" fill="#000000"/><rect x="4" y="21" width="1" height="1" fill="#000000"/><rect x="5" y="21" width="1" height="1" fill="#000000"/><rect x="6" y="21" width="1" height="1" fill="#000000"/><rect x="7" y="21" width="1" height="1" fill="#853f99"/><rect x="8" y="21" width="1" height="1" fill="#ff9eca"/><rect x="9" y="21" width="1" height="1" fill="#853f99"/><rect x="10" y="21" width="1" height="1" fill="#853f99"/><rect x="11" y="21" width="1" height="1" fill="#cf55c2"/><rect x="12" y="21" width="1" height="1" fill="#cf55c2"/><rect x="13" y="21" width="1" height="1" fill="#ea5f9e"/><rect x="14" y="21" width="1" height="1" fill="#d42071"/><rect x="15" y="21" width="1" height="1" fill="#8f003c"/><rect x="16" y="21" width="1" height="1" fill="#000000"/><rect x="17" y="21" width="1" height="1" fill="#000000"/><rect x="18" y="21" width="1" height="1" fill="#000000"/><rect x="19" y="21" width="1" height="1" fill="#000000"/><rect x="20" y="21" width="1" height="1" fill="#000000"/><rect x="3" y="22" width="1" height="1" fill="#000000"/><rect x="4" y="22" width="1" height="1" fill="#000000"/><rect x="5" y="22" width="1" height="1" fill="#000000"/><rect x="6" y="22" width="1" height="1" fill="#000000"/><rect x="7" y="22" width="1" height="1" fill="#000000"/><rect x="8" y="22" width="1" height="1" fill="#000000"/><rect x="9" y="22" width="1" height="1" fill="#000000"/><rect x="10" y="22" width="1" height="1" fill="#000000"/><rect x="11" y="22" width="1" height="1" fill="#000000"/><rect x="12" y="22" width="1" height="1" fill="#000000"/><rect x="13" y="22" width="1" height="1" fill="#000000"/><rect x="14" y="22" width="1" height="1" fill="#000000"/><rect x="15" y="22" width="1" height="1" fill="#000000"/><rect x="16" y="22" width="1" height="1" fill="#000000"/><rect x="17" y="22" width="1" height="1" fill="#000000"/><rect x="18" y="22" width="1" height="1" fill="#000000"/><rect x="19" y="22" width="1" height="1" fill="#000000"/><rect x="5" y="23" width="1" height="1" fill="#000000"/><rect x="6" y="23" width="1" height="1" fill="#000000"/><rect x="7" y="23" width="1" height="1" fill="#000000"/><rect x="8" y="23" width="1" height="1" fill="#000000"/><rect x="9" y="23" width="1" height="1" fill="#000000"/><rect x="10" y="23" width="1" height="1" fill="#000000"/><rect x="11" y="23" width="1" height="1" fill="#000000"/><rect x="12" y="23" width="1" height="1" fill="#000000"/><rect x="13" y="23" width="1" height="1" fill="#000000"/><rect x="14" y="23" width="1" height="1" fill="#000000"/><rect x="15" y="23" width="1" height="1" fill="#000000"/><rect x="16" y="23" width="1" height="1" fill="#000000"/><rect x="17" y="23" width="1" height="1" fill="#000000"/></svg>