<svg version="1.1" xmlns="http://www.w3.org/2000/svg" width="24" height="24" viewBox="0 0 24 24" shape-rendering="crispEdges"><rect x="8" y="2" width="1" height="1" fill="#0064c6"/><rect x="9" y="2" width="1" height="1" fill="#0064c6"/><rect x="10" y="2" width="1" height="1" fill="#0c3570"/><rect x="11" y="2" width="1" height="1" fill="#0c3570"/><rect x="12" y="2" width="1" height="1" fill="#0c3570"/><rect x="6" y="3" width="1" height="1" fill="#0064c6"/><rect x="7" y="3" width="1" height="1" fill="#0064c6"/><rect x="8" y="3" width="1" height="1" fill="#96d9f4"/><rect x="9" y="3" width="1" height="1" fill="#96d9f4"/><rect x="10" y="3" width="1" height="1" fill="#96d9f4"/><rect x="11" y="3" width="1" height="1" fill="#96d9f4"/><rect x="12" y="3" width="1" height="1" fill="#96d9f4"/><rect x="13" y="3" width="1" height="1" fill="#0c3570"/><rect x="14" y="3" width="1" height="1" fill="#0064c6"/><rect x="5" y="4" width="1" height="1" fill="#0064c6"/><rect x="6" y="4" width="1" height="1" fill="#4195e9"/><rect x="7" y="4" width="1" height="1" fill="#4195e9"/><rect x="8" y="4" width="1" height="1" fill="#96d9f4"/><rect x="9" y="4" width="1" height="1" fill="#96d9f4"/><rect x="10" y="4" width="1" height="1" fill="#96d9f4"/><rect x="11" y="4" width="1" height="1" fill="#ffffff"/><rect x="12" y="4" width="1" height="1" fill="#96d9f4"/><rect x="13" y="4" width="1" height="1" fill="#96d9f4"/><rect x="14" y="4" width="1" height="1" fill="#96d9f4"/><rect x="15" y="4" width="1" height="1" fill="#0064c6"/><rect x="5" y="5" width="1" height="1" fill="#0064c6"/><rect x="6" y="5" width="1" height="1" fill="#4195e9"/><rect x="7" y="5" width="1" height="1" fill="#4195e9"/><rect x="8" y="5" width="1" height="1" fill="#4195e9"/><rect x="9" y="5" width="1" height="1" fill="#406dea"/><rect x="10" y="5" width="1" height="1" fill="#0c3570"/><rect x="11" y="5" width="1" height="1" fill="#0c3570"/><rect x="12" y="5" width="1" height="1" fill="#ffffff"/><rect x="13" y="5" width="1" height="1" fill="#96d9f4"/><rect x="14" y="5" width="1" height="1" fill="#96d9f4"/><rect x="15" y="5" width="1" height="1" fill="#0c3570"/><rect x="4" y="6" width="1" height="1" fill="#0064c6"/><rect x="5" y="6" width="1" height="1" fill="#4195e9"/><rect x="6" y="6" width="1" height="1" fill="#4195e9"/><rect x="7" y="6" width="1" height="1" fill="#96d9f4"/><rect x="8" y="6" width="1" height="1" fill="#96d9f4"/><rect x="9" y="6" width="1" height="1" fill="#4195e9"/><rect x="10" y="6" width="1" height="1" fill="#96d9f4"/><rect x="11" y="6" width="1" height="1" fill="#ffffff"/><rect x="12" y="6" width="1" height="1" fill="#0c3570"/><rect x="13" y="6" width="1" height="1" fill="#0064c6"/><rect x="14" y="6" width="1" height="1" fill="#96d9f4"/><rect x="15" y="6" width="1" height="1" fill="#96d9f4"/><rect x="16" y="6" width="1" height="1" fill="#0064c6"/><rect x="4" y="7" width="1" height="1" fill="#0064c6"/><rect x="5" y="7" width="1" height="1" fill="#4195e9"/><rect x="6" y="7" width="1" height="1" fill="#4195e9"/><rect x="7" y="7" width="1" height="1" fill="#96d9f4"/><rect x="8" y="7" width="1" height="1" fill="#96d9f4"/><rect x="9" y="7" width="1" height="1" fill="#4195e9"/><rect x="10" y="7" width="1" height="1" fill="#4195e9"/><rect x="11" y="7" width="1" height="1" fill="#4195e9"/><rect x="12" y="7" width="1" height="1" fill="#4195e9"/><rect x="13" y="7" width="1" height="1" fill="#96d9f4"/><rect x="14" y="7" width="1" height="1" fill="#96d9f4"/><rect x="15" y="7" width="1" height="1" fill="#ffffff"/><rect x="16" y="7" width="1" height="1" fill="#96d9f4"/><rect x="17" y="7" width="1" height="1" fill="#0064c6"/><rect x="4" y="8" width="1" height="1" fill="#0c3570"/><rect x="5" y="8" width="1" height="1" fill="#4195e9"/><rect x="6" y="8" width="1" height="1" fill="#4195e9"/><rect x="7" y="8" width="1" height="1" fill="#4195e9"/><rect x="8" y="8" width="1" height="1" fill="#4195e9"/><rect x="9" y="8" width="1" height="1" fill="#0c3570"/><rect x="10" y="8" width="1" height="1" fill="#4195e9"/><rect x="11" y="8" width="1" height="1" fill="#0c3570"/><rect x="12" y="8" width="1" height="1" fill="#4195e9"/><rect x="13" y="8" width="1" height="1" fill="#4195e9"/><rect x="14" y="8" width="1" height="1" fill="#96d9f4"/><rect x="15" y="8" width="1" height="1" fill="#ffffff"/><rect x="16" y="8" width="1" height="1" fill="#ffffff"/><rect x="17" y="8" width="1" height="1" fill="#29323e"/><rect x="4" y="9" width="1" height="1" fill="#0c3570"/><rect x="5" y="9" width="1" height="1" fill="#96d9f4"/><rect x="6" y="9" width="1" height="1" fill="#4195e9"/><rect x="7" y="9" width="1" height="1" fill="#4195e9"/><rect x="8" y="9" width="1" height="1" fill="#4195e9"/><rect x="9" y="9" width="1" height="1" fill="#4195e9"/><rect x="10" y="9" width="1" height="1" fill="#0c3570"/><rect x="11" y="9" width="1" height="1" fill="#4195e9"/><rect x="12" y="9" width="1" height="1" fill="#0c3570"/><rect x="13" y="9" width="1" height="1" fill="#0c3570"/><rect x="14" y="9" width="1" height="1" fill="#0c3570"/><rect x="15" y="9" width="1" height="1" fill="#0c3570"/><rect x="16" y="9" width="1" height="1" fill="#4195e9"/><rect x="17" y="9" width="1" height="1" fill="#29323e"/><rect x="5" y="10" width="1" height="1" fill="#0c3570"/><rect x="6" y="10" width="1" height="1" fill="#4195e9"/><rect x="7" y="10" width="1" height="1" fill="#96d9f4"/><rect x="8" y="10" width="1" height="1" fill="#4195e9"/><rect x="9" y="10" width="1" height="1" fill="#4195e9"/><rect x="10" y="10" width="1" height="1" fill="#4195e9"/><rect x="11" y="10" width="1" height="1" fill="#4195e9"/><rect x="12" y="10" width="1" height="1" fill="#96d9f4"/><rect x="13" y="10" width="1" height="1" fill="#96d9f4"/><rect x="14" y="10" width="1" height="1" fill="#4195e9"/><rect x="15" y="10" width="1" height="1" fill="#29323e"/><rect x="16" y="10" width="1" height="1" fill="#29323e"/><rect x="5" y="11" width="1" height="1" fill="#0c3570"/><rect x="6" y="11" width="1" height="1" fill="#4195e9"/><rect x="7" y="11" width="1" height="1" fill="#4195e9"/><rect x="8" y="11" width="1" height="1" fill="#4195e9"/><rect x="9" y="11" width="1" height="1" fill="#4195e9"/><rect x="10" y="11" width="1" height="1" fill="#4195e9"/><rect x="11" y="11" width="1" height="1" fill="#4195e9"/><rect x="12" y="11" width="1" height="1" fill="#4195e9"/><rect x="13" y="11" width="1" height="1" fill="#0c3570"/><rect x="14" y="11" width="1" height="1" fill="#29323e"/><rect x="6" y="12" width="1" height="1" fill="#0c3570"/><rect x="7" y="12" width="1" height="1" fill="#4195e9"/><rect x="8" y="12" width="1" height="1" fill="#4195e9"/><rect x="9" y="12" width="1" height="1" fill="#4195e9"/><rect x="10" y="12" width="1" height="1" fill="#96d9f4"/><rect x="11" y="12" width="1" height="1" fill="#96d9f4"/><rect x="12" y="12" width="1" height="1" fill="#0064c6"/><rect x="13" y="12" width="1" height="1" fill="#0064c6"/><rect x="5" y="13" width="1" height="1" fill="#0064c6"/><rect x="6" y="13" width="1" height="1" fill="#4195e9"/><rect x="7" y="13" width="1" height="1" fill="#4195e9"/><rect x="8" y="13" width="1" height="1" fill="#0064c6"/><rect x="9" y="13" width="1" height="1" fill="#96d9f4"/><rect x="10" y="13" width="1" height="1" fill="#96d9f4"/><rect x="11" y="13" width="1" height="1" fill="#ffffff"/><rect x="12" y="13" width="1" height="1" fill="#ffffff"/><rect x="13" y="13" width="1" height="1" fill="#ffffff"/><rect x="14" y="13" width="1" height="1" fill="#0c3570"/><rect x="5" y="14" width="1" height="1" fill="#0064c6"/><rect x="6" y="14" width="1" height="1" fill="#96d9f4"/><rect x="7" y="14" width="1" height="1" fill="#96d9f4"/><rect x="8" y="14" width="1" height="1" fill="#0c3570"/><rect x="9" y="14" width="1" height="1" fill="#4195e9"/><rect x="10" y="14" width="1" height="1" fill="#96d9f4"/><rect x="11" y="14" width="1" height="1" fill="#ffffff"/><rect x="12" y="14" width="1" height="1" fill="#ffffff"/><rect x="13" y="14" width="1" height="1" fill="#ffffff"/><rect x="14" y="14" width="1" height="1" fill="#96d9f4"/><rect x="15" y="14" width="1" height="1" fill="#0064c6"/><rect x="5" y="15" width="1" height="1" fill="#0064c6"/><rect x="6" y="15" width="1" height="1" fill="#96d9f4"/><rect x="7" y="15" width="1" height="1" fill="#0c3570"/><rect x="9" y="15" width="1" height="1" fill="#0c3570"/><rect x="10" y="15" width="1" height="1" fill="#96d9f4"/><rect x="11" y="15" width="1" height="1" fill="#ffffff"/><rect x="12" y="15" width="1" height="1" fill="#ffffff"/><rect x="13" y="15" width="1" height="1" fill="#ffffff"/><rect x="14" y="15" width="1" height="1" fill="#ffffff"/><rect x="15" y="15" width="1" height="1" fill="#96d9f4"/><rect x="16" y="15" width="1" height="1" fill="#0064c6"/><rect x="3" y="16" width="1" height="1" fill="#0064c6"/><rect x="4" y="16" width="1" height="1" fill="#0064c6"/><rect x="5" y="16" width="1" height="1" fill="#0c3570"/><rect x="6" y="16" width="1" height="1" fill="#0c3570"/><rect x="9" y="16" width="1" height="1" fill="#0c3570"/><rect x="10" y="16" width="1" height="1" fill="#4195e9"/><rect x="11" y="16" width="1" height="1" fill="#96d9f4"/><rect x="12" y="16" width="1" height="1" fill="#ffffff"/><rect x="13" y="16" width="1" height="1" fill="#ffffff"/><rect x="14" y="16" width="1" height="1" fill="#ffffff"/><rect x="15" y="16" width="1" height="1" fill="#96d9f4"/><rect x="16" y="16" width="1" height="1" fill="#4195e9"/><rect x="17" y="16" width="1" height="1" fill="#0064c6"/><rect x="2" y="17" width="1" height="1" fill="#0064c6"/><rect x="3" y="17" width="1" height="1" fill="#96d9f4"/><rect x="4" y="17" width="1" height="1" fill="#ffffff"/><rect x="5" y="17" width="1" height="1" fill="#0064c6"/><rect x="6" y="17" width="1" height="1" fill="#0c3570"/><rect x="9" y="17" width="1" height="1" fill="#0c3570"/><rect x="10" y="17" width="1" height="1" fill="#0064c6"/><rect x="11" y="17" width="1" height="1" fill="#96d9f4"/><rect x="12" y="17" width="1" height="1" fill="#96d9f4"/><rect x="13" y="17" width="1" height="1" fill="#96d9f4"/><rect x="14" y="17" width="1" height="1" fill="#96d9f4"/><rect x="15" y="17" width="1" height="1" fill="#96d9f4"/><rect x="16" y="17" width="1" height="1" fill="#4195e9"/><rect x="17" y="17" width="1" height="1" fill="#0c3570"/><rect x="2" y="18" width="1" height="1" fill="#0c3570"/><rect x="3" y="18" width="1" height="1" fill="#0c3570"/><rect x="4" y="18" width="1" height="1" fill="#4195e9"/><rect x="5" y="18" width="1" height="1" fill="#96d9f4"/><rect x="6" y="18" width="1" height="1" fill="#0c3570"/><rect x="8" y="18" width="1" height="1" fill="#0c3570"/><rect x="9" y="18" width="1" height="1" fill="#0064c6"/><rect x="10" y="18" width="1" height="1" fill="#0064c6"/><rect x="11" y="18" width="1" height="1" fill="#96d9f4"/><rect x="12" y="18" width="1" height="1" fill="#96d9f4"/><rect x="13" y="18" width="1" height="1" fill="#96d9f4"/><rect x="14" y="18" width="1" height="1" fill="#96d9f4"/><rect x="15" y="18" width="1" height="1" fill="#96d9f4"/><rect x="16" y="18" width="1" height="1" fill="#4195e9"/><rect x="17" y="18" width="1" height="1" fill="#0c3570"/><rect x="3" y="19" width="1" height="1" fill="#0c3570"/><rect x="4" y="19" width="1" height="1" fill="#4195e9"/><rect x="5" y="19" width="1" height="1" fill="#4195e9"/><rect x="6" y="19" width="1" height="1" fill="#4195e9"/><rect x="7" y="19" width="1" height="1" fill="#0c3570"/><rect x="8" y="19" width="1" height="1" fill="#0064c6"/><rect x="9" y="19" width="1" height="1" fill="#4195e9"/><rect x="10" y="19" width="1" height="1" fill="#4195e9"/><rect x="11" y="19" width="1" height="1" fill="#96d9f4"/><rect x="12" y="19" width="1" height="1" fill="#96d9f4"/><rect x="13" y="19" width="1" height="1" fill="#96d9f4"/><rect x="14" y="19" width="1" height="1" fill="#96d9f4"/><rect x="15" y="19" width="1" height="1" fill="#4195e9"/><rect x="16" y="19" width="1" height="1" fill="#0c3570"/><rect x="2" y="20" width="1" height="1" fill="#0064c6"/><rect x="3" y="20" width="1" height="1" fill="#0064c6"/><rect x="4" y="20" width="1" height="1" fill="#0c3570"/><rect x="5" y="20" width="1" height="1" fill="#0064c6"/><rect x="6" y="20" width="1" height="1" fill="#0064c6"/><rect x="7" y="20" width="1" height="1" fill="#0064c6"/><rect x="8" y="20" width="1" height="1" fill="#0064c6"/><rect x="9" y="20" width="1" height="1" fill="#0064c6"/><rect x="10" y="20" width="1" height="1" fill="#0064c6"/><rect x="11" y="20" width="1" height="1" fill="#4195e9"/><rect x="12" y="20" width="1" height="1" fill="#4195e9"/><rect x="13" y="20" width="1" height="1" fill="#0064c6"/><rect x="14" y="20" width="1" height="1" fill="#0064c6"/><rect x="15" y="20" width="1" height="1" fill="#0c3570"/><rect x="16" y="20" width="1" height="1" fill="#4195e9"/><rect x="17" y="20" width="1" height="1" fill="#0064c6"/><rect x="1" y="21" width="1" height="1" fill="#0064c6"/><rect x="2" y="21" width="1" height="1" fill="#96d9f4"/><rect x="3" y="21" width="1" height="1" fill="#96d9f4"/><rect x="4" y="21" width="1" height="1" fill="#4195e9"/><rect x="5" y="21" width="1" height="1" fill="#4195e9"/><rect x="6" y="21" width="1" height="1" fill="#4195e9"/><rect x="7" y="21" width="1" height="1" fill="#4195e9"/><rect x="8" y="21" width="1" height="1" fill="#4195e9"/><rect x="9" y="21" width="1" height="1" fill="#4195e9"/><rect x="10" y="21" width="1" height="1" fill="#4195e9"/><rect x="11" y="21" width="1" height="1" fill="#4195e9"/><rect x="12" y="21" width="1" height="1" fill="#4195e9"/><rect x="13" y="21" width="1" height="1" fill="#4195e9"/><rect x="14" y="21" width="1" height="1" fill="#4195e9"/><rect x="15" y="21" width="1" height="1" fill="#4195e9"/><rect x="16" y="21" width="1" height="1" fill="#96d9f4"/><rect x="17" y="21" width="1" height="1" fill="#96d9f4"/><rect x="18" y="21" width="1" height="1" fill="#0064c6"/><rect x="2" y="22" width="1" height="1" fill="#0064c6"/><rect x="3" y="22" width="1" height="1" fill="#0c3570"/><rect x="4" y="22" width="1" height="1" fill="#96d9f4"/><rect x="5" y="22" width="1" height="1" fill="#96d9f4"/><rect x="6" y="22" width="1" height="1" fill="#96d9f4"/><rect x="7" y="22" width="1" height="1" fill="#96d9f4"/><rect x="8" y="22" width="1" height="1" fill="#96d9f4"/><rect x="9" y="22" width="1" height="1" fill="#96d9f4"/><rect x="10" y="22" width="1" height="1" fill="#ffffff"/><rect x="11" y="22" width="1" height="1" fill="#ffffff"/><rect x="12" y="22" width="1" height="1" fill="#ffffff"/><rect x="13" y="22" width="1" height="1" fill="#ffffff"/><rect x="14" y="22" width="1" height="1" fill="#ffffff"/><rect x="15" y="22" width="1" height="1" fill="#96d9f4"/><rect x="16" y="22" width="1" height="1" fill="#0c3570"/><rect x="17" y="22" width="1" height="1" fill="#0064c6"/><rect x="4" y="23" width="1" height="1" fill="#0064c6"/><rect x="5" y="23" width="1" height="1" fill="#0c3570"/><rect x="6" y="23" width="1" height="1" fill="#0c3570"/><rect x="7" y="23" width="1" height="1" fill="#0c3570"/><rect x="8" y="23" width="1" height="1" fill="#0c3570"/><rect x="9" y="23" width="1" height="1" fill="#0c3570"/><rect x="10" y="23" width="1" height="1" fill="#0c3570"/><rect x="11" y="23" width="1" height="1" fill="#0c3570"/><rect x="12" y="23" width="1" height="1" fill="#0c3570"/><rect x="13" y="23" width="1" height="1" fill="#0c3570"/><rect x="14" y="23" width="1" height="1" fill="#0c3570"/><rect x="15" y="23" width="1" height="1" fill="#0064c6"/></svg>