<svg version="1.1" xmlns="http://www.w3.org/2000/svg" xmlns:xlink="http://www.w3.org/1999/xlink" shape-rendering="crispEdges" width="24" height="24" viewBox="0 0 24 24"><g><path fill="rgb(75,65,57)" d="M0,0h24v1h-24ZM0,23h24v1h-24Z"/><path fill="rgb(210,142,68)" d="M0,1h24v2h-24ZM0,20h24v2h-24Z"/><path fill="rgb(150,100,90)" d="M0,3h24v1h-24ZM0,5h3v1h-3ZM4,5h3v1h-3ZM8,5h3v1h-3ZM12,5h3v1h-3ZM16,5h3v1h-3ZM20,5h3v1h-3ZM3,6h1v2h-1ZM7,6h1v6h-1ZM19,6h1v1h-1ZM15,7h1v1h-1ZM23,7h1v3h-1ZM11,8h1v1h-1ZM19,9h1v1h-1ZM3,10h1v2h-1ZM11,10h1v3h-1ZM19,11h1v2h-1ZM23,11h1v2h-1ZM3,13h1v5h-1ZM19,14h1v5h-1ZM7,15h1v1h-1ZM11,15h1v1h-1ZM23,15h1v4h-1ZM15,16h1v3h-1ZM11,17h1v2h-1ZM0,19h24v1h-24ZM0,22h24v1h-24Z"/><path fill="rgb(125,74,29)" d="M0,4h24v1h-24ZM3,5h1v1h-1ZM7,5h1v1h-1ZM11,5h1v3h-1ZM15,5h1v2h-1ZM19,5h1v1h-1ZM23,5h1v2h-1ZM11,9h1v1h-1ZM7,16h1v3h-1ZM3,18h1v1h-1Z"/><path fill="rgb(172,110,83)" d="M0,6h3v1h-3ZM4,6h3v1h-3ZM8,6h3v1h-3ZM12,6h3v1h-3ZM16,6h3v1h-3ZM20,6h3v1h-3ZM19,7h1v2h-1ZM3,8h1v2h-1ZM15,8h1v8h-1ZM19,10h1v1h-1ZM23,10h1v1h-1ZM3,12h1v1h-1ZM7,12h1v3h-1ZM11,13h1v2h-1ZM19,13h1v1h-1ZM23,13h1v2h-1ZM11,16h1v1h-1Z"/><path fill="rgb(192,120,76)" d="M0,7h3v12h-3ZM4,7h3v12h-3ZM8,7h3v12h-3ZM12,7h3v12h-3ZM16,7h3v12h-3ZM20,7h3v12h-3Z"/></g></svg>