<svg version="1.1" xmlns="http://www.w3.org/2000/svg" xmlns:xlink="http://www.w3.org/1999/xlink" shape-rendering="crispEdges" width="24" height="24" viewBox="0 0 24 24"><g><path fill="rgb(175,122,79)" d="M0,0h24v1h-24ZM0,1h10v1h-10ZM12,1h4v1h-4ZM17,1h7v1h-7ZM0,2h4v2h-4ZM5,2h6v1h-6ZM12,2h12v1h-12ZM6,3h18v1h-18ZM0,4h17v1h-17ZM18,4h2v1h-2ZM22,4h2v1h-2ZM0,5h20v1h-20ZM21,5h3v1h-3ZM0,6h4v1h-4ZM5,6h19v1h-19ZM0,7h24v1h-24ZM0,8h7v1h-7ZM8,8h8v1h-8ZM17,8h7v1h-7ZM0,9h24v1h-24ZM0,10h10v1h-10ZM12,10h4v1h-4ZM17,10h7v1h-7ZM0,11h21v1h-21ZM22,11h2v1h-2ZM0,12h2v1h-2ZM3,12h7v1h-7ZM11,12h5v1h-5ZM17,12h7v2h-7ZM0,13h9v1h-9ZM12,13h3v1h-3ZM0,14h17v1h-17ZM18,14h2v1h-2ZM22,14h2v1h-2ZM0,15h7v1h-7ZM8,15h12v1h-12ZM21,15h3v1h-3ZM0,16h16v1h-16ZM17,16h7v1h-7ZM0,17h24v1h-24ZM0,18h3v1h-3ZM4,18h20v1h-20ZM0,19h2v1h-2ZM4,19h2v1h-2ZM7,19h17v1h-17ZM0,20h12v1h-12ZM13,20h11v1h-11ZM0,21h21v1h-21ZM22,21h2v1h-2ZM0,22h24v2h-24Z"/><path fill="rgb(156,107,96)" d="M10,1h2v1h-2ZM4,2h1v2h-1ZM11,2h1v1h-1ZM17,4h1v1h-1ZM20,4h2v1h-2ZM4,6h1v1h-1ZM7,8h1v1h-1ZM16,8h1v1h-1ZM10,10h2v1h-2ZM16,10h1v1h-1ZM21,11h1v1h-1ZM2,12h1v1h-1ZM9,13h1v1h-1ZM11,13h1v1h-1ZM15,13h2v1h-2ZM17,14h1v1h-1ZM20,14h2v1h-2ZM7,15h1v1h-1ZM16,16h1v1h-1ZM2,19h2v1h-2ZM6,19h1v1h-1ZM12,20h1v1h-1ZM21,21h1v1h-1Z"/><path fill="rgb(194,138,61)" d="M16,1h1v1h-1ZM5,3h1v1h-1ZM20,5h1v1h-1ZM10,12h1v1h-1ZM16,12h1v1h-1ZM20,15h1v1h-1ZM3,18h1v1h-1Z"/><path fill="rgb(121,76,83)" d="M10,13h1v1h-1Z"/></g></svg>