<svg version="1.1" xmlns="http://www.w3.org/2000/svg" xmlns:xlink="http://www.w3.org/1999/xlink" shape-rendering="crispEdges" width="24" height="24" viewBox="0 0 24 24"><g><path fill="rgb(246,246,222)" d="M0,0h18v2h-18ZM20,1h2v2h-2ZM0,2h5v1h-5ZM16,2h2v2h-2ZM0,3h4v4h-4ZM8,3h7v1h-7ZM21,3h1v4h-1ZM7,4h8v3h-8ZM17,4h2v2h-2ZM18,6h1v3h-1ZM0,7h5v1h-5ZM8,7h8v1h-8ZM0,8h7v1h-7ZM11,8h5v1h-5ZM0,9h5v1h-5ZM9,9h2v1h-2ZM12,9h4v1h-4ZM18,9h2v1h-2ZM0,10h11v1h-11ZM14,10h2v1h-2ZM18,10h3v2h-3ZM0,11h8v1h-8ZM11,11h1v1h-1ZM0,12h14v1h-14ZM17,12h6v1h-6ZM0,13h24v1h-24ZM0,14h16v1h-16ZM19,14h5v1h-5ZM0,15h15v1h-15ZM16,15h2v1h-2ZM20,15h4v1h-4ZM0,16h17v1h-17ZM21,16h3v1h-3ZM0,17h24v7h-24Z"/><path fill="rgb(195,227,217)" d="M18,0h1v3h-1ZM22,1h1v7h-1ZM5,2h1v1h-1ZM15,2h1v1h-1ZM4,3h2v4h-2ZM7,3h1v1h-1ZM18,3h2v1h-2ZM16,4h1v2h-1ZM19,4h1v3h-1ZM16,6h2v1h-2ZM5,7h1v1h-1ZM17,7h1v5h-1ZM19,7h2v2h-2ZM5,9h2v1h-2ZM8,9h1v1h-1ZM20,9h1v1h-1ZM8,11h1v1h-1ZM12,11h1v1h-1ZM21,11h1v1h-1ZM14,12h3v1h-3ZM18,14h1v1h-1ZM19,15h1v1h-1ZM17,16h4v1h-4Z"/><path fill="rgb(53,168,198)" d="M19,0h1v1h-1ZM22,0h2v1h-2ZM6,6h1v1h-1ZM7,7h1v1h-1ZM8,8h1v1h-1ZM10,8h1v1h-1ZM7,9h1v1h-1ZM21,9h1v1h-1ZM12,10h1v1h-1ZM16,10h1v1h-1ZM22,10h2v1h-2ZM15,11h1v1h-1ZM17,14h1v1h-1ZM18,15h1v1h-1Z"/><path fill="rgb(145,209,212)" d="M20,0h2v1h-2ZM19,1h1v2h-1ZM23,1h1v7h-1ZM6,2h9v1h-9ZM6,3h1v3h-1ZM15,3h1v4h-1ZM20,3h1v4h-1ZM6,7h1v1h-1ZM16,7h1v3h-1ZM21,7h1v1h-1ZM7,8h1v1h-1ZM21,8h3v1h-3ZM22,9h2v1h-2ZM11,10h1v1h-1ZM9,11h2v1h-2ZM13,11h1v1h-1ZM16,11h1v1h-1ZM23,12h1v1h-1ZM16,14h1v1h-1ZM15,15h1v1h-1Z"/><path fill="rgb(64,83,151)" d="M9,8h1v1h-1ZM11,9h1v1h-1ZM13,10h1v1h-1ZM21,10h1v1h-1ZM14,11h1v1h-1ZM22,11h2v1h-2Z"/></g></svg>