<?xml version="1.0" encoding="utf-8"?>
<!-- generated at drububu.com  -->
<!DOCTYPE svg PUBLIC "-//W3C//DTD SVG 1.1//EN" "http://www.w3.org/Graphics/SVG/1.1/DTD/svg11.dtd">
<svg version="1.1" preserveAspectRatio="xMinYMin meet" xmlns="http://www.w3.org/2000/svg" x="0px" y="0px" width="24px"
     height="24px" viewBox="0 0 24 24">
<path d="M17 2h5v1h-5v-1z" fill="rgb(113,125,144)"/>
<path d="M16 3h1v1h-1v-1z" fill="rgb(51,60,87)"/>
<path d="M17 3h2v2h-1v1h-1v1h-1v-3h1v-1z" fill="rgb(255,255,255)"/>
<path d="M19 3h1v1h-1v-1z" fill="rgb(205,205,205)"/>
<path d="M20 3h1v1h-1v-1z" fill="rgb(151,160,179)"/>
<path d="M21 3h1v5h-1v1h-1v1h-1v1h-1v1h-1v1h-1v1h-1v1h-1v1h-3v-2h3v-1h1v-1h1v-1
	h1v-1h1v-1h1v-1h1v-1h1v-4z" fill="rgb(25,27,58)"/>
<path d="M15 4h1v1h-1v-1z" fill="rgb(51,60,87)"/>
<path d="M19 4h1v1h-1v-1z" fill="rgb(151,160,179)"/>
<path d="M20 4h1v3h-1v1h-1v-3h1v-1z" fill="rgb(205,205,205)"/>
<path d="M14 5h1v1h-1v-1z" fill="rgb(51,60,87)"/>
<path d="M15 5h1v2h1v-1h1v-1h1v4h-1v1h-1v1h-1v-3h-1v-3z" fill="rgb(151,160,179)"/>
<path d="M13 6h1v1h-1v-1z" fill="rgb(51,60,87)"/>
<path d="M14 6h1v3h-1v1h-3v-1h2v-2h1v-1z" fill="rgb(205,205,205)"/>
<path d="M12 7h1v1h-1v-1z" fill="rgb(51,60,87)"/>
<path d="M11 8h1v1h-1v-1z" fill="rgb(51,60,87)"/>
<path d="M12 8h1v1h-1v-1z" fill="rgb(113,125,144)"/>
<path d="M15 8h1v1h-1v-1z" fill="rgb(113,125,144)"/>
<path d="M3 9h1v5h-1v-5z" fill="rgb(0,0,0)"/>
<path d="M4 9h4v4h-1v-3h-3v-1z" fill="rgb(182,89,0)"/>
<path d="M10 9h1v1h-1v-1z" fill="rgb(51,60,87)"/>
<path d="M14 9h1v1h-1v-1z" fill="rgb(151,160,179)"/>
<path d="M15 9h1v3h-1v1h-1v-3h1v-1z" fill="rgb(205,205,205)"/>
<path d="M4 10h1v4h-1v-4z" fill="rgb(253,204,104)"/>
<path d="M5 10h1v1h-1v-1z" fill="rgb(235,160,57)"/>
<path d="M6 10h1v3h2v1h-3v-4z" fill="rgb(253,204,104)"/>
<path d="M9 10h1v3h-2v-1h1v-2z" fill="rgb(51,60,87)"/>
<path d="M10 10h4v4h-1v-3h-3v-1z" fill="rgb(151,160,179)"/>
<path d="M5 11h1v3h-1v-3z" fill="rgb(182,89,0)"/>
<path d="M10 11h3v3h-2v1h-1v-1h-1v-1h1v-2z" fill="rgb(113,125,144)"/>
<path d="M3 14h1v1h-1v-1z" fill="rgb(25,27,58)"/>
<path d="M4 14h1v1h-1v-1z" fill="rgb(0,0,0)"/>
<path d="M5 14h1v1h-1v-1z" fill="rgb(253,204,104)"/>
<path d="M6 14h1v1h-1v-1z" fill="rgb(182,89,0)"/>
<path d="M7 14h2v1h-2v-1z" fill="rgb(235,160,57)"/>
<path d="M9 14h1v1h-1v-1z" fill="rgb(253,204,104)"/>
<path d="M4 15h1v1h-1v-1z" fill="rgb(25,27,58)"/>
<path d="M5 15h1v2h-1v-2z" fill="rgb(0,0,0)"/>
<path d="M6 15h1v2h-1v-2z" fill="rgb(253,204,104)"/>
<path d="M7 15h2v2h-2v-2z" fill="rgb(152,77,66)"/>
<path d="M9 15h1v2h-1v-2z" fill="rgb(235,160,57)"/>
<path d="M10 15h1v2h3v1h-4v-3z" fill="rgb(253,204,104)"/>
<path d="M11 16h4v1h-4v-1z" fill="rgb(182,89,0)"/>
<path d="M3 17h2v1h-2v-1z" fill="rgb(0,0,0)"/>
<path d="M5 17h2v2h-1v1h-2v-2h1v-1z" fill="rgb(233,13,88)"/>
<path d="M7 17h2v1h-2v-1z" fill="rgb(253,204,104)"/>
<path d="M9 17h1v1h-1v-1z" fill="rgb(182,89,0)"/>
<path d="M14 17h1v3h-1v-3z" fill="rgb(152,77,66)"/>
<path d="M2 18h1v2h-1v-2z" fill="rgb(0,0,0)"/>
<path d="M3 18h1v1h-1v-1z" fill="rgb(182,89,0)"/>
<path d="M7 18h2v1h-2v-1z" fill="rgb(0,0,0)"/>
<path d="M9 18h1v1h-1v-1z" fill="rgb(253,204,104)"/>
<path d="M10 18h3v1h-3v-1z" fill="rgb(182,89,0)"/>
<path d="M13 18h1v1h-1v-1z" fill="rgb(235,160,57)"/>
<path d="M3 19h1v1h-1v-1z" fill="rgb(253,204,104)"/>
<path d="M6 19h1v2h-1v-2z" fill="rgb(0,0,0)"/>
<path d="M7 19h2v1h-2v-1z" fill="rgb(25,27,58)"/>
<path d="M9 19h1v1h-1v-1z" fill="rgb(0,0,0)"/>
<path d="M10 19h4v1h-4v-1z" fill="rgb(253,204,104)"/>
<path d="M2 20h1v1h-1v-1z" fill="rgb(25,27,58)"/>
<path d="M3 20h1v1h-1v-1z" fill="rgb(235,160,57)"/>
<path d="M4 20h1v1h-1v-1z" fill="rgb(253,204,104)"/>
<path d="M5 20h1v1h-1v-1z" fill="rgb(182,89,0)"/>
<path d="M9 20h1v1h-1v-1z" fill="rgb(25,27,58)"/>
<path d="M10 20h5v1h-5v-1z" fill="rgb(0,0,0)"/>
<path d="M3 21h1v1h-1v-1z" fill="rgb(25,27,58)"/>
<path d="M4 21h2v1h-2v-1z" fill="rgb(0,0,0)"/>
<path d="M6 21h1v1h-1v-1z" fill="rgb(25,27,58)"/>
<path d="M10 21h5v1h-5v-1z" fill="rgb(25,27,58)"/>
<path d="M4 22h2v1h-2v-1z" fill="rgb(25,27,58)"/>
</svg>
