<?xml version="1.0" encoding="utf-8"?>
<!-- generated at drububu.com  -->
<!DOCTYPE svg PUBLIC "-//W3C//DTD SVG 1.1//EN" "http://www.w3.org/Graphics/SVG/1.1/DTD/svg11.dtd">
<svg version="1.1" preserveAspectRatio="xMinYMin meet" xmlns="http://www.w3.org/2000/svg" x="0px" y="0px" width="24px"
     height="24px" viewBox="0 0 24 24">
<path d="M9 1h1v1h-1v-1z" fill="rgb(0,116,107)"/>
<path d="M10 1h4v1h-4v-1z" fill="rgb(0,156,145)"/>
<path d="M14 1h1v1h-1v-1z" fill="rgb(0,116,107)"/>
<path d="M7 2h1v1h-1v-1z" fill="rgb(0,116,107)"/>
<path d="M8 2h1v1h-1v-1z" fill="rgb(0,156,145)"/>
<path d="M9 2h6v2h-1v-1h-3v1h-3v1h-1v3h-1v-2h-1v-1h1v-1h1v-1h2v-1z" fill="rgb(125,202,175)"/>
<path d="M15 2h1v1h-1v-1z" fill="rgb(0,156,145)"/>
<path d="M16 2h1v1h-1v-1z" fill="rgb(0,116,107)"/>
<path d="M6 3h1v1h-1v-1z" fill="rgb(0,156,145)"/>
<path d="M11 3h3v1h2v1h-2v3h-1v-3h-1v-1h-1v-1z" fill="rgb(0,156,145)"/>
<path d="M15 3h1v1h-1v-1z" fill="rgb(188,225,190)"/>
<path d="M16 3h1v1h-1v-1z" fill="rgb(250,248,204)"/>
<path d="M17 3h1v1h-1v-1z" fill="rgb(0,156,145)"/>
<path d="M5 4h1v1h-1v-1z" fill="rgb(0,156,145)"/>
<path d="M8 4h3v1h-3v-1z" fill="rgb(188,225,190)"/>
<path d="M11 4h1v1h-1v-1z" fill="rgb(125,202,175)"/>
<path d="M16 4h1v1h-1v-1z" fill="rgb(125,202,175)"/>
<path d="M17 4h1v1h-1v-1z" fill="rgb(250,248,204)"/>
<path d="M18 4h1v1h-1v-1z" fill="rgb(0,156,145)"/>
<path d="M4 5h1v1h-1v-1z" fill="rgb(0,156,145)"/>
<path d="M7 5h1v3h-1v-3z" fill="rgb(188,225,190)"/>
<path d="M8 5h3v3h-3v-3z" fill="rgb(250,248,204)"/>
<path d="M11 5h1v3h-1v-3z" fill="rgb(188,225,190)"/>
<path d="M12 5h1v3h-1v-3z" fill="rgb(125,202,175)"/>
<path d="M14 5h4v1h1v2h1v2h-1v2h-2v-1h-1v1h-2v1h-1v1h-1v-3h1v-1h1v-5z" fill="rgb(57,181,74)"/>
<path d="M18 5h1v1h-1v-1z" fill="rgb(188,225,190)"/>
<path d="M19 5h1v1h-1v-1z" fill="rgb(0,156,145)"/>
<path d="M3 6h1v1h-1v-1z" fill="rgb(0,116,107)"/>
<path d="M4 6h1v2h-1v-2z" fill="rgb(125,202,175)"/>
<path d="M5 6h1v1h-1v-1z" fill="rgb(57,181,74)"/>
<path d="M19 6h1v2h-1v-2z" fill="rgb(172,211,115)"/>
<path d="M20 6h1v1h-1v-1z" fill="rgb(0,116,107)"/>
<path d="M3 7h1v1h-1v-1z" fill="rgb(0,156,145)"/>
<path d="M5 7h1v1h1v1h1v1h3v-1h1v-1h1v3h-1v2h-1v2h2v-1h1v-1h2v-1h1v1h2v-1h1v2
	h-3v1h-3v2h1v2h-2v-1h-2v-1h-5v-1h2v-1h1v-2h-3v-3h-2v-2h1v-1z" fill="rgb(0,156,145)"/>
<path d="M20 7h1v1h-1v-1z" fill="rgb(0,156,145)"/>
<path d="M2 8h1v1h-1v-1z" fill="rgb(0,116,107)"/>
<path d="M3 8h1v1h-1v-1z" fill="rgb(125,202,175)"/>
<path d="M7 8h1v1h-1v-1z" fill="rgb(125,202,175)"/>
<path d="M8 8h3v1h-3v-1z" fill="rgb(188,225,190)"/>
<path d="M11 8h1v1h-1v-1z" fill="rgb(125,202,175)"/>
<path d="M13 8h1v2h-1v-2z" fill="rgb(0,116,107)"/>
<path d="M20 8h1v3h-1v-3z" fill="rgb(172,211,115)"/>
<path d="M21 8h1v1h-1v-1z" fill="rgb(0,116,107)"/>
<path d="M2 9h1v4h-1v-4z" fill="rgb(0,156,145)"/>
<path d="M3 9h1v5h-1v-5z" fill="rgb(172,211,115)"/>
<path d="M8 9h3v1h-3v-1z" fill="rgb(125,202,175)"/>
<path d="M21 9h1v4h-1v-4z" fill="rgb(0,156,145)"/>
<path d="M4 10h2v2h-1v1h-1v-3z" fill="rgb(57,181,74)"/>
<path d="M19 10h1v2h-1v-2z" fill="rgb(0,116,107)"/>
<path d="M16 11h1v1h-1v-1z" fill="rgb(0,116,107)"/>
<path d="M20 11h1v3h-1v-3z" fill="rgb(125,202,175)"/>
<path d="M5 12h1v3h-1v-1h-1v-1h1v-1z" fill="rgb(0,116,107)"/>
<path d="M14 12h2v1h-2v-1z" fill="rgb(0,116,107)"/>
<path d="M17 12h2v1h-2v-1z" fill="rgb(0,116,107)"/>
<path d="M2 13h1v1h-1v-1z" fill="rgb(0,116,107)"/>
<path d="M6 13h2v2h-2v-2z" fill="rgb(57,181,74)"/>
<path d="M8 13h1v2h-1v-2z" fill="rgb(0,116,107)"/>
<path d="M11 13h1v1h1v1h-2v-2z" fill="rgb(0,116,107)"/>
<path d="M13 13h1v1h-1v-1z" fill="rgb(0,116,107)"/>
<path d="M21 13h1v1h-1v-1z" fill="rgb(0,116,107)"/>
<path d="M2 14h1v2h-1v-2z" fill="rgb(25,27,58)"/>
<path d="M3 14h1v2h-1v-2z" fill="rgb(0,156,145)"/>
<path d="M4 14h1v2h-1v-2z" fill="rgb(125,202,175)"/>
<path d="M17 14h2v2h-1v-1h-1v-1z" fill="rgb(57,181,74)"/>
<path d="M19 14h1v2h-1v-2z" fill="rgb(172,211,115)"/>
<path d="M20 14h1v1h-1v-1z" fill="rgb(0,156,145)"/>
<path d="M21 14h1v2h-1v-2z" fill="rgb(25,27,58)"/>
<path d="M5 15h1v1h-1v-1z" fill="rgb(0,156,145)"/>
<path d="M6 15h2v1h-2v-1z" fill="rgb(0,116,107)"/>
<path d="M14 15h1v2h-1v-2z" fill="rgb(0,116,107)"/>
<path d="M15 15h1v1h-1v-1z" fill="rgb(57,181,74)"/>
<path d="M16 15h1v1h-1v-1z" fill="rgb(188,225,190)"/>
<path d="M17 15h1v1h-1v-1z" fill="rgb(125,202,175)"/>
<path d="M20 15h1v1h-1v-1z" fill="rgb(0,116,107)"/>
<path d="M3 16h1v1h1v1h1v1h1v1h2v1h6v-1h2v-1h1v-1h1v-1h1v-1h1v2h-1v1h-1v1h-1v1
	h-1v1h-2v1h-6v-1h-2v-1h-1v-1h-1v-1h-1v-1h-1v-2z" fill="rgb(25,27,58)"/>
<path d="M4 16h1v1h-1v-1z" fill="rgb(0,156,145)"/>
<path d="M5 16h1v1h-1v-1z" fill="rgb(188,225,190)"/>
<path d="M15 16h1v2h-1v-2z" fill="rgb(188,225,190)"/>
<path d="M16 16h2v1h-1v1h-1v-2z" fill="rgb(250,248,204)"/>
<path d="M18 16h1v1h-1v-1z" fill="rgb(188,225,190)"/>
<path d="M19 16h1v1h-1v-1z" fill="rgb(0,156,145)"/>
<path d="M5 17h1v1h-1v-1z" fill="rgb(0,156,145)"/>
<path d="M6 17h1v1h-1v-1z" fill="rgb(188,225,190)"/>
<path d="M7 17h4v1h-4v-1z" fill="rgb(125,202,175)"/>
<path d="M17 17h1v1h-1v-1z" fill="rgb(188,225,190)"/>
<path d="M18 17h1v1h-1v-1z" fill="rgb(0,156,145)"/>
<path d="M6 18h1v1h-1v-1z" fill="rgb(0,156,145)"/>
<path d="M7 18h1v1h-1v-1z" fill="rgb(188,225,190)"/>
<path d="M8 18h3v1h2v1h-3v-1h-2v-1z" fill="rgb(250,248,204)"/>
<path d="M11 18h1v1h-1v-1z" fill="rgb(188,225,190)"/>
<path d="M12 18h1v1h-1v-1z" fill="rgb(125,202,175)"/>
<path d="M15 18h1v1h-1v-1z" fill="rgb(125,202,175)"/>
<path d="M16 18h1v1h-1v-1z" fill="rgb(188,225,190)"/>
<path d="M17 18h1v1h-1v-1z" fill="rgb(0,156,145)"/>
<path d="M7 19h1v1h-1v-1z" fill="rgb(0,116,107)"/>
<path d="M8 19h1v1h-1v-1z" fill="rgb(0,156,145)"/>
<path d="M9 19h1v1h-1v-1z" fill="rgb(188,225,190)"/>
<path d="M13 19h1v1h-1v-1z" fill="rgb(188,225,190)"/>
<path d="M14 19h1v1h-1v-1z" fill="rgb(172,211,115)"/>
<path d="M15 19h1v1h-1v-1z" fill="rgb(0,156,145)"/>
<path d="M16 19h1v1h-1v-1z" fill="rgb(0,116,107)"/>
<path d="M9 20h1v1h-1v-1z" fill="rgb(0,116,107)"/>
<path d="M10 20h4v1h-4v-1z" fill="rgb(0,156,145)"/>
<path d="M14 20h1v1h-1v-1z" fill="rgb(0,116,107)"/>
</svg>
