<svg viewBox="0 0 24 24" xmlns="http://www.w3.org/2000/svg">
    <path fill="#ffffff" stroke="#ffffff" stroke-linecap="round" stroke-linejoin="round" stroke-width="0.25" d="M23.5,9.4l-0.2-0.9c-0.3-1-1.1-1.6-2.1-1.6c-0.2,0-0.4,0-0.6,0.1l-1.1,0.3c-0.3-0.5-0.6-0.9-1-1.3l0.4-0.8
			c0.3-0.5,0.4-1.1,0.2-1.7c-0.2-0.6-0.5-1-1-1.3l-0.8-0.4c-0.3-0.2-0.7-0.3-1.1-0.3c-0.8,0-1.5,0.4-1.9,1.1L14,3.3
			c-0.5-0.1-1.1-0.2-1.6-0.2L12,2c-0.3-1-1.1-1.6-2.1-1.6c-0.2,0-0.4,0-0.6,0.1L8.5,0.7c-0.6,0.2-1,0.5-1.3,1C6.9,2.2,6.8,2.8,7,3.4
			l0.3,1.1C6.8,4.8,6.4,5.1,6,5.5L5.3,5C5,4.9,4.6,4.7,4.2,4.7c-0.8,0-1.5,0.4-1.9,1.1L1.9,6.6C1.6,7.1,1.5,7.7,1.7,8.3s0.5,1,1,1.3
			L3.4,10c-0.1,0.5-0.2,1.1-0.2,1.6L2,11.9c-0.6,0.2-1,0.5-1.3,1S0.3,14,0.5,14.6l0.2,0.9c0.3,1,1.1,1.6,2.1,1.6
			c0.2,0,0.4,0,0.6-0.1l1.2-0.3c0.3,0.4,0.6,0.9,1,1.3l-0.4,0.7c-0.3,0.5-0.4,1.1-0.2,1.7c0.1,0.6,0.5,1,1,1.3l0.8,0.4
			c0.3,0.2,0.7,0.3,1.1,0.3c0.8,0,1.5-0.4,1.9-1.1l0.4-0.7c0.5,0.1,1,0.2,1.6,0.2L12,22c0.3,1,1.1,1.6,2.1,1.6c0.2,0,0.4,0,0.6-0.1
			l0.9-0.2c1.2-0.3,1.8-1.5,1.5-2.7l-0.3-1.2c0.4-0.3,0.9-0.6,1.3-1l0.7,0.4c0.3,0.2,0.7,0.3,1.1,0.3c0.8,0,1.5-0.4,1.9-1.1l0.4-0.8
			c0.3-0.5,0.4-1.1,0.2-1.7c-0.1-0.6-0.5-1-1-1.3l-0.7-0.4c0.1-0.5,0.2-1,0.2-1.6l1.1-0.3c0.6-0.2,1-0.5,1.3-1
			C23.5,10.5,23.6,10,23.5,9.4z M22.5,10.6c-0.2,0.3-0.5,0.5-0.8,0.6L20,11.7V12c0,0.7-0.1,1.3-0.3,2l-0.1,0.3l1.3,0.7
			c0.3,0.2,0.5,0.5,0.6,0.8c0.1,0.4,0,0.7-0.1,1L21,17.7c-0.2,0.4-0.7,0.7-1.2,0.7c-0.2,0-0.5-0.1-0.7-0.2l-1.3-0.7l-0.2,0.2
			c-0.5,0.5-1,0.9-1.6,1.2l-0.3,0.2l0.5,1.8c0.2,0.7-0.2,1.5-1,1.7l-0.9,0.2c-0.1,0-0.2,0-0.4,0c-0.6,0-1.2-0.4-1.3-1L12.3,20H12
			c-0.7,0-1.3-0.1-2-0.3l-0.3-0.1L9,20.9c-0.2,0.4-0.7,0.7-1.2,0.7c-0.2,0-0.5-0.1-0.7-0.2L6.4,21c-0.3-0.2-0.5-0.5-0.6-0.8
			c-0.1-0.4,0-0.7,0.1-1l0.7-1.3l-0.2-0.2c-0.5-0.5-0.9-1-1.2-1.6L5,15.7l-1.8,0.5c-0.1,0-0.2,0-0.4,0c-0.6,0-1.2-0.4-1.3-1
			l-0.2-0.9c-0.1-0.4,0-0.7,0.1-1c0.2-0.3,0.5-0.5,0.8-0.6L4,12.2v-0.3c0-0.7,0.1-1.3,0.3-2l0.1-0.3L3.1,8.9
			C2.8,8.7,2.6,8.4,2.5,8.1c-0.1-0.4,0-0.7,0.1-1L3,6.3c0.2-0.4,0.7-0.7,1.2-0.7c0.2,0,0.5,0.1,0.7,0.2l1.3,0.7l0.2-0.2
			C6.9,5.8,7.4,5.4,8,5l0.3-0.2L7.8,3.2c-0.1-0.4,0-0.7,0.1-1c0.2-0.3,0.5-0.5,0.8-0.6l0.9-0.2c0.7-0.2,1.5,0.3,1.7,1l0.4,1.4
			l0.1,0.3H12c0.7,0,1.4,0.1,2,0.3l0.3,0.1L15.1,3c0.2-0.4,0.7-0.7,1.2-0.7c0.2,0,0.5,0.1,0.7,0.2l0.8,0.4c0.3,0.2,0.5,0.5,0.6,0.8
			c0.1,0.4,0,0.7-0.1,1L17.6,6l0.2,0.2c0.5,0.5,0.9,1.1,1.3,1.7l0.2,0.3L21,7.7c0.7-0.2,1.5,0.3,1.7,1l0.2,0.9
			C22.8,10,22.7,10.3,22.5,10.6z M12,7.3c-2.6,0-4.7,2.1-4.7,4.7s2.1,4.7,4.7,4.7s4.7-2.1,4.7-4.7S14.6,7.3,12,7.3z M12,15.9
			c-2.1,0-3.9-1.8-3.9-3.9c0-2.2,1.7-3.9,3.9-3.9s3.9,1.8,3.9,3.9C15.9,14.2,14.1,15.9,12,15.9z"/>
    <path fill="#ffffff" stroke="#ffffff" stroke-linecap="round" stroke-linejoin="round" stroke-width="0.25" d="M23.5,9.4l-0.2-0.9c-0.3-1-1.1-1.6-2.1-1.6c-0.2,0-0.4,0-0.6,0.1l-1.1,0.3c-0.3-0.5-0.6-0.9-1-1.3l0.4-0.8
			c0.3-0.5,0.4-1.1,0.2-1.7c-0.2-0.6-0.5-1-1-1.3l-0.8-0.4c-0.3-0.2-0.7-0.3-1.1-0.3c-0.8,0-1.5,0.4-1.9,1.1L14,3.3
			c-0.5-0.1-1.1-0.2-1.6-0.2L12,2c-0.3-1-1.1-1.6-2.1-1.6c-0.2,0-0.4,0-0.6,0.1L8.5,0.7c-0.6,0.2-1,0.5-1.3,1C6.9,2.2,6.8,2.8,7,3.4
			l0.3,1.1C6.8,4.8,6.4,5.1,6,5.5L5.3,5C5,4.9,4.6,4.7,4.2,4.7c-0.8,0-1.5,0.4-1.9,1.1L1.9,6.6C1.6,7.1,1.5,7.7,1.7,8.3s0.5,1,1,1.3
			L3.4,10c-0.1,0.5-0.2,1.1-0.2,1.6L2,11.9c-0.6,0.2-1,0.5-1.3,1S0.3,14,0.5,14.6l0.2,0.9c0.3,1,1.1,1.6,2.1,1.6
			c0.2,0,0.4,0,0.6-0.1l1.2-0.3c0.3,0.4,0.6,0.9,1,1.3l-0.4,0.7c-0.3,0.5-0.4,1.1-0.2,1.7c0.1,0.6,0.5,1,1,1.3l0.8,0.4
			c0.3,0.2,0.7,0.3,1.1,0.3c0.8,0,1.5-0.4,1.9-1.1l0.4-0.7c0.5,0.1,1,0.2,1.6,0.2L12,22c0.3,1,1.1,1.6,2.1,1.6c0.2,0,0.4,0,0.6-0.1
			l0.9-0.2c1.2-0.3,1.8-1.5,1.5-2.7l-0.3-1.2c0.4-0.3,0.9-0.6,1.3-1l0.7,0.4c0.3,0.2,0.7,0.3,1.1,0.3c0.8,0,1.5-0.4,1.9-1.1l0.4-0.8
			c0.3-0.5,0.4-1.1,0.2-1.7c-0.1-0.6-0.5-1-1-1.3l-0.7-0.4c0.1-0.5,0.2-1,0.2-1.6l1.1-0.3c0.6-0.2,1-0.5,1.3-1
			C23.5,10.5,23.6,10,23.5,9.4z M22.5,10.6c-0.2,0.3-0.5,0.5-0.8,0.6L20,11.7V12c0,0.7-0.1,1.3-0.3,2l-0.1,0.3l1.3,0.7
			c0.3,0.2,0.5,0.5,0.6,0.8c0.1,0.4,0,0.7-0.1,1L21,17.7c-0.2,0.4-0.7,0.7-1.2,0.7c-0.2,0-0.5-0.1-0.7-0.2l-1.3-0.7l-0.2,0.2
			c-0.5,0.5-1,0.9-1.6,1.2l-0.3,0.2l0.5,1.8c0.2,0.7-0.2,1.5-1,1.7l-0.9,0.2c-0.1,0-0.2,0-0.4,0c-0.6,0-1.2-0.4-1.3-1L12.3,20H12
			c-0.7,0-1.3-0.1-2-0.3l-0.3-0.1L9,20.9c-0.2,0.4-0.7,0.7-1.2,0.7c-0.2,0-0.5-0.1-0.7-0.2L6.4,21c-0.3-0.2-0.5-0.5-0.6-0.8
			c-0.1-0.4,0-0.7,0.1-1l0.7-1.3l-0.2-0.2c-0.5-0.5-0.9-1-1.2-1.6L5,15.7l-1.8,0.5c-0.1,0-0.2,0-0.4,0c-0.6,0-1.2-0.4-1.3-1
			l-0.2-0.9c-0.1-0.4,0-0.7,0.1-1c0.2-0.3,0.5-0.5,0.8-0.6L4,12.2v-0.3c0-0.7,0.1-1.3,0.3-2l0.1-0.3L3.1,8.9
			C2.8,8.7,2.6,8.4,2.5,8.1c-0.1-0.4,0-0.7,0.1-1L3,6.3c0.2-0.4,0.7-0.7,1.2-0.7c0.2,0,0.5,0.1,0.7,0.2l1.3,0.7l0.2-0.2
			C6.9,5.8,7.4,5.4,8,5l0.3-0.2L7.8,3.2c-0.1-0.4,0-0.7,0.1-1c0.2-0.3,0.5-0.5,0.8-0.6l0.9-0.2c0.7-0.2,1.5,0.3,1.7,1l0.4,1.4
			l0.1,0.3H12c0.7,0,1.4,0.1,2,0.3l0.3,0.1L15.1,3c0.2-0.4,0.7-0.7,1.2-0.7c0.2,0,0.5,0.1,0.7,0.2l0.8,0.4c0.3,0.2,0.5,0.5,0.6,0.8
			c0.1,0.4,0,0.7-0.1,1L17.6,6l0.2,0.2c0.5,0.5,0.9,1.1,1.3,1.7l0.2,0.3L21,7.7c0.7-0.2,1.5,0.3,1.7,1l0.2,0.9
			C22.8,10,22.7,10.3,22.5,10.6z M12,7.3c-2.6,0-4.7,2.1-4.7,4.7s2.1,4.7,4.7,4.7s4.7-2.1,4.7-4.7S14.6,7.3,12,7.3z M12,15.9
			c-2.1,0-3.9-1.8-3.9-3.9c0-2.2,1.7-3.9,3.9-3.9s3.9,1.8,3.9,3.9C15.9,14.2,14.1,15.9,12,15.9z"/>
</svg>
