<svg viewBox="0 0 128 128" xmlns="http://www.w3.org/2000/svg">
  <path fill="#212121" d="m33.772 55.509c-0.4167 0-1.101 0.2515-1.4034 0.5658l-13.472 13.753c-0.60451 0.6108-0.60361 1.3626 0 1.9652l21.177 20.113 13.753 13.754c0.3054 0.305 0.70589 0.557 1.1227 0.557 0.3081 0 0.60001-0.323 0.8416-0.557l13.753-13.473 43.506-43.506c0.612-0.60181 0.61002-1.641 0-2.2455l-13.754-13.753c-0.61099-0.6018-1.362-0.61079-1.965 0l-42.382 42.382-20.054-18.99c-0.3027-0.3054-0.70601-0.5658-1.1227-0.5658h3.97e-4z"/>
</svg>
